<svg xmlns='http://www.w3.org/2000/svg' xmlns:xlink='http://www.w3.org/1999/xlink' width='478' height='309'>
        <g transform='translate(-55.5, -139.2)'>             <defs xmlns="http://www.w3.org/2000/svg" xmlns:xlink="http://www.w3.org/1999/xlink"/><g xmlns="http://www.w3.org/2000/svg" xmlns:xlink="http://www.w3.org/1999/xlink" transform="translate(97.5, 205)"><path d="M 0,0 L 2.6942229581241772e-15,-44 L 10.345020440347527,-14.238699100999076 Z" fill="rgb(63, 98, 135)" style="filter: none;"/><path d="M 0,0 L 10.345020440347527,-14.238699100999076 L 41.84648671698675,-13.596747752497686 Z" fill="rgb(97, 150, 207)" style="filter: none;"/><path d="M 0,0 L 41.84648671698675,-13.596747752497686 L 16.738594686794702,5.438699100999075 Z" fill="rgb(63, 98, 135)" style="filter: none;"/><path d="M 0,0 L 16.738594686794702,5.438699100999075 L 25.862551100868817,35.59674775249769 Z" fill="rgb(97, 150, 207)" style="filter: none;"/><path d="M 0,0 L 25.862551100868817,35.59674775249769 L 1.077689183249671e-15,17.6 Z" fill="rgb(63, 98, 135)" style="filter: none;"/><path d="M 0,0 L 1.077689183249671e-15,17.6 L -25.862551100868814,35.59674775249769 Z" fill="rgb(97, 150, 207)" style="filter: none;"/><path d="M 0,0 L -25.862551100868814,35.59674775249769 L -16.738594686794702,5.438699100999076 Z" fill="rgb(63, 98, 135)" style="filter: none;"/><path d="M 0,0 L -16.738594686794702,5.438699100999076 L -41.84648671698676,-13.59674775249768 Z" fill="rgb(97, 150, 207)" style="filter: none;"/><path d="M 0,0 L -41.84648671698676,-13.59674775249768 L -10.34502044034753,-14.238699100999074 Z" fill="rgb(63, 98, 135)" style="filter: none;"/><path d="M 0,0 L -10.34502044034753,-14.238699100999074 L 2.6942229581241772e-15,-44 Z" fill="rgb(97, 150, 207)" style="filter: none;"/><text x="0" y="-54" text-anchor="middle" style="font-family: Arial; font-size: 16px; font-weight: 500; fill: rgb(65, 65, 65);">South Park</text><text x="0" y="49" text-anchor="middle" dominant-baseline="hanging" style="font-family: Arial; font-size: 12px; font-weight: 400; fill: rgb(65, 65, 65);">41.8 %</text></g><g xmlns="http://www.w3.org/2000/svg" xmlns:xlink="http://www.w3.org/1999/xlink" transform="translate(232.5, 205)"><path d="M 0,0 L 2.4688741352364242e-15,-40.31977443545928 L 9.479747515568818,-13.047753091060445 Z" fill="rgb(63, 98, 135)" style="filter: none;"/><path d="M 0,0 L 9.479747515568818,-13.047753091060445 L 38.34638421239429,-12.459495509921467 Z" fill="rgb(97, 150, 207)" style="filter: none;"/><path d="M 0,0 L 38.34638421239429,-12.459495509921467 L 15.338553684957718,4.983798203968588 Z" fill="rgb(63, 98, 135)" style="filter: none;"/><path d="M 0,0 L 15.338553684957718,4.983798203968588 L 23.69936878892204,32.61938272765111 Z" fill="rgb(97, 150, 207)" style="filter: none;"/><path d="M 0,0 L 23.69936878892204,32.61938272765111 L 9.875496540945698e-16,16.127909774183713 Z" fill="rgb(63, 98, 135)" style="filter: none;"/><path d="M 0,0 L 9.875496540945698e-16,16.127909774183713 L -23.699368788922037,32.61938272765111 Z" fill="rgb(97, 150, 207)" style="filter: none;"/><path d="M 0,0 L -23.699368788922037,32.61938272765111 L -15.338553684957718,4.98379820396859 Z" fill="rgb(63, 98, 135)" style="filter: none;"/><path d="M 0,0 L -15.338553684957718,4.98379820396859 L -38.3463842123943,-12.459495509921464 Z" fill="rgb(97, 150, 207)" style="filter: none;"/><path d="M 0,0 L -38.3463842123943,-12.459495509921464 L -9.47974751556882,-13.047753091060443 Z" fill="rgb(63, 98, 135)" style="filter: none;"/><path d="M 0,0 L -9.47974751556882,-13.047753091060443 L 2.4688741352364242e-15,-40.31977443545928 Z" fill="rgb(97, 150, 207)" style="filter: none;"/><text x="0" y="-54" text-anchor="middle" style="font-family: Arial; font-size: 16px; font-weight: 500; fill: rgb(65, 65, 65);">Eastside</text><text x="0" y="45.31977443545928" text-anchor="middle" dominant-baseline="hanging" style="font-family: Arial; font-size: 12px; font-weight: 400; fill: rgb(65, 65, 65);">35.1 %</text></g><g xmlns="http://www.w3.org/2000/svg" xmlns:xlink="http://www.w3.org/1999/xlink" transform="translate(367.5, 205)"><path d="M 0,0 L 2.2285809212081234e-15,-36.39548844221449 L 8.557092542525934,-11.777827467331404 Z" fill="rgb(63, 98, 135)" style="filter: none;"/><path d="M 0,0 L 8.557092542525934,-11.777827467331404 L 34.61416644671304,-11.24682444722126 Z" fill="rgb(97, 150, 207)" style="filter: none;"/><path d="M 0,0 L 34.61416644671304,-11.24682444722126 L 13.845666578685217,4.498729778888504 Z" fill="rgb(63, 98, 135)" style="filter: none;"/><path d="M 0,0 L 13.845666578685217,4.498729778888504 L 21.392731356314837,29.444568668328507 Z" fill="rgb(97, 150, 207)" style="filter: none;"/><path d="M 0,0 L 21.392731356314837,29.444568668328507 L 8.914323684832494e-16,14.558195376885799 Z" fill="rgb(63, 98, 135)" style="filter: none;"/><path d="M 0,0 L 8.914323684832494e-16,14.558195376885799 L -21.392731356314833,29.444568668328507 Z" fill="rgb(97, 150, 207)" style="filter: none;"/><path d="M 0,0 L -21.392731356314833,29.444568668328507 L -13.845666578685217,4.498729778888506 Z" fill="rgb(63, 98, 135)" style="filter: none;"/><path d="M 0,0 L -13.845666578685217,4.498729778888506 L -34.61416644671304,-11.246824447221256 Z" fill="rgb(97, 150, 207)" style="filter: none;"/><path d="M 0,0 L -34.61416644671304,-11.246824447221256 L -8.557092542525936,-11.777827467331402 Z" fill="rgb(63, 98, 135)" style="filter: none;"/><path d="M 0,0 L -8.557092542525936,-11.777827467331402 L 2.2285809212081234e-15,-36.39548844221449 Z" fill="rgb(97, 150, 207)" style="filter: none;"/><text x="0" y="-54" text-anchor="middle" style="font-family: Arial; font-size: 16px; font-weight: 500; fill: rgb(65, 65, 65);">Riverview</text><text x="0" y="41.39548844221449" text-anchor="middle" dominant-baseline="hanging" style="font-family: Arial; font-size: 12px; font-weight: 400; fill: rgb(65, 65, 65);">28.6 %</text></g><g xmlns="http://www.w3.org/2000/svg" xmlns:xlink="http://www.w3.org/1999/xlink" transform="translate(502.5, 205)"><path d="M 0,0 L 1.967876426070429e-15,-32.13786093166684 L 7.556064278344085,-10.400030262630864 Z" fill="rgb(63, 98, 135)" style="filter: none;"/><path d="M 0,0 L 7.556064278344085,-10.400030262630864 L 30.564922058849184,-9.931145190743734 Z" fill="rgb(97, 150, 207)" style="filter: none;"/><path d="M 0,0 L 30.564922058849184,-9.931145190743734 L 12.225968823539674,3.9724580762974937 Z" fill="rgb(63, 98, 135)" style="filter: none;"/><path d="M 0,0 L 12.225968823539674,3.9724580762974937 L 18.89016069586021,26.00007565657716 Z" fill="rgb(97, 150, 207)" style="filter: none;"/><path d="M 0,0 L 18.89016069586021,26.00007565657716 L 7.871505704281715e-16,12.855144372666738 Z" fill="rgb(63, 98, 135)" style="filter: none;"/><path d="M 0,0 L 7.871505704281715e-16,12.855144372666738 L -18.890160695860207,26.00007565657716 Z" fill="rgb(97, 150, 207)" style="filter: none;"/><path d="M 0,0 L -18.890160695860207,26.00007565657716 L -12.225968823539674,3.9724580762974955 Z" fill="rgb(63, 98, 135)" style="filter: none;"/><path d="M 0,0 L -12.225968823539674,3.9724580762974955 L -30.564922058849188,-9.931145190743731 Z" fill="rgb(97, 150, 207)" style="filter: none;"/><path d="M 0,0 L -30.564922058849188,-9.931145190743731 L -7.556064278344086,-10.400030262630862 Z" fill="rgb(63, 98, 135)" style="filter: none;"/><path d="M 0,0 L -7.556064278344086,-10.400030262630862 L 1.967876426070429e-15,-32.13786093166684 Z" fill="rgb(97, 150, 207)" style="filter: none;"/><text x="0" y="-54" text-anchor="middle" style="font-family: Arial; font-size: 16px; font-weight: 500; fill: rgb(65, 65, 65);">Uptown</text><text x="0" y="37.13786093166684" text-anchor="middle" dominant-baseline="hanging" style="font-family: Arial; font-size: 12px; font-weight: 400; fill: rgb(65, 65, 65);">22.3 %</text></g><g xmlns="http://www.w3.org/2000/svg" xmlns:xlink="http://www.w3.org/1999/xlink" transform="translate(165, 415)"><path d="M 0,0 L 1.651183035107995e-15,-26.96586536228426 L 6.3400551901020465,-8.726337338445886 Z" fill="rgb(63, 98, 135)" style="filter: none;"/><path d="M 0,0 L 6.3400551901020465,-8.726337338445886 L 25.646061970338216,-8.332910664972584 Z" fill="rgb(97, 150, 207)" style="filter: none;"/><path d="M 0,0 L 25.646061970338216,-8.332910664972584 L 10.258424788135287,3.3331642659890335 Z" fill="rgb(63, 98, 135)" style="filter: none;"/><path d="M 0,0 L 10.258424788135287,3.3331642659890335 L 15.850137975255116,21.815843346114715 Z" fill="rgb(97, 150, 207)" style="filter: none;"/><path d="M 0,0 L 15.850137975255116,21.815843346114715 L 6.604732140431981e-16,10.786346144913704 Z" fill="rgb(63, 98, 135)" style="filter: none;"/><path d="M 0,0 L 6.604732140431981e-16,10.786346144913704 L -15.850137975255112,21.815843346114715 Z" fill="rgb(97, 150, 207)" style="filter: none;"/><path d="M 0,0 L -15.850137975255112,21.815843346114715 L -10.258424788135287,3.333164265989035 Z" fill="rgb(63, 98, 135)" style="filter: none;"/><path d="M 0,0 L -10.258424788135287,3.333164265989035 L -25.646061970338216,-8.33291066497258 Z" fill="rgb(97, 150, 207)" style="filter: none;"/><path d="M 0,0 L -25.646061970338216,-8.33291066497258 L -6.340055190102047,-8.726337338445886 Z" fill="rgb(63, 98, 135)" style="filter: none;"/><path d="M 0,0 L -6.340055190102047,-8.726337338445886 L 1.651183035107995e-15,-26.96586536228426 Z" fill="rgb(97, 150, 207)" style="filter: none;"/><text x="0" y="-54" text-anchor="middle" style="font-family: Arial; font-size: 16px; font-weight: 500; fill: rgb(65, 65, 65);">Westside</text><text x="0" y="31.96586536228426" text-anchor="middle" dominant-baseline="hanging" style="font-family: Arial; font-size: 12px; font-weight: 400; fill: rgb(65, 65, 65);">15.7 %</text></g><g xmlns="http://www.w3.org/2000/svg" xmlns:xlink="http://www.w3.org/1999/xlink" transform="translate(300, 415)"><path d="M 0,0 L 1.4967189138059277e-15,-24.443274825819195 L 5.746958584139358,-7.910009892906025 Z" fill="rgb(63, 98, 135)" style="filter: none;"/><path d="M 0,0 L 5.746958584139358,-7.910009892906025 L 23.24693580268863,-7.553387319355464 Z" fill="rgb(97, 150, 207)" style="filter: none;"/><path d="M 0,0 L 23.24693580268863,-7.553387319355464 L 9.298774321075452,3.0213549277421854 Z" fill="rgb(63, 98, 135)" style="filter: none;"/><path d="M 0,0 L 9.298774321075452,3.0213549277421854 L 14.367396460348393,19.775024732265063 Z" fill="rgb(97, 150, 207)" style="filter: none;"/><path d="M 0,0 L 14.367396460348393,19.775024732265063 L 5.986875655223712e-16,9.777309930327679 Z" fill="rgb(63, 98, 135)" style="filter: none;"/><path d="M 0,0 L 5.986875655223712e-16,9.777309930327679 L -14.36739646034839,19.775024732265063 Z" fill="rgb(97, 150, 207)" style="filter: none;"/><path d="M 0,0 L -14.36739646034839,19.775024732265063 L -9.298774321075452,3.0213549277421867 Z" fill="rgb(63, 98, 135)" style="filter: none;"/><path d="M 0,0 L -9.298774321075452,3.0213549277421867 L -23.246935802688633,-7.553387319355461 Z" fill="rgb(97, 150, 207)" style="filter: none;"/><path d="M 0,0 L -23.246935802688633,-7.553387319355461 L -5.7469585841393585,-7.910009892906024 Z" fill="rgb(63, 98, 135)" style="filter: none;"/><path d="M 0,0 L -5.7469585841393585,-7.910009892906024 L 1.4967189138059277e-15,-24.443274825819195 Z" fill="rgb(97, 150, 207)" style="filter: none;"/><text x="0" y="-54" text-anchor="middle" style="font-family: Arial; font-size: 16px; font-weight: 500; fill: rgb(65, 65, 65);">North End</text><text x="0" y="29.443274825819195" text-anchor="middle" dominant-baseline="hanging" style="font-family: Arial; font-size: 12px; font-weight: 400; fill: rgb(65, 65, 65);">12.9 %</text></g><g xmlns="http://www.w3.org/2000/svg" xmlns:xlink="http://www.w3.org/1999/xlink" transform="translate(435, 415)"><path d="M 0,0 L 1.214940066439856e-15,-19.84147702481637 L 4.6650110315548,-6.420836842630607 Z" fill="rgb(63, 98, 135)" style="filter: none;"/><path d="M 0,0 L 4.6650110315548,-6.420836842630607 L 18.870366017372184,-6.131353594168329 Z" fill="rgb(97, 150, 207)" style="filter: none;"/><path d="M 0,0 L 18.870366017372184,-6.131353594168329 L 7.548146406948875,2.4525414376673313 Z" fill="rgb(63, 98, 135)" style="filter: none;"/><path d="M 0,0 L 7.548146406948875,2.4525414376673313 L 11.662527578887,16.052092106576513 Z" fill="rgb(97, 150, 207)" style="filter: none;"/><path d="M 0,0 L 11.662527578887,16.052092106576513 L 4.859760265759424e-16,7.936590809926549 Z" fill="rgb(63, 98, 135)" style="filter: none;"/><path d="M 0,0 L 4.859760265759424e-16,7.936590809926549 L -11.662527578886998,16.052092106576513 Z" fill="rgb(97, 150, 207)" style="filter: none;"/><path d="M 0,0 L -11.662527578886998,16.052092106576513 L -7.548146406948875,2.4525414376673322 Z" fill="rgb(63, 98, 135)" style="filter: none;"/><path d="M 0,0 L -7.548146406948875,2.4525414376673322 L -18.870366017372188,-6.131353594168326 Z" fill="rgb(97, 150, 207)" style="filter: none;"/><path d="M 0,0 L -18.870366017372188,-6.131353594168326 L -4.665011031554801,-6.420836842630606 Z" fill="rgb(63, 98, 135)" style="filter: none;"/><path d="M 0,0 L -4.665011031554801,-6.420836842630606 L 1.214940066439856e-15,-19.84147702481637 Z" fill="rgb(97, 150, 207)" style="filter: none;"/><text x="0" y="-54" text-anchor="middle" style="font-family: Arial; font-size: 16px; font-weight: 500; fill: rgb(65, 65, 65);">Downtown</text><text x="0" y="24.84147702481637" text-anchor="middle" dominant-baseline="hanging" style="font-family: Arial; font-size: 12px; font-weight: 400; fill: rgb(65, 65, 65);">8.5 %</text></g>         </g></svg>