<svg xmlns='http://www.w3.org/2000/svg' xmlns:xlink='http://www.w3.org/1999/xlink' width='358' height='443'>
        <g transform='translate(-91.80909114099003, -144.0)'>             <g xmlns="http://www.w3.org/2000/svg" xmlns:xlink="http://www.w3.org/1999/xlink" transform="translate(60, 40)"><polygon points="169.54383815872006,204.17716265459796 250.45616184127994,204.17716265459796 210,104 210,104" fill="#dc0b85"/><rect x="167.3173828125" y="139.08858132729898" width="85.365234375" height="30" fill="rgba(0, 0, 0, 0.3)" rx="5" ry="5"/><text x="210" y="154.08858132729898" text-anchor="middle" dominant-baseline="middle" font-size="14px" font-weight="bold" fill="white">Downtown</text><polygon points="145.8078233996626,262.95205634369256 274.1921766003374,262.95205634369256 250.45616184127994,204.17716265459796 169.54383815872006,204.17716265459796" fill="#18886d"/><text x="210" y="233.56460949914526" text-anchor="middle" dominant-baseline="middle" font-size="14px" font-weight="bold" fill="white">North End</text><polygon points="125.47947812901387,313.2889112995847 294.52052187098616,313.2889112995847 274.1921766003374,262.95205634369256 145.8078233996626,262.95205634369256" fill="#ffe66d"/><text x="210" y="288.12048382163863" text-anchor="middle" dominant-baseline="middle" font-size="14px" font-weight="bold" fill="white">Westside</text><polygon points="103.05304160356576,368.82103983878955 316.94695839643424,368.82103983878955 294.52052187098616,313.2889112995847 125.47947812901387,313.2889112995847" fill="#ff6b6b"/><text x="210" y="341.05497556918715" text-anchor="middle" dominant-baseline="middle" font-size="14px" font-weight="bold" fill="white">Uptown</text><polygon points="79.82830762156988,426.32990493706507 340.1716923784301,426.32990493706507 316.94695839643424,368.82103983878955 103.05304160356576,368.82103983878955" fill="#4ecdc4"/><text x="210" y="397.57547238792733" text-anchor="middle" dominant-baseline="middle" font-size="14px" font-weight="bold" fill="white">Riverview</text><polygon points="56.041297780592174,485.2310721623432 363.9587022194078,485.2310721623432 340.1716923784301,426.32990493706507 79.82830762156988,426.32990493706507" fill="#764ba2"/><text x="210" y="455.78048854970416" text-anchor="middle" dominant-baseline="middle" font-size="14px" font-weight="bold" fill="white">Eastside</text><polygon points="31.809091140990034,545.2346314604056 388.19090885900994,545.2346314604056 363.9587022194078,485.2310721623432 56.041297780592174,485.2310721623432" fill="#667eea"/><text x="210" y="515.2328518113744" text-anchor="middle" dominant-baseline="middle" font-size="14px" font-weight="bold" fill="white">South Park</text></g>         </g></svg>