<svg xmlns='http://www.w3.org/2000/svg' xmlns:xlink='http://www.w3.org/1999/xlink' width='561' height='433'>
        <g transform='translate(-20.0, -105.2)'>             <defs xmlns="http://www.w3.org/2000/svg" xmlns:xlink="http://www.w3.org/1999/xlink"><filter id="triangle-shadow" width="150%" height="150%"><feDropShadow dx="2" dy="2" stdDeviation="2" flood-color="rgba(0,0,0,0.3)" flood-opacity="0.4"/></filter></defs><g xmlns="http://www.w3.org/2000/svg" xmlns:xlink="http://www.w3.org/1999/xlink" transform="translate(20,80)"><line x1="0" y1="440" x2="560" y2="440" stroke="#aaa" stroke-width="1" stroke-dasharray="3,3"/><g class="triangle-bar" transform="translate(70, 440)"><path d="             M -4.220008600760366,-73.7298808850912             L -45.779991399239634,-6.796434904382484             A 8,8 0 0 0 -42,0             L 42,0             A 8,8 0 0 0 45.779991399239634,-6.796434904382484             L 4.220008600760366,-73.7298808850912             A 8,8 0 0 0 -4.220008600760366,-73.7298808850912             Z         " fill="#4e79a7" fill-opacity="0.75" stroke="#fff" stroke-width="2" filter="url(#triangle-shadow)"/><text class="value-label" text-anchor="middle" dominant-baseline="text-after-edge" x="0" y="-90.52631578947368" style="font-family: Arial; font-weight: 400; font-size: 12px; fill: rgb(51, 51, 51);">8.5%</text><text class="category-label" text-anchor="middle" dominant-baseline="hanging" x="0" y="15" style="font-family: Arial; font-weight: 500; font-size: 11px; fill: rgb(51, 51, 51);">Downtown</text></g><g class="triangle-bar" transform="translate(140, 440)"><path d="             M -1.8424745397894846,-203.4782181024053             L -48.157525460210515,-7.7849397923315715             A 8,8 0 0 0 -42,0             L 42,0             A 8,8 0 0 0 48.157525460210515,-7.7849397923315715             L 1.8424745397894846,-203.4782181024053             A 8,8 0 0 0 -1.8424745397894846,-203.4782181024053             Z         " fill="#4e79a7" fill-opacity="0.75" stroke="#fff" stroke-width="2" filter="url(#triangle-shadow)"/><text class="value-label" text-anchor="middle" dominant-baseline="text-after-edge" x="0" y="-221.26315789473688" style="font-family: Arial; font-weight: 400; font-size: 12px; fill: rgb(51, 51, 51);">22.3%</text><text class="category-label" text-anchor="middle" dominant-baseline="hanging" x="0" y="15" style="font-family: Arial; font-weight: 500; font-size: 11px; fill: rgb(51, 51, 51);">Uptown</text></g><g class="triangle-bar" transform="translate(210, 440)"><path d="             M -2.5491336814000305,-141.1538402277511             L -47.45086631859997,-7.583001877512093             A 8,8 0 0 0 -42,0             L 42,0             A 8,8 0 0 0 47.45086631859997,-7.583001877512093             L 2.5491336814000305,-141.1538402277511             A 8,8 0 0 0 -2.5491336814000305,-141.1538402277511             Z         " fill="#4e79a7" fill-opacity="0.75" stroke="#fff" stroke-width="2" filter="url(#triangle-shadow)"/><text class="value-label" text-anchor="middle" dominant-baseline="text-after-edge" x="0" y="-158.73684210526318" style="font-family: Arial; font-weight: 400; font-size: 12px; fill: rgb(51, 51, 51);">15.7%</text><text class="category-label" text-anchor="middle" dominant-baseline="hanging" x="0" y="15" style="font-family: Arial; font-weight: 500; font-size: 11px; fill: rgb(51, 51, 51);">Westside</text></g><g class="triangle-bar" transform="translate(280, 440)"><path d="             M -1.1895401147169267,-324.6152479528615             L -48.81045988528307,-7.91106783661215             A 8,8 0 0 0 -42,0             L 42,0             A 8,8 0 0 0 48.81045988528307,-7.91106783661215             L 1.1895401147169267,-324.6152479528615             A 8,8 0 0 0 -1.1895401147169267,-324.6152479528615             Z         " fill="#4e79a7" fill-opacity="0.75" stroke="#fff" stroke-width="2" filter="url(#triangle-shadow)"/><text class="value-label" text-anchor="middle" dominant-baseline="text-after-edge" x="0" y="-342.5263157894737" style="font-family: Arial; font-weight: 400; font-size: 12px; fill: rgb(51, 51, 51);">35.1%</text><text class="category-label" text-anchor="middle" dominant-baseline="hanging" x="0" y="15" style="font-family: Arial; font-weight: 500; font-size: 11px; fill: rgb(51, 51, 51);">Eastside</text></g><g class="triangle-bar" transform="translate(350, 440)"><path d="             M -3.029311091378657,-114.8062522587566             L -46.97068890862134,-7.404274057032887             A 8,8 0 0 0 -42,0             L 42,0             A 8,8 0 0 0 46.97068890862134,-7.404274057032887             L 3.029311091378657,-114.8062522587566             A 8,8 0 0 0 -3.029311091378657,-114.8062522587566             Z         " fill="#4e79a7" fill-opacity="0.75" stroke="#fff" stroke-width="2" filter="url(#triangle-shadow)"/><text class="value-label" text-anchor="middle" dominant-baseline="text-after-edge" x="0" y="-132.21052631578948" style="font-family: Arial; font-weight: 400; font-size: 12px; fill: rgb(51, 51, 51);">12.9%</text><text class="category-label" text-anchor="middle" dominant-baseline="hanging" x="0" y="15" style="font-family: Arial; font-weight: 500; font-size: 11px; fill: rgb(51, 51, 51);">North End</text></g><g class="triangle-bar" transform="translate(420, 440)"><path d="             M -1.0021443778661483,-388.0630165273001             L -48.997855622133855,-7.936983472699894             A 8,8 0 0 0 -42,0             L 42,0             A 8,8 0 0 0 48.997855622133855,-7.936983472699894             L 1.0021443778661483,-388.0630165273001             A 8,8 0 0 0 -1.0021443778661483,-388.0630165273001             Z         " fill="#4e79a7" fill-opacity="0.75" stroke="#fff" stroke-width="2" filter="url(#triangle-shadow)"/><text class="value-label" text-anchor="middle" dominant-baseline="text-after-edge" x="0" y="-406" style="font-family: Arial; font-weight: 400; font-size: 12px; fill: rgb(51, 51, 51);">41.8%</text><text class="category-label" text-anchor="middle" dominant-baseline="hanging" x="0" y="15" style="font-family: Arial; font-weight: 500; font-size: 11px; fill: rgb(51, 51, 51);">South Park</text></g><g class="triangle-bar" transform="translate(490, 440)"><path d="             M -1.4517886995536302,-263.0802018681031             L -48.54821130044637,-7.867166552949568             A 8,8 0 0 0 -42,0             L 42,0             A 8,8 0 0 0 48.54821130044637,-7.867166552949568             L 1.4517886995536302,-263.0802018681031             A 8,8 0 0 0 -1.4517886995536302,-263.0802018681031             Z         " fill="#4e79a7" fill-opacity="0.75" stroke="#fff" stroke-width="2" filter="url(#triangle-shadow)"/><text class="value-label" text-anchor="middle" dominant-baseline="text-after-edge" x="0" y="-280.94736842105266" style="font-family: Arial; font-weight: 400; font-size: 12px; fill: rgb(51, 51, 51);">28.6%</text><text class="category-label" text-anchor="middle" dominant-baseline="hanging" x="0" y="15" style="font-family: Arial; font-weight: 500; font-size: 11px; fill: rgb(51, 51, 51);">Riverview</text></g></g>         </g></svg>