<svg xmlns='http://www.w3.org/2000/svg' xmlns:xlink='http://www.w3.org/1999/xlink' width='581' height='580'>
        <g transform='translate(-10.0, -10.57224875580124)'>             <g xmlns="http://www.w3.org/2000/svg" xmlns:xlink="http://www.w3.org/1999/xlink" transform="translate(10, 10)"><g class="cell"><path d="M413.475994553871,27.600154784854293L379.6149283687347,14.193610274405449L344.34058122986,5.13669728868029L308.2092506635007,0.5722487558012403L271.7907493364992,0.5722487558012413L235.65941877013987,5.1366972886802955L200.3850716312652,14.193610274405506L196.8312799140815,15.600655952671866L328.99124234915274,110.91644739443808L423.4943689869039,33.10780273682323Z" fill="#04d213" fill-opacity="0.8" stroke="none"/><text x="315.03955064239443" y="42.962524866022264" text-anchor="middle" dominant-baseline="middle" fill="#fff" font-size="16px" font-weight="bold">Downtown</text><text x="315.03955064239443" y="57.962524866022264" text-anchor="middle" dominant-baseline="middle" fill="#fff" fill-opacity="0.7" font-size="14px">9</text></g><g class="cell"><path d="M196.8312799140815,15.600655952671872L166.52400544612908,27.60015478485428L134.61022945609108,45.14490160441556L105.14704297288006,66.55115959502106L95.05483315152173,76.0283754391017L171.77253467022527,286.6684171993142L223.5571171394182,309.3437897516587L305.2928343211892,281.0722954785442L328.99124234915274,110.91644739443808Z" fill="#4ecdc4" fill-opacity="0.8" stroke="none"/><text x="218.28281514224867" y="160.96590793138313" text-anchor="middle" dominant-baseline="middle" fill="#fff" font-size="16px" font-weight="bold">Riverview</text><text x="218.28281514224867" y="175.96590793138313" text-anchor="middle" dominant-baseline="middle" fill="#fff" fill-opacity="0.7" font-size="14px">29</text></g><g class="cell"><path d="M95.05483315152172,76.0283754391017L78.5990980477907,91.48133928068019L55.38507163126522,119.54227683518282L35.87106278727955,150.2914345105026L20.36481909240713,183.24387972144325L9.11088327269698,217.87993272219205L2.286736618801397,253.6533622663518L8.881784197001252e-16,290.00000000000006L2.19072059646858,324.8205067609489L171.77253467022527,286.6684171993142Z" fill="#ffe66d" fill-opacity="0.8" stroke="none"/><text x="77.51687298621437" y="221.4378476424841" text-anchor="middle" dominant-baseline="middle" fill="#fff" font-size="16px" font-weight="bold">Westside</text><text x="77.51687298621437" y="236.4378476424841" text-anchor="middle" dominant-baseline="middle" fill="#fff" fill-opacity="0.7" font-size="14px">16</text></g><g class="cell"><path d="M501.4009019522092,488.5186607193199L524.6149283687348,460.45772316481725L544.1289372127203,429.70856548949763L559.6351809075929,396.7561202785564L570.889116727303,362.1200672778077L577.7132633811987,326.34663773364815L580,290.0000000000005L578.9957787420719,274.0383601827007L418.6292654932876,334.5621325932159L481.28093548745875,507.41256684467237Z" fill="#ed8805" fill-opacity="0.8" stroke="none"/><text x="504.529496766004" y="377.55046455059573" text-anchor="middle" dominant-baseline="middle" fill="#fff" font-size="16px" font-weight="bold">North End</text><text x="504.529496766004" y="392.55046455059573" text-anchor="middle" dominant-baseline="middle" fill="#fff" fill-opacity="0.7" font-size="14px">13</text></g><g class="cell"><path d="M578.9957787420719,274.03836018270067L577.7132633811984,253.65336226635122L570.8891167273028,217.87993272219177L559.6351809075927,183.24387972144285L544.1289372127205,150.2914345105028L524.6149283687346,119.54227683518256L501.4009019522093,91.48133928068029L474.8529570271198,66.55115959502099L445.38977054390887,45.144901604415494L423.4943689869039,33.10780273682326L328.99124234915274,110.91644739443808L305.2928343211892,281.0722954785442L418.6292654932876,334.5621325932159Z" fill="#764ba2" fill-opacity="0.8" stroke="none"/><text x="435.46328778063685" y="196.29801229105698" text-anchor="middle" dominant-baseline="middle" fill="#fff" font-size="16px" font-weight="bold">Eastside</text><text x="435.46328778063685" y="211.29801229105698" text-anchor="middle" dominant-baseline="middle" fill="#fff" fill-opacity="0.7" font-size="14px">35</text></g><g class="cell"><path d="M166.5240054461288,552.3998452151457L200.38507163126505,565.8063897255944L235.65941877014018,574.8633027113196L271.79074933649946,579.4277512441988L308.20925066350094,579.4277512441988L344.34058122986016,574.8633027113196L379.6149283687348,565.8063897255945L413.475994553871,552.3998452151457L445.38977054390926,534.8550983955842L474.85295702711994,513.448840404979L481.28093548745875,507.41256684467237L418.6292654932876,334.5621325932159L305.2928343211892,281.0722954785442L223.5571171394182,309.3437897516587L166.08244936713282,552.1570977065136Z" fill="#667eea" fill-opacity="0.8" stroke="none"/><text x="317.4757362411735" y="444.6695600904896" text-anchor="middle" dominant-baseline="middle" fill="#fff" font-size="16px" font-weight="bold">South Park</text><text x="317.4757362411735" y="459.6695600904896" text-anchor="middle" dominant-baseline="middle" fill="#fff" fill-opacity="0.7" font-size="14px">42</text></g><g class="cell"><path d="M2.2867366188014384,326.3466377336482L9.110883272696984,362.1200672778079L20.36481909240713,396.7561202785567L35.871062787279556,429.70856548949746L55.38507163126522,460.4577231648172L78.5990980477907,488.51866071931977L105.14704297288,513.4488404049789L134.6102294560911,534.8550983955845L166.08244936713285,552.1570977065136L223.5571171394182,309.3437897516587L171.77253467022527,286.6684171993142L2.190720596468566,324.82050676094883Z" fill="#ff6b6b" fill-opacity="0.8" stroke="none"/><text x="119.88914676993942" y="397.90701599131154" text-anchor="middle" dominant-baseline="middle" fill="#fff" font-size="16px" font-weight="bold">Uptown</text><text x="119.88914676993942" y="412.90701599131154" text-anchor="middle" dominant-baseline="middle" fill="#fff" fill-opacity="0.7" font-size="14px">22</text></g></g>         </g></svg>