<svg xmlns='http://www.w3.org/2000/svg' xmlns:xlink='http://www.w3.org/1999/xlink' width='496' height='424'>
        <g transform='translate(-11.0, -113.50000000000001)'>             <defs xmlns="http://www.w3.org/2000/svg"><linearGradient id="bar-gradient-0" x1="0%" y1="0%" x2="100%" y2="0%"><stop offset="0%" stop-color="rgb(111, 173, 239)"/><stop offset="100%" stop-color="rgb(78, 121, 167)"/></linearGradient><linearGradient id="bar-gradient-1" x1="0%" y1="0%" x2="100%" y2="0%"><stop offset="0%" stop-color="rgb(104, 161, 222)"/><stop offset="100%" stop-color="rgb(73, 113, 156)"/></linearGradient><linearGradient id="bar-gradient-2" x1="0%" y1="0%" x2="100%" y2="0%"><stop offset="0%" stop-color="rgb(97, 150, 207)"/><stop offset="100%" stop-color="rgb(68, 105, 145)"/></linearGradient><linearGradient id="bar-gradient-3" x1="0%" y1="0%" x2="100%" y2="0%"><stop offset="0%" stop-color="rgb(90, 140, 193)"/><stop offset="100%" stop-color="rgb(63, 98, 135)"/></linearGradient><linearGradient id="bar-gradient-4" x1="0%" y1="0%" x2="100%" y2="0%"><stop offset="0%" stop-color="rgb(84, 130, 179)"/><stop offset="100%" stop-color="rgb(59, 91, 126)"/></linearGradient><linearGradient id="bar-gradient-5" x1="0%" y1="0%" x2="100%" y2="0%"><stop offset="0%" stop-color="rgb(78, 121, 167)"/><stop offset="100%" stop-color="rgb(55, 85, 117)"/></linearGradient><linearGradient id="bar-gradient-6" x1="0%" y1="0%" x2="100%" y2="0%"><stop offset="0%" stop-color="rgb(73, 113, 156)"/><stop offset="100%" stop-color="rgb(51, 79, 109)"/></linearGradient><linearGradient id="bar-gradient-7" x1="0%" y1="0%" x2="100%" y2="0%"><stop offset="0%" stop-color="rgb(68, 105, 145)"/><stop offset="100%" stop-color="rgb(47, 73, 101)"/></linearGradient><linearGradient id="bar-gradient-8" x1="0%" y1="0%" x2="100%" y2="0%"><stop offset="0%" stop-color="rgb(63, 98, 135)"/><stop offset="100%" stop-color="rgb(44, 68, 94)"/></linearGradient><linearGradient id="bar-gradient-9" x1="0%" y1="0%" x2="100%" y2="0%"><stop offset="0%" stop-color="rgb(59, 91, 126)"/><stop offset="100%" stop-color="rgb(41, 64, 88)"/></linearGradient></defs><g xmlns="http://www.w3.org/2000/svg" transform="translate(100, 90)"><rect x="0" y="23.500000000000014" width="5" height="31.333333333333332" fill="url(#bar-gradient-0)" rx="2.5" ry="2.5" style="stroke: none; stroke-width: 0; filter: none;"/><rect x="7" y="23.500000000000014" width="5" height="31.333333333333332" fill="url(#bar-gradient-0)" rx="2.5" ry="2.5" style="stroke: none; stroke-width: 0; filter: none;"/><rect x="14" y="23.500000000000014" width="5" height="31.333333333333332" fill="url(#bar-gradient-0)" rx="2.5" ry="2.5" style="stroke: none; stroke-width: 0; filter: none;"/><rect x="21" y="23.500000000000014" width="5" height="31.333333333333332" fill="url(#bar-gradient-0)" rx="2.5" ry="2.5" style="stroke: none; stroke-width: 0; filter: none;"/><rect x="28" y="23.500000000000014" width="5" height="31.333333333333332" fill="url(#bar-gradient-0)" rx="2.5" ry="2.5" style="stroke: none; stroke-width: 0; filter: none;"/><rect x="35" y="23.500000000000014" width="5" height="31.333333333333332" fill="url(#bar-gradient-0)" rx="2.5" ry="2.5" style="stroke: none; stroke-width: 0; filter: none;"/><rect x="42" y="23.500000000000014" width="5" height="31.333333333333332" fill="url(#bar-gradient-0)" rx="2.5" ry="2.5" style="stroke: none; stroke-width: 0; filter: none;"/><rect x="49" y="23.500000000000014" width="5" height="31.333333333333332" fill="url(#bar-gradient-0)" rx="2.5" ry="2.5" style="stroke: none; stroke-width: 0; filter: none;"/><rect x="56" y="23.500000000000014" width="5" height="31.333333333333332" fill="url(#bar-gradient-0)" rx="2.5" ry="2.5" style="stroke: none; stroke-width: 0; filter: none;"/><rect x="63" y="23.500000000000014" width="5" height="31.333333333333332" fill="url(#bar-gradient-0)" rx="2.5" ry="2.5" style="stroke: none; stroke-width: 0; filter: none;"/><rect x="78" y="23.500000000000014" width="5" height="31.333333333333332" fill="url(#bar-gradient-1)" rx="2.5" ry="2.5" style="stroke: none; stroke-width: 0; filter: none;"/><rect x="85" y="23.500000000000014" width="5" height="31.333333333333332" fill="url(#bar-gradient-1)" rx="2.5" ry="2.5" style="stroke: none; stroke-width: 0; filter: none;"/><rect x="92" y="23.500000000000014" width="5" height="31.333333333333332" fill="url(#bar-gradient-1)" rx="2.5" ry="2.5" style="stroke: none; stroke-width: 0; filter: none;"/><rect x="99" y="23.500000000000014" width="5" height="31.333333333333332" fill="url(#bar-gradient-1)" rx="2.5" ry="2.5" style="stroke: none; stroke-width: 0; filter: none;"/><rect x="106" y="23.500000000000014" width="5" height="31.333333333333332" fill="url(#bar-gradient-1)" rx="2.5" ry="2.5" style="stroke: none; stroke-width: 0; filter: none;"/><rect x="113" y="23.500000000000014" width="5" height="31.333333333333332" fill="url(#bar-gradient-1)" rx="2.5" ry="2.5" style="stroke: none; stroke-width: 0; filter: none;"/><rect x="120" y="23.500000000000014" width="5" height="31.333333333333332" fill="url(#bar-gradient-1)" rx="2.5" ry="2.5" style="stroke: none; stroke-width: 0; filter: none;"/><rect x="127" y="23.500000000000014" width="5" height="31.333333333333332" fill="url(#bar-gradient-1)" rx="2.5" ry="2.5" style="stroke: none; stroke-width: 0; filter: none;"/><rect x="134" y="23.500000000000014" width="5" height="31.333333333333332" fill="url(#bar-gradient-1)" rx="2.5" ry="2.5" style="stroke: none; stroke-width: 0; filter: none;"/><rect x="141" y="23.500000000000014" width="5" height="31.333333333333332" fill="url(#bar-gradient-1)" rx="2.5" ry="2.5" style="stroke: none; stroke-width: 0; filter: none;"/><rect x="156" y="23.500000000000014" width="5" height="31.333333333333332" fill="url(#bar-gradient-2)" rx="2.5" ry="2.5" style="stroke: none; stroke-width: 0; filter: none;"/><rect x="163" y="23.500000000000014" width="5" height="31.333333333333332" fill="url(#bar-gradient-2)" rx="2.5" ry="2.5" style="stroke: none; stroke-width: 0; filter: none;"/><rect x="170" y="23.500000000000014" width="5" height="31.333333333333332" fill="url(#bar-gradient-2)" rx="2.5" ry="2.5" style="stroke: none; stroke-width: 0; filter: none;"/><rect x="177" y="23.500000000000014" width="5" height="31.333333333333332" fill="url(#bar-gradient-2)" rx="2.5" ry="2.5" style="stroke: none; stroke-width: 0; filter: none;"/><rect x="184" y="23.500000000000014" width="5" height="31.333333333333332" fill="url(#bar-gradient-2)" rx="2.5" ry="2.5" style="stroke: none; stroke-width: 0; filter: none;"/><rect x="191" y="23.500000000000014" width="5" height="31.333333333333332" fill="url(#bar-gradient-2)" rx="2.5" ry="2.5" style="stroke: none; stroke-width: 0; filter: none;"/><rect x="198" y="23.500000000000014" width="5" height="31.333333333333332" fill="url(#bar-gradient-2)" rx="2.5" ry="2.5" style="stroke: none; stroke-width: 0; filter: none;"/><rect x="205" y="23.500000000000014" width="5" height="31.333333333333332" fill="url(#bar-gradient-2)" rx="2.5" ry="2.5" style="stroke: none; stroke-width: 0; filter: none;"/><rect x="212" y="23.500000000000014" width="5" height="31.333333333333332" fill="url(#bar-gradient-2)" rx="2.5" ry="2.5" style="stroke: none; stroke-width: 0; filter: none;"/><rect x="219" y="23.500000000000014" width="5" height="31.333333333333332" fill="url(#bar-gradient-2)" rx="2.5" ry="2.5" style="stroke: none; stroke-width: 0; filter: none;"/><rect x="234" y="23.500000000000014" width="5" height="31.333333333333332" fill="url(#bar-gradient-3)" rx="2.5" ry="2.5" style="stroke: none; stroke-width: 0; filter: none;"/><rect x="241" y="23.500000000000014" width="5" height="31.333333333333332" fill="url(#bar-gradient-3)" rx="2.5" ry="2.5" style="stroke: none; stroke-width: 0; filter: none;"/><rect x="248" y="23.500000000000014" width="5" height="31.333333333333332" fill="url(#bar-gradient-3)" rx="2.5" ry="2.5" style="stroke: none; stroke-width: 0; filter: none;"/><rect x="255" y="23.500000000000014" width="5" height="31.333333333333332" fill="url(#bar-gradient-3)" rx="2.5" ry="2.5" style="stroke: none; stroke-width: 0; filter: none;"/><rect x="262" y="23.500000000000014" width="5" height="31.333333333333332" fill="url(#bar-gradient-3)" rx="2.5" ry="2.5" style="stroke: none; stroke-width: 0; filter: none;"/><rect x="269" y="23.500000000000014" width="5" height="31.333333333333332" fill="url(#bar-gradient-3)" rx="2.5" ry="2.5" style="stroke: none; stroke-width: 0; filter: none;"/><rect x="276" y="23.500000000000014" width="5" height="31.333333333333332" fill="url(#bar-gradient-3)" rx="2.5" ry="2.5" style="stroke: none; stroke-width: 0; filter: none;"/><rect x="283" y="23.500000000000014" width="5" height="31.333333333333332" fill="url(#bar-gradient-3)" rx="2.5" ry="2.5" style="stroke: none; stroke-width: 0; filter: none;"/><rect x="290" y="23.500000000000014" width="5" height="31.333333333333332" fill="url(#bar-gradient-3)" rx="2.5" ry="2.5" style="stroke: none; stroke-width: 0; filter: none;"/><rect x="297" y="23.500000000000014" width="5" height="31.333333333333332" fill="url(#bar-gradient-3)" rx="2.5" ry="2.5" style="stroke: none; stroke-width: 0; filter: none;"/><rect x="312" y="23.500000000000014" width="5" height="31.333333333333332" fill="url(#bar-gradient-4)" rx="2.5" ry="2.5" style="stroke: none; stroke-width: 0; filter: none;"/><rect x="319" y="23.500000000000014" width="5" height="31.333333333333332" fill="url(#bar-gradient-4)" rx="2.5" ry="2.5" style="stroke: none; stroke-width: 0; filter: none;"/><text x="-10" y="39.166666666666686" dy="0.35em" text-anchor="end" style="font-family: Arial; font-size: 16px; font-weight: 500; fill: rgb(65, 65, 65);">South Park</text><text x="336" y="39.166666666666686" dy="0.35em" text-anchor="start" style="font-family: Arial; font-size: 25.0667px; font-weight: 400; fill: rgb(65, 65, 65);">41.8%</text><rect x="0" y="88.77777777777779" width="5" height="31.333333333333332" fill="url(#bar-gradient-0)" rx="2.5" ry="2.5" style="stroke: none; stroke-width: 0; filter: none;"/><rect x="7" y="88.77777777777779" width="5" height="31.333333333333332" fill="url(#bar-gradient-0)" rx="2.5" ry="2.5" style="stroke: none; stroke-width: 0; filter: none;"/><rect x="14" y="88.77777777777779" width="5" height="31.333333333333332" fill="url(#bar-gradient-0)" rx="2.5" ry="2.5" style="stroke: none; stroke-width: 0; filter: none;"/><rect x="21" y="88.77777777777779" width="5" height="31.333333333333332" fill="url(#bar-gradient-0)" rx="2.5" ry="2.5" style="stroke: none; stroke-width: 0; filter: none;"/><rect x="28" y="88.77777777777779" width="5" height="31.333333333333332" fill="url(#bar-gradient-0)" rx="2.5" ry="2.5" style="stroke: none; stroke-width: 0; filter: none;"/><rect x="35" y="88.77777777777779" width="5" height="31.333333333333332" fill="url(#bar-gradient-0)" rx="2.5" ry="2.5" style="stroke: none; stroke-width: 0; filter: none;"/><rect x="42" y="88.77777777777779" width="5" height="31.333333333333332" fill="url(#bar-gradient-0)" rx="2.5" ry="2.5" style="stroke: none; stroke-width: 0; filter: none;"/><rect x="49" y="88.77777777777779" width="5" height="31.333333333333332" fill="url(#bar-gradient-0)" rx="2.5" ry="2.5" style="stroke: none; stroke-width: 0; filter: none;"/><rect x="56" y="88.77777777777779" width="5" height="31.333333333333332" fill="url(#bar-gradient-0)" rx="2.5" ry="2.5" style="stroke: none; stroke-width: 0; filter: none;"/><rect x="63" y="88.77777777777779" width="5" height="31.333333333333332" fill="url(#bar-gradient-0)" rx="2.5" ry="2.5" style="stroke: none; stroke-width: 0; filter: none;"/><rect x="78" y="88.77777777777779" width="5" height="31.333333333333332" fill="url(#bar-gradient-1)" rx="2.5" ry="2.5" style="stroke: none; stroke-width: 0; filter: none;"/><rect x="85" y="88.77777777777779" width="5" height="31.333333333333332" fill="url(#bar-gradient-1)" rx="2.5" ry="2.5" style="stroke: none; stroke-width: 0; filter: none;"/><rect x="92" y="88.77777777777779" width="5" height="31.333333333333332" fill="url(#bar-gradient-1)" rx="2.5" ry="2.5" style="stroke: none; stroke-width: 0; filter: none;"/><rect x="99" y="88.77777777777779" width="5" height="31.333333333333332" fill="url(#bar-gradient-1)" rx="2.5" ry="2.5" style="stroke: none; stroke-width: 0; filter: none;"/><rect x="106" y="88.77777777777779" width="5" height="31.333333333333332" fill="url(#bar-gradient-1)" rx="2.5" ry="2.5" style="stroke: none; stroke-width: 0; filter: none;"/><rect x="113" y="88.77777777777779" width="5" height="31.333333333333332" fill="url(#bar-gradient-1)" rx="2.5" ry="2.5" style="stroke: none; stroke-width: 0; filter: none;"/><rect x="120" y="88.77777777777779" width="5" height="31.333333333333332" fill="url(#bar-gradient-1)" rx="2.5" ry="2.5" style="stroke: none; stroke-width: 0; filter: none;"/><rect x="127" y="88.77777777777779" width="5" height="31.333333333333332" fill="url(#bar-gradient-1)" rx="2.5" ry="2.5" style="stroke: none; stroke-width: 0; filter: none;"/><rect x="134" y="88.77777777777779" width="5" height="31.333333333333332" fill="url(#bar-gradient-1)" rx="2.5" ry="2.5" style="stroke: none; stroke-width: 0; filter: none;"/><rect x="141" y="88.77777777777779" width="5" height="31.333333333333332" fill="url(#bar-gradient-1)" rx="2.5" ry="2.5" style="stroke: none; stroke-width: 0; filter: none;"/><rect x="156" y="88.77777777777779" width="5" height="31.333333333333332" fill="url(#bar-gradient-2)" rx="2.5" ry="2.5" style="stroke: none; stroke-width: 0; filter: none;"/><rect x="163" y="88.77777777777779" width="5" height="31.333333333333332" fill="url(#bar-gradient-2)" rx="2.5" ry="2.5" style="stroke: none; stroke-width: 0; filter: none;"/><rect x="170" y="88.77777777777779" width="5" height="31.333333333333332" fill="url(#bar-gradient-2)" rx="2.5" ry="2.5" style="stroke: none; stroke-width: 0; filter: none;"/><rect x="177" y="88.77777777777779" width="5" height="31.333333333333332" fill="url(#bar-gradient-2)" rx="2.5" ry="2.5" style="stroke: none; stroke-width: 0; filter: none;"/><rect x="184" y="88.77777777777779" width="5" height="31.333333333333332" fill="url(#bar-gradient-2)" rx="2.5" ry="2.5" style="stroke: none; stroke-width: 0; filter: none;"/><rect x="191" y="88.77777777777779" width="5" height="31.333333333333332" fill="url(#bar-gradient-2)" rx="2.5" ry="2.5" style="stroke: none; stroke-width: 0; filter: none;"/><rect x="198" y="88.77777777777779" width="5" height="31.333333333333332" fill="url(#bar-gradient-2)" rx="2.5" ry="2.5" style="stroke: none; stroke-width: 0; filter: none;"/><rect x="205" y="88.77777777777779" width="5" height="31.333333333333332" fill="url(#bar-gradient-2)" rx="2.5" ry="2.5" style="stroke: none; stroke-width: 0; filter: none;"/><rect x="212" y="88.77777777777779" width="5" height="31.333333333333332" fill="url(#bar-gradient-2)" rx="2.5" ry="2.5" style="stroke: none; stroke-width: 0; filter: none;"/><rect x="219" y="88.77777777777779" width="5" height="31.333333333333332" fill="url(#bar-gradient-2)" rx="2.5" ry="2.5" style="stroke: none; stroke-width: 0; filter: none;"/><rect x="234" y="88.77777777777779" width="5" height="31.333333333333332" fill="url(#bar-gradient-3)" rx="2.5" ry="2.5" style="stroke: none; stroke-width: 0; filter: none;"/><rect x="241" y="88.77777777777779" width="5" height="31.333333333333332" fill="url(#bar-gradient-3)" rx="2.5" ry="2.5" style="stroke: none; stroke-width: 0; filter: none;"/><rect x="248" y="88.77777777777779" width="5" height="31.333333333333332" fill="url(#bar-gradient-3)" rx="2.5" ry="2.5" style="stroke: none; stroke-width: 0; filter: none;"/><rect x="255" y="88.77777777777779" width="5" height="31.333333333333332" fill="url(#bar-gradient-3)" rx="2.5" ry="2.5" style="stroke: none; stroke-width: 0; filter: none;"/><rect x="262" y="88.77777777777779" width="5" height="31.333333333333332" fill="url(#bar-gradient-3)" rx="2.5" ry="2.5" style="stroke: none; stroke-width: 0; filter: none;"/><text x="-10" y="104.44444444444446" dy="0.35em" text-anchor="end" style="font-family: Arial; font-size: 16px; font-weight: 500; fill: rgb(65, 65, 65);">Eastside</text><text x="279" y="104.44444444444446" dy="0.35em" text-anchor="start" style="font-family: Arial; font-size: 25.0667px; font-weight: 400; fill: rgb(65, 65, 65);">35.1%</text><rect x="0" y="154.05555555555557" width="5" height="31.333333333333332" fill="url(#bar-gradient-0)" rx="2.5" ry="2.5" style="stroke: none; stroke-width: 0; filter: none;"/><rect x="7" y="154.05555555555557" width="5" height="31.333333333333332" fill="url(#bar-gradient-0)" rx="2.5" ry="2.5" style="stroke: none; stroke-width: 0; filter: none;"/><rect x="14" y="154.05555555555557" width="5" height="31.333333333333332" fill="url(#bar-gradient-0)" rx="2.5" ry="2.5" style="stroke: none; stroke-width: 0; filter: none;"/><rect x="21" y="154.05555555555557" width="5" height="31.333333333333332" fill="url(#bar-gradient-0)" rx="2.5" ry="2.5" style="stroke: none; stroke-width: 0; filter: none;"/><rect x="28" y="154.05555555555557" width="5" height="31.333333333333332" fill="url(#bar-gradient-0)" rx="2.5" ry="2.5" style="stroke: none; stroke-width: 0; filter: none;"/><rect x="35" y="154.05555555555557" width="5" height="31.333333333333332" fill="url(#bar-gradient-0)" rx="2.5" ry="2.5" style="stroke: none; stroke-width: 0; filter: none;"/><rect x="42" y="154.05555555555557" width="5" height="31.333333333333332" fill="url(#bar-gradient-0)" rx="2.5" ry="2.5" style="stroke: none; stroke-width: 0; filter: none;"/><rect x="49" y="154.05555555555557" width="5" height="31.333333333333332" fill="url(#bar-gradient-0)" rx="2.5" ry="2.5" style="stroke: none; stroke-width: 0; filter: none;"/><rect x="56" y="154.05555555555557" width="5" height="31.333333333333332" fill="url(#bar-gradient-0)" rx="2.5" ry="2.5" style="stroke: none; stroke-width: 0; filter: none;"/><rect x="63" y="154.05555555555557" width="5" height="31.333333333333332" fill="url(#bar-gradient-0)" rx="2.5" ry="2.5" style="stroke: none; stroke-width: 0; filter: none;"/><rect x="78" y="154.05555555555557" width="5" height="31.333333333333332" fill="url(#bar-gradient-1)" rx="2.5" ry="2.5" style="stroke: none; stroke-width: 0; filter: none;"/><rect x="85" y="154.05555555555557" width="5" height="31.333333333333332" fill="url(#bar-gradient-1)" rx="2.5" ry="2.5" style="stroke: none; stroke-width: 0; filter: none;"/><rect x="92" y="154.05555555555557" width="5" height="31.333333333333332" fill="url(#bar-gradient-1)" rx="2.5" ry="2.5" style="stroke: none; stroke-width: 0; filter: none;"/><rect x="99" y="154.05555555555557" width="5" height="31.333333333333332" fill="url(#bar-gradient-1)" rx="2.5" ry="2.5" style="stroke: none; stroke-width: 0; filter: none;"/><rect x="106" y="154.05555555555557" width="5" height="31.333333333333332" fill="url(#bar-gradient-1)" rx="2.5" ry="2.5" style="stroke: none; stroke-width: 0; filter: none;"/><rect x="113" y="154.05555555555557" width="5" height="31.333333333333332" fill="url(#bar-gradient-1)" rx="2.5" ry="2.5" style="stroke: none; stroke-width: 0; filter: none;"/><rect x="120" y="154.05555555555557" width="5" height="31.333333333333332" fill="url(#bar-gradient-1)" rx="2.5" ry="2.5" style="stroke: none; stroke-width: 0; filter: none;"/><rect x="127" y="154.05555555555557" width="5" height="31.333333333333332" fill="url(#bar-gradient-1)" rx="2.5" ry="2.5" style="stroke: none; stroke-width: 0; filter: none;"/><rect x="134" y="154.05555555555557" width="5" height="31.333333333333332" fill="url(#bar-gradient-1)" rx="2.5" ry="2.5" style="stroke: none; stroke-width: 0; filter: none;"/><rect x="141" y="154.05555555555557" width="5" height="31.333333333333332" fill="url(#bar-gradient-1)" rx="2.5" ry="2.5" style="stroke: none; stroke-width: 0; filter: none;"/><rect x="156" y="154.05555555555557" width="5" height="31.333333333333332" fill="url(#bar-gradient-2)" rx="2.5" ry="2.5" style="stroke: none; stroke-width: 0; filter: none;"/><rect x="163" y="154.05555555555557" width="5" height="31.333333333333332" fill="url(#bar-gradient-2)" rx="2.5" ry="2.5" style="stroke: none; stroke-width: 0; filter: none;"/><rect x="170" y="154.05555555555557" width="5" height="31.333333333333332" fill="url(#bar-gradient-2)" rx="2.5" ry="2.5" style="stroke: none; stroke-width: 0; filter: none;"/><rect x="177" y="154.05555555555557" width="5" height="31.333333333333332" fill="url(#bar-gradient-2)" rx="2.5" ry="2.5" style="stroke: none; stroke-width: 0; filter: none;"/><rect x="184" y="154.05555555555557" width="5" height="31.333333333333332" fill="url(#bar-gradient-2)" rx="2.5" ry="2.5" style="stroke: none; stroke-width: 0; filter: none;"/><rect x="191" y="154.05555555555557" width="5" height="31.333333333333332" fill="url(#bar-gradient-2)" rx="2.5" ry="2.5" style="stroke: none; stroke-width: 0; filter: none;"/><rect x="198" y="154.05555555555557" width="5" height="31.333333333333332" fill="url(#bar-gradient-2)" rx="2.5" ry="2.5" style="stroke: none; stroke-width: 0; filter: none;"/><rect x="205" y="154.05555555555557" width="5" height="31.333333333333332" fill="url(#bar-gradient-2)" rx="2.5" ry="2.5" style="stroke: none; stroke-width: 0; filter: none;"/><rect x="212" y="154.05555555555557" width="5" height="31.333333333333332" fill="url(#bar-gradient-2)" rx="2.5" ry="2.5" style="stroke: none; stroke-width: 0; filter: none;"/><text x="-10" y="169.72222222222223" dy="0.35em" text-anchor="end" style="font-family: Arial; font-size: 16px; font-weight: 500; fill: rgb(65, 65, 65);">Riverview</text><text x="229" y="169.72222222222223" dy="0.35em" text-anchor="start" style="font-family: Arial; font-size: 25.0667px; font-weight: 400; fill: rgb(65, 65, 65);">28.6%</text><rect x="0" y="219.33333333333334" width="5" height="31.333333333333332" fill="url(#bar-gradient-0)" rx="2.5" ry="2.5" style="stroke: none; stroke-width: 0; filter: none;"/><rect x="7" y="219.33333333333334" width="5" height="31.333333333333332" fill="url(#bar-gradient-0)" rx="2.5" ry="2.5" style="stroke: none; stroke-width: 0; filter: none;"/><rect x="14" y="219.33333333333334" width="5" height="31.333333333333332" fill="url(#bar-gradient-0)" rx="2.5" ry="2.5" style="stroke: none; stroke-width: 0; filter: none;"/><rect x="21" y="219.33333333333334" width="5" height="31.333333333333332" fill="url(#bar-gradient-0)" rx="2.5" ry="2.5" style="stroke: none; stroke-width: 0; filter: none;"/><rect x="28" y="219.33333333333334" width="5" height="31.333333333333332" fill="url(#bar-gradient-0)" rx="2.5" ry="2.5" style="stroke: none; stroke-width: 0; filter: none;"/><rect x="35" y="219.33333333333334" width="5" height="31.333333333333332" fill="url(#bar-gradient-0)" rx="2.5" ry="2.5" style="stroke: none; stroke-width: 0; filter: none;"/><rect x="42" y="219.33333333333334" width="5" height="31.333333333333332" fill="url(#bar-gradient-0)" rx="2.5" ry="2.5" style="stroke: none; stroke-width: 0; filter: none;"/><rect x="49" y="219.33333333333334" width="5" height="31.333333333333332" fill="url(#bar-gradient-0)" rx="2.5" ry="2.5" style="stroke: none; stroke-width: 0; filter: none;"/><rect x="56" y="219.33333333333334" width="5" height="31.333333333333332" fill="url(#bar-gradient-0)" rx="2.5" ry="2.5" style="stroke: none; stroke-width: 0; filter: none;"/><rect x="63" y="219.33333333333334" width="5" height="31.333333333333332" fill="url(#bar-gradient-0)" rx="2.5" ry="2.5" style="stroke: none; stroke-width: 0; filter: none;"/><rect x="78" y="219.33333333333334" width="5" height="31.333333333333332" fill="url(#bar-gradient-1)" rx="2.5" ry="2.5" style="stroke: none; stroke-width: 0; filter: none;"/><rect x="85" y="219.33333333333334" width="5" height="31.333333333333332" fill="url(#bar-gradient-1)" rx="2.5" ry="2.5" style="stroke: none; stroke-width: 0; filter: none;"/><rect x="92" y="219.33333333333334" width="5" height="31.333333333333332" fill="url(#bar-gradient-1)" rx="2.5" ry="2.5" style="stroke: none; stroke-width: 0; filter: none;"/><rect x="99" y="219.33333333333334" width="5" height="31.333333333333332" fill="url(#bar-gradient-1)" rx="2.5" ry="2.5" style="stroke: none; stroke-width: 0; filter: none;"/><rect x="106" y="219.33333333333334" width="5" height="31.333333333333332" fill="url(#bar-gradient-1)" rx="2.5" ry="2.5" style="stroke: none; stroke-width: 0; filter: none;"/><rect x="113" y="219.33333333333334" width="5" height="31.333333333333332" fill="url(#bar-gradient-1)" rx="2.5" ry="2.5" style="stroke: none; stroke-width: 0; filter: none;"/><rect x="120" y="219.33333333333334" width="5" height="31.333333333333332" fill="url(#bar-gradient-1)" rx="2.5" ry="2.5" style="stroke: none; stroke-width: 0; filter: none;"/><rect x="127" y="219.33333333333334" width="5" height="31.333333333333332" fill="url(#bar-gradient-1)" rx="2.5" ry="2.5" style="stroke: none; stroke-width: 0; filter: none;"/><rect x="134" y="219.33333333333334" width="5" height="31.333333333333332" fill="url(#bar-gradient-1)" rx="2.5" ry="2.5" style="stroke: none; stroke-width: 0; filter: none;"/><rect x="141" y="219.33333333333334" width="5" height="31.333333333333332" fill="url(#bar-gradient-1)" rx="2.5" ry="2.5" style="stroke: none; stroke-width: 0; filter: none;"/><rect x="156" y="219.33333333333334" width="5" height="31.333333333333332" fill="url(#bar-gradient-2)" rx="2.5" ry="2.5" style="stroke: none; stroke-width: 0; filter: none;"/><rect x="163" y="219.33333333333334" width="5" height="31.333333333333332" fill="url(#bar-gradient-2)" rx="2.5" ry="2.5" style="stroke: none; stroke-width: 0; filter: none;"/><text x="-10" y="235" dy="0.35em" text-anchor="end" style="font-family: Arial; font-size: 16px; font-weight: 500; fill: rgb(65, 65, 65);">Uptown</text><text x="180" y="235" dy="0.35em" text-anchor="start" style="font-family: Arial; font-size: 25.0667px; font-weight: 400; fill: rgb(65, 65, 65);">22.3%</text><rect x="0" y="284.6111111111111" width="5" height="31.333333333333332" fill="url(#bar-gradient-0)" rx="2.5" ry="2.5" style="stroke: none; stroke-width: 0; filter: none;"/><rect x="7" y="284.6111111111111" width="5" height="31.333333333333332" fill="url(#bar-gradient-0)" rx="2.5" ry="2.5" style="stroke: none; stroke-width: 0; filter: none;"/><rect x="14" y="284.6111111111111" width="5" height="31.333333333333332" fill="url(#bar-gradient-0)" rx="2.5" ry="2.5" style="stroke: none; stroke-width: 0; filter: none;"/><rect x="21" y="284.6111111111111" width="5" height="31.333333333333332" fill="url(#bar-gradient-0)" rx="2.5" ry="2.5" style="stroke: none; stroke-width: 0; filter: none;"/><rect x="28" y="284.6111111111111" width="5" height="31.333333333333332" fill="url(#bar-gradient-0)" rx="2.5" ry="2.5" style="stroke: none; stroke-width: 0; filter: none;"/><rect x="35" y="284.6111111111111" width="5" height="31.333333333333332" fill="url(#bar-gradient-0)" rx="2.5" ry="2.5" style="stroke: none; stroke-width: 0; filter: none;"/><rect x="42" y="284.6111111111111" width="5" height="31.333333333333332" fill="url(#bar-gradient-0)" rx="2.5" ry="2.5" style="stroke: none; stroke-width: 0; filter: none;"/><rect x="49" y="284.6111111111111" width="5" height="31.333333333333332" fill="url(#bar-gradient-0)" rx="2.5" ry="2.5" style="stroke: none; stroke-width: 0; filter: none;"/><rect x="56" y="284.6111111111111" width="5" height="31.333333333333332" fill="url(#bar-gradient-0)" rx="2.5" ry="2.5" style="stroke: none; stroke-width: 0; filter: none;"/><rect x="63" y="284.6111111111111" width="5" height="31.333333333333332" fill="url(#bar-gradient-0)" rx="2.5" ry="2.5" style="stroke: none; stroke-width: 0; filter: none;"/><rect x="78" y="284.6111111111111" width="5" height="31.333333333333332" fill="url(#bar-gradient-1)" rx="2.5" ry="2.5" style="stroke: none; stroke-width: 0; filter: none;"/><rect x="85" y="284.6111111111111" width="5" height="31.333333333333332" fill="url(#bar-gradient-1)" rx="2.5" ry="2.5" style="stroke: none; stroke-width: 0; filter: none;"/><rect x="92" y="284.6111111111111" width="5" height="31.333333333333332" fill="url(#bar-gradient-1)" rx="2.5" ry="2.5" style="stroke: none; stroke-width: 0; filter: none;"/><rect x="99" y="284.6111111111111" width="5" height="31.333333333333332" fill="url(#bar-gradient-1)" rx="2.5" ry="2.5" style="stroke: none; stroke-width: 0; filter: none;"/><rect x="106" y="284.6111111111111" width="5" height="31.333333333333332" fill="url(#bar-gradient-1)" rx="2.5" ry="2.5" style="stroke: none; stroke-width: 0; filter: none;"/><rect x="113" y="284.6111111111111" width="5" height="31.333333333333332" fill="url(#bar-gradient-1)" rx="2.5" ry="2.5" style="stroke: none; stroke-width: 0; filter: none;"/><text x="-10" y="300.2777777777777" dy="0.35em" text-anchor="end" style="font-family: Arial; font-size: 16px; font-weight: 500; fill: rgb(65, 65, 65);">Westside</text><text x="130" y="300.2777777777777" dy="0.35em" text-anchor="start" style="font-family: Arial; font-size: 25.0667px; font-weight: 400; fill: rgb(65, 65, 65);">15.7%</text><rect x="0" y="349.8888888888889" width="5" height="31.333333333333332" fill="url(#bar-gradient-0)" rx="2.5" ry="2.5" style="stroke: none; stroke-width: 0; filter: none;"/><rect x="7" y="349.8888888888889" width="5" height="31.333333333333332" fill="url(#bar-gradient-0)" rx="2.5" ry="2.5" style="stroke: none; stroke-width: 0; filter: none;"/><rect x="14" y="349.8888888888889" width="5" height="31.333333333333332" fill="url(#bar-gradient-0)" rx="2.5" ry="2.5" style="stroke: none; stroke-width: 0; filter: none;"/><rect x="21" y="349.8888888888889" width="5" height="31.333333333333332" fill="url(#bar-gradient-0)" rx="2.5" ry="2.5" style="stroke: none; stroke-width: 0; filter: none;"/><rect x="28" y="349.8888888888889" width="5" height="31.333333333333332" fill="url(#bar-gradient-0)" rx="2.5" ry="2.5" style="stroke: none; stroke-width: 0; filter: none;"/><rect x="35" y="349.8888888888889" width="5" height="31.333333333333332" fill="url(#bar-gradient-0)" rx="2.5" ry="2.5" style="stroke: none; stroke-width: 0; filter: none;"/><rect x="42" y="349.8888888888889" width="5" height="31.333333333333332" fill="url(#bar-gradient-0)" rx="2.5" ry="2.5" style="stroke: none; stroke-width: 0; filter: none;"/><rect x="49" y="349.8888888888889" width="5" height="31.333333333333332" fill="url(#bar-gradient-0)" rx="2.5" ry="2.5" style="stroke: none; stroke-width: 0; filter: none;"/><rect x="56" y="349.8888888888889" width="5" height="31.333333333333332" fill="url(#bar-gradient-0)" rx="2.5" ry="2.5" style="stroke: none; stroke-width: 0; filter: none;"/><rect x="63" y="349.8888888888889" width="5" height="31.333333333333332" fill="url(#bar-gradient-0)" rx="2.5" ry="2.5" style="stroke: none; stroke-width: 0; filter: none;"/><rect x="78" y="349.8888888888889" width="5" height="31.333333333333332" fill="url(#bar-gradient-1)" rx="2.5" ry="2.5" style="stroke: none; stroke-width: 0; filter: none;"/><rect x="85" y="349.8888888888889" width="5" height="31.333333333333332" fill="url(#bar-gradient-1)" rx="2.5" ry="2.5" style="stroke: none; stroke-width: 0; filter: none;"/><rect x="92" y="349.8888888888889" width="5" height="31.333333333333332" fill="url(#bar-gradient-1)" rx="2.5" ry="2.5" style="stroke: none; stroke-width: 0; filter: none;"/><text x="-10" y="365.55555555555554" dy="0.35em" text-anchor="end" style="font-family: Arial; font-size: 16px; font-weight: 500; fill: rgb(65, 65, 65);">North End</text><text x="109" y="365.55555555555554" dy="0.35em" text-anchor="start" style="font-family: Arial; font-size: 25.0667px; font-weight: 400; fill: rgb(65, 65, 65);">12.9%</text><rect x="0" y="415.16666666666663" width="5" height="31.333333333333332" fill="url(#bar-gradient-0)" rx="2.5" ry="2.5" style="stroke: none; stroke-width: 0; filter: none;"/><rect x="7" y="415.16666666666663" width="5" height="31.333333333333332" fill="url(#bar-gradient-0)" rx="2.5" ry="2.5" style="stroke: none; stroke-width: 0; filter: none;"/><rect x="14" y="415.16666666666663" width="5" height="31.333333333333332" fill="url(#bar-gradient-0)" rx="2.5" ry="2.5" style="stroke: none; stroke-width: 0; filter: none;"/><rect x="21" y="415.16666666666663" width="5" height="31.333333333333332" fill="url(#bar-gradient-0)" rx="2.5" ry="2.5" style="stroke: none; stroke-width: 0; filter: none;"/><rect x="28" y="415.16666666666663" width="5" height="31.333333333333332" fill="url(#bar-gradient-0)" rx="2.5" ry="2.5" style="stroke: none; stroke-width: 0; filter: none;"/><rect x="35" y="415.16666666666663" width="5" height="31.333333333333332" fill="url(#bar-gradient-0)" rx="2.5" ry="2.5" style="stroke: none; stroke-width: 0; filter: none;"/><rect x="42" y="415.16666666666663" width="5" height="31.333333333333332" fill="url(#bar-gradient-0)" rx="2.5" ry="2.5" style="stroke: none; stroke-width: 0; filter: none;"/><rect x="49" y="415.16666666666663" width="5" height="31.333333333333332" fill="url(#bar-gradient-0)" rx="2.5" ry="2.5" style="stroke: none; stroke-width: 0; filter: none;"/><rect x="56" y="415.16666666666663" width="5" height="31.333333333333332" fill="url(#bar-gradient-0)" rx="2.5" ry="2.5" style="stroke: none; stroke-width: 0; filter: none;"/><text x="-10" y="430.83333333333326" dy="0.35em" text-anchor="end" style="font-family: Arial; font-size: 16px; font-weight: 500; fill: rgb(65, 65, 65);">Downtown</text><text x="73" y="430.83333333333326" dy="0.35em" text-anchor="start" style="font-family: Arial; font-size: 25.0667px; font-weight: 400; fill: rgb(65, 65, 65);">8.5%</text></g>         </g></svg>