<svg xmlns='http://www.w3.org/2000/svg' xmlns:xlink='http://www.w3.org/1999/xlink' width='195' height='417'>
        <g transform='translate(-227.41419041843542, -92.0)'>             <g xmlns="http://www.w3.org/2000/svg" xmlns:xlink="http://www.w3.org/1999/xlink" transform="translate(60, 40)"><polygon points="167.41419041843542,52 252.58580958156458,52 245.75985445724683,111.42857142857143 174.24014554275317,111.42857142857143" fill="#667eea"/><text x="262.5858095815646" y="81.71428571428572" dominant-baseline="middle" font-size="14px" font-weight="bold">South Park 25%</text><polygon points="174.24014554275317,111.42857142857143 245.75985445724683,111.42857142857143 239.1376591873863,170.85714285714286 180.8623408126137,170.85714285714286" fill="#764ba2"/><text x="255.75985445724683" y="141.14285714285714" dominant-baseline="middle" font-size="14px" font-weight="bold">Eastside 21%</text><polygon points="180.8623408126137,170.85714285714286 239.1376591873863,170.85714285714286 232.71922377198302,230.28571428571428 187.28077622801698,230.28571428571428" fill="#4ecdc4"/><text x="249.1376591873863" y="200.57142857142858" dominant-baseline="middle" font-size="14px" font-weight="bold">Riverview 17%</text><polygon points="187.28077622801698,230.28571428571428 232.71922377198302,230.28571428571428 225.99514857489388,289.7142857142857 194.00485142510612,289.7142857142857" fill="#ff6b6b"/><text x="242.71922377198302" y="260" dominant-baseline="middle" font-size="14px" font-weight="bold">Uptown 14%</text><polygon points="194.00485142510612,289.7142857142857 225.99514857489388,289.7142857142857 223.14251061249243,349.14285714285717 196.85748938750757,349.14285714285717" fill="#ffe66d"/><text x="235.99514857489388" y="319.42857142857144" dominant-baseline="middle" font-size="14px" font-weight="bold">Westside 10%</text><polygon points="196.85748938750757,349.14285714285717 223.14251061249243,349.14285714285717 218.659793814433,408.5714285714286 201.340206185567,408.5714285714286" fill="#6f1d46"/><text x="233.14251061249243" y="378.8571428571429" dominant-baseline="middle" font-size="14px" font-weight="bold">North End 8%</text><polygon points="201.340206185567,408.57142857142856 218.659793814433,408.57142857142856 216.9278350515464,468 203.0721649484536,468" fill="#153f67"/><text x="228.659793814433" y="438.2857142857143" dominant-baseline="middle" font-size="14px" font-weight="bold">Downtown 5%</text></g>         </g></svg>