<svg xmlns='http://www.w3.org/2000/svg' xmlns:xlink='http://www.w3.org/1999/xlink' width='533' height='519'>
        <g transform='translate(-29.150000000000034, -30.550000000000026)'>             <g xmlns="http://www.w3.org/2000/svg" xmlns:xlink="http://www.w3.org/1999/xlink" transform="translate(300, 300)"><path d="M0,-256.75L0,-52Z" stroke="#e0e0e0" stroke-width="1" fill="none"/><text x="1.5960209409887878e-14" y="-260.65" text-anchor="middle" dominant-baseline="middle" fill="#888" style="font-size: 12px;">0</text><path d="M207.715,-150.914L42.069,-30.565Z" stroke="#e0e0e0" stroke-width="1" fill="none"/><text x="210.87027958383004" y="-153.2062260100331" text-anchor="middle" dominant-baseline="middle" fill="#888" style="font-size: 12px;">8.36</text><path d="M244.184,79.34L49.455,16.069Z" stroke="#e0e0e0" stroke-width="1" fill="none"/><text x="247.89288097233174" y="80.54527958383004" text-anchor="middle" dominant-baseline="middle" fill="#888" style="font-size: 12px;">16.72</text><path d="M79.34,244.184L16.069,49.455Z" stroke="#e0e0e0" stroke-width="1" fill="none"/><text x="80.54527958383005" y="247.89288097233174" text-anchor="middle" dominant-baseline="middle" fill="#888" style="font-size: 12px;">25.08</text><path d="M-150.914,207.715L-30.565,42.069Z" stroke="#e0e0e0" stroke-width="1" fill="none"/><text x="-153.20622601003308" y="210.87027958383004" text-anchor="middle" dominant-baseline="middle" fill="#888" style="font-size: 12px;">33.44</text><path d="M-256.75,0L-52,0Z" stroke="#e0e0e0" stroke-width="1" fill="none"/><text x="-260.65" y="3.1920418819775757e-14" text-anchor="middle" dominant-baseline="middle" fill="#888" style="font-size: 12px;">41.8</text><path d="             M 9.692971431638037 -51.08861228126528             A 9.75 9.75 0 0 1 9.719811139680413 -70.83625675746103             A 71.5 71.5 0 1 1 -70.83625675746103 9.719811139680417             A 9.75 9.75 0 0 1 -51.08861228126527 9.692971431638039             A 52 52 0 1 0 9.692971431638037 -51.08861228126528             Z         " fill="#ff4d4f" opacity="0.85"/><text x="-19.999999999999996" y="-61.75" text-anchor="end" dominant-baseline="middle" fill="#222b44" style="font-size: 16px; font-weight: bold;">South Park</text><path id="valueTextPath-0" d="M-44.015,43.31A61.75,61.75,0,0,1,-49.957,-36.296A61.75,61.75,0,0,0,-44.015,43.31Z" style="fill: none; stroke: none;"/><text font-size="12px" fill="#b71c1c"><textPath xlink:href="#valueTextPath-0" startOffset="30%" text-anchor="start" dominant-baseline="start">41.8</textPath></text><path d="             M 9.725794650364646 -79.26267837844657             A 9.75 9.75 0 0 1 9.734359331900741 -98.87913877624608             A 99.35714285714286 99.35714285714286 0 1 1 -65.31493274346376 74.87189991880466             A 9.75 9.75 0 0 1 -51.03919943182723 61.41794026719139             A 79.85714285714286 79.85714285714286 0 1 0 9.725794650364646 -79.26267837844657             Z         " fill="#ff4d4f" opacity="0.85"/><text x="-19.999999999999993" y="-89.60714285714286" text-anchor="end" dominant-baseline="middle" fill="#222b44" style="font-size: 16px; font-weight: bold;">Eastside</text><path id="valueTextPath-1" d="M-24.745,86.123A89.607,89.607,0,0,1,-87.454,19.526A89.607,89.607,0,0,0,-24.745,86.123Z" style="fill: none; stroke: none;"/><text font-size="12px" fill="#b71c1c"><textPath xlink:href="#valueTextPath-1" startOffset="30%" text-anchor="start" dominant-baseline="start">35.1</textPath></text><path d="             M 9.736691225502735 -107.27331537208121             A 9.75 9.75 0 0 1 9.740457475691784 -126.84083718566414             A 127.21428571428572 127.21428571428572 0 1 1 -0.7672444388895787 127.21197202216037             A 9.75 9.75 0 0 1 0.8448753184565105 107.71097220169837             A 107.71428571428572 107.71428571428572 0 1 0 9.736691225502735 -107.27331537208121             Z         " fill="#ff4d4f" opacity="0.85"/><text x="-19.999999999999993" y="-117.46428571428572" text-anchor="end" dominant-baseline="middle" fill="#222b44" style="font-size: 16px; font-weight: bold;">Riverview</text><path id="valueTextPath-2" d="M37.614,111.279A117.464,117.464,0,0,1,-55.417,103.57A117.464,117.464,0,0,0,37.614,111.279Z" style="fill: none; stroke: none;"/><text font-size="12px" fill="#b71c1c"><textPath xlink:href="#valueTextPath-2" startOffset="30%" text-anchor="start" dominant-baseline="start">28.6</textPath></text><path d="             M 9.741597395178934 -135.22098034361457             A 9.75 9.75 0 0 1 9.743577365930525 -154.76501755660996             A 155.07142857142856 155.07142857142856 0 0 1 98.76148791311041 119.5546588986486             A 9.75 9.75 0 0 1 87.28407513959212 103.73573382361543             A 135.57142857142856 135.57142857142856 0 0 0 9.741597395178934 -135.22098034361457             Z         " fill="#ff4d4f" opacity="0.85"/><text x="-19.99999999999999" y="-145.32142857142856" text-anchor="end" dominant-baseline="middle" fill="#222b44" style="font-size: 16px; font-weight: bold;">Uptown</text><path id="valueTextPath-3" d="M118.868,83.598A145.321,145.321,0,0,1,42.566,138.948A145.321,145.321,0,0,0,118.868,83.598Z" style="fill: none; stroke: none;"/><text font-size="12px" fill="#b71c1c"><textPath xlink:href="#valueTextPath-3" startOffset="30%" text-anchor="start" dominant-baseline="start">22.3</textPath></text><path d="             M 9.744217317600992 -163.13781961289985             A 9.75 9.75 0 0 1 9.745384297352533 -182.66879790975491             A 182.92857142857144 182.92857142857144 0 0 1 180.98587849035746 26.588983282019925             A 9.75 9.75 0 0 1 161.84076665881096 22.725848861417326             A 163.42857142857144 163.42857142857144 0 0 0 9.744217317600992 -163.13781961289985             Z         " fill="#ff4d4f" opacity="0.85"/><text x="-19.99999999999999" y="-173.17857142857144" text-anchor="end" dominant-baseline="middle" fill="#222b44" style="font-size: 16px; font-weight: bold;">Westside</text><path id="valueTextPath-4" d="M172.652,-13.495A173.179,173.179,0,0,1,153.9,79.407A173.179,173.179,0,0,0,172.652,-13.495Z" style="fill: none; stroke: none;"/><text font-size="12px" fill="#b71c1c"><textPath xlink:href="#valueTextPath-4" startOffset="30%" text-anchor="start" dominant-baseline="start">15.7</textPath></text><path d="             M 9.745778749675441 -191.03728506853915             A 9.75 9.75 0 0 1 9.746523567600933 -210.56025889346967             A 210.78571428571428 210.78571428571428 0 0 1 208.00027183619267 -34.15412512433487             A 9.75 9.75 0 0 1 188.6097075856543 -31.88420759952964             A 191.28571428571428 191.28571428571428 0 0 0 9.745778749675441 -191.03728506853915             Z         " fill="#ff4d4f" opacity="0.85"/><text x="-19.99999999999999" y="-201.03571428571428" text-anchor="end" dominant-baseline="middle" fill="#222b44" style="font-size: 16px; font-weight: bold;">North End</text><path id="valueTextPath-5" d="M188.482,-69.927A201.036,201.036,0,0,1,199.535,24.519A201.036,201.036,0,0,0,188.482,-69.927Z" style="fill: none; stroke: none;"/><text font-size="12px" fill="#b71c1c"><textPath xlink:href="#valueTextPath-5" startOffset="30%" text-anchor="start" dominant-baseline="start">12.9</textPath></text><path d="             M 9.7467836376242 -218.92599673281387             A 9.75 9.75 0 0 1 9.747287751546963 -238.44371169480368             A 238.64285714285714 238.64285714285714 0 0 1 189.48881712599297 -145.06688612325732             A 9.75 9.75 0 0 1 173.51985054812152 -133.84488523097272             A 219.14285714285714 219.14285714285714 0 0 0 9.7467836376242 -218.92599673281387             Z         " fill="#ff4d4f" opacity="0.85"/><text x="-19.999999999999986" y="-228.89285714285714" text-anchor="end" dominant-baseline="middle" fill="#222b44" style="font-size: 16px; font-weight: bold;">Downtown</text><path id="valueTextPath-6" d="M164.354,-159.31A228.893,228.893,0,0,1,205.58,-100.643A228.893,228.893,0,0,0,164.354,-159.31Z" style="fill: none; stroke: none;"/><text font-size="12px" fill="#b71c1c"><textPath xlink:href="#valueTextPath-6" startOffset="30%" text-anchor="start" dominant-baseline="start">8.5</textPath></text></g>         </g></svg>