<svg xmlns='http://www.w3.org/2000/svg' xmlns:xlink='http://www.w3.org/1999/xlink' width='466' height='473'>
        <g transform='translate(-91.80909114099003, -144.0)'>             <g xmlns="http://www.w3.org/2000/svg" xmlns:xlink="http://www.w3.org/1999/xlink" transform="translate(60, 40)"><polygon points="169.54383815872006,204.17716265459796 250.45616184127994,204.17716265459796 210,104 210,104" fill="#bf9364"/><text x="260.45616184127994" y="154.08858132729898" dominant-baseline="middle" font-size="14px" font-weight="bold">Downtown 5%</text><polygon points="145.8078233996626,267.95205634369256 274.1921766003374,267.95205634369256 250.45616184127994,209.17716265459796 169.54383815872006,209.17716265459796" fill="#70e573"/><text x="284.1921766003374" y="238.56460949914526" dominant-baseline="middle" font-size="14px" font-weight="bold">North End 8%</text><polygon points="125.47947812901387,323.2889112995847 294.52052187098616,323.2889112995847 274.1921766003374,272.95205634369256 145.8078233996626,272.95205634369256" fill="#ffe66d"/><text x="304.52052187098616" y="298.12048382163863" dominant-baseline="middle" font-size="14px" font-weight="bold">Westside 10%</text><polygon points="103.05304160356576,383.82103983878955 316.94695839643424,383.82103983878955 294.52052187098616,328.2889112995847 125.47947812901387,328.2889112995847" fill="#ff6b6b"/><text x="326.94695839643424" y="356.05497556918715" dominant-baseline="middle" font-size="14px" font-weight="bold">Uptown 14%</text><polygon points="79.82830762156988,446.32990493706507 340.1716923784301,446.32990493706507 316.94695839643424,388.82103983878955 103.05304160356576,388.82103983878955" fill="#4ecdc4"/><text x="350.1716923784301" y="417.57547238792733" dominant-baseline="middle" font-size="14px" font-weight="bold">Riverview 17%</text><polygon points="56.041297780592174,510.2310721623432 363.9587022194078,510.2310721623432 340.1716923784301,451.32990493706507 79.82830762156988,451.32990493706507" fill="#764ba2"/><text x="373.9587022194078" y="480.78048854970416" dominant-baseline="middle" font-size="14px" font-weight="bold">Eastside 21%</text><polygon points="31.809091140990034,575.2346314604056 388.19090885900994,575.2346314604056 363.9587022194078,515.2310721623433 56.041297780592174,515.2310721623433" fill="#667eea"/><text x="398.19090885900994" y="545.2328518113744" dominant-baseline="middle" font-size="14px" font-weight="bold">South Park 25%</text></g>         </g></svg>