<svg xmlns='http://www.w3.org/2000/svg' xmlns:xlink='http://www.w3.org/1999/xlink' width='504' height='343'>
        <g transform='translate(-48.5, -135.825)'>             <defs xmlns="http://www.w3.org/2000/svg" xmlns:xlink="http://www.w3.org/1999/xlink"/><g xmlns="http://www.w3.org/2000/svg" xmlns:xlink="http://www.w3.org/1999/xlink" transform="translate(97.5, 205)"><circle r="47.375" fill="none" stroke="#414141" stroke-width="1.5" style="filter: none;"/><line x1="0" y1="-47.375" x2="0" y2="-44.05875" stroke="#414141" stroke-width="1.5"/><line x1="47.375" y1="0" x2="44.05875" y2="0" stroke="#414141" stroke-width="1.5"/><line x1="0" y1="47.375" x2="0" y2="44.05875" stroke="#414141" stroke-width="1.5"/><line x1="-47.375" y1="0" x2="-44.05875" y2="0" stroke="#414141" stroke-width="1.5"/><path d="M0,-42.637A42.638,42.638,0,1,0,40.066,-14.583L0,0Z" fill="#4e79a7" stroke="none" stroke-width="0" style="filter: none; opacity: 0.85;"/><text x="0" y="-57.375" text-anchor="middle" style="font-family: Arial; font-size: 16px; font-weight: 500; fill: rgb(65, 65, 65);">South Park</text><text x="0" y="62.375" text-anchor="middle" style="font-family: Arial; font-size: 12px; font-weight: 400; fill: rgb(65, 65, 65);">41.8 %</text></g><g xmlns="http://www.w3.org/2000/svg" xmlns:xlink="http://www.w3.org/1999/xlink" transform="translate(232.5, 205)"><circle r="47.375" fill="none" stroke="#414141" stroke-width="1.5" style="filter: none;"/><line x1="0" y1="-47.375" x2="0" y2="-44.05875" stroke="#414141" stroke-width="1.5"/><line x1="47.375" y1="0" x2="44.05875" y2="0" stroke="#414141" stroke-width="1.5"/><line x1="0" y1="47.375" x2="0" y2="44.05875" stroke="#414141" stroke-width="1.5"/><line x1="-47.375" y1="0" x2="-44.05875" y2="0" stroke="#414141" stroke-width="1.5"/><path d="M0,-42.637A42.638,42.638,0,1,0,38.163,19.014L0,0Z" fill="#4e79a7" stroke="none" stroke-width="0" style="filter: none; opacity: 0.85;"/><text x="0" y="-57.375" text-anchor="middle" style="font-family: Arial; font-size: 16px; font-weight: 500; fill: rgb(65, 65, 65);">Eastside</text><text x="0" y="62.375" text-anchor="middle" style="font-family: Arial; font-size: 12px; font-weight: 400; fill: rgb(65, 65, 65);">35.1 %</text></g><g xmlns="http://www.w3.org/2000/svg" xmlns:xlink="http://www.w3.org/1999/xlink" transform="translate(367.5, 205)"><circle r="47.375" fill="none" stroke="#414141" stroke-width="1.5" style="filter: none;"/><line x1="0" y1="-47.375" x2="0" y2="-44.05875" stroke="#414141" stroke-width="1.5"/><line x1="47.375" y1="0" x2="44.05875" y2="0" stroke="#414141" stroke-width="1.5"/><line x1="0" y1="47.375" x2="0" y2="44.05875" stroke="#414141" stroke-width="1.5"/><line x1="-47.375" y1="0" x2="-44.05875" y2="0" stroke="#414141" stroke-width="1.5"/><path d="M0,-42.637A42.638,42.638,0,1,0,13.473,40.453L0,0Z" fill="#4e79a7" stroke="none" stroke-width="0" style="filter: none; opacity: 0.85;"/><text x="0" y="-57.375" text-anchor="middle" style="font-family: Arial; font-size: 16px; font-weight: 500; fill: rgb(65, 65, 65);">Riverview</text><text x="0" y="62.375" text-anchor="middle" style="font-family: Arial; font-size: 12px; font-weight: 400; fill: rgb(65, 65, 65);">28.6 %</text></g><g xmlns="http://www.w3.org/2000/svg" xmlns:xlink="http://www.w3.org/1999/xlink" transform="translate(502.5, 205)"><circle r="47.375" fill="none" stroke="#414141" stroke-width="1.5" style="filter: none;"/><line x1="0" y1="-47.375" x2="0" y2="-44.05875" stroke="#414141" stroke-width="1.5"/><line x1="47.375" y1="0" x2="44.05875" y2="0" stroke="#414141" stroke-width="1.5"/><line x1="0" y1="47.375" x2="0" y2="44.05875" stroke="#414141" stroke-width="1.5"/><line x1="-47.375" y1="0" x2="-44.05875" y2="0" stroke="#414141" stroke-width="1.5"/><path d="M0,-42.637A42.638,42.638,0,0,0,-18.213,38.552L0,0Z" fill="#4e79a7" stroke="none" stroke-width="0" style="filter: none; opacity: 0.85;"/><text x="0" y="-57.375" text-anchor="middle" style="font-family: Arial; font-size: 16px; font-weight: 500; fill: rgb(65, 65, 65);">Uptown</text><text x="0" y="62.375" text-anchor="middle" style="font-family: Arial; font-size: 12px; font-weight: 400; fill: rgb(65, 65, 65);">22.3 %</text></g><g xmlns="http://www.w3.org/2000/svg" xmlns:xlink="http://www.w3.org/1999/xlink" transform="translate(165, 415)"><circle r="47.375" fill="none" stroke="#414141" stroke-width="1.5" style="filter: none;"/><line x1="0" y1="-47.375" x2="0" y2="-44.05875" stroke="#414141" stroke-width="1.5"/><line x1="47.375" y1="0" x2="44.05875" y2="0" stroke="#414141" stroke-width="1.5"/><line x1="0" y1="47.375" x2="0" y2="44.05875" stroke="#414141" stroke-width="1.5"/><line x1="-47.375" y1="0" x2="-44.05875" y2="0" stroke="#414141" stroke-width="1.5"/><path d="M0,-42.637A42.638,42.638,0,0,0,-40.333,13.828L0,0Z" fill="#4e79a7" stroke="none" stroke-width="0" style="filter: none; opacity: 0.85;"/><text x="0" y="-57.375" text-anchor="middle" style="font-family: Arial; font-size: 16px; font-weight: 500; fill: rgb(65, 65, 65);">Westside</text><text x="0" y="62.375" text-anchor="middle" style="font-family: Arial; font-size: 12px; font-weight: 400; fill: rgb(65, 65, 65);">15.7 %</text></g><g xmlns="http://www.w3.org/2000/svg" xmlns:xlink="http://www.w3.org/1999/xlink" transform="translate(300, 415)"><circle r="47.375" fill="none" stroke="#414141" stroke-width="1.5" style="filter: none;"/><line x1="0" y1="-47.375" x2="0" y2="-44.05875" stroke="#414141" stroke-width="1.5"/><line x1="47.375" y1="0" x2="44.05875" y2="0" stroke="#414141" stroke-width="1.5"/><line x1="0" y1="47.375" x2="0" y2="44.05875" stroke="#414141" stroke-width="1.5"/><line x1="-47.375" y1="0" x2="-44.05875" y2="0" stroke="#414141" stroke-width="1.5"/><path d="M0,-42.637A42.638,42.638,0,0,0,-42.636,-0.374L0,0Z" fill="#4e79a7" stroke="none" stroke-width="0" style="filter: none; opacity: 0.85;"/><text x="0" y="-57.375" text-anchor="middle" style="font-family: Arial; font-size: 16px; font-weight: 500; fill: rgb(65, 65, 65);">North End</text><text x="0" y="62.375" text-anchor="middle" style="font-family: Arial; font-size: 12px; font-weight: 400; fill: rgb(65, 65, 65);">12.9 %</text></g><g xmlns="http://www.w3.org/2000/svg" xmlns:xlink="http://www.w3.org/1999/xlink" transform="translate(435, 415)"><circle r="47.375" fill="none" stroke="#414141" stroke-width="1.5" style="filter: none;"/><line x1="0" y1="-47.375" x2="0" y2="-44.05875" stroke="#414141" stroke-width="1.5"/><line x1="47.375" y1="0" x2="44.05875" y2="0" stroke="#414141" stroke-width="1.5"/><line x1="0" y1="47.375" x2="0" y2="44.05875" stroke="#414141" stroke-width="1.5"/><line x1="-47.375" y1="0" x2="-44.05875" y2="0" stroke="#414141" stroke-width="1.5"/><path d="M0,-42.637A42.638,42.638,0,0,0,-36.536,-21.978L0,0Z" fill="#4e79a7" stroke="none" stroke-width="0" style="filter: none; opacity: 0.85;"/><text x="0" y="-57.375" text-anchor="middle" style="font-family: Arial; font-size: 16px; font-weight: 500; fill: rgb(65, 65, 65);">Downtown</text><text x="0" y="62.375" text-anchor="middle" style="font-family: Arial; font-size: 12px; font-weight: 400; fill: rgb(65, 65, 65);">8.5 %</text></g>         </g></svg>