<svg xmlns='http://www.w3.org/2000/svg' xmlns:xlink='http://www.w3.org/1999/xlink' width='664' height='524'>
        <g transform='translate(40.230536289092356, -20.19999999999999)'>             <g xmlns="http://www.w3.org/2000/svg" xmlns:xlink="http://www.w3.org/1999/xlink" transform="translate(300, 300)"><circle class="circle-axis" cx="0" cy="0" r="0" fill="none" stroke="#bbb" stroke-width="1" stroke-dasharray="4,4"/><circle class="circle-axis" cx="0" cy="0" r="45.45454545454545" fill="none" stroke="#bbb" stroke-width="1" stroke-dasharray="4,4"/><circle class="circle-axis" cx="0" cy="0" r="90.9090909090909" fill="none" stroke="#bbb" stroke-width="1" stroke-dasharray="4,4"/><circle class="circle-axis" cx="0" cy="0" r="136.36363636363635" fill="none" stroke="#bbb" stroke-width="1" stroke-dasharray="4,4"/><circle class="circle-axis" cx="0" cy="0" r="181.8181818181818" fill="none" stroke="#bbb" stroke-width="1" stroke-dasharray="4,4"/><circle class="circle-axis" cx="0" cy="0" r="227.27272727272725" fill="none" stroke="#bbb" stroke-width="1" stroke-dasharray="4,4"/><line class="axis-line" x1="0" y1="0" x2="1.5308084989341916e-14" y2="-250" stroke="#bbb" stroke-width="1"/><line class="axis-line" x1="0" y1="0" x2="195.45787061700744" y2="-155.87245046468337" stroke="#bbb" stroke-width="1"/><line class="axis-line" x1="0" y1="0" x2="243.73197804545592" y2="55.6302334890786" stroke="#bbb" stroke-width="1"/><line class="axis-line" x1="0" y1="0" x2="108.47093477938954" y2="225.24221697560478" stroke="#bbb" stroke-width="1"/><line class="axis-line" x1="0" y1="0" x2="-108.47093477938952" y2="225.24221697560478" stroke="#bbb" stroke-width="1"/><line class="axis-line" x1="0" y1="0" x2="-243.73197804545592" y2="55.63023348907863" stroke="#bbb" stroke-width="1"/><line class="axis-line" x1="0" y1="0" x2="-195.45787061700747" y2="-155.87245046468334" stroke="#bbb" stroke-width="1"/><text class="category-label" x="1.6532731788489267e-14" y="-270" text-anchor="middle" dominant-baseline="middle" fill="#fff" font-size="16px" font-weight="bold">Downtown</text><text class="category-label" x="211.09450026636804" y="-168.34224650185803" text-anchor="start" dominant-baseline="hanging" fill="#fff" font-size="16px" font-weight="bold">Uptown</text><text class="category-label" x="263.23053628909236" y="60.080652168204885" text-anchor="start" dominant-baseline="hanging" fill="#fff" font-size="16px" font-weight="bold">Westside</text><text class="category-label" x="117.14860956174071" y="243.26159433365316" text-anchor="start" dominant-baseline="hanging" fill="#fff" font-size="16px" font-weight="bold">Eastside</text><text class="category-label" x="-117.14860956174067" y="243.26159433365316" text-anchor="end" dominant-baseline="auto" fill="#fff" font-size="16px" font-weight="bold">North End</text><text class="category-label" x="-263.23053628909236" y="60.080652168204914" text-anchor="end" dominant-baseline="auto" fill="#fff" font-size="16px" font-weight="bold">South Park</text><text class="category-label" x="-211.09450026636807" y="-168.342246501858" text-anchor="end" dominant-baseline="auto" fill="#fff" font-size="16px" font-weight="bold">Riverview</text><text class="tick-label" x="5" y="0" text-anchor="start" font-size="14px" fill="#ddd">0</text><text class="tick-label" x="5" y="-45.45454545454545" text-anchor="start" font-size="14px" fill="#ddd">10</text><text class="tick-label" x="5" y="-90.9090909090909" text-anchor="start" font-size="14px" fill="#ddd">20</text><text class="tick-label" x="5" y="-136.36363636363635" text-anchor="start" font-size="14px" fill="#ddd">30</text><text class="tick-label" x="5" y="-181.8181818181818" text-anchor="start" font-size="14px" fill="#ddd">40</text><text class="tick-label" x="5" y="-227.27272727272725" text-anchor="start" font-size="14px" fill="#ddd">50</text><path class="radar-line" d="M79.249,-63.199C90.432,-53.856,71.417,-13.693,69.574,15.88C67.24,53.345,84.754,137.153,69.224,143.745C53.49,150.424,14.033,70.248,-25.441,52.83C-69.044,33.589,-173.79,65.701,-185.236,42.279C-196.277,19.687,-135.709,-70.891,-101.638,-81.054C-72.345,-89.791,-32.036,-40.156,0,-38.636C27.805,-37.317,67.837,-72.733,79.249,-63.199" fill="#8cb0d7" fill-opacity="0" stroke="#8cb0d7" stroke-width="6"/><circle class="radar-point" cx="2.365794952898296e-15" cy="-38.63636363636363" r="6" fill="#8cb0d7" stroke="#fff" stroke-width="3"/><rect class="value-label-bg" x="-33.73095703125" y="-61.63636363636363" width="27.4619140625" height="16" fill="#8cb0d7" rx="3"/><text class="value-label" x="-19.999999999999996" y="-53.63636363636363" text-anchor="middle" dominant-baseline="middle" font-size="14px" fill="#fff">8.5</text><circle class="radar-point" cx="79.2492820865321" cy="-63.19919355204435" r="6" fill="#8cb0d7" stroke="#fff" stroke-width="3"/><rect class="value-label-bg" x="85.08020312307302" y="-89.90388760780635" width="35.248046875" height="16" fill="#8cb0d7" rx="3"/><text class="value-label" x="102.70422656057302" y="-81.90388760780635" text-anchor="middle" dominant-baseline="middle" font-size="14px" fill="#fff">22.3</text><circle class="radar-point" cx="69.57440100570287" cy="15.879903014155163" r="6" fill="#8cb0d7" stroke="#fff" stroke-width="3"/><rect class="value-label-bg" x="81.19821493365757" y="14.555531032844595" width="35.248046875" height="16" fill="#8cb0d7" rx="3"/><text class="value-label" x="98.82223837115757" y="22.555531032844595" text-anchor="middle" dominant-baseline="middle" font-size="14px" fill="#fff">15.7</text><circle class="radar-point" cx="69.22417837739224" cy="143.74548756079506" r="6" fill="#8cb0d7" stroke="#fff" stroke-width="3"/><rect class="value-label-bg" x="64.61666711341897" y="162.77455359786762" width="35.248046875" height="16" fill="#8cb0d7" rx="3"/><text class="value-label" x="82.24069055091897" y="170.77455359786762" text-anchor="middle" dominant-baseline="middle" font-size="14px" fill="#fff">35.1</text><circle class="radar-point" cx="-25.44136470280227" cy="52.82953816336913" r="6" fill="#8cb0d7" stroke="#fff" stroke-width="3"/><rect class="value-label-bg" x="-56.08190031382901" y="71.8586042004417" width="35.248046875" height="16" fill="#8cb0d7" rx="3"/><text class="value-label" x="-38.45787687632901" y="79.8586042004417" text-anchor="middle" dominant-baseline="middle" font-size="14px" fill="#fff">12.9</text><circle class="radar-point" cx="-185.23630331454646" cy="42.27897745169975" r="6" fill="#8cb0d7" stroke="#fff" stroke-width="3"/><rect class="value-label-bg" x="-232.10816411750116" y="40.95460547038918" width="35.248046875" height="16" fill="#8cb0d7" rx="3"/><text class="value-label" x="-214.48414068000116" y="48.95460547038918" text-anchor="middle" dominant-baseline="middle" font-size="14px" fill="#fff">41.8</text><circle class="radar-point" cx="-101.63809272084389" cy="-81.05367424163533" r="6" fill="#8cb0d7" stroke="#fff" stroke-width="3"/><rect class="value-label-bg" x="-142.7170606323848" y="-107.75836829739734" width="35.248046875" height="16" fill="#8cb0d7" rx="3"/><text class="value-label" x="-125.09303719488479" y="-99.75836829739734" text-anchor="middle" dominant-baseline="middle" font-size="14px" fill="#fff">28.6</text></g>         </g></svg>