<svg xmlns='http://www.w3.org/2000/svg' xmlns:xlink='http://www.w3.org/1999/xlink' width='561' height='562'>
        <g transform='translate(-20.000047110953687, -20.00000180433267)'>             <g xmlns="http://www.w3.org/2000/svg" xmlns:xlink="http://www.w3.org/1999/xlink" transform="translate(300, 300)"><g class="arc"><path d="M200.147,195.809A280,280,0,0,1,-200.147,195.809L-100.073,97.905A140,140,0,0,0,100.073,97.905Z" fill="#667eea" stroke="none" style="filter: drop-shadow(rgba(0, 0, 0, 0.1) 0px 2px 2px);"/><text transform="translate(1.2858791391047208e-14,210)" text-anchor="middle" dominant-baseline="middle" fill="#FFFFFF" font-family="Arial, sans-serif" font-size="12px"><tspan x="0" dy="-0.8em" font-size="20px" font-weight="bold">South Park</tspan><tspan x="0" dy="1.6em" font-size="36px" font-weight="bold">41.8%</tspan></text></g><g class="arc"><path d="M-200.147,195.809A280,280,0,0,1,-236.788,-149.437L-118.394,-74.718A140,140,0,0,0,-100.073,97.905Z" fill="#764ba2" stroke="none" style="filter: drop-shadow(rgba(0, 0, 0, 0.1) 0px 2px 2px);"/><text transform="translate(-208.82718626990604,22.16317383846376)" text-anchor="middle" dominant-baseline="middle" fill="#FFFFFF" font-family="Arial, sans-serif" font-size="12px"><tspan x="0" dy="-0.8em" font-size="20px" font-weight="bold">Eastside</tspan><tspan x="0" dy="1.6em" font-size="36px" font-weight="bold">35.1%</tspan></text></g><g class="arc"><path d="M-236.788,-149.437A280,280,0,0,1,22.912,-279.061L11.456,-139.53A140,140,0,0,0,-118.394,-74.718Z" fill="#4ecdc4" stroke="none" style="filter: drop-shadow(rgba(0, 0, 0, 0.1) 0px 2px 2px);"/><text transform="translate(-93.78408137089397,-187.89504006603673)" text-anchor="middle" dominant-baseline="middle" fill="#FFFFFF" font-family="Arial, sans-serif" font-size="12px"><tspan x="0" dy="-0.8em" font-size="20px" font-weight="bold">Riverview</tspan><tspan x="0" dy="1.6em" font-size="36px" font-weight="bold">28.6%</tspan></text></g><g class="arc"><path d="M22.912,-279.061A280,280,0,0,1,224.724,-167.03L112.362,-83.515A140,140,0,0,0,11.456,-139.53Z" fill="#ff6b6b" stroke="none" style="filter: drop-shadow(rgba(0, 0, 0, 0.1) 0px 2px 2px);"/><text transform="translate(101.92469613065882,-183.60652580633638)" text-anchor="middle" dominant-baseline="middle" fill="#FFFFFF" font-family="Arial, sans-serif" font-size="12px"><tspan x="0" dy="-0.8em" font-size="20px" font-weight="bold">Uptown</tspan><tspan x="0" dy="1.6em" font-size="36px" font-weight="bold">22.3%</tspan></text></g><g class="arc"><path d="M224.724,-167.03A280,280,0,0,1,279.765,-11.466L139.883,-5.733A140,140,0,0,0,112.362,-83.515Z" fill="#ffe66d" stroke="none" style="filter: drop-shadow(rgba(0, 0, 0, 0.1) 0px 2px 2px);"/><text transform="translate(197.9736254971512,-70.0460106466723)" text-anchor="middle" dominant-baseline="middle" fill="#FFFFFF" font-family="Arial, sans-serif" font-size="12px"><tspan x="0" dy="-0.8em" font-size="20px" font-weight="bold">Westside</tspan><tspan x="0" dy="1.6em" font-size="36px" font-weight="bold">15.7%</tspan></text></g><g class="arc"><path d="M279.765,-11.466A280,280,0,0,1,252.056,121.934L126.028,60.967A140,140,0,0,0,139.883,-5.733Z" fill="#480316" stroke="none" style="filter: drop-shadow(rgba(0, 0, 0, 0.1) 0px 2px 2px);"/><text transform="translate(205.6111967946501,42.70873157413663)" text-anchor="middle" dominant-baseline="middle" fill="#FFFFFF" font-family="Arial, sans-serif" font-size="12px"><tspan x="0" dy="-0.8em" font-size="20px" font-weight="bold">North End</tspan><tspan x="0" dy="1.6em" font-size="36px" font-weight="bold">12.9%</tspan></text></g><g class="arc"><path d="M252.056,121.934A280,280,0,0,1,200.147,195.809L100.073,97.905A140,140,0,0,0,126.028,60.967Z" fill="#a5d7fd" stroke="none" style="filter: drop-shadow(rgba(0, 0, 0, 0.1) 0px 2px 2px);"/><text transform="translate(171.824092410256,120.73309930334683)" text-anchor="middle" dominant-baseline="middle" fill="#FFFFFF" font-family="Arial, sans-serif" font-size="12px"><tspan x="0" dy="-0.8em" font-size="20px" font-weight="bold">Downtown</tspan><tspan x="0" dy="1.6em" font-size="36px" font-weight="bold">8.5%</tspan></text></g></g>         </g></svg>