<svg xmlns='http://www.w3.org/2000/svg' xmlns:xlink='http://www.w3.org/1999/xlink' width='521' height='521'>
        <g transform='translate(-40.0001180859897, -40.12650297570639)'>             <g xmlns="http://www.w3.org/2000/svg" transform="translate(300, 300)"><path fill="#bfafc4" d="M3.032,-254.873A5,5,0,0,1,8.19,-259.871A260,260,0,0,1,74.938,-248.966A5,5,0,0,1,78.237,-242.587L48.299,-153.404A5,5,0,0,1,42.206,-150.182A156,156,0,0,0,7.783,-155.806A5,5,0,0,1,3.032,-160.8Z"/><path fill="#ff6b6b" d="M83.986,-240.657A5,5,0,0,1,90.466,-243.754A260,260,0,0,1,236.469,-108.086A5,5,0,0,1,233.856,-101.396L147.106,-65.003A5,5,0,0,1,140.664,-67.452A156,156,0,0,0,56.962,-145.229A5,5,0,0,1,54.048,-151.474Z"/><path fill="#ffe66d" d="M236.202,-95.804A5,5,0,0,1,242.805,-92.982A260,260,0,0,1,256.274,43.857A5,5,0,0,1,250.348,47.913L158.168,29.131A5,5,0,0,1,154.223,23.48A156,156,0,0,0,146.685,-53.098A5,5,0,0,1,149.452,-59.411Z"/><path fill="#764ba2" d="M249.137,53.855A5,5,0,0,1,253.004,59.906A260,260,0,0,1,16.6,259.47A5,5,0,0,1,11.284,254.642L8.237,160.617A5,5,0,0,1,12.824,155.472A156,156,0,0,0,151.115,38.731A5,5,0,0,1,156.957,35.073Z"/><path fill="#80642d" d="M5.223,254.838A5,5,0,0,1,0.23,260A260,260,0,0,1,-107.828,236.586A5,5,0,0,1,-110.236,229.821L-68.545,145.49A5,5,0,0,1,-62.073,143.119A156,156,0,0,0,-2.733,155.976A5,5,0,0,1,2.177,160.813Z"/><path fill="#667eea" d="M-115.672,227.133A5,5,0,0,1,-122.511,229.328A260,260,0,0,1,-234.167,-112.985A5,5,0,0,1,-227.351,-115.245L-143.953,-71.716A5,5,0,0,1,-141.724,-65.194A156,156,0,0,0,-76.026,136.22A5,5,0,0,1,-73.981,142.802Z"/><path fill="#4ecdc4" d="M-224.545,-120.621A5,5,0,0,1,-226.589,-127.505A260,260,0,0,1,-8.19,-259.871A5,5,0,0,1,-3.032,-254.873L-3.032,-160.8A5,5,0,0,1,-7.783,-155.806A156,156,0,0,0,-134.522,-78.992A5,5,0,0,1,-141.147,-77.092Z"/><g class="label-group" transform="translate(33.53603165531006,-205.27867541664926)"><text text-anchor="middle" dy="-0.5em" style="fill: rgb(0, 0, 0); font-family: Arial; font-size: 16px;">5.2%</text><text text-anchor="middle" dy="1.2em" style="fill: rgb(0, 0, 0); font-family: Arial; font-size: 16px;">8.5</text></g><g class="label-group" transform="translate(141.58655404219505,-152.37206999465675)"><text text-anchor="middle" dy="-0.5em" style="fill: rgb(0, 0, 0); font-family: Arial; font-size: 16px;">13.5%</text><text text-anchor="middle" dy="1.2em" style="fill: rgb(0, 0, 0); font-family: Arial; font-size: 16px;">22.3</text></g><g class="label-group" transform="translate(206.9996365738845,-20.37524130604969)"><text text-anchor="middle" dy="-0.5em" style="fill: rgb(0, 0, 0); font-family: Arial; font-size: 16px;">9.5%</text><text text-anchor="middle" dy="1.2em" style="fill: rgb(0, 0, 0); font-family: Arial; font-size: 16px;">15.7</text></g><g class="label-group" transform="translate(134.17144159056753,158.94031666480637)"><text text-anchor="middle" dy="-0.5em" style="fill: rgb(255, 255, 255); font-family: Arial; font-size: 16px;">21.3%</text><text text-anchor="middle" dy="1.2em" style="fill: rgb(255, 255, 255); font-family: Arial; font-size: 16px;">35.1</text></g><g class="label-group" transform="translate(-44.04635872098727,203.2828529006372)"><text text-anchor="middle" dy="-0.5em" style="fill: rgb(255, 255, 255); font-family: Arial; font-size: 16px;">7.8%</text><text text-anchor="middle" dy="1.2em" style="fill: rgb(255, 255, 255); font-family: Arial; font-size: 16px;">12.9</text></g><g class="label-group" transform="translate(-197.74615343611134,64.50161859381443)"><text text-anchor="middle" dy="-0.5em" style="fill: rgb(0, 0, 0); font-family: Arial; font-size: 16px;">25.3%</text><text text-anchor="middle" dy="1.2em" style="fill: rgb(0, 0, 0); font-family: Arial; font-size: 16px;">41.8</text></g><g class="label-group" transform="translate(-107.80836449099488,-177.88017468446785)"><text text-anchor="middle" dy="-0.5em" style="fill: rgb(0, 0, 0); font-family: Arial; font-size: 16px;">17.3%</text><text text-anchor="middle" dy="1.2em" style="fill: rgb(0, 0, 0); font-family: Arial; font-size: 16px;">28.6</text></g><text transform="translate(300, 300)" text-anchor="middle"/></g>         </g></svg>