<svg xmlns='http://www.w3.org/2000/svg' xmlns:xlink='http://www.w3.org/1999/xlink' width='573' height='568'>
        <g transform='translate(1.0, -43.7)'>             <g xmlns="http://www.w3.org/2000/svg" xmlns:xlink="http://www.w3.org/1999/xlink" transform="translate(40, 50)"><g class="x-axis" transform="translate(0, 470)" fill="none" font-size="10" font-family="sans-serif" text-anchor="middle"><path class="domain" stroke="currentColor" d="M0.5,0.5H530.5"/><g class="tick" opacity="1" transform="translate(33.44660194174757,0)"><line stroke="currentColor" y2="0"/><text fill="currentColor" y="3" dy="0.71em" transform="rotate(-45)" style="font-family: Arial; font-size: 16px; text-anchor: end; fill: rgb(65, 65, 65);">USA</text></g><g class="tick" opacity="1" transform="translate(84.90291262135922,0)"><line stroke="currentColor" y2="0"/><text fill="currentColor" y="3" dy="0.71em" transform="rotate(-45)" style="font-family: Arial; font-size: 16px; text-anchor: end; fill: rgb(65, 65, 65);">China</text></g><g class="tick" opacity="1" transform="translate(136.35922330097088,0)"><line stroke="currentColor" y2="0"/><text fill="currentColor" y="3" dy="0.71em" transform="rotate(-45)" style="font-family: Arial; font-size: 16px; text-anchor: end; fill: rgb(65, 65, 65);">Russia</text></g><g class="tick" opacity="1" transform="translate(187.81553398058256,0)"><line stroke="currentColor" y2="0"/><text fill="currentColor" y="3" dy="0.71em" transform="rotate(-45)" style="font-family: Arial; font-size: 16px; text-anchor: end; fill: rgb(65, 65, 65);">European Union</text></g><g class="tick" opacity="1" transform="translate(239.2718446601942,0)"><line stroke="currentColor" y2="0"/><text fill="currentColor" y="3" dy="0.71em" transform="rotate(-45)" style="font-family: Arial; font-size: 16px; text-anchor: end; fill: rgb(65, 65, 65);">Japan</text></g><g class="tick" opacity="1" transform="translate(290.7281553398058,0)"><line stroke="currentColor" y2="0"/><text fill="currentColor" y="3" dy="0.71em" transform="rotate(-45)" style="font-family: Arial; font-size: 16px; text-anchor: end; fill: rgb(65, 65, 65);">India</text></g><g class="tick" opacity="1" transform="translate(342.18446601941747,0)"><line stroke="currentColor" y2="0"/><text fill="currentColor" y="3" dy="0.71em" transform="rotate(-45)" style="font-family: Arial; font-size: 16px; text-anchor: end; fill: rgb(65, 65, 65);">Canada</text></g><g class="tick" opacity="1" transform="translate(393.6407766990291,0)"><line stroke="currentColor" y2="0"/><text fill="currentColor" y="3" dy="0.71em" transform="rotate(-45)" style="font-family: Arial; font-size: 16px; text-anchor: end; fill: rgb(65, 65, 65);">South Korea</text></g><g class="tick" opacity="1" transform="translate(445.09708737864077,0)"><line stroke="currentColor" y2="0"/><text fill="currentColor" y="3" dy="0.71em" transform="rotate(-45)" style="font-family: Arial; font-size: 16px; text-anchor: end; fill: rgb(65, 65, 65);">Australia</text></g><g class="tick" opacity="1" transform="translate(496.5533980582524,0)"><line stroke="currentColor" y2="0"/><text fill="currentColor" y="3" dy="0.71em" transform="rotate(-45)" style="font-family: Arial; font-size: 16px; text-anchor: end; fill: rgb(65, 65, 65);">Brazil</text></g></g><g class="y-axis" fill="none" font-size="10" font-family="sans-serif" text-anchor="end"><g class="tick" opacity="1" transform="translate(0,470.5)"><line stroke="currentColor" x2="0"/><text fill="currentColor" x="-10" dy="0.32em" style="font-family: Arial; font-size: 16px; fill: rgb(65, 65, 65);">0 b</text></g><g class="tick" opacity="1" transform="translate(0,376.5)"><line stroke="currentColor" x2="0"/><text fill="currentColor" x="-10" dy="0.32em" style="font-family: Arial; font-size: 16px; fill: rgb(65, 65, 65);">10 b</text></g><g class="tick" opacity="1" transform="translate(0,282.5)"><line stroke="currentColor" x2="0"/><text fill="currentColor" x="-10" dy="0.32em" style="font-family: Arial; font-size: 16px; fill: rgb(65, 65, 65);">20 b</text></g><g class="tick" opacity="1" transform="translate(0,188.5)"><line stroke="currentColor" x2="0"/><text fill="currentColor" x="-10" dy="0.32em" style="font-family: Arial; font-size: 16px; fill: rgb(65, 65, 65);">30 b</text></g><g class="tick" opacity="1" transform="translate(0,94.49999999999999)"><line stroke="currentColor" x2="0"/><text fill="currentColor" x="-10" dy="0.32em" style="font-family: Arial; font-size: 16px; fill: rgb(65, 65, 65);">40 b</text></g><g class="tick" opacity="1" transform="translate(0,0.5)"><line stroke="currentColor" x2="0"/><text fill="currentColor" x="-10" dy="0.32em" style="font-family: Arial; font-size: 16px; fill: rgb(65, 65, 65);">50 b</text></g></g><path class="bar" d="M 15.4368932038835 470                     L 51.456310679611654 470                     C 35.247572815533985 470, 35.24757281553398 244.4, 33.44660194174757 18.80000000000002                     C 31.645631067961165 244.4, 31.64563106796117 470, 15.4368932038835 470                     Z" fill="rgb(49, 108, 199)"/><path class="bar" d="M 66.89320388349515 470                     L 102.9126213592233 470                     C 86.70388349514563 470, 86.70388349514563 406.54999999999995, 84.90291262135922 343.09999999999997                     C 83.10194174757281 406.54999999999995, 83.10194174757282 470, 66.89320388349515 470                     Z" fill="#3f8aff"/><path class="bar" d="M 118.34951456310681 470                     L 154.36893203883497 470                     C 138.1601941747573 470, 138.1601941747573 436.15999999999997, 136.35922330097088 402.32                     C 134.55825242718447 436.15999999999997, 134.55825242718447 470, 118.34951456310681 470                     Z" fill="#3f8aff"/><path class="bar" d="M 169.80582524271847 470                     L 205.82524271844662 470                     C 189.61650485436894 470, 189.61650485436897 414.53999999999996, 187.81553398058256 359.08                     C 186.01456310679615 414.53999999999996, 186.01456310679615 470, 169.80582524271847 470                     Z" fill="#3f8aff"/><path class="bar" d="M 221.26213592233012 470                     L 257.2815533980583 470                     C 241.0728155339806 470, 241.07281553398062 448.85, 239.2718446601942 427.7                     C 237.4708737864078 448.85, 237.4708737864078 470, 221.26213592233012 470                     Z" fill="#3f8aff"/><path class="bar" d="M 272.71844660194176 470                     L 308.73786407766994 470                     C 292.52912621359224 470, 292.52912621359224 460.13, 290.7281553398058 450.26                     C 288.9271844660194 460.13, 288.9271844660194 470, 272.71844660194176 470                     Z" fill="#3f8aff"/><path class="bar" d="M 324.1747572815534 470                     L 360.1941747572816 470                     C 343.9854368932039 470, 343.9854368932039 466.24, 342.18446601941747 462.48                     C 340.38349514563106 466.24, 340.38349514563106 470, 324.1747572815534 470                     Z" fill="#3f8aff"/><path class="bar" d="M 375.63106796116506 470                     L 411.65048543689323 470                     C 395.44174757281553 470, 395.44174757281553 465.77, 393.6407766990291 461.54                     C 391.8398058252427 465.77, 391.8398058252427 470, 375.63106796116506 470                     Z" fill="#3f8aff"/><path class="bar" d="M 427.0873786407767 470                     L 463.1067961165049 470                     C 446.8980582524272 470, 446.8980582524272 468.59000000000003, 445.09708737864077 467.18                     C 443.29611650485435 468.59000000000003, 443.29611650485435 470, 427.0873786407767 470                     Z" fill="#3f8aff"/><path class="bar" d="M 478.54368932038835 470                     L 514.5631067961165 470                     C 498.3543689320388 470, 498.3543689320388 469.06, 496.5533980582524 468.12                     C 494.752427184466 469.06, 494.752427184466 470, 478.54368932038835 470                     Z" fill="#3f8aff"/><text class="label" x="33.44660194174757" y="13.800000000000018" text-anchor="middle" style="font-family: Arial; font-size: 16px; fill: rgb(65, 65, 65); opacity: 1;">48 b</text><text class="label" x="84.90291262135922" y="338.09999999999997" text-anchor="middle" style="font-family: Arial; font-size: 16px; fill: rgb(65, 65, 65); opacity: 1;">13.5 b</text><text class="label" x="136.35922330097088" y="397.32" text-anchor="middle" style="font-family: Arial; font-size: 16px; fill: rgb(65, 65, 65); opacity: 1;">7.2 b</text><text class="label" x="187.81553398058256" y="354.08" text-anchor="middle" style="font-family: Arial; font-size: 16px; fill: rgb(65, 65, 65); opacity: 1;">11.8 b</text><text class="label" x="239.2718446601942" y="422.7" text-anchor="middle" style="font-family: Arial; font-size: 16px; fill: rgb(65, 65, 65); opacity: 1;">4.5 b</text><text class="label" x="290.7281553398058" y="445.26" text-anchor="middle" style="font-family: Arial; font-size: 16px; fill: rgb(65, 65, 65); opacity: 1;">2.1 b</text><text class="label" x="342.18446601941747" y="457.48" text-anchor="middle" style="font-family: Arial; font-size: 16px; fill: rgb(65, 65, 65); opacity: 1;">0.8 b</text><text class="label" x="393.6407766990291" y="456.54" text-anchor="middle" style="font-family: Arial; font-size: 16px; fill: rgb(65, 65, 65); opacity: 1;">0.9 b</text><text class="label" x="445.09708737864077" y="462.18" text-anchor="middle" style="font-family: Arial; font-size: 16px; fill: rgb(65, 65, 65); opacity: 1;">0.3 b</text><text class="label" x="496.5533980582524" y="463.12" text-anchor="middle" style="font-family: Arial; font-size: 16px; fill: rgb(65, 65, 65); opacity: 1;">0.2 b</text></g>         </g></svg>