<svg xmlns='http://www.w3.org/2000/svg' xmlns:xlink='http://www.w3.org/1999/xlink' width='563' height='378'>
        <g transform='translate(-10.584937238493723, 133.36406460551018)'>             <defs xmlns="http://www.w3.org/2000/svg" xmlns:xlink="http://www.w3.org/1999/xlink"><filter id="triangle-shadow" width="150%" height="150%"><feDropShadow dx="3" dy="3" stdDeviation="2.5" flood-color="rgba(0,0,0,0.3)" flood-opacity="0.5"/></filter></defs><g xmlns="http://www.w3.org/2000/svg" xmlns:xlink="http://www.w3.org/1999/xlink" transform="translate(20,40)"><g class="node" transform="translate(80, -46.18802153517006)"><path d="             M -2.5,-88.04591605141792             L -77.5,41.85789451624787             A 5,5 0 0 0 -75,46.18802153517006             L 75,46.18802153517006             A 5,5 0 0 0 77.5,41.85789451624787             L 2.5,-88.04591605141792             A 5,5 0 0 0 -2.5,-88.04591605141792             Z         " fill="#3f8aff" stroke="#fff" stroke-width="3" filter="url(#triangle-shadow)"/><text class="inner-value-label" text-anchor="middle" dominant-baseline="middle" y="22.18802153517006" style="font-family: Arial; font-weight: 400; font-size: 16px; fill: rgb(255, 255, 255); text-shadow: rgba(0, 0, 0, 0.2) 0px 1px 2px;">48billions</text><rect x="-18.70233154296875" y="-119.37604307034012" width="37.4046630859375" height="17.333333333333336" rx="3" ry="3" fill="white" fill-opacity="0.9" stroke="#ccc" stroke-width="0.5"/><text class="top-category-label" text-anchor="middle" dominant-baseline="hanging" y="-117.37604307034012" style="font-family: Arial; font-weight: 500; font-size: 13.3333px; fill: rgb(0, 0, 0);">USA</text></g><g class="node" transform="translate(231.69456066945605, -21.185614480305514)"><path d="             M -2.5,-38.04110194168884             L -34.19456066945607,16.85548746138332             A 5,5 0 0 0 -31.694560669456067,21.185614480305514             L 31.694560669456067,21.185614480305514             A 5,5 0 0 0 34.19456066945607,16.85548746138332             L 2.5,-38.04110194168884             A 5,5 0 0 0 -2.5,-38.04110194168884             Z         " fill="#3f8aff" stroke="#fff" stroke-width="3" filter="url(#triangle-shadow)"/><text class="inner-value-label" text-anchor="middle" dominant-baseline="middle" y="1.1856144803055138" style="font-family: Arial; font-weight: 400; font-size: 11px; fill: rgb(255, 255, 255); text-shadow: rgba(0, 0, 0, 0.2) 0px 1px 2px;">13.5billions</text><rect x="-18.06396484375" y="-69.37122896061103" width="36.1279296875" height="14" rx="3" ry="3" fill="white" fill-opacity="0.9" stroke="#ccc" stroke-width="0.5"/><text class="top-category-label" text-anchor="middle" dominant-baseline="hanging" y="-67.37122896061103" style="font-family: Arial; font-weight: 500; font-size: 10px; fill: rgb(0, 0, 0);">China</text></g><g class="node" transform="translate(337.94979079497904, -19.953611813833927)"><path d="             M -2.5000000000000004,-35.57709660874566             L -32.06066945606695,15.623484794911732             A 5,5 0 0 0 -29.560669456066947,19.953611813833927             L 29.560669456066947,19.953611813833927             A 5,5 0 0 0 32.06066945606695,15.623484794911732             L 2.5000000000000004,-35.57709660874566             A 5,5 0 0 0 -2.5000000000000004,-35.57709660874566             Z         " fill="#3f8aff" stroke="#fff" stroke-width="3" filter="url(#triangle-shadow)"/><text class="inner-value-label" text-anchor="middle" dominant-baseline="middle" y="-0.0463881861660731" style="font-family: Arial; font-weight: 400; font-size: 11px; fill: rgb(255, 255, 255); text-shadow: rgba(0, 0, 0, 0.2) 0px 1px 2px;">11.8billions</text><rect x="-41.1376953125" y="-66.90722362766786" width="82.275390625" height="14" rx="3" ry="3" fill="white" fill-opacity="0.9" stroke="#ccc" stroke-width="0.5"/><text class="top-category-label" text-anchor="middle" dominant-baseline="hanging" y="-64.90722362766786" style="font-family: Arial; font-weight: 500; font-size: 10px; fill: rgb(0, 0, 0);">European Union</text></g><g class="node" transform="translate(436.29707112970704, -16.619957539851985)"><path d="             M -2.5000000000000004,-28.909788060781775             L -26.286610878661087,12.28983052092979             A 5,5 0 0 0 -23.786610878661087,16.619957539851985             L 23.786610878661087,16.619957539851985             A 5,5 0 0 0 26.286610878661087,12.28983052092979             L 2.5000000000000004,-28.909788060781775             A 5,5 0 0 0 -2.5000000000000004,-28.909788060781775             Z         " fill="#3f8aff" stroke="#fff" stroke-width="3" filter="url(#triangle-shadow)"/><text class="inner-value-label" text-anchor="middle" dominant-baseline="middle" y="-3.3800424601480152" style="font-family: Arial; font-weight: 400; font-size: 10px; fill: rgb(255, 255, 255); text-shadow: rgba(0, 0, 0, 0.2) 0px 1px 2px;">7.2billions</text><rect x="-20.283203125" y="-60.23991507970397" width="40.56640625" height="14" rx="3" ry="3" fill="white" fill-opacity="0.9" stroke="#ccc" stroke-width="0.5"/><text class="top-category-label" text-anchor="middle" dominant-baseline="hanging" y="-58.23991507970397" style="font-family: Arial; font-weight: 500; font-size: 10px; fill: rgb(0, 0, 0);">Russia</text></g><g class="node" transform="translate(525.4811715481171, -14.663247422514763)"><path d="             M -2.5,-24.99636782610733             L -22.897489539748953,10.33312040359257             A 5,5 0 0 0 -20.397489539748953,14.663247422514763             L 20.397489539748953,14.663247422514763             A 5,5 0 0 0 22.897489539748953,10.33312040359257             L 2.5,-24.99636782610733             A 5,5 0 0 0 -2.5,-24.99636782610733             Z         " fill="#3f8aff" stroke="#fff" stroke-width="3" filter="url(#triangle-shadow)"/><text class="inner-value-label" text-anchor="middle" dominant-baseline="middle" y="-5.336752577485237" style="font-family: Arial; font-weight: 400; font-size: 10px; fill: rgb(255, 255, 255); text-shadow: rgba(0, 0, 0, 0.2) 0px 1px 2px;">4.5billions</text><rect x="-18.623046875" y="-56.32649484502953" width="37.24609375" height="14" rx="3" ry="3" fill="white" fill-opacity="0.9" stroke="#ccc" stroke-width="0.5"/><text class="top-category-label" text-anchor="middle" dominant-baseline="hanging" y="-54.32649484502953" style="font-family: Arial; font-weight: 500; font-size: 10px; fill: rgb(0, 0, 0);">Japan</text></g><g class="node" transform="translate(22.384937238493727, 185.64011506507293)"><path d="             M -2.5,-21.517772061952265             L -19.884937238493727,8.593822521515037             A 5,5 0 0 0 -17.384937238493727,12.92394954043723             L 17.384937238493727,12.92394954043723             A 5,5 0 0 0 19.884937238493727,8.593822521515037             L 2.5,-21.517772061952265             A 5,5 0 0 0 -2.5,-21.517772061952265             Z         " fill="#3f8aff" stroke="#fff" stroke-width="3" filter="url(#triangle-shadow)"/><rect x="-31.68359375" y="-47.847899080874456" width="63.3671875" height="26" rx="3" ry="3" fill="white" fill-opacity="0.9" stroke="#ccc" stroke-width="0.5"/><text class="top-category-label" text-anchor="middle" dominant-baseline="hanging" y="-45.847899080874456" style="font-family: Arial; font-weight: 500; font-size: 10px; fill: rgb(0, 0, 0);">India</text><text class="top-value-label" text-anchor="middle" dominant-baseline="hanging" y="-33.847899080874456" style="font-family: Arial; font-weight: 400; font-size: 12px; fill: rgb(0, 0, 0);">2.1billions</text></g><g class="node" transform="translate(100.64853556485356, 186.5097640061117)"><path d="             M -2.5,-19.778474179874728             L -18.378661087866107,7.7241735804762675             A 5,5 0 0 0 -15.878661087866107,12.054300599398461             L 15.878661087866107,12.054300599398461             A 5,5 0 0 0 18.378661087866107,7.7241735804762675             L 2.5,-19.778474179874728             A 5,5 0 0 0 -2.5,-19.778474179874728             Z         " fill="#3f8aff" stroke="#fff" stroke-width="3" filter="url(#triangle-shadow)"/><rect x="-32.7978515625" y="-46.10860119879692" width="65.595703125" height="26" rx="3" ry="3" fill="white" fill-opacity="0.9" stroke="#ccc" stroke-width="0.5"/><text class="top-category-label" text-anchor="middle" dominant-baseline="hanging" y="-44.10860119879692" style="font-family: Arial; font-weight: 500; font-size: 10px; fill: rgb(0, 0, 0);">South Korea</text><text class="top-value-label" text-anchor="middle" dominant-baseline="hanging" y="-32.10860119879692" style="font-family: Arial; font-weight: 400; font-size: 12px; fill: rgb(0, 0, 0);">0.9billions</text></g><g class="node" transform="translate(177.2803347280335, 186.58223475119826)"><path d="             M -2.5,-19.633532689701603             L -18.253138075313807,7.651702835389704             A 5,5 0 0 0 -15.753138075313807,11.981829854311897             L 15.753138075313807,11.981829854311897             A 5,5 0 0 0 18.253138075313807,7.651702835389704             L 2.5,-19.633532689701603             A 5,5 0 0 0 -2.5,-19.633532689701603             Z         " fill="#3f8aff" stroke="#fff" stroke-width="3" filter="url(#triangle-shadow)"/><rect x="-31.68359375" y="-45.963659708623794" width="63.3671875" height="26" rx="3" ry="3" fill="white" fill-opacity="0.9" stroke="#ccc" stroke-width="0.5"/><text class="top-category-label" text-anchor="middle" dominant-baseline="hanging" y="-43.963659708623794" style="font-family: Arial; font-weight: 500; font-size: 10px; fill: rgb(0, 0, 0);">Canada</text><text class="top-value-label" text-anchor="middle" dominant-baseline="hanging" y="-31.963659708623794" style="font-family: Arial; font-weight: 400; font-size: 12px; fill: rgb(0, 0, 0);">0.8billions</text></g><g class="node" transform="translate(253.1589958158996, 186.94458847663108)"><path d="             M -2.5,-18.908825238835963             L -17.6255230125523,7.289349109956885             A 5,5 0 0 0 -15.1255230125523,11.619476128879079             L 15.1255230125523,11.619476128879079             A 5,5 0 0 0 17.6255230125523,7.289349109956885             L 2.5,-18.908825238835963             A 5,5 0 0 0 -2.5,-18.908825238835963             Z         " fill="#3f8aff" stroke="#fff" stroke-width="3" filter="url(#triangle-shadow)"/><rect x="-31.68359375" y="-45.23895225775816" width="63.3671875" height="26" rx="3" ry="3" fill="white" fill-opacity="0.9" stroke="#ccc" stroke-width="0.5"/><text class="top-category-label" text-anchor="middle" dominant-baseline="hanging" y="-43.23895225775816" style="font-family: Arial; font-weight: 500; font-size: 10px; fill: rgb(0, 0, 0);">Australia</text><text class="top-value-label" text-anchor="middle" dominant-baseline="hanging" y="-31.238952257758157" style="font-family: Arial; font-weight: 400; font-size: 12px; fill: rgb(0, 0, 0);">0.3billions</text></g><g class="node" transform="translate(328.2845188284519, 187.01705922171766)"><path d="             M -2.5,-18.763883748662835             L -17.5,7.216878364870322             A 5,5 0 0 0 -15,11.547005383792515             L 15,11.547005383792515             A 5,5 0 0 0 17.5,7.216878364870322             L 2.5,-18.763883748662835             A 5,5 0 0 0 -2.5,-18.763883748662835             Z         " fill="#3f8aff" stroke="#fff" stroke-width="3" filter="url(#triangle-shadow)"/><rect x="-31.68359375" y="-45.09401076758503" width="63.3671875" height="26" rx="3" ry="3" fill="white" fill-opacity="0.9" stroke="#ccc" stroke-width="0.5"/><text class="top-category-label" text-anchor="middle" dominant-baseline="hanging" y="-43.09401076758503" style="font-family: Arial; font-weight: 500; font-size: 10px; fill: rgb(0, 0, 0);">Brazil</text><text class="top-value-label" text-anchor="middle" dominant-baseline="hanging" y="-31.094010767585033" style="font-family: Arial; font-weight: 400; font-size: 12px; fill: rgb(0, 0, 0);">0.2billions</text></g></g>         </g></svg>