<svg xmlns='http://www.w3.org/2000/svg' xmlns:xlink='http://www.w3.org/1999/xlink' width='537' height='623'>
        <g transform='translate(-26.0, 60.91)'>             <g xmlns="http://www.w3.org/2000/svg" xmlns:xlink="http://www.w3.org/1999/xlink"><path d="M304.253 41.881 C304.253 41.881, 304.253 41.881, 304.253 41.881 M304.253 41.881 C304.253 41.881, 304.253 41.881, 304.253 41.881 M303.335 49.033 C305.48 45.494, 307.166 44.137, 310.552 40.731 M303.335 49.033 C305.953 46.623, 308.565 43.811, 310.552 40.731 M303.73 54.676 C307.11 49.44, 310.059 44.977, 315.539 41.091 M303.73 54.676 C305.891 51.055, 309.032 48.594, 315.539 41.091 M303.468 61.074 C308.955 53.472, 316.466 46.728, 320.526 41.452 M303.468 61.074 C308.429 54.518, 314.554 47.311, 320.526 41.452 M303.863 66.717 C309.59 59.514, 316.549 53.231, 325.513 41.812 M303.863 66.717 C308.87 61.071, 312.441 55.652, 325.513 41.812 M303.602 73.115 C315.179 59.918, 322.482 48.787, 330.5 42.172 M303.602 73.115 C314.254 60.917, 323.477 48.816, 330.5 42.172 M303.996 78.758 C309.038 69.648, 316.531 61.987, 334.831 43.287 M303.996 78.758 C311.448 69.043, 320.665 60.829, 334.831 43.287 M303.735 85.156 C314.507 70.942, 328.796 56.226, 339.818 43.647 M303.735 85.156 C317.973 70.191, 332.422 52.883, 339.818 43.647 M304.129 90.799 C316.702 74.135, 329.167 61.326, 344.805 44.007 M304.129 90.799 C318.049 74.573, 331.862 58.557, 344.805 44.007 M303.868 97.197 C318.968 79.459, 336.272 62.255, 349.136 45.122 M303.868 97.197 C315.744 83.635, 328.31 69.251, 349.136 45.122 M303.606 103.594 C317.159 86.18, 331.768 69.104, 354.123 45.482 M303.606 103.594 C321.179 82.799, 338.329 63.773, 354.123 45.482 M304.001 109.237 C321.783 85.808, 340.913 65.252, 358.454 46.597 M304.001 109.237 C322.767 86.731, 341.061 65.271, 358.454 46.597 M303.739 115.635 C324.644 94.135, 343.859 71.146, 362.785 47.711 M303.739 115.635 C320.57 95.073, 339.24 76.374, 362.785 47.711 M304.134 121.278 C325.905 97.141, 344.408 77.845, 367.116 48.826 M304.134 121.278 C328.349 94.031, 354.028 66.075, 367.116 48.826 M303.873 127.676 C321.748 108.426, 339.944 88.648, 370.791 50.696 M303.873 127.676 C321.919 106.292, 339.49 85.526, 370.791 50.696 M304.267 133.319 C326.472 108.766, 347.928 85.183, 375.122 51.811 M304.267 133.319 C332.026 101.404, 360.254 69.003, 375.122 51.811 M304.006 139.717 C327.46 113.135, 352.802 86.332, 379.453 52.925 M304.006 139.717 C330.721 109.378, 358.55 76.094, 379.453 52.925 M305.712 143.851 C337.914 110.539, 367.911 73.978, 383.784 54.04 M305.712 143.851 C326.799 120.259, 347.549 95.1, 383.784 54.04 M310.043 144.965 C332.918 119.947, 351.942 96.424, 387.458 55.91 M310.043 144.965 C336.99 114.558, 363.857 81.786, 387.458 55.91 M315.03 145.326 C330.938 127.522, 348.562 106.621, 391.789 57.025 M315.03 145.326 C339.719 116.997, 363.918 88.385, 391.789 57.025 M319.361 146.44 C336.117 127.664, 353.24 110.324, 396.12 58.139 M319.361 146.44 C344.824 116.86, 369.613 88.568, 396.12 58.139 M324.348 146.8 C345.751 123.049, 369.634 96.482, 399.795 60.009 M324.348 146.8 C352.453 114.018, 381.315 81.173, 399.795 60.009 M329.335 147.161 C358.97 111.66, 387.129 79.862, 403.47 61.878 M329.335 147.161 C353.993 120.463, 376.669 92.683, 403.47 61.878 M333.666 148.275 C361.109 116.79, 385.057 85.89, 407.801 62.993 M333.666 148.275 C360.572 118.321, 386.547 88.319, 407.801 62.993 M337.997 149.39 C354.005 132.399, 369.125 113.3, 411.476 64.863 M337.997 149.39 C353.793 130.918, 368.812 113.994, 411.476 64.863 M341.672 151.26 C367.277 122.502, 395.017 90.194, 415.151 66.732 M341.672 151.26 C362.313 126.628, 382.357 103.175, 415.151 66.732 M346.003 152.375 C374.553 118.512, 402.18 89.875, 418.826 68.602 M346.003 152.375 C362.014 131.918, 378.362 112.985, 418.826 68.602 M350.334 153.489 C373.756 126.801, 394.848 102.029, 422.501 70.471 M350.334 153.489 C369.287 131.092, 388.425 110.451, 422.501 70.471 M354.665 154.604 C374.291 131.519, 393.645 111.641, 425.52 73.096 M354.665 154.604 C379.854 127.097, 403.979 98.888, 425.52 73.096 M358.34 156.474 C373.442 140.996, 386.484 124.837, 429.194 74.965 M358.34 156.474 C377.081 135.054, 394.555 114.474, 429.194 74.965 M362.671 157.589 C378.87 137.389, 395.68 119.064, 432.869 76.835 M362.671 157.589 C387.02 129.983, 413.382 99.901, 432.869 76.835 M366.346 159.458 C386.005 137.621, 407.496 114.953, 436.544 78.704 M366.346 159.458 C384.811 139.191, 402.379 119.904, 436.544 78.704 M370.021 161.328 C384.4 141.69, 401.106 125.946, 440.219 80.574 M370.021 161.328 C387.972 141.185, 405.227 121.086, 440.219 80.574 M373.696 163.197 C393.437 139.863, 413.892 118.057, 443.238 83.198 M373.696 163.197 C391.671 143.505, 408.987 122.982, 443.238 83.198 M377.371 165.067 C402.292 138.84, 422.77 114.443, 446.913 85.067 M377.371 165.067 C403.734 134.935, 429.327 105.703, 446.913 85.067 M381.045 166.936 C400.767 145.335, 421.087 119.881, 449.932 87.692 M381.045 166.936 C408.475 134.621, 435.212 104.486, 449.932 87.692 M384.72 168.806 C401.132 153.348, 415.043 134.193, 453.607 89.561 M384.72 168.806 C398.469 153.394, 413.232 136.477, 453.607 89.561 M387.739 171.43 C411.752 143.772, 434.944 117.472, 456.625 92.185 M387.739 171.43 C408.245 147.024, 430.352 124.44, 456.625 92.185 M390.758 174.054 C410.505 150.634, 431.029 128.964, 459.644 94.81 M390.758 174.054 C416.168 145.48, 440.653 115.194, 459.644 94.81 M393.777 176.678 C411.301 154.645, 429.172 133.527, 462.663 97.434 M393.777 176.678 C411.086 155.522, 427.265 137.59, 462.663 97.434 M396.796 179.303 C420.14 153.854, 443.84 126.487, 465.682 100.058 M396.796 179.303 C412.015 163.147, 427.194 146.488, 465.682 100.058 M399.815 181.927 C420.232 156.811, 444.14 132.45, 468.701 102.682 M399.815 181.927 C415.5 162.77, 431.372 143.98, 468.701 102.682 M403.489 183.796 C427.274 157.88, 449.369 130.354, 471.72 105.307 M403.489 183.796 C425.096 160.181, 446.607 135.435, 471.72 105.307 M406.508 186.421 C421.998 167.436, 441.268 144.799, 474.738 107.931 M406.508 186.421 C424.443 169.019, 439.393 149.385, 474.738 107.931 M409.527 189.045 C433.909 160.233, 460.736 129.789, 477.757 110.555 M409.527 189.045 C422.453 172.011, 436.429 156.035, 477.757 110.555 M412.546 191.669 C435.657 167.718, 457.018 140.448, 480.776 113.179 M412.546 191.669 C431.616 170.778, 448.798 150.371, 480.776 113.179 M414.909 195.048 C432.4 173.495, 450.772 153.118, 483.795 115.804 M414.909 195.048 C442.184 163.669, 468.981 133.976, 483.795 115.804 M417.272 198.427 C436.802 178.07, 456.226 151.468, 486.814 118.428 M417.272 198.427 C439.342 172.064, 464.338 144.499, 486.814 118.428 M419.634 201.806 C442.632 175.726, 464.073 151.024, 489.177 121.807 M419.634 201.806 C435.275 182.321, 452.502 163.876, 489.177 121.807 M422.653 204.43 C440.099 184.281, 456.452 166.751, 492.195 124.431 M422.653 204.43 C441.901 181.086, 461.182 159.293, 492.195 124.431 M425.016 207.809 C450.741 179.494, 473.472 149.838, 494.558 127.81 M425.016 207.809 C451.582 177.383, 477.061 146.361, 494.558 127.81 M427.379 211.188 C449.766 184.288, 472.991 160.328, 496.921 131.189 M427.379 211.188 C450.279 184.066, 471.144 158.923, 496.921 131.189 M429.741 214.567 C452.747 190.036, 474.337 161.334, 499.94 133.813 M429.741 214.567 C454.156 188.311, 477.572 160.665, 499.94 133.813 M432.76 217.191 C453.177 194.742, 468.63 172.078, 502.303 137.192 M432.76 217.191 C455.823 191.243, 478.73 165.303, 502.303 137.192 M434.467 221.325 C449.759 203.797, 467.327 184.917, 504.665 140.571 M434.467 221.325 C450.879 203.386, 468.235 183.513, 504.665 140.571 M436.83 224.704 C451.946 205.305, 469.579 189.337, 507.684 143.195 M436.83 224.704 C452.481 204.729, 470.898 184.706, 507.684 143.195 M438.537 228.838 C464.719 196.278, 493.553 165.2, 510.047 146.574 M438.537 228.838 C454.163 211.06, 469.025 194.02, 510.047 146.574 M440.899 232.216 C459.107 208.279, 480.421 188.558, 512.41 149.953 M440.899 232.216 C460.188 208.873, 479.006 187.754, 512.41 149.953 M442.606 236.35 C466.415 203.894, 492.823 176.126, 514.773 153.332 M442.606 236.35 C461.574 214.915, 478.655 193.127, 514.773 153.332 M444.313 240.484 C472.969 207.282, 500.925 178.965, 517.135 156.711 M444.313 240.484 C468.369 213.27, 493.771 184.142, 517.135 156.711 M445.363 245.372 C472.99 214.613, 495.923 184.735, 518.842 160.845 M445.363 245.372 C473.989 213.38, 501.048 182.08, 518.842 160.845 M265.998 457.806 C266.812 456.995, 267.387 456.115, 268.622 454.787 M265.998 457.806 C266.456 457.363, 267.078 456.608, 268.622 454.787 M447.07 249.506 C473.916 217.3, 502.306 183.322, 521.205 164.224 M447.07 249.506 C470.316 222.95, 495.326 194.362, 521.205 164.224 M263.768 466.468 C267.793 461.979, 269.223 460.07, 274.921 453.637 M263.768 466.468 C266.864 462.851, 269.806 459.664, 274.921 453.637 M448.121 254.394 C470.199 227.351, 494.4 199.062, 523.568 167.603 M448.121 254.394 C469.346 231.697, 488.925 206.265, 523.568 167.603 M262.195 474.375 C268.966 467.362, 274.717 459.675, 279.908 453.998 M262.195 474.375 C266.073 468.938, 270.025 463.981, 279.908 453.998 M449.828 258.528 C466.43 240.658, 478.724 222.765, 525.93 170.981 M449.828 258.528 C473.414 229.198, 499.538 201.563, 525.93 170.981 M259.965 483.037 C268.248 474.139, 272.461 466.248, 284.895 454.358 M259.965 483.037 C267.95 473.527, 277.554 463.406, 284.895 454.358 M450.878 263.416 C470.245 239.696, 491.712 217.028, 527.637 175.115 M450.878 263.416 C469.944 242.169, 489.588 220.017, 527.637 175.115 M257.735 491.699 C269.46 479.874, 279.054 467.359, 289.882 454.718 M257.735 491.699 C267.409 482.16, 275.375 472.373, 289.882 454.718 M452.585 267.55 C484.434 234.479, 513.191 199.337, 530 178.494 M452.585 267.55 C478.086 237.329, 504.199 206.843, 530 178.494 M256.162 499.606 C267.667 486.199, 281.007 471.021, 294.869 455.078 M256.162 499.606 C271.864 481.36, 287.391 464.983, 294.869 455.078 M453.636 272.438 C473.038 252.356, 489.708 229.53, 531.707 182.628 M453.636 272.438 C475.812 247.493, 495.801 224.997, 531.707 182.628 M253.932 508.268 C266.12 490.373, 281.576 476.687, 299.856 455.438 M253.932 508.268 C267.981 492.262, 282.434 476.461, 299.856 455.438 M454.03 278.081 C473.251 255.79, 496.131 230.881, 533.413 186.761 M454.03 278.081 C476.607 252.289, 497.42 226.066, 533.413 186.761 M251.703 516.93 C265.663 501.361, 282.311 481.765, 304.187 456.553 M251.703 516.93 C265.844 500.45, 278.757 483.418, 304.187 456.553 M454.425 283.724 C480.72 251.862, 505.996 221.222, 535.776 190.14 M454.425 283.724 C482.95 250.301, 511.302 217.709, 535.776 190.14 M250.129 524.837 C270.535 500.85, 291.275 476.688, 309.83 456.158 M250.129 524.837 C267.19 506.899, 282.588 488.028, 309.83 456.158 M455.475 288.613 C483.129 257.604, 508.826 227.088, 537.483 194.274 M455.475 288.613 C476.195 263.174, 498.13 238.875, 537.483 194.274 M247.899 533.499 C272.053 506.202, 291.901 480.628, 316.129 455.009 M247.899 533.499 C263.493 514.442, 280.32 495.665, 316.129 455.009 M455.87 294.256 C485.501 262.687, 514.11 230.064, 539.19 198.408 M455.87 294.256 C476.193 271.183, 496.195 248.42, 539.19 198.408 M245.67 542.161 C272.73 512.25, 298.762 479.125, 321.773 454.614 M245.67 542.161 C262.162 522.825, 277.362 505.136, 321.773 454.614 M456.265 299.899 C490.43 262.174, 522.577 225.491, 540.896 202.541 M456.265 299.899 C481.786 270.244, 508.678 241.145, 540.896 202.541 M243.44 550.823 C260.181 532.522, 276.237 509.035, 328.072 453.465 M243.44 550.823 C264.718 523.53, 286.669 498.817, 328.072 453.465 M456.003 306.297 C481.525 277.562, 509.616 245.463, 542.603 206.675 M456.003 306.297 C478.887 278.877, 502.903 252.15, 542.603 206.675 M246.459 553.447 C272.796 520.914, 301.509 491.796, 333.715 453.07 M246.459 553.447 C275.358 520.306, 303.887 488.453, 333.715 453.07 M455.086 313.449 C482.055 281.915, 511.962 250.83, 544.31 210.809 M455.086 313.449 C477.407 287.358, 500.143 262.614, 544.31 210.809 M250.134 555.316 C272.512 529.799, 291.739 505.161, 340.67 451.166 M250.134 555.316 C283.872 514.64, 318.143 475.428, 340.67 451.166 M454.824 319.847 C488.529 283.685, 519.837 245.878, 546.016 214.942 M454.824 319.847 C474.726 296.592, 495.596 272.746, 546.016 214.942 M255.121 555.676 C288.731 515.997, 324.312 479.618, 348.281 448.508 M255.121 555.676 C288.916 515.772, 324.218 476.026, 348.281 448.508 M453.907 326.999 C482.502 292.923, 511.231 260.406, 547.067 219.831 M453.907 326.999 C472.599 303.915, 493.425 281.014, 547.067 219.831 M259.452 556.791 C288.629 526.425, 312.362 494.393, 355.892 445.849 M259.452 556.791 C283.938 530.279, 308.031 502.164, 355.892 445.849 M452.989 334.152 C475.36 309.254, 496.449 284.31, 548.774 223.964 M452.989 334.152 C479.082 304.514, 503.912 274.432, 548.774 223.964 M264.439 557.151 C286.882 532.189, 305.13 511.027, 363.504 443.19 M264.439 557.151 C303.713 513.325, 340.578 470.991, 363.504 443.19 M450.76 342.814 C478.194 313.377, 504.99 280.229, 549.824 228.853 M450.76 342.814 C473.581 317.967, 493.718 293.48, 549.824 228.853 M269.426 557.511 C304.603 513.612, 344.182 473.26, 373.739 437.513 M269.426 557.511 C311.42 510.942, 352.537 461.994, 373.739 437.513 M446.562 353.74 C475.168 317.773, 504.768 287.198, 551.531 232.986 M446.562 353.74 C473.896 319.408, 503.876 286.816, 551.531 232.986 M273.757 558.626 C299.018 533.018, 319.937 507.211, 384.631 431.08 M273.757 558.626 C301.434 526.058, 330.111 493.586, 384.631 431.08 M441.708 365.421 C486.263 315.922, 526.142 268.355, 552.582 237.875 M441.708 365.421 C476.368 325.599, 511.556 284.955, 552.582 237.875 M278.744 558.986 C318.038 515.799, 352.568 476.649, 397.49 422.384 M278.744 558.986 C324.712 507.16, 368.635 455.103, 397.49 422.384 M434.23 380.12 C469.451 341.258, 503.265 302.334, 553.633 242.763 M434.23 380.12 C465.716 344.593, 495.836 309.906, 553.633 242.763 M283.731 559.346 C386.677 442.271, 490.521 321.465, 554.683 247.651 M283.731 559.346 C372.097 455.755, 462.036 353.403, 554.683 247.651 M288.718 559.707 C348.018 493.265, 405.069 427.05, 555.734 252.54 M288.718 559.707 C345.015 493.829, 401.817 428.491, 555.734 252.54 M294.361 559.312 C377.979 465.295, 460.566 369.496, 556.784 257.428 M294.361 559.312 C359.634 483.224, 424.753 409.735, 556.784 257.428 M299.348 559.672 C358.306 490.931, 416.501 423.796, 557.179 263.071 M299.348 559.672 C362.022 489.077, 422.064 418.968, 557.179 263.071 M304.991 559.277 C378.87 473.768, 450.638 390.54, 558.23 267.96 M304.991 559.277 C372.937 478.612, 442.601 398.875, 558.23 267.96 M310.634 558.883 C393.958 463.461, 476.786 366.409, 558.624 273.603 M310.634 558.883 C378.045 481.886, 443.958 405.206, 558.624 273.603 M315.621 559.243 C369.942 498.278, 422.718 438.58, 559.019 279.246 M315.621 559.243 C379.219 488.023, 442.186 415.592, 559.019 279.246 M321.264 558.848 C386.666 482.508, 450.978 409.828, 560.07 284.134 M321.264 558.848 C385.132 486.883, 447.997 413.875, 560.07 284.134 M326.907 558.454 C414.236 453.35, 505.287 350.694, 560.464 289.777 M326.907 558.454 C391.483 483.94, 456.877 408.482, 560.464 289.777 M331.894 558.814 C389.883 490.649, 449.172 421.84, 560.859 295.42 M331.894 558.814 C422.589 455.02, 513.417 350.886, 560.859 295.42 M338.193 557.665 C417.842 465.37, 496.414 373.101, 561.253 301.063 M338.193 557.665 C388.786 500.222, 438.364 442.452, 561.253 301.063 M344.492 556.515 C414.378 478.562, 484.943 397.366, 560.336 308.216 M344.492 556.515 C421.201 468.909, 498.357 380.838, 560.336 308.216 M350.792 555.366 C418.709 475.809, 487.623 396.46, 560.074 314.614 M350.792 555.366 C414.167 484.081, 477.311 410.744, 560.074 314.614 M357.747 553.462 C415.186 485.37, 473.345 419.232, 559.813 321.011 M357.747 553.462 C429.859 470.946, 502.019 387.244, 559.813 321.011 M364.046 552.313 C428.48 476.812, 496.129 403.044, 558.895 328.164 M364.046 552.313 C405.709 504.998, 446.105 458.681, 558.895 328.164 M371.001 550.409 C433.297 475.377, 497.331 400.839, 558.634 334.562 M371.001 550.409 C416.91 498.409, 460.721 448.885, 558.634 334.562 M377.956 548.505 C415.304 507.378, 451.405 466.035, 557.717 341.714 M377.956 548.505 C430.302 488.265, 483.41 425.858, 557.717 341.714 M384.912 546.601 C442.083 479.903, 503.039 412.773, 556.143 349.621 M384.912 546.601 C447.971 474.396, 510.55 402.834, 556.143 349.621 M393.179 543.187 C446.738 480.734, 498.876 421.991, 554.569 357.529 M393.179 543.187 C449.576 476.571, 507.778 410.494, 554.569 357.529 M402.102 539.019 C458.083 473.185, 516.584 409.18, 551.684 366.945 M402.102 539.019 C452.481 479.66, 504.105 421.462, 551.684 366.945 M410.37 535.606 C458.68 482.112, 504.002 426.976, 549.454 375.607 M410.37 535.606 C452.552 488.309, 494.316 440.568, 549.454 375.607 M418.637 532.192 C448.561 496.815, 477.84 463.229, 546.568 385.024 M418.637 532.192 C445.423 500.365, 473.837 469.057, 546.568 385.024 M428.872 526.515 C463.713 485.787, 499.509 444.334, 541.714 396.704 M428.872 526.515 C462.719 487.387, 495.209 449.669, 541.714 396.704 M441.076 518.573 C475.648 479.477, 515.042 435.551, 536.205 409.14 M441.076 518.573 C467.58 486.634, 495.093 457.657, 536.205 409.14 M455.904 507.612 C474.984 486.92, 494.088 460.894, 528.07 424.594 M455.904 507.612 C481.549 477.691, 506.187 449.38, 528.07 424.594 M469.42 498.161 C479.616 485.878, 490.054 475.749, 516.656 443.822 M469.42 498.161 C483.592 480.075, 500.262 464.126, 516.656 443.822" stroke="rgb(102, 126, 234)" stroke-width="0.5" fill="none"/><path d="M303.032 45.127 C304.179 41.174, 307.068 38.362, 308.19 40.129 M303.032 45.127 C301.028 41.459, 305.278 37.86, 308.19 40.129 M308.19 40.129 C507.194 47.74, 626.768 268.034, 520.959 437.029 M308.19 40.129 C510.134 44.297, 624.55 264.714, 520.959 437.029 M520.959 437.029 C461.857 528.258, 352.891 578.438, 247.275 554.598 M520.959 437.029 C461.337 528.242, 355.413 577.297, 247.275 554.598 M247.275 554.598 C243.587 554.576, 242.04 552.215, 243.427 548.534 M247.275 554.598 C246.664 555.263, 243.114 549.766, 243.427 548.534 M243.427 548.534 C250.437 517.785, 258.731 489.174, 265.397 457.061 M243.427 548.534 C251.251 519.876, 256.964 493.084, 265.397 457.061 M265.397 457.061 C264.632 456.139, 269.221 454.049, 271.182 453.315 M265.397 457.061 C264.354 454.339, 268.29 452.302, 271.182 453.315 M271.182 453.315 C390.713 474.496, 485.617 360.586, 447.182 248.298 M271.182 453.315 C389.28 476.407, 487.083 361.134, 447.182 248.298 M447.182 248.298 C424.325 188.399, 371.803 146.055, 307.783 144.194 M447.182 248.298 C424.697 188.713, 369.552 148.158, 307.783 144.194 M307.783 144.194 C305.795 145.236, 303.403 140.214, 303.032 139.2 M307.783 144.194 C307.291 145.547, 301.396 140.295, 303.032 139.2 M303.032 139.2 C303.732 104.624, 304.249 70.254, 303.032 45.127 M303.032 139.2 C304.173 103.316, 303.463 66.37, 303.032 45.127" stroke="rgb(102, 126, 234)" stroke-width="1" fill="none"/></g><g xmlns="http://www.w3.org/2000/svg" xmlns:xlink="http://www.w3.org/1999/xlink"><path d="M63.365 399.586 C63.365 399.586, 63.365 399.586, 63.365 399.586 M63.365 399.586 C63.365 399.586, 63.365 399.586, 63.365 399.586 M63.104 405.984 C67.358 402.23, 69.744 399.423, 71.632 396.172 M63.104 405.984 C65.602 402.242, 68.554 399.223, 71.632 396.172 M64.81 410.117 C69.544 404.844, 74.389 397.835, 79.9 392.759 M64.81 410.117 C70.786 402.604, 77.758 396.212, 79.9 392.759 M67.173 413.496 C75.882 404.553, 83.409 396.139, 88.167 389.345 M67.173 413.496 C74.272 404.466, 81.455 396.375, 88.167 389.345 M68.88 417.63 C75.812 408.898, 81.849 403.734, 96.434 385.932 M68.88 417.63 C76.611 407.84, 85.719 399.304, 96.434 385.932 M71.243 421.009 C81.142 410.244, 92.969 399.846, 104.702 382.519 M71.243 421.009 C80.794 409.94, 91.67 396.738, 104.702 382.519 M72.949 425.142 C79.486 416.829, 87.659 407.078, 112.969 379.105 M72.949 425.142 C83.807 412.323, 93.62 401.132, 112.969 379.105 M75.312 428.521 C88.368 415.928, 98.081 400.694, 121.236 375.692 M75.312 428.521 C90.726 409.241, 107.086 392.508, 121.236 375.692 M77.019 432.655 C91.292 418.033, 102.534 402.802, 129.504 372.278 M77.019 432.655 C96.906 409.908, 118.93 385.948, 129.504 372.278 M79.382 436.034 C92.624 423.629, 100.417 408.882, 137.115 369.619 M79.382 436.034 C96.007 415.25, 113.727 397.476, 137.115 369.619 M81.088 440.168 C97.586 420.753, 115.267 402.517, 145.382 366.206 M81.088 440.168 C103.311 416.871, 124.764 390.808, 145.382 366.206 M83.451 443.547 C103.534 424.284, 118.37 403.766, 152.993 363.547 M83.451 443.547 C105.229 420.367, 125.342 395.684, 152.993 363.547 M85.814 446.925 C115.103 413.402, 143.349 384.031, 157.324 364.662 M85.814 446.925 C106.546 423.679, 125.526 400.294, 157.324 364.662 M88.177 450.304 C112.197 419.962, 141.42 390.948, 159.687 368.041 M88.177 450.304 C113.411 421.213, 139.125 392.349, 159.687 368.041 M90.539 453.683 C106.565 438.11, 119.661 419.141, 162.05 371.42 M90.539 453.683 C107.997 432.792, 125.391 411.987, 162.05 371.42 M92.902 457.062 C111.284 434.346, 134.116 410.937, 164.413 374.799 M92.902 457.062 C116.332 430.31, 138.708 403.89, 164.413 374.799 M95.921 459.687 C118.782 430.472, 143.756 403.302, 166.119 378.933 M95.921 459.687 C116.056 436.418, 135.612 413.328, 166.119 378.933 M98.284 463.066 C113.075 442.574, 130.657 422.195, 168.482 382.312 M98.284 463.066 C116.963 442.362, 135.075 420.174, 168.482 382.312 M100.647 466.444 C117.913 449.204, 130.505 432.842, 170.845 385.691 M100.647 466.444 C118.102 445.959, 135.722 426.394, 170.845 385.691 M103.009 469.823 C131.888 437.023, 158.586 405.828, 172.552 389.824 M103.009 469.823 C120.732 451.675, 136.694 432.177, 172.552 389.824 M106.028 472.448 C131.265 442.413, 155.808 414.88, 174.914 393.203 M106.028 472.448 C130.092 445.996, 152.024 418.752, 174.914 393.203 M109.047 475.072 C134.987 441.506, 165.154 411.761, 177.933 395.827 M109.047 475.072 C132.715 448.397, 155.905 421.47, 177.933 395.827 M111.41 478.451 C137.235 447.632, 161.984 418.476, 180.296 399.206 M111.41 478.451 C133.812 454.414, 154.173 429.936, 180.296 399.206 M114.429 481.075 C138.173 453.653, 161.124 429.49, 183.315 401.831 M114.429 481.075 C133.13 461.708, 148.903 440.471, 183.315 401.831 M117.447 483.699 C139.912 456.225, 165.692 431.691, 185.678 405.209 M117.447 483.699 C141.912 455.983, 166.244 427.406, 185.678 405.209 M120.466 486.324 C148.053 454.089, 173.235 422.76, 188.696 407.834 M120.466 486.324 C142.636 458.619, 167.282 433.261, 188.696 407.834 M122.829 489.702 C146.299 462.44, 170.885 432.427, 191.059 411.213 M122.829 489.702 C142.762 466.497, 163.223 443.229, 191.059 411.213 M125.848 492.327 C150.288 464.847, 173.899 437.737, 194.078 413.837 M125.848 492.327 C144.995 470.17, 164.077 450.29, 194.078 413.837 M128.867 494.951 C154.244 467.033, 179.683 437.447, 197.097 416.461 M128.867 494.951 C152.67 467.039, 178.23 438.691, 197.097 416.461 M131.23 498.33 C151.082 473.242, 171.534 449.032, 200.116 419.085 M131.23 498.33 C156.7 468.25, 183.967 437.21, 200.116 419.085 M134.904 500.199 C152.939 480.576, 168.604 463.157, 203.135 421.71 M134.904 500.199 C150.412 482.036, 166.839 463.428, 203.135 421.71 M137.923 502.824 C156.731 483.703, 173.805 463.417, 206.153 424.334 M137.923 502.824 C155.591 482.863, 173.922 463.22, 206.153 424.334 M141.598 504.693 C163.084 480.899, 183.412 454.065, 209.828 426.203 M141.598 504.693 C159.28 485.181, 175.283 466.698, 209.828 426.203 M144.617 507.317 C163.119 486.11, 178.793 467.628, 212.847 428.828 M144.617 507.317 C171.782 478.426, 196.543 449.12, 212.847 428.828 M147.636 509.942 C170.155 485.167, 191.103 463.281, 216.522 430.697 M147.636 509.942 C169.984 482.336, 195.249 456.056, 216.522 430.697 M151.311 511.811 C166.266 494.224, 183.33 472.999, 219.541 433.321 M151.311 511.811 C168.693 492.092, 186.221 471.085, 219.541 433.321 M154.33 514.435 C172.343 492.861, 192.565 466.305, 223.216 435.191 M154.33 514.435 C171.674 494.893, 189.321 474.18, 223.216 435.191 M157.348 517.06 C175.884 498.492, 189.827 479.178, 226.235 437.815 M157.348 517.06 C172.705 500.574, 185.532 483.648, 226.235 437.815 M161.023 518.929 C181.87 496.13, 200.754 473.192, 230.566 438.93 M161.023 518.929 C188.03 487.31, 213.859 457.522, 230.566 438.93 M164.042 521.553 C190.475 495.353, 212.756 463.867, 234.24 440.799 M164.042 521.553 C182.838 500.816, 201.446 478.934, 234.24 440.799 M167.717 523.423 C189.506 497.226, 213.726 471.168, 237.915 442.669 M167.717 523.423 C186.865 501.481, 205.444 479.291, 237.915 442.669 M171.392 525.292 C195.427 498.474, 218.167 469.972, 241.59 444.539 M171.392 525.292 C194.021 499.781, 217.142 472.392, 241.59 444.539 M174.411 527.917 C190.209 512.569, 206.423 491.508, 245.265 446.408 M174.411 527.917 C193.01 508.426, 209.915 488.513, 245.265 446.408 M178.086 529.786 C203.498 501.834, 227.439 471.301, 249.596 447.523 M178.086 529.786 C195.573 511.216, 210.399 491.178, 249.596 447.523 M181.761 531.656 C194.592 513.944, 209.676 497.537, 253.271 449.392 M181.761 531.656 C207.674 502.508, 233.538 471.447, 253.271 449.392 M185.436 533.525 C208.255 508.688, 227.698 483.23, 256.946 451.262 M185.436 533.525 C198.234 517.463, 212.537 500.9, 256.946 451.262 M189.11 535.395 C214.376 506.345, 239.137 476.076, 259.309 454.641 M189.11 535.395 C207.859 513.595, 227.952 491.34, 259.309 454.641 M192.785 537.264 C216.197 512.39, 239.029 483.629, 258.391 461.793 M192.785 537.264 C216.184 511.077, 238.428 486.047, 258.391 461.793 M197.116 538.379 C218.924 515.621, 238.902 493.131, 256.162 470.455 M197.116 538.379 C210.938 521.864, 225.402 506.82, 256.162 470.455 M200.791 540.249 C211.532 525.341, 222.161 512.738, 253.932 479.117 M200.791 540.249 C219.643 519.076, 237.185 500.066, 253.932 479.117 M205.122 541.363 C223.286 520.76, 241.48 499.842, 252.358 487.024 M205.122 541.363 C216.48 529.698, 226.526 516.582, 252.358 487.024 M208.797 543.233 C218.738 532.521, 225.823 521.516, 250.129 495.686 M208.797 543.233 C220.858 529.146, 232.282 517.74, 250.129 495.686 M213.128 544.348 C224.774 528.78, 238.648 512.555, 247.899 504.348 M213.128 544.348 C224.84 530.676, 236.783 516.426, 247.899 504.348 M217.459 545.463 C223.431 538.789, 230.255 533.039, 245.669 513.01 M217.459 545.463 C228.375 533.251, 239.135 519.852, 245.669 513.01 M221.134 547.332 C227.145 539.18, 234.177 531.473, 244.096 520.917 M221.134 547.332 C226.372 543.013, 230.46 536.311, 244.096 520.917 M225.465 548.447 C229.713 543.681, 233.185 537.407, 241.866 529.579 M225.465 548.447 C229.97 542.983, 233.719 539.458, 241.866 529.579 M229.14 550.317 C233.099 546.394, 233.215 543.086, 239.637 538.241 M229.14 550.317 C230.611 547.375, 233.71 545.855, 239.637 538.241 M234.127 550.677 C235.33 549.645, 236.077 547.985, 238.063 546.148 M234.127 550.677 C235.075 549.027, 236.359 547.757, 238.063 546.148" stroke="rgb(118, 75, 162)" stroke-width="0.5" fill="none"/><path d="M237.531 547.118 C238.057 548.437, 234.203 553.126, 231.349 550.773 M237.531 547.118 C237.019 550.735, 231.887 551.676, 231.349 550.773 M231.349 550.773 C157.688 529.761, 95.81 475.674, 62.251 405.24 M231.349 550.773 C157.564 531.361, 92.211 474.928, 62.251 405.24 M62.251 405.24 C59.653 403.287, 63.811 399.815, 64.944 398.583 M62.251 405.24 C59.484 403.945, 60.162 397.653, 64.944 398.583 M64.944 398.583 C97.047 384.215, 133.68 368.789, 152.124 363.233 M64.944 398.583 C87.605 390.812, 109.745 382.247, 152.124 363.233 M152.124 363.233 C155.189 361.832, 159.062 364.708, 158.537 365.759 M152.124 363.233 C154.288 360.504, 158.109 364.226, 158.537 365.759 M158.537 365.759 C177.095 405.96, 214.426 436.874, 256.047 449.68 M158.537 365.759 C179.462 406.758, 211.412 438.111, 256.047 449.68 M256.047 449.68 C256.928 450.24, 258.487 454.476, 259.5 455.645 M256.047 449.68 C256.664 448.525, 262.29 451.99, 259.5 455.645 M259.5 455.645 C253.94 484.913, 245.836 512.791, 237.531 547.118 M259.5 455.645 C254.522 477.791, 248.488 502.411, 237.531 547.118" stroke="rgb(118, 75, 162)" stroke-width="1" fill="none"/></g><g xmlns="http://www.w3.org/2000/svg" xmlns:xlink="http://www.w3.org/1999/xlink"><path d="M41.65 274.708 C41.65 274.708, 41.65 274.708, 41.65 274.708 M41.65 274.708 C41.65 274.708, 41.65 274.708, 41.65 274.708 M41.389 281.106 C42.905 278.402, 46.986 275.619, 48.605 272.804 M41.389 281.106 C42.961 278.681, 45.214 277.057, 48.605 272.804 M41.127 287.504 C45.344 282.501, 47.513 277.981, 53.592 273.164 M41.127 287.504 C44.904 283.507, 47.475 278.735, 53.592 273.164 M40.866 293.902 C45.288 288.097, 50.06 285.758, 57.923 274.279 M40.866 293.902 C46.942 287.599, 51.333 282.681, 57.923 274.279 M40.604 300.299 C48.577 292.229, 55.368 286.417, 62.91 274.639 M40.604 300.299 C50.25 289.846, 57.517 280.31, 62.91 274.639 M40.999 305.942 C45.481 297.816, 54.467 293.003, 67.897 274.999 M40.999 305.942 C48.319 297.546, 56.1 288.711, 67.897 274.999 M41.393 311.585 C49.031 302.122, 57.758 290.757, 72.228 276.114 M41.393 311.585 C51.481 300.576, 59.12 290.769, 72.228 276.114 M41.788 317.229 C49.03 307.826, 57.735 295.379, 77.215 276.474 M41.788 317.229 C50.2 305.943, 58.952 295.971, 77.215 276.474 M42.839 322.117 C54.158 305.989, 69.051 292.636, 82.202 276.834 M42.839 322.117 C56.52 305.397, 71.662 289.056, 82.202 276.834 M43.233 327.76 C56.86 310.842, 71.521 295.691, 86.533 277.949 M43.233 327.76 C58.814 311.24, 71.465 294.774, 86.533 277.949 M43.628 333.403 C61.057 312.193, 77.605 292.053, 91.52 278.309 M43.628 333.403 C57.187 319.333, 69.662 303.671, 91.52 278.309 M44.022 339.046 C56.073 327.575, 66.306 311.216, 96.507 278.669 M44.022 339.046 C57.363 324.112, 69.951 309.608, 96.507 278.669 M45.073 343.934 C65.736 317.315, 88.964 292.362, 100.838 279.784 M45.073 343.934 C57.189 329.493, 71.122 315.348, 100.838 279.784 M45.468 349.578 C60.245 331.62, 76.034 311.502, 105.825 280.144 M45.468 349.578 C56.559 336.128, 70.524 321.506, 105.825 280.144 M46.518 354.466 C69.963 329.605, 90.966 303.736, 110.812 280.504 M46.518 354.466 C61.284 335.84, 77.998 316.964, 110.812 280.504 M47.569 359.354 C65.668 335.924, 84.156 316.384, 115.143 281.619 M47.569 359.354 C71.979 333.668, 94.399 306.818, 115.143 281.619 M49.276 363.488 C69.606 341.949, 88.568 318.124, 120.13 281.979 M49.276 363.488 C74.407 334.722, 100.614 304.112, 120.13 281.979 M50.326 368.376 C77.66 336.242, 101.954 308.456, 125.117 282.339 M50.326 368.376 C79.477 335.761, 108.447 302.492, 125.117 282.339 M51.377 373.265 C78.756 339.809, 109.844 307.034, 129.448 283.454 M51.377 373.265 C67.234 353.69, 84.046 335.944, 129.448 283.454 M53.084 377.398 C72.437 356.613, 92.687 332.425, 134.435 283.814 M53.084 377.398 C83.249 344.229, 112.947 308.811, 134.435 283.814 M54.134 382.287 C76.151 358.678, 97.759 330.467, 139.422 284.174 M54.134 382.287 C80.184 350.624, 107.659 319.071, 139.422 284.174 M55.185 387.175 C92.272 347.279, 123.542 309.083, 143.097 286.044 M55.185 387.175 C86.685 350.1, 118.472 313.273, 143.097 286.044 M56.892 391.309 C87.151 357.186, 113.738 326.901, 144.804 290.178 M56.892 391.309 C84.964 356.212, 115.143 322.428, 144.804 290.178 M60.567 393.178 C80.213 370.539, 100.129 347.664, 144.542 296.575 M60.567 393.178 C78.734 374.174, 97.221 353.408, 144.542 296.575 M67.522 391.274 C91.276 367.565, 111.221 341.503, 144.937 302.218 M67.522 391.274 C83.338 371.599, 101.53 352.633, 144.937 302.218 M75.133 388.615 C90.894 368.924, 107.96 351.926, 145.332 307.862 M75.133 388.615 C91.263 369.833, 106.568 350.878, 145.332 307.862 M83.401 385.202 C105.968 358.171, 130.222 329.834, 145.07 314.259 M83.401 385.202 C101.608 365.178, 119.925 344.24, 145.07 314.259 M91.668 381.789 C103.341 366.289, 117.194 349.93, 145.465 319.902 M91.668 381.789 C106.444 365.62, 120.02 349.012, 145.465 319.902 M99.935 378.375 C117.287 359.267, 138.389 338.196, 146.515 324.791 M99.935 378.375 C115.674 359.979, 129.924 343.392, 146.515 324.791 M108.202 374.962 C115.151 364.303, 125.349 355.422, 147.566 329.679 M108.202 374.962 C120.857 360.668, 132.778 345.881, 147.566 329.679 M116.47 371.548 C127.838 360.405, 139.231 347.737, 148.617 334.568 M116.47 371.548 C127.397 358.265, 139.199 346.167, 148.617 334.568 M124.737 368.135 C130.033 358.1, 140.538 350.291, 150.323 338.701 M124.737 368.135 C132.904 358.427, 142.449 348.982, 150.323 338.701 M133.004 364.721 C139.808 355.798, 146.718 350.373, 151.374 343.59 M133.004 364.721 C137.95 357.434, 144.618 350.665, 151.374 343.59 M141.272 361.308 C145.558 355.566, 149.187 350.046, 152.425 348.478 M141.272 361.308 C144.495 357.856, 147.43 354.922, 152.425 348.478 M149.539 357.895 C150.485 356.435, 152.722 355.302, 153.475 353.366 M149.539 357.895 C150.543 356.925, 150.982 355.881, 153.475 353.366" stroke="rgb(78, 205, 196)" stroke-width="0.5" fill="none"/><path d="M62.666 392.963 C61.879 392.302, 58.738 393.374, 56.096 390.061 M62.666 392.963 C60.82 391.859, 59.25 393.492, 56.096 390.061 M56.096 390.061 C43.15 354.093, 38.423 316.825, 41.049 276.666 M56.096 390.061 C41.521 353.029, 38.883 316.287, 41.049 276.666 M41.049 276.666 C39.586 275.308, 42.737 272.639, 46.634 272.151 M41.049 276.666 C39.078 273.119, 43.016 270.083, 46.634 272.151 M46.634 272.151 C75.921 277.382, 107.801 278.899, 140.016 283.541 M46.634 272.151 C65.594 274.792, 85.458 277.084, 140.016 283.541 M140.016 283.541 C142.917 283.789, 143.129 286.592, 144.398 288.861 M140.016 283.541 C143.716 285.506, 145.374 285.794, 144.398 288.861 M144.398 288.861 C143.074 308.121, 147.137 329.595, 152.688 351.334 M144.398 288.861 C144.03 309.405, 146.732 332.055, 152.688 351.334 M152.688 351.334 C153.669 354.108, 153.781 355.353, 149.845 357.613 M152.688 351.334 C152.226 354.147, 152.542 358.271, 149.845 357.613 M149.845 357.613 C116.159 371.11, 81.758 387.333, 62.666 392.963 M149.845 357.613 C122.598 367.713, 96.177 378.135, 62.666 392.963" stroke="rgb(78, 205, 196)" stroke-width="1" fill="none"/></g><g xmlns="http://www.w3.org/2000/svg" xmlns:xlink="http://www.w3.org/1999/xlink"><path d="M97.732 136.632 C97.732 136.632, 97.732 136.632, 97.732 136.632 M97.732 136.632 C97.732 136.632, 97.732 136.632, 97.732 136.632 M76.476 167.181 C94.078 143.93, 113.825 123.032, 132.241 103.03 M76.476 167.181 C93.287 146.847, 111.863 127.21, 132.241 103.03 M68.998 181.88 C93.815 154.261, 115.233 125.147, 145.757 93.579 M68.998 181.88 C86.854 161.777, 104.753 141.699, 145.757 93.579 M62.176 195.825 C90.209 162.955, 120.305 130.447, 150.088 94.694 M62.176 195.825 C97.597 155.026, 132.421 115.181, 150.088 94.694 M58.634 205.997 C83.281 177.59, 107.69 147.032, 152.451 98.073 M58.634 205.997 C84.788 175.833, 111.288 146.262, 152.451 98.073 M55.093 216.168 C78.512 188.754, 101.028 163.627, 154.814 101.452 M55.093 216.168 C94.478 169.998, 134.764 126.047, 154.814 101.452 M51.551 226.339 C92.719 182.162, 130.697 139.823, 157.176 104.831 M51.551 226.339 C81.656 192.349, 110.345 158.216, 157.176 104.831 M49.977 234.246 C76.9 201.895, 106.069 170.912, 159.539 108.21 M49.977 234.246 C81.404 197.614, 112.118 161.456, 159.539 108.21 M47.748 242.908 C88.821 196.785, 130.733 150.235, 161.902 111.589 M47.748 242.908 C84.368 199.236, 121.211 158.094, 161.902 111.589 M46.174 250.816 C83.75 209.226, 117.313 166.945, 164.265 114.968 M46.174 250.816 C72.728 220.685, 99.341 191.227, 164.265 114.968 M43.288 260.232 C87.157 209.583, 132.593 157.25, 166.627 118.347 M43.288 260.232 C77.348 220.081, 113.097 180.6, 166.627 118.347 M44.339 265.121 C84.085 215.301, 127.506 170.117, 168.99 121.726 M44.339 265.121 C84.799 219.42, 124.443 173.378, 168.99 121.726 M48.67 266.235 C95.067 211.57, 138.464 162.328, 171.353 125.105 M48.67 266.235 C92.809 214.153, 138.635 161.141, 171.353 125.105 M53.657 266.595 C83.519 230.964, 115.427 194.966, 173.716 128.484 M53.657 266.595 C89.718 225.755, 125.999 183.332, 173.716 128.484 M57.988 267.71 C94.61 224.136, 127.8 186.339, 176.079 131.863 M57.988 267.71 C98.358 219.283, 140.379 172.155, 176.079 131.863 M62.975 268.07 C86.114 239.672, 112.333 208.877, 178.441 135.241 M62.975 268.07 C88.835 240.022, 113.196 210.137, 178.441 135.241 M67.962 268.43 C107.575 220.016, 149.684 172.43, 180.804 138.62 M67.962 268.43 C102.611 227.749, 137.33 187.036, 180.804 138.62 M72.293 269.545 C117.998 216.603, 159.55 169.295, 183.167 141.999 M72.293 269.545 C97.645 240.148, 122.438 212.389, 183.167 141.999 M77.28 269.905 C103.838 239.258, 134.592 205.172, 185.53 145.378 M77.28 269.905 C100.997 242.261, 124.512 215.771, 185.53 145.378 M82.267 270.265 C102.563 240.993, 128.674 216.082, 188.548 148.003 M82.267 270.265 C122.144 224.988, 160.432 179.414, 188.548 148.003 M87.254 270.626 C121.252 226.872, 158.995 187.192, 190.911 151.381 M87.254 270.626 C109.273 243.818, 130.312 217.741, 190.911 151.381 M91.585 271.74 C122.678 231.657, 156.897 196.158, 193.274 154.76 M91.585 271.74 C122.256 234.992, 155.018 197.624, 193.274 154.76 M96.572 272.101 C127.401 237.364, 157.273 205.042, 195.637 158.139 M96.572 272.101 C121.177 244.125, 145.104 215.664, 195.637 158.139 M101.559 272.461 C122.198 247.793, 145.027 222.02, 198 161.518 M101.559 272.461 C124.474 246.014, 149.475 217.52, 198 161.518 M105.89 273.575 C125.461 250.457, 147.332 224.59, 200.362 164.897 M105.89 273.575 C139.594 233.545, 174.799 193.644, 200.362 164.897 M110.877 273.936 C143.877 233.277, 179.034 192.606, 202.725 168.276 M110.877 273.936 C131.337 250.959, 151.395 225.991, 202.725 168.276 M115.864 274.296 C129.584 259.767, 146.926 240.886, 182.782 197.315 M115.864 274.296 C130.457 257.516, 144.375 242.676, 182.782 197.315 M182.782 197.315 C188.768 189.701, 197.774 182.461, 204.432 172.41 M182.782 197.315 C187.503 190.744, 192.151 185.613, 204.432 172.41 M120.195 275.41 C133.051 257.892, 149.139 240.863, 164.807 224.09 M120.195 275.41 C135.082 256.703, 151.136 239.37, 164.807 224.09 M125.182 275.771 C132.162 267.775, 141.313 254.939, 158.641 237.28 M125.182 275.771 C134.192 264.311, 145.234 253.667, 158.641 237.28 M130.169 276.131 C134.556 271.044, 140.526 262.042, 152.475 250.471 M130.169 276.131 C139.459 265.836, 147.943 256.146, 152.475 250.471 M135.156 276.491 C138.464 271.119, 143.488 266.85, 149.589 259.887 M135.156 276.491 C138.258 272.02, 141.95 270.223, 149.589 259.887 M139.487 277.606 C141.134 274.766, 145.719 272.322, 146.704 269.304 M139.487 277.606 C141.603 274.874, 143.717 272.63, 146.704 269.304" stroke="rgb(255, 107, 107)" stroke-width="0.5" fill="none"/><path d="M47.369 266.132 C45.944 267.264, 42.387 264.21, 43.032 260.407 M47.369 266.132 C45.23 264.818, 42.285 263.461, 43.032 260.407 M43.032 260.407 C55.037 192.384, 88.342 133.074, 142.512 93.124 M43.032 260.407 C53.332 195.695, 87.829 134.471, 142.512 93.124 M142.512 93.124 C146.499 90.807, 146.355 90.731, 149.612 94.201 M142.512 93.124 C142.996 90.617, 146.289 91.607, 149.612 94.201 M149.612 94.201 C169.706 122.648, 189.337 149.762, 204.209 170.811 M149.612 94.201 C163.034 112.624, 175.923 129.318, 204.209 170.811 M204.209 170.811 C205.256 174.079, 204.254 177.957, 203.239 177.635 M204.209 170.811 C204.729 173.39, 203.684 173.836, 203.239 177.635 M203.239 177.635 C174.736 200.719, 154.788 233.632, 146.283 273.411 M203.239 177.635 C174.005 199.82, 153.815 234.481, 146.283 273.411 M146.283 273.411 C146.502 275.736, 141.807 279.787, 140.751 277.522 M146.283 273.411 C146.61 276.849, 142.317 276.055, 140.751 277.522 M140.751 277.522 C118.261 272.748, 98.874 271.908, 47.369 266.132 M140.751 277.522 C110.175 273.009, 80.938 269.886, 47.369 266.132" stroke="rgb(255, 107, 107)" stroke-width="1" fill="none"/></g><g xmlns="http://www.w3.org/2000/svg" xmlns:xlink="http://www.w3.org/1999/xlink"><path d="M154.349 85.148 C154.349 85.148, 154.349 85.148, 154.349 85.148 M154.349 85.148 C154.349 85.148, 154.349 85.148, 154.349 85.148 M154.743 90.791 C157.219 86.505, 163.854 82.17, 166.553 77.206 M154.743 90.791 C157.767 88.032, 159.516 84.771, 166.553 77.206 M157.106 94.17 C162.773 86.606, 171.063 79.972, 176.788 71.529 M157.106 94.17 C161.899 88.735, 165.762 84.429, 176.788 71.529 M159.469 97.549 C164.202 92.575, 168.968 83.182, 186.367 66.606 M159.469 97.549 C164.39 90.961, 170.837 84.142, 186.367 66.606 M161.832 100.928 C173.275 90.132, 183.348 79.492, 195.291 62.438 M161.832 100.928 C167.421 92.182, 175.37 85.772, 195.291 62.438 M164.195 104.307 C176.985 87.108, 189.849 73.24, 203.558 59.024 M164.195 104.307 C175.956 90.317, 187.776 77.036, 203.558 59.024 M166.557 107.686 C182.829 87.409, 204.051 65.736, 211.825 55.611 M166.557 107.686 C181.12 91.372, 195.573 74.768, 211.825 55.611 M168.92 111.065 C186.872 90.313, 203.379 73.269, 217.468 55.216 M168.92 111.065 C186.94 90.315, 203.704 70.398, 217.468 55.216 M171.283 114.444 C187.036 95.946, 203.207 76.557, 221.143 57.086 M171.283 114.444 C183.014 99.855, 195.136 84.945, 221.143 57.086 M173.646 117.823 C188.663 102.226, 203.443 86.594, 222.85 61.219 M173.646 117.823 C190.383 100.16, 205.268 81.371, 222.85 61.219 M176.008 121.202 C184.146 109.427, 194.613 99.215, 223.901 66.108 M176.008 121.202 C191.008 103.62, 205.809 86.743, 223.901 66.108 M178.371 124.58 C194.945 102.452, 213.617 81.973, 225.607 70.241 M178.371 124.58 C192.012 110.597, 203.094 95.48, 225.607 70.241 M181.39 127.205 C191.89 116.913, 203.462 102.252, 226.658 75.13 M181.39 127.205 C191.083 115.512, 200.454 105.237, 226.658 75.13 M183.753 130.584 C198.439 112.293, 215.042 95.215, 228.365 79.263 M183.753 130.584 C197.75 114.194, 213.332 96.114, 228.365 79.263 M186.116 133.963 C199.988 114.586, 217.643 95.715, 229.416 84.152 M186.116 133.963 C201.596 116.34, 216.151 99.579, 229.416 84.152 M188.478 137.342 C197.65 127.305, 210.061 114.424, 231.122 88.285 M188.478 137.342 C198.494 123.81, 211.223 110.919, 231.122 88.285 M190.841 140.72 C200.577 129.573, 213.777 116.382, 232.829 92.419 M190.841 140.72 C200.734 129.501, 213.078 116.486, 232.829 92.419 M193.204 144.099 C200.8 134.998, 211.532 125.973, 233.88 97.307 M193.204 144.099 C203.781 130.422, 216.12 117.759, 233.88 97.307 M195.567 147.478 C210.519 129.259, 228.033 112.862, 235.586 101.441 M195.567 147.478 C207.481 133.365, 220.849 117.682, 235.586 101.441 M197.93 150.857 C211.881 135.61, 227.25 115.343, 236.637 106.329 M197.93 150.857 C209.766 135.585, 223.253 121.072, 236.637 106.329 M200.292 154.236 C211.704 141.522, 225.16 128.132, 238.344 110.463 M200.292 154.236 C215.3 137.61, 228.372 120.989, 238.344 110.463 M202.655 157.615 C215.856 143.464, 225.163 131.886, 239.394 115.351 M202.655 157.615 C216.727 142.299, 231.596 124.406, 239.394 115.351 M205.018 160.994 C211.516 151.029, 219.031 142.347, 241.101 119.485 M205.018 160.994 C212.528 152.124, 221.52 143.924, 241.101 119.485 M207.381 164.373 C216.393 154.883, 224.845 142.701, 242.152 124.373 M207.381 164.373 C220.214 149.929, 233.307 135.28, 242.152 124.373 M209.743 167.752 C218.859 159.392, 228.101 149.518, 243.858 128.507 M209.743 167.752 C222.315 152.735, 234.594 137.795, 243.858 128.507 M214.074 168.867 C220.688 159.195, 230.026 153.819, 244.909 133.395 M214.074 168.867 C221.346 158.531, 229.356 149.626, 244.909 133.395 M221.686 166.208 C228.316 158.508, 233.569 150.467, 246.616 137.529 M221.686 166.208 C231.51 155.828, 240.281 144.738, 246.616 137.529 M231.265 161.285 C235.421 158.242, 239.376 150.615, 247.667 142.418 M231.265 161.285 C236.399 154.484, 241.984 148.521, 247.667 142.418 M240.844 156.362 C243.338 153.736, 247.48 150.358, 249.373 146.551 M240.844 156.362 C244.264 152.769, 246.964 149.393, 249.373 146.551" stroke="rgb(255, 230, 109)" stroke-width="0.5" fill="none"/><path d="M154.551 90.682 C152.161 86.489, 152.198 84.719, 155.85 83.619 M154.551 90.682 C151.779 87.904, 152.76 86.661, 155.85 83.619 M155.85 83.619 C173.709 71.04, 193.682 60.924, 214.753 54.372 M155.85 83.619 C175.771 72.17, 193.52 62.635, 214.753 54.372 M214.753 54.372 C219.228 54.722, 221.173 53.731, 221.165 57.606 M214.753 54.372 C219.238 54.263, 222.358 57.157, 221.165 57.606 M221.165 57.606 C226.434 76.621, 236.044 101.241, 249.195 147.407 M221.165 57.606 C230.349 84.659, 237.832 112.877, 249.195 147.407 M249.195 147.407 C251.683 148.526, 250.468 150.829, 246.148 153.59 M249.195 147.407 C247.837 150.857, 247.701 150.877, 246.148 153.59 M246.148 153.59 C234.115 156.422, 225.781 164.078, 215.914 168.601 M246.148 153.59 C237.788 155.745, 223.598 163.154, 215.914 168.601 M215.914 168.601 C212.982 169.873, 209.113 169.705, 209.147 167.292 M215.914 168.601 C214.504 170.984, 212.733 169.336, 209.147 167.292 M209.147 167.292 C186.193 139.485, 166.197 107.6, 154.551 90.682 M209.147 167.292 C194.223 145.265, 179.381 123.657, 154.551 90.682" stroke="rgb(255, 230, 109)" stroke-width="1" fill="none"/></g><g xmlns="http://www.w3.org/2000/svg" xmlns:xlink="http://www.w3.org/1999/xlink"><path d="M227.36 51.889 C227.36 51.889, 227.36 51.889, 227.36 51.889 M227.36 51.889 C227.36 51.889, 227.36 51.889, 227.36 51.889 M227.754 57.533 C230.027 56.53, 229.878 53.996, 235.627 48.476 M227.754 57.533 C230.424 54.397, 232.353 51.68, 235.627 48.476 M229.461 61.666 C234.667 57.457, 237.56 50.981, 241.926 47.327 M229.461 61.666 C232.56 57.996, 236.432 53.684, 241.926 47.327 M230.512 66.555 C237.873 58.494, 244.86 54.086, 248.881 45.423 M230.512 66.555 C236.703 59.475, 241.972 53.231, 248.881 45.423 M232.219 70.688 C239.496 60.528, 247.537 55.39, 253.869 45.783 M232.219 70.688 C239.955 61.03, 248.392 52.656, 253.869 45.783 M233.269 75.577 C238.483 70.961, 242.366 65.583, 256.887 48.407 M233.269 75.577 C240.299 66.416, 247.921 59.191, 256.887 48.407 M234.976 79.71 C241.851 74.404, 245.044 65.233, 257.938 53.295 M234.976 79.71 C241.03 73.566, 247.134 66.538, 257.938 53.295 M236.027 84.599 C244.799 74.171, 252.792 67.225, 258.989 58.184 M236.027 84.599 C243.491 75.622, 250.461 67.737, 258.989 58.184 M237.733 88.732 C245.39 77.725, 254.725 67.718, 259.383 63.827 M237.733 88.732 C243.838 83.221, 248.005 75.767, 259.383 63.827 M238.784 93.621 C244.496 85.465, 253.352 75.139, 260.434 68.715 M238.784 93.621 C245.357 86.167, 251.405 79.633, 260.434 68.715 M240.491 97.754 C247.183 90.206, 253.03 81.25, 261.485 73.604 M240.491 97.754 C248.073 89.169, 253.896 83.087, 261.485 73.604 M241.541 102.643 C246.9 97.737, 250.763 89.173, 261.879 79.247 M241.541 102.643 C248.158 95.318, 251.817 89.593, 261.879 79.247 M243.248 106.776 C248.161 101.919, 252.578 95.447, 262.93 84.135 M243.248 106.776 C248.335 101.259, 255.58 93.85, 262.93 84.135 M244.955 110.91 C249.546 104.775, 257.488 97.523, 263.981 89.023 M244.955 110.91 C251.722 104.802, 256.426 96.713, 263.981 89.023 M246.005 115.798 C249.736 111.688, 254.853 106.982, 264.375 94.666 M246.005 115.798 C250.082 110.36, 255.067 103.217, 264.375 94.666 M247.712 119.932 C252.983 112.952, 262.839 102.68, 265.426 99.555 M247.712 119.932 C252.576 115.257, 257.721 108.451, 265.426 99.555 M248.763 124.82 C251.933 118.635, 254.681 114.941, 266.476 104.443 M248.763 124.82 C253.412 119.213, 259.184 114.409, 266.476 104.443 M250.47 128.954 C255.444 120.759, 261.965 116.572, 266.871 110.086 M250.47 128.954 C254.673 124.916, 259.489 120.012, 266.871 110.086 M251.52 133.842 C258.753 127.727, 262.726 120.076, 267.922 114.975 M251.52 133.842 C256.725 127.104, 262.756 120.626, 267.922 114.975 M253.227 137.976 C256.226 132.072, 261.576 128.936, 268.972 119.863 M253.227 137.976 C258.12 132.148, 261.627 126.699, 268.972 119.863 M254.278 142.864 C258.047 141.218, 261.622 136.251, 269.367 125.506 M254.278 142.864 C258.126 138.456, 262.744 132.66, 269.367 125.506 M255.984 146.998 C259.133 139.315, 265.849 137.194, 270.418 130.394 M255.984 146.998 C258.479 142.807, 262.347 138.803, 270.418 130.394 M259.003 149.622 C262.264 143.899, 267.353 138.755, 271.468 135.283 M259.003 149.622 C263.425 144.562, 266.192 141.985, 271.468 135.283 M265.958 147.718 C268.848 144.402, 269.919 142.654, 271.863 140.926 M265.958 147.718 C267.872 145.449, 269.178 143.95, 271.863 140.926" stroke="rgb(184, 170, 211)" stroke-width="0.5" fill="none"/><path d="M226.953 55.8 C227.405 53.704, 225.896 50.044, 230.388 49.492 M226.953 55.8 C227.7 53.182, 227.561 49.046, 230.388 49.492 M230.388 49.492 C236.838 47.537, 242.941 46.038, 251.843 44.499 M230.388 49.492 C237.214 49.031, 242.569 46.951, 251.843 44.499 M251.843 44.499 C256.428 44.754, 256.516 46.981, 257.709 48.641 M251.843 44.499 C255.044 44.807, 256.67 46.685, 257.709 48.641 M257.709 48.641 C261.245 74.477, 268.492 104.746, 272.213 141.591 M257.709 48.641 C263.581 85.623, 270.216 120.885, 272.213 141.591 M272.213 141.591 C271.969 144.474, 270.96 147.887, 268.289 147.257 M272.213 141.591 C273.026 144.361, 269.733 144.981, 268.289 147.257 M268.289 147.257 C264.476 147.885, 261.618 148.125, 261.006 148.952 M268.289 147.257 C268.064 146.904, 261.353 146.496, 261.006 148.952 M261.006 148.952 C256.552 148.28, 256.33 149.103, 254.983 145.601 M261.006 148.952 C258.579 148.268, 255.69 146.151, 254.983 145.601 M254.983 145.601 C249.091 126.29, 245.134 109.549, 226.953 55.8 M254.983 145.601 C245.195 114.904, 233.958 82.311, 226.953 55.8" stroke="rgb(184, 170, 211)" stroke-width="1" fill="none"/></g><g xmlns="http://www.w3.org/2000/svg" xmlns:xlink="http://www.w3.org/1999/xlink"><path d="M263.574 44.945 C263.574 44.945, 263.574 44.945, 263.574 44.945 M263.574 44.945 C263.574 44.945, 263.574 44.945, 263.574 44.945 M264.625 49.833 C265.508 47.503, 267.06 46.384, 269.873 43.795 M264.625 49.833 C266.727 47.166, 268.293 45.467, 269.873 43.795 M265.02 55.476 C268.346 51.762, 270.99 49.985, 272.236 47.174 M265.02 55.476 C267.584 51.955, 270.609 49.8, 272.236 47.174 M266.07 60.365 C267.115 59, 268.09 56.69, 272.631 52.817 M266.07 60.365 C268.182 57.254, 270.686 54.637, 272.631 52.817 M267.121 65.253 C268.741 61.825, 271.75 59.904, 273.025 58.461 M267.121 65.253 C268.969 63.246, 271.818 60.689, 273.025 58.461 M267.515 70.896 C269.209 67.767, 272.227 65.864, 273.42 64.104 M267.515 70.896 C269.133 69.812, 270.337 68.104, 273.42 64.104 M268.566 75.784 C270.008 73.888, 271.587 73.57, 273.815 69.747 M268.566 75.784 C269.826 74.371, 271.797 72.046, 273.815 69.747 M269.617 80.673 C270.353 78.953, 272.022 77.206, 274.865 74.635 M269.617 80.673 C271.653 78.6, 273.564 76.242, 274.865 74.635 M270.011 86.316 C271.479 84.665, 273.128 81.568, 275.26 80.278 M270.011 86.316 C272.284 83.935, 274.145 81.61, 275.26 80.278 M271.062 91.204 C272.732 90.403, 273.217 88.788, 275.654 85.921 M271.062 91.204 C272.246 90.101, 273.097 88.977, 275.654 85.921 M272.113 96.093 C272.84 94.644, 273.365 94.461, 276.049 91.564 M272.113 96.093 C273.202 94.466, 274.812 93.564, 276.049 91.564 M272.507 101.736 C273.942 100.179, 274.371 98.632, 276.444 97.207 M272.507 101.736 C273.473 100.375, 274.672 99.725, 276.444 97.207 M273.558 106.624 C274.917 106.082, 276.056 104.636, 277.494 102.096 M273.558 106.624 C274.724 105.603, 275.48 103.989, 277.494 102.096 M273.953 112.267 C275.313 110.3, 276.529 109.031, 277.889 107.739 M273.953 112.267 C275.046 110.711, 276.973 109.156, 277.889 107.739 M275.003 117.155 C276.345 116.163, 277.288 114.098, 278.283 113.382 M275.003 117.155 C276.117 115.797, 276.978 114.599, 278.283 113.382 M276.054 122.044 C276.6 121.211, 276.907 120.894, 278.678 119.025 M276.054 122.044 C276.791 121.258, 277.712 120.387, 278.678 119.025 M276.448 127.687 C277.016 127.127, 277.723 126.23, 279.073 124.668 M276.448 127.687 C277.227 126.955, 277.668 126.331, 279.073 124.668 M277.499 132.575 C277.9 132.041, 278.592 131.534, 279.467 130.311 M277.499 132.575 C278.224 131.878, 278.809 130.948, 279.467 130.311 M278.55 137.464 C279.09 136.492, 279.711 136.127, 280.518 135.199 M278.55 137.464 C279.285 136.634, 280.032 135.828, 280.518 135.199 M278.944 143.107 C279.779 142.568, 280.232 141.579, 280.913 140.843 M278.944 143.107 C279.625 142.312, 280.404 141.632, 280.913 140.843" stroke="rgb(235, 7, 173)" stroke-width="0.5" fill="none"/><path d="M263.568 46.859 C262.59 42.646, 265.113 42.858, 269.211 42.359 M263.568 46.859 C262.96 42.131, 265.225 39.075, 269.211 42.359 M269.211 42.359 C271.019 44.64, 271.925 43.003, 271.833 45.806 M269.211 42.359 C270.157 43.741, 270.652 43.845, 271.833 45.806 M271.833 45.806 C274.777 82.896, 278.935 122.033, 281.51 143.726 M271.833 45.806 C274.51 69.883, 276.088 94.505, 281.51 143.726 M281.51 143.726 C282.19 144.691, 279.635 143.873, 279.554 145.151 M281.51 143.726 C281.733 146.284, 280.979 147.111, 279.554 145.151 M279.554 145.151 C280.954 145.106, 279.267 144.139, 278.739 144.079 M279.554 145.151 C278.648 143.19, 279.509 143.979, 278.739 144.079 M278.739 144.079 C274.668 103.913, 266.068 65.296, 263.568 46.859 M278.739 144.079 C275.736 124.01, 272.96 104.136, 263.568 46.859" stroke="rgb(235, 7, 173)" stroke-width="1" fill="none"/></g><g xmlns="http://www.w3.org/2000/svg" xmlns:xlink="http://www.w3.org/1999/xlink"><path d="M279.008 42.461 C279.008 42.461, 279.008 42.461, 279.008 42.461 M279.008 42.461 C279.008 42.461, 279.008 42.461, 279.008 42.461 M278.746 48.858 C281.232 46.083, 283.847 43.37, 285.307 41.311 M278.746 48.858 C280.852 46.287, 283.078 44.599, 285.307 41.311 M279.141 54.502 C281.897 51.955, 284.916 47.068, 287.67 44.69 M279.141 54.502 C281.499 52.112, 283.125 50.408, 287.67 44.69 M279.535 60.145 C281.881 56.71, 284.232 53.836, 288.064 50.333 M279.535 60.145 C283.09 56.929, 285.994 53.3, 288.064 50.333 M279.93 65.788 C283.503 61.314, 286.102 58.446, 288.459 55.976 M279.93 65.788 C283.602 62.581, 285.794 59.022, 288.459 55.976 M280.981 70.676 C283.649 67.087, 287.303 63.254, 288.853 61.62 M280.981 70.676 C284.036 67.605, 286.97 64.106, 288.853 61.62 M281.375 76.319 C284.604 74.481, 285.478 69.453, 289.248 67.263 M281.375 76.319 C283.98 73.957, 285.922 70.292, 289.248 67.263 M281.77 81.962 C283.848 79.038, 288.025 76.669, 288.987 73.66 M281.77 81.962 C283.755 80.55, 284.441 78.139, 288.987 73.66 M282.164 87.605 C283.742 84.291, 286.764 82.262, 289.381 79.303 M282.164 87.605 C284.262 84.93, 287.692 81.579, 289.381 79.303 M282.559 93.248 C285.748 91.884, 286.55 87.826, 289.776 84.947 M282.559 93.248 C284.202 91.87, 286.016 90.175, 289.776 84.947 M283.61 98.137 C285.694 95.531, 288.28 93.274, 289.514 91.344 M283.61 98.137 C285.489 96.217, 287.398 93.523, 289.514 91.344 M284.004 103.78 C285.991 100.673, 289.374 98.313, 289.909 96.987 M284.004 103.78 C286.107 100.976, 288.308 98.951, 289.909 96.987 M284.399 109.423 C286.068 107.588, 289.022 105.112, 290.303 102.63 M284.399 109.423 C286.136 107.075, 288.498 104.401, 290.303 102.63 M284.794 115.066 C287.112 113.242, 287.488 111.433, 290.698 108.274 M284.794 115.066 C286.647 113.302, 287.93 111.036, 290.698 108.274 M285.844 119.954 C287.067 117.962, 288.962 117.097, 290.437 114.671 M285.844 119.954 C286.605 118.52, 287.943 117.595, 290.437 114.671 M286.239 125.597 C287.399 123.699, 289.12 122.482, 290.831 120.314 M286.239 125.597 C287.431 124.461, 288.323 123.206, 290.831 120.314 M286.633 131.24 C287.294 129.868, 288.035 128.877, 291.226 125.957 M286.633 131.24 C287.597 129.68, 288.954 128.876, 291.226 125.957 M287.028 136.884 C288.034 135.73, 289.26 133.259, 290.964 132.355 M287.028 136.884 C288.238 135.523, 289.128 134.445, 290.964 132.355 M287.423 142.527 C287.778 141.369, 289.488 140.489, 291.359 137.998 M287.423 142.527 C288.751 140.764, 289.809 139.621, 291.359 137.998" stroke="rgb(155, 48, 23)" stroke-width="0.5" fill="none"/><path d="M277.952 46.064 C277.162 45.226, 279.638 41.499, 282.593 40.583 M277.952 46.064 C277.336 45.51, 277.578 39.188, 282.593 40.583 M282.593 40.583 C280.738 40.788, 281.415 42.256, 282.675 40.578 M282.593 40.583 C280.344 38.551, 280.487 42.864, 282.675 40.578 M282.675 40.578 C284.541 38.851, 289.026 41.296, 288.005 45.391 M282.675 40.578 C287.45 40.716, 288.791 44.747, 288.005 45.391 M288.005 45.391 C287.978 69.558, 287.318 91.729, 291.416 142.315 M288.005 45.391 C289.5 72.995, 291.157 102.423, 291.416 142.315 M291.416 142.315 C292.751 142.8, 288.087 145.767, 288.509 144.098 M291.416 142.315 C293.07 141.563, 289.341 143.86, 288.509 144.098 M288.509 144.098 C289.712 143.706, 287.852 142.246, 287.49 142.578 M288.509 144.098 C286.891 141.869, 286.77 142.283, 287.49 142.578 M287.49 142.578 C287.148 123.762, 282.888 104.02, 277.952 46.064 M287.49 142.578 C283.263 109.928, 279.485 77.997, 277.952 46.064" stroke="rgb(155, 48, 23)" stroke-width="1" fill="none"/></g><g xmlns="http://www.w3.org/2000/svg" xmlns:xlink="http://www.w3.org/1999/xlink"><path d="M293.356 40.358 C293.356 40.358, 293.356 40.358, 293.356 40.358 M293.356 40.358 C293.356 40.358, 293.356 40.358, 293.356 40.358 M293.75 46.001 C293.75 46.001, 293.75 46.001, 293.75 46.001 M293.75 46.001 C293.75 46.001, 293.75 46.001, 293.75 46.001 M294.145 51.644 C294.145 51.644, 294.145 51.644, 294.145 51.644 M294.145 51.644 C294.145 51.644, 294.145 51.644, 294.145 51.644 M293.883 58.042 C293.883 58.042, 293.883 58.042, 293.883 58.042 M293.883 58.042 C293.883 58.042, 293.883 58.042, 293.883 58.042 M294.278 63.685 C294.278 63.685, 294.278 63.685, 294.278 63.685 M294.278 63.685 C294.278 63.685, 294.278 63.685, 294.278 63.685 M294.016 70.083 C294.016 70.083, 294.016 70.083, 294.016 70.083 M294.016 70.083 C294.016 70.083, 294.016 70.083, 294.016 70.083 M294.411 75.726 C294.411 75.726, 294.411 75.726, 294.411 75.726 M294.411 75.726 C294.411 75.726, 294.411 75.726, 294.411 75.726 M294.806 81.369 C294.806 81.369, 294.806 81.369, 294.806 81.369 M294.806 81.369 C294.806 81.369, 294.806 81.369, 294.806 81.369 M294.544 87.767 C294.544 87.767, 294.544 87.767, 294.544 87.767 M294.544 87.767 C294.544 87.767, 294.544 87.767, 294.544 87.767 M294.939 93.41 C294.939 93.41, 294.939 93.41, 294.939 93.41 M294.939 93.41 C294.939 93.41, 294.939 93.41, 294.939 93.41 M295.333 99.053 C295.333 99.053, 295.333 99.053, 295.333 99.053 M295.333 99.053 C295.333 99.053, 295.333 99.053, 295.333 99.053 M295.072 105.451 C295.072 105.451, 295.072 105.451, 295.072 105.451 M295.072 105.451 C295.072 105.451, 295.072 105.451, 295.072 105.451 M295.467 111.094 C295.467 111.094, 295.467 111.094, 295.467 111.094 M295.467 111.094 C295.467 111.094, 295.467 111.094, 295.467 111.094 M295.205 117.491 C295.205 117.491, 295.205 117.491, 295.205 117.491 M295.205 117.491 C295.205 117.491, 295.205 117.491, 295.205 117.491 M295.6 123.135 C295.6 123.135, 295.6 123.135, 295.6 123.135 M295.6 123.135 C295.6 123.135, 295.6 123.135, 295.6 123.135 M295.994 128.778 C295.994 128.778, 295.994 128.778, 295.994 128.778 M295.994 128.778 C295.994 128.778, 295.994 128.778, 295.994 128.778 M295.733 135.175 C295.733 135.175, 295.733 135.175, 295.733 135.175 M295.733 135.175 C295.733 135.175, 295.733 135.175, 295.733 135.175 M296.127 140.818 C296.127 140.818, 296.127 140.818, 296.127 140.818 M296.127 140.818 C296.127 140.818, 296.127 140.818, 296.127 140.818" stroke="rgb(52, 209, 35)" stroke-width="0.5" fill="none"/><path d="M295.133 41.067 C292.889 71.108, 293.03 102.988, 297.411 142.963 M293.588 39.092 C293.714 61.463, 295.595 85.097, 296.878 143.259 M294.79 144.694 C295.385 118.286, 293.788 97.062, 294.947 39.67 M296.708 143.18 C294.428 121.346, 294.767 99.274, 292.802 39.646" stroke="rgb(52, 209, 35)" stroke-width="1" fill="none"/></g><g xmlns="http://www.w3.org/2000/svg" xmlns:xlink="http://www.w3.org/1999/xlink"><path d="M297.892 40.327 C297.892 40.327, 297.892 40.327, 297.892 40.327 M297.892 40.327 C297.892 40.327, 297.892 40.327, 297.892 40.327 M298.287 45.97 C298.287 45.97, 298.287 45.97, 298.287 45.97 M298.287 45.97 C298.287 45.97, 298.287 45.97, 298.287 45.97 M298.025 52.368 C298.025 52.368, 298.025 52.368, 298.025 52.368 M298.025 52.368 C298.025 52.368, 298.025 52.368, 298.025 52.368 M298.42 58.011 C298.42 58.011, 298.42 58.011, 298.42 58.011 M298.42 58.011 C298.42 58.011, 298.42 58.011, 298.42 58.011 M298.159 64.408 C298.159 64.408, 298.159 64.408, 298.159 64.408 M298.159 64.408 C298.159 64.408, 298.159 64.408, 298.159 64.408 M298.553 70.051 C298.553 70.051, 298.553 70.051, 298.553 70.051 M298.553 70.051 C298.553 70.051, 298.553 70.051, 298.553 70.051 M298.292 76.449 C298.292 76.449, 298.292 76.449, 298.292 76.449 M298.292 76.449 C298.292 76.449, 298.292 76.449, 298.292 76.449 M298.686 82.092 C298.686 82.092, 298.686 82.092, 298.686 82.092 M298.686 82.092 C298.686 82.092, 298.686 82.092, 298.686 82.092 M298.425 88.49 C298.425 88.49, 298.425 88.49, 298.425 88.49 M298.425 88.49 C298.425 88.49, 298.425 88.49, 298.425 88.49 M298.819 94.133 C298.819 94.133, 298.819 94.133, 298.819 94.133 M298.819 94.133 C298.819 94.133, 298.819 94.133, 298.819 94.133 M298.558 100.531 C298.558 100.531, 298.558 100.531, 298.558 100.531 M298.558 100.531 C298.558 100.531, 298.558 100.531, 298.558 100.531 M298.953 106.174 C298.953 106.174, 298.953 106.174, 298.953 106.174 M298.953 106.174 C298.953 106.174, 298.953 106.174, 298.953 106.174 M298.691 112.572 C298.691 112.572, 298.691 112.572, 298.691 112.572 M298.691 112.572 C298.691 112.572, 298.691 112.572, 298.691 112.572 M298.43 118.97 C298.43 118.97, 298.43 118.97, 298.43 118.97 M298.43 118.97 C298.43 118.97, 298.43 118.97, 298.43 118.97 M298.824 124.613 C298.824 124.613, 298.824 124.613, 298.824 124.613 M298.824 124.613 C298.824 124.613, 298.824 124.613, 298.824 124.613 M298.563 131.01 C298.563 131.01, 298.563 131.01, 298.563 131.01 M298.563 131.01 C298.563 131.01, 298.563 131.01, 298.563 131.01 M298.957 136.654 C298.957 136.654, 298.957 136.654, 298.957 136.654 M298.957 136.654 C298.957 136.654, 298.957 136.654, 298.957 136.654 M298.696 143.051 C298.696 143.051, 298.696 143.051, 298.696 143.051 M298.696 143.051 C298.696 143.051, 298.696 143.051, 298.696 143.051" stroke="rgb(55, 41, 53)" stroke-width="0.5" fill="none"/><path d="M298.494 38.174 C298.982 65.921, 299.046 90.748, 300.247 144.725 M298.344 39.535 C299.185 69.533, 299.871 101.058, 298.927 144.299 M296.909 143.248 C297.494 114.247, 295.934 84.73, 298.221 39.834 M299.048 143.075 C298.84 119.467, 299.342 96.114, 297.329 40.506" stroke="rgb(55, 41, 53)" stroke-width="1" fill="none"/></g><g xmlns="http://www.w3.org/2000/svg" xmlns:xlink="http://www.w3.org/1999/xlink" class="text-container" transform="matrix(1 0 0 1 506.557 324.457)"><text text-anchor="middle" dy="-0.5em" style="fill: rgb(255, 255, 255); font-family: Arial; font-size: 14px; font-weight: bold;font-style: normal;font-weight: 700;font-size: 14px;font-family: Comic Sans MS, cursive;" stroke="none" stroke-width="1px" fill="rgb(255, 255, 255)" dominant-baseline="auto">53.8%</text></g><g xmlns="http://www.w3.org/2000/svg" xmlns:xlink="http://www.w3.org/1999/xlink" class="text-container" transform="matrix(1 0 0 1 506.557 324.457)"><text text-anchor="middle" dy="1.2em" style="fill: rgb(255, 255, 255); font-family: Arial; font-size: 14px; font-weight: bold;font-style: normal;font-weight: 700;font-size: 14px;font-family: Comic Sans MS, cursive;" stroke="none" stroke-width="1px" fill="rgb(255, 255, 255)" dominant-baseline="auto">48</text></g><g xmlns="http://www.w3.org/2000/svg" xmlns:xlink="http://www.w3.org/1999/xlink" class="text-container" transform="matrix(1 0 0 1 164.318 457.652)"><text text-anchor="middle" dy="-0.5em" style="fill: rgb(255, 255, 255); font-family: Arial; font-size: 14px; font-weight: bold;font-style: normal;font-weight: 700;font-size: 14px;font-family: Comic Sans MS, cursive;" stroke="none" stroke-width="1px" fill="rgb(255, 255, 255)" dominant-baseline="auto">15.1%</text></g><g xmlns="http://www.w3.org/2000/svg" xmlns:xlink="http://www.w3.org/1999/xlink" class="text-container" transform="matrix(1 0 0 1 164.318 457.652)"><text text-anchor="middle" dy="1.2em" style="fill: rgb(255, 255, 255); font-family: Arial; font-size: 14px; font-weight: bold;font-style: normal;font-weight: 700;font-size: 14px;font-family: Comic Sans MS, cursive;" stroke="none" stroke-width="1px" fill="rgb(255, 255, 255)" dominant-baseline="auto">13.5</text></g><g xmlns="http://www.w3.org/2000/svg" xmlns:xlink="http://www.w3.org/1999/xlink" class="text-container" transform="matrix(1 0 0 1 93.8074 327.361)"><text text-anchor="middle" dy="-0.5em" style="fill: rgb(255, 255, 255); font-family: Arial; font-size: 14px; font-weight: bold;font-style: normal;font-weight: 700;font-size: 14px;font-family: Comic Sans MS, cursive;" stroke="none" stroke-width="1px" fill="rgb(255, 255, 255)" dominant-baseline="auto">8.1%</text></g><g xmlns="http://www.w3.org/2000/svg" xmlns:xlink="http://www.w3.org/1999/xlink" class="text-container" transform="matrix(1 0 0 1 93.8074 327.361)"><text text-anchor="middle" dy="1.2em" style="fill: rgb(255, 255, 255); font-family: Arial; font-size: 14px; font-weight: bold;font-style: normal;font-weight: 700;font-size: 14px;font-family: Comic Sans MS, cursive;" stroke="none" stroke-width="1px" fill="rgb(255, 255, 255)" dominant-baseline="auto">7.2</text></g><g xmlns="http://www.w3.org/2000/svg" xmlns:xlink="http://www.w3.org/1999/xlink" class="text-container" transform="matrix(1 0 0 1 121.223 193.685)"><text text-anchor="middle" dy="-0.5em" style="fill: rgb(255, 255, 255); font-family: Arial; font-size: 14px; font-weight: bold;font-style: normal;font-weight: 700;font-size: 14px;font-family: Comic Sans MS, cursive;" stroke="none" stroke-width="1px" fill="rgb(255, 255, 255)" dominant-baseline="auto">13.2%</text></g><g xmlns="http://www.w3.org/2000/svg" xmlns:xlink="http://www.w3.org/1999/xlink" class="text-container" transform="matrix(1 0 0 1 121.223 193.685)"><text text-anchor="middle" dy="1.2em" style="fill: rgb(255, 255, 255); font-family: Arial; font-size: 14px; font-weight: bold;font-style: normal;font-weight: 700;font-size: 14px;font-family: Comic Sans MS, cursive;" stroke="none" stroke-width="1px" fill="rgb(255, 255, 255)" dominant-baseline="auto">11.8</text></g><g xmlns="http://www.w3.org/2000/svg" xmlns:xlink="http://www.w3.org/1999/xlink" class="text-container" transform="matrix(1 0 0 1 207.498 113.701)"><text text-anchor="middle" dy="-0.5em" style="fill: rgb(255, 255, 255); font-family: Arial; font-size: 14px; font-weight: bold;font-style: normal;font-weight: 700;font-size: 14px;font-family: Comic Sans MS, cursive;" stroke="none" stroke-width="1px" fill="rgb(255, 255, 255)" dominant-baseline="auto">5.0%</text></g><g xmlns="http://www.w3.org/2000/svg" xmlns:xlink="http://www.w3.org/1999/xlink" class="text-container" transform="matrix(1 0 0 1 207.498 113.701)"><text text-anchor="middle" dy="1.2em" style="fill: rgb(255, 255, 255); font-family: Arial; font-size: 14px; font-weight: bold;font-style: normal;font-weight: 700;font-size: 14px;font-family: Comic Sans MS, cursive;" stroke="none" stroke-width="1px" fill="rgb(255, 255, 255)" dominant-baseline="auto">4.5</text></g><g xmlns="http://www.w3.org/2000/svg" xmlns:xlink="http://www.w3.org/1999/xlink" class="text-container" transform="matrix(1 0 0 1 252.85 97.4146)"><text text-anchor="middle" dy="-0.5em" style="fill: rgb(255, 255, 255); font-family: Arial; font-size: 14px; font-weight: bold;font-style: normal;font-weight: 700;font-size: 14px;font-family: Comic Sans MS, cursive;" stroke="none" stroke-width="1px" fill="rgb(255, 255, 255)" dominant-baseline="auto"/></g><g xmlns="http://www.w3.org/2000/svg" xmlns:xlink="http://www.w3.org/1999/xlink" class="text-container" transform="matrix(1 0 0 1 252.85 97.4146)"><text text-anchor="middle" dy="1.2em" style="fill: rgb(255, 255, 255); font-family: Arial; font-size: 14px; font-weight: bold;font-style: normal;font-weight: 700;font-size: 14px;font-family: Comic Sans MS, cursive;" stroke="none" stroke-width="1px" fill="rgb(255, 255, 255)" dominant-baseline="auto"/></g><g xmlns="http://www.w3.org/2000/svg" xmlns:xlink="http://www.w3.org/1999/xlink" class="text-container" transform="matrix(1 0 0 1 273.727 93.6659)"><text text-anchor="middle" dy="-0.5em" style="fill: rgb(255, 255, 255); font-family: Arial; font-size: 14px; font-weight: bold;font-style: normal;font-weight: 700;font-size: 14px;font-family: Comic Sans MS, cursive;" stroke="none" stroke-width="1px" fill="rgb(255, 255, 255)" dominant-baseline="auto"/></g><g xmlns="http://www.w3.org/2000/svg" xmlns:xlink="http://www.w3.org/1999/xlink" class="text-container" transform="matrix(1 0 0 1 273.727 93.6659)"><text text-anchor="middle" dy="1.2em" style="fill: rgb(255, 255, 255); font-family: Arial; font-size: 14px; font-weight: bold;font-style: normal;font-weight: 700;font-size: 14px;font-family: Comic Sans MS, cursive;" stroke="none" stroke-width="1px" fill="rgb(255, 255, 255)" dominant-baseline="auto"/></g><g xmlns="http://www.w3.org/2000/svg" xmlns:xlink="http://www.w3.org/1999/xlink" class="text-container" transform="matrix(1 0 0 1 286.107 92.4645)"><text text-anchor="middle" dy="-0.5em" style="fill: rgb(255, 255, 255); font-family: Arial; font-size: 14px; font-weight: bold;font-style: normal;font-weight: 700;font-size: 14px;font-family: Comic Sans MS, cursive;" stroke="none" stroke-width="1px" fill="rgb(255, 255, 255)" dominant-baseline="auto"/></g><g xmlns="http://www.w3.org/2000/svg" xmlns:xlink="http://www.w3.org/1999/xlink" class="text-container" transform="matrix(1 0 0 1 286.107 92.4645)"><text text-anchor="middle" dy="1.2em" style="fill: rgb(255, 255, 255); font-family: Arial; font-size: 14px; font-weight: bold;font-style: normal;font-weight: 700;font-size: 14px;font-family: Comic Sans MS, cursive;" stroke="none" stroke-width="1px" fill="rgb(255, 255, 255)" dominant-baseline="auto"/></g><g xmlns="http://www.w3.org/2000/svg" xmlns:xlink="http://www.w3.org/1999/xlink" class="text-container" transform="matrix(1 0 0 1 294.878 92.0631)"><text text-anchor="middle" dy="-0.5em" style="fill: rgb(255, 255, 255); font-family: Arial; font-size: 14px; font-weight: bold;font-style: normal;font-weight: 700;font-size: 14px;font-family: Comic Sans MS, cursive;" stroke="none" stroke-width="1px" fill="rgb(255, 255, 255)" dominant-baseline="auto"/></g><g xmlns="http://www.w3.org/2000/svg" xmlns:xlink="http://www.w3.org/1999/xlink" class="text-container" transform="matrix(1 0 0 1 294.878 92.0631)"><text text-anchor="middle" dy="1.2em" style="fill: rgb(255, 255, 255); font-family: Arial; font-size: 14px; font-weight: bold;font-style: normal;font-weight: 700;font-size: 14px;font-family: Comic Sans MS, cursive;" stroke="none" stroke-width="1px" fill="rgb(255, 255, 255)" dominant-baseline="auto"/></g><g xmlns="http://www.w3.org/2000/svg" xmlns:xlink="http://www.w3.org/1999/xlink" class="text-container" transform="matrix(1 0 0 1 298.537 92.0051)"><text text-anchor="middle" dy="-0.5em" style="fill: rgb(255, 255, 255); font-family: Arial; font-size: 14px; font-weight: bold;font-style: normal;font-weight: 700;font-size: 14px;font-family: Comic Sans MS, cursive;" stroke="none" stroke-width="1px" fill="rgb(255, 255, 255)" dominant-baseline="auto"/></g><g xmlns="http://www.w3.org/2000/svg" xmlns:xlink="http://www.w3.org/1999/xlink" class="text-container" transform="matrix(1 0 0 1 298.537 92.0051)"><text text-anchor="middle" dy="1.2em" style="fill: rgb(255, 255, 255); font-family: Arial; font-size: 14px; font-weight: bold;font-style: normal;font-weight: 700;font-size: 14px;font-family: Comic Sans MS, cursive;" stroke="none" stroke-width="1px" fill="rgb(255, 255, 255)" dominant-baseline="auto"/></g><g xmlns="http://www.w3.org/2000/svg" xmlns:xlink="http://www.w3.org/1999/xlink" class="text-container" transform="matrix(1 0 0 1 600 600)"><text text-anchor="middle" style="fill: rgb(65, 65, 65); font-family: Arial; font-size: 16px;font-style: normal;font-weight: 400;font-size: 16px;font-family: Comic Sans MS, cursive;" stroke="none" stroke-width="1px" fill="rgb(65, 65, 65)" dominant-baseline="auto"/></g><g xmlns="http://www.w3.org/2000/svg" xmlns:xlink="http://www.w3.org/1999/xlink"><path d="M111.675 -55.299 C111.675 -55.299, 111.675 -55.299, 111.675 -55.299 M111.675 -55.299 C111.675 -55.299, 111.675 -55.299, 111.675 -55.299 M111 -48.26 C113.18 -49.907, 114.744 -52.92, 117.079 -54.818 M111.713 -49.29 C112.629 -50.211, 113.294 -51.376, 116.722 -54.767 M113.098 -43.151 C117.115 -48.557, 118.504 -52.522, 123.014 -54.236 M112.288 -44.265 C114.985 -46.822, 117.099 -49.545, 122.316 -55.251 M117.584 -44.745 C119.048 -46.3, 121.002 -47.334, 122.08 -48.659 M117.823 -44.703 C119.524 -45.719, 120.993 -47.469, 122.268 -48.721" stroke="rgb(102, 126, 234)" stroke-width="0.5" fill="none"/><path d="M111.746 -55.767 C114.964 -54.998, 118.446 -54.778, 121.795 -54.476 M111.213 -55.105 C115.385 -54.868, 119.257 -54.683, 121.479 -54.822 M121.883 -55.91 C122.373 -51.865, 121.799 -51.278, 122.395 -45.853 M120.964 -54.888 C121.344 -51.321, 120.957 -47.816, 121.766 -44.839 M121.129 -44.08 C119.682 -45.419, 116.927 -45.451, 110.915 -45.558 M121.091 -45.467 C118.934 -45.463, 116.841 -44.88, 111.007 -45.496 M110.494 -44.614 C110.852 -46.846, 111.756 -49.718, 111.964 -54.349 M111.184 -44.74 C111.169 -48.068, 111.596 -50.44, 111.388 -54.71" stroke="rgb(102, 126, 234)" stroke-width="1" fill="none"/></g><g xmlns="http://www.w3.org/2000/svg" xmlns:xlink="http://www.w3.org/1999/xlink" class="text-container" transform="matrix(1 0 0 1 111.415 -60)"><text x="15" y="10" dominant-baseline="middle" fill="rgb(51, 51, 51)" style="font-size: 14px; font-weight: bold;font-style: normal;font-weight: 700;font-size: 14px;font-family: Comic Sans MS, cursive;" stroke="none" stroke-width="1px" text-anchor="start">USA</text></g><g xmlns="http://www.w3.org/2000/svg" xmlns:xlink="http://www.w3.org/1999/xlink"><path d="M185.608 -54.631 C185.608 -54.631, 185.608 -54.631, 185.608 -54.631 M185.608 -54.631 C185.608 -54.631, 185.608 -54.631, 185.608 -54.631 M185.798 -48.655 C186.461 -50.811, 187.85 -51.406, 191.321 -55.638 M185.717 -48.978 C186.702 -50.107, 188.332 -51.788, 191.227 -54.826 M186.075 -45.06 C190.979 -46.745, 194.066 -52.257, 196.649 -55.486 M187.345 -43.814 C190.681 -48.185, 193.085 -51.258, 196.466 -54.748 M191.835 -43.661 C193.16 -44.845, 193.905 -46.401, 195.72 -48.769 M191.973 -43.873 C193.703 -45.62, 195.33 -47.511, 195.852 -48.42" stroke="rgb(118, 75, 162)" stroke-width="0.5" fill="none"/><path d="M185.465 -54.428 C189.033 -55.745, 192.618 -54.832, 196.381 -55.719 M186.012 -55.235 C189.28 -55.102, 192.266 -55.084, 196.044 -54.768 M195.796 -54.636 C195.157 -52.418, 196.255 -51.19, 196.019 -44.437 M196.205 -54.517 C195.7 -53.374, 196.258 -50.745, 196.113 -44.658 M195.742 -45.104 C193.169 -44.07, 191.869 -44.574, 185.045 -44.4 M196.16 -44.914 C193.229 -44.564, 189.253 -45.333, 185.431 -45.092 M186.79 -44.566 C185.781 -49.672, 186.861 -53.369, 185.749 -55.663 M186.393 -45.398 C186.317 -48.165, 186.278 -51.125, 185.732 -55.123" stroke="rgb(118, 75, 162)" stroke-width="1" fill="none"/></g><g xmlns="http://www.w3.org/2000/svg" xmlns:xlink="http://www.w3.org/1999/xlink" class="text-container" transform="matrix(1 0 0 1 185.929 -60)"><text x="15" y="10" dominant-baseline="middle" fill="rgb(51, 51, 51)" style="font-size: 14px; font-weight: bold;font-style: normal;font-weight: 700;font-size: 14px;font-family: Comic Sans MS, cursive;" stroke="none" stroke-width="1px" text-anchor="start">China</text></g><g xmlns="http://www.w3.org/2000/svg" xmlns:xlink="http://www.w3.org/1999/xlink"><path d="M269.445 -54.628 C269.445 -54.628, 269.445 -54.628, 269.445 -54.628 M269.445 -54.628 C269.445 -54.628, 269.445 -54.628, 269.445 -54.628 M269.309 -48.698 C270.181 -50.039, 272.006 -51.165, 275.096 -55.296 M270.204 -49.064 C270.921 -50.919, 273.073 -52.064, 275.062 -55.243 M271.774 -44.568 C275.905 -48.007, 277.405 -51.116, 279.485 -54.536 M271.879 -44.716 C274.074 -47.538, 275.085 -50.002, 280.233 -54.448 M276.348 -44.007 C278.142 -46.079, 279.112 -46.839, 279.767 -48.717 M276.699 -44.491 C277.345 -45.436, 277.905 -46.236, 279.989 -48.272" stroke="rgb(78, 205, 196)" stroke-width="0.5" fill="none"/><path d="M270.691 -55.369 C272.781 -55.848, 274.372 -54.941, 279.706 -54.901 M269.795 -54.637 C272.605 -55.041, 274.76 -55.041, 279.968 -55.145 M279.834 -54.838 C279.102 -52.433, 278.842 -48.863, 279.695 -45.724 M279.483 -54.876 C279.874 -52.376, 280.2 -50.584, 279.377 -45.278 M279.511 -45.717 C275.325 -45.701, 271.986 -45.507, 270.299 -44.734 M279.811 -45.019 C277.011 -44.833, 273.649 -44.969, 269.379 -45.324 M269.371 -44.415 C269.907 -47.893, 269.644 -50.649, 269.734 -54.511 M270.034 -45.457 C269.403 -47.311, 269.84 -49.363, 270.091 -54.983" stroke="rgb(78, 205, 196)" stroke-width="1" fill="none"/></g><g xmlns="http://www.w3.org/2000/svg" xmlns:xlink="http://www.w3.org/1999/xlink" class="text-container" transform="matrix(1 0 0 1 269.768 -60)"><text x="15" y="10" dominant-baseline="middle" fill="rgb(51, 51, 51)" style="font-size: 14px; font-weight: bold;font-style: normal;font-weight: 700;font-size: 14px;font-family: Comic Sans MS, cursive;" stroke="none" stroke-width="1px" text-anchor="start">Russia</text></g><g xmlns="http://www.w3.org/2000/svg" xmlns:xlink="http://www.w3.org/1999/xlink"><path d="M360.558 -54.926 C360.558 -54.926, 360.558 -54.926, 360.558 -54.926 M360.558 -54.926 C360.558 -54.926, 360.558 -54.926, 360.558 -54.926 M359.779 -48.557 C362.368 -51.478, 364.107 -53.589, 366.7 -55.253 M360.26 -48.363 C361.377 -50.014, 363.051 -51.9, 365.796 -55.711 M361.959 -44.252 C363.787 -46.766, 368.351 -49.932, 370.964 -54.051 M362.544 -43.75 C363.995 -46.982, 366.184 -48.433, 371.228 -55.593 M367.629 -45.122 C368.792 -46.196, 370.081 -47.174, 371.375 -48.201 M367.812 -44.923 C368.216 -45.803, 369.314 -46.479, 371.005 -48.603" stroke="rgb(255, 107, 107)" stroke-width="0.5" fill="none"/><path d="M360.073 -55.086 C364.941 -55.833, 367.337 -55.753, 371.348 -54.233 M361.064 -54.863 C363.87 -55.227, 366.511 -54.76, 370.832 -55.405 M371.156 -54.303 C370.721 -53.187, 371.297 -50.406, 369.714 -45.716 M370.166 -55.143 C370.975 -51.506, 370.226 -47.94, 371.065 -45.037 M371.19 -45.243 C367.788 -44.606, 363.671 -45.911, 360.509 -45.492 M371.117 -45.02 C367.166 -44.947, 363.924 -45.042, 360.173 -44.627 M360.668 -45.311 C360.883 -47.367, 361.08 -49.526, 361.281 -54.084 M360.342 -44.915 C360.794 -48.101, 360.791 -51.688, 360.626 -54.645" stroke="rgb(255, 107, 107)" stroke-width="1" fill="none"/></g><g xmlns="http://www.w3.org/2000/svg" xmlns:xlink="http://www.w3.org/1999/xlink" class="text-container" transform="matrix(1 0 0 1 360.622 -60)"><text x="15" y="10" dominant-baseline="middle" fill="rgb(51, 51, 51)" style="font-size: 14px; font-weight: bold;font-style: normal;font-weight: 700;font-size: 14px;font-family: Comic Sans MS, cursive;" stroke="none" stroke-width="1px" text-anchor="start">European Union</text></g><g xmlns="http://www.w3.org/2000/svg" xmlns:xlink="http://www.w3.org/1999/xlink"><path d="M111.439 -25.028 C111.439 -25.028, 111.439 -25.028, 111.439 -25.028 M111.439 -25.028 C111.439 -25.028, 111.439 -25.028, 111.439 -25.028 M110.93 -18.205 C112.937 -21.016, 114.686 -23.256, 116.698 -24.511 M110.907 -18.338 C112.696 -19.954, 114.527 -21.863, 116.411 -24.702 M112.422 -13.207 C116.133 -16.773, 118.804 -19.98, 122.619 -25.009 M112.528 -14.055 C115.998 -17.423, 118.615 -21.978, 122.317 -25.344 M118.606 -14.978 C120.192 -16.242, 120.73 -18.248, 122.255 -18.743 M118.696 -15.055 C119.603 -15.741, 120.227 -16.997, 121.577 -18.608" stroke="rgb(255, 230, 109)" stroke-width="0.5" fill="none"/><path d="M111.544 -25.069 C113.783 -24.881, 117.031 -25.783, 120.921 -24.242 M110.958 -25.211 C113.48 -25.347, 115.792 -25.336, 121.088 -25.241 M121.02 -25.092 C120.773 -20.476, 121.147 -18.304, 121.98 -15.559 M121.499 -24.507 C121.512 -22.383, 121.032 -19.441, 121.246 -15.048 M121.856 -15.862 C119.952 -15.314, 116.003 -14.866, 111.971 -14.15 M121.32 -15.284 C119.069 -15.191, 116.098 -15.299, 111.402 -15.131 M111.529 -15.148 C111.716 -18.021, 111.549 -23.132, 110.896 -24.371 M111.535 -14.852 C111.835 -18.149, 111.311 -22.693, 111.677 -25.006" stroke="rgb(255, 230, 109)" stroke-width="1" fill="none"/></g><g xmlns="http://www.w3.org/2000/svg" xmlns:xlink="http://www.w3.org/1999/xlink" class="text-container" transform="matrix(1 0 0 1 111.415 -30)"><text x="15" y="10" dominant-baseline="middle" fill="rgb(51, 51, 51)" style="font-size: 14px; font-weight: bold;font-style: normal;font-weight: 700;font-size: 14px;font-family: Comic Sans MS, cursive;" stroke="none" stroke-width="1px" text-anchor="start">Japan</text></g><g xmlns="http://www.w3.org/2000/svg" xmlns:xlink="http://www.w3.org/1999/xlink"><path d="M196.829 -25.001 C196.829 -25.001, 196.829 -25.001, 196.829 -25.001 M196.829 -25.001 C196.829 -25.001, 196.829 -25.001, 196.829 -25.001 M196.279 -18.664 C197.81 -19.585, 198.271 -20.894, 201.664 -24.401 M196.418 -18.959 C197.803 -19.817, 199.082 -21.538, 202.026 -24.422 M198.99 -14.212 C200.424 -17.461, 206.133 -21.518, 207.486 -23.662 M198.802 -13.783 C202.017 -17.785, 205.01 -22.304, 207.86 -24.39 M204.1 -14.654 C205.15 -15.916, 205.13 -17.187, 207.368 -18.818 M203.855 -14.695 C204.813 -15.537, 205.459 -16.607, 206.992 -18.63" stroke="rgb(184, 170, 211)" stroke-width="0.5" fill="none"/><path d="M197.613 -25.53 C199.593 -25.491, 200.394 -25.701, 206.319 -24.131 M197.181 -24.853 C200.79 -24.936, 204.585 -24.909, 206.707 -25.094 M206.391 -25.707 C207.088 -21.376, 206.706 -18.258, 207.295 -15.818 M207.319 -25.346 C207.146 -22.31, 206.609 -19.643, 207.088 -15.467 M206.037 -14.864 C203.571 -15.735, 198.617 -14.46, 196.674 -15.954 M207.133 -14.841 C204.956 -14.907, 202.693 -15.284, 197.039 -15.152 M196.593 -14.755 C196.898 -16.977, 197.175 -20.292, 196.504 -25.51 M196.718 -14.867 C196.55 -18.707, 196.867 -21.593, 196.659 -25.149" stroke="rgb(184, 170, 211)" stroke-width="1" fill="none"/></g><g xmlns="http://www.w3.org/2000/svg" xmlns:xlink="http://www.w3.org/1999/xlink" class="text-container" transform="matrix(1 0 0 1 196.828 -30)"><text x="15" y="10" dominant-baseline="middle" fill="rgb(51, 51, 51)" style="font-size: 14px; font-weight: bold;font-style: normal;font-weight: 700;font-size: 14px;font-family: Comic Sans MS, cursive;" stroke="none" stroke-width="1px" text-anchor="start">India</text></g><g xmlns="http://www.w3.org/2000/svg" xmlns:xlink="http://www.w3.org/1999/xlink"><path d="M274.504 -25.055 C274.504 -25.055, 274.504 -25.055, 274.504 -25.055 M274.504 -25.055 C274.504 -25.055, 274.504 -25.055, 274.504 -25.055 M274.072 -18.771 C275.512 -19.619, 277.149 -21.05, 279.397 -24.425 M274.173 -19.055 C276.111 -20.758, 278.072 -23.559, 279.255 -24.881 M276.787 -15.392 C279.218 -18.952, 282.306 -22.922, 283.983 -23.524 M275.445 -14.158 C279.354 -17.479, 281.797 -20.812, 284.743 -24.058 M281.607 -14.525 C282.11 -16.031, 282.995 -16.545, 284.752 -18.399 M281.466 -15.003 C282.625 -16.264, 283.74 -17.722, 284.991 -18.866" stroke="rgb(235, 7, 173)" stroke-width="0.5" fill="none"/><path d="M274.712 -25.291 C277.9 -24.252, 281.947 -25.514, 284.642 -25.006 M274.768 -24.758 C277.862 -25.199, 280.6 -25.493, 284.821 -25.062 M284.22 -25.972 C284.069 -20.604, 284.145 -18.256, 284.734 -15.749 M284.949 -24.57 C284.459 -22.387, 284.175 -20.455, 284.379 -15.405 M284.494 -15.113 C279.816 -14.276, 277.218 -15.63, 274.823 -15.558 M284.008 -15.378 C281.721 -14.616, 279.199 -15.08, 274.884 -14.501 M273.756 -14.172 C273.696 -16.486, 274.94 -18.392, 274.642 -24.161 M274.547 -15.286 C274.001 -18.675, 274.563 -21.61, 274.243 -24.654" stroke="rgb(235, 7, 173)" stroke-width="1" fill="none"/></g><g xmlns="http://www.w3.org/2000/svg" xmlns:xlink="http://www.w3.org/1999/xlink" class="text-container" transform="matrix(1 0 0 1 274.456 -30)"><text x="15" y="10" dominant-baseline="middle" fill="rgb(51, 51, 51)" style="font-size: 14px; font-weight: bold;font-style: normal;font-weight: 700;font-size: 14px;font-family: Comic Sans MS, cursive;" stroke="none" stroke-width="1px" text-anchor="start">Canada</text></g><g xmlns="http://www.w3.org/2000/svg" xmlns:xlink="http://www.w3.org/1999/xlink"><path d="M370.235 -25.313 C370.235 -25.313, 370.235 -25.313, 370.235 -25.313 M370.235 -25.313 C370.235 -25.313, 370.235 -25.313, 370.235 -25.313 M369.489 -18.855 C372.619 -21.42, 374.531 -23.283, 375.048 -24.333 M369.926 -18.669 C371.141 -21.104, 372.634 -22.825, 375.156 -24.749 M370.663 -15.747 C375.098 -18.382, 375.493 -20.306, 379.007 -24.227 M371.183 -14.804 C373.744 -17.163, 375.657 -19.701, 380.523 -25.156 M376.096 -14.431 C377.538 -15.742, 379.297 -16.281, 380.583 -18.83 M376.491 -14.646 C377.575 -15.852, 379.263 -17.272, 380.403 -18.745" stroke="rgb(155, 48, 23)" stroke-width="0.5" fill="none"/><path d="M369.233 -24.895 C374.371 -25.74, 377.487 -24.054, 379.422 -25.601 M370.076 -24.733 C373.205 -24.577, 376.688 -25.569, 380.275 -25.371 M379.714 -25.006 C380.809 -23.328, 379.244 -20.47, 380.54 -15.994 M379.681 -25.385 C379.882 -20.796, 379.532 -17.68, 380.038 -15.37 M379.897 -14.619 C376.96 -15.465, 371.706 -14.924, 369.357 -14.568 M380.361 -15.084 C378.012 -14.675, 375.869 -14.817, 369.917 -15.206 M370.016 -14.304 C370.078 -18.6, 369.408 -22.283, 369.593 -25.645 M369.847 -15.001 C369.459 -19.164, 369.833 -22.088, 370.366 -24.592" stroke="rgb(155, 48, 23)" stroke-width="1" fill="none"/></g><g xmlns="http://www.w3.org/2000/svg" xmlns:xlink="http://www.w3.org/1999/xlink" class="text-container" transform="matrix(1 0 0 1 369.964 -30)"><text x="15" y="10" dominant-baseline="middle" fill="rgb(51, 51, 51)" style="font-size: 14px; font-weight: bold;font-style: normal;font-weight: 700;font-size: 14px;font-family: Comic Sans MS, cursive;" stroke="none" stroke-width="1px" text-anchor="start">South Korea</text></g><g xmlns="http://www.w3.org/2000/svg" xmlns:xlink="http://www.w3.org/1999/xlink"><path d="M111.204 5.242 C111.204 5.242, 111.204 5.242, 111.204 5.242 M111.204 5.242 C111.204 5.242, 111.204 5.242, 111.204 5.242 M111.934 11.37 C112.346 8.694, 113.871 6.986, 116.426 4.214 M111.511 11.032 C112.813 9.152, 113.939 7.613, 117.095 4.487 M111.291 16.755 C116.127 12.13, 116.896 10.135, 121.083 4.904 M112.795 15.536 C114.529 13.489, 116.98 10.313, 121.327 5.139 M117.985 16.495 C118.737 14.88, 119.675 12.879, 121.545 11.014 M117.701 16.167 C119.28 14.68, 120.627 13.097, 121.784 11.535" stroke="rgb(52, 209, 35)" stroke-width="0.5" fill="none"/><path d="M111.383 5.718 C114.532 5.683, 115.721 4.259, 121.066 4.467 M111.07 4.735 C114.759 4.727, 117.323 4.574, 121.521 4.773 M121.49 4.487 C121.684 7.938, 122.007 10.598, 120.672 14.237 M121.221 5.093 C121.289 8.024, 121.416 10.073, 121.015 14.508 M121.28 14.374 C120.148 15.556, 117.296 15.558, 111.163 15.52 M121.026 14.52 C119.228 14.932, 116.374 14.729, 111.524 14.871 M111.78 14.443 C112.276 11.865, 112.327 8.91, 110.493 5.38 M111.313 15.033 C111.27 11.868, 111.382 8.083, 111.438 5.356" stroke="rgb(52, 209, 35)" stroke-width="1" fill="none"/></g><g xmlns="http://www.w3.org/2000/svg" xmlns:xlink="http://www.w3.org/1999/xlink" class="text-container" transform="matrix(1 0 0 1 111.415 0)"><text x="15" y="10" dominant-baseline="middle" fill="rgb(51, 51, 51)" style="font-size: 14px; font-weight: bold;font-style: normal;font-weight: 700;font-size: 14px;font-family: Comic Sans MS, cursive;" stroke="none" stroke-width="1px" text-anchor="start">Australia</text></g><g xmlns="http://www.w3.org/2000/svg" xmlns:xlink="http://www.w3.org/1999/xlink"><path d="M216.183 5.074 C216.183 5.074, 216.183 5.074, 216.183 5.074 M216.183 5.074 C216.183 5.074, 216.183 5.074, 216.183 5.074 M216.445 11.726 C218.368 8.739, 220.173 7.289, 222.455 4.797 M215.643 11.027 C217.616 8.964, 220.607 6.461, 221.61 4.251 M217.448 16.667 C218.811 12.779, 223.917 8.937, 226.003 4.762 M218.137 14.949 C220.422 11.986, 223.175 9.946, 226.86 4.94 M223.765 15.68 C223.941 13.966, 225.557 13.52, 226.181 11.796 M223.491 15.298 C224.252 14.054, 225.521 12.496, 226.721 11.267" stroke="rgb(55, 41, 53)" stroke-width="0.5" fill="none"/><path d="M216.505 5.721 C218.095 5.842, 220.989 4.471, 225.684 5.078 M215.96 4.644 C219.506 5.381, 223.736 4.677, 226.526 4.934 M226.26 4.838 C226.341 9.441, 226.706 11.709, 225.256 14.193 M225.945 5.017 C226.273 7.097, 225.992 10.051, 225.954 14.539 M226.472 14.221 C224.436 15.392, 219.936 15.91, 216.871 15.468 M226.709 15.127 C223.568 14.598, 221.154 14.824, 215.957 15.468 M216.138 15.009 C217.07 11.442, 216.507 7.262, 216.573 5.688 M215.789 15.076 C216.67 12.498, 215.889 9.522, 216.03 5.019" stroke="rgb(55, 41, 53)" stroke-width="1" fill="none"/></g><g xmlns="http://www.w3.org/2000/svg" xmlns:xlink="http://www.w3.org/1999/xlink" class="text-container" transform="matrix(1 0 0 1 216.247 0)"><text x="15" y="10" dominant-baseline="middle" fill="rgb(51, 51, 51)" style="font-size: 14px; font-weight: bold;font-style: normal;font-weight: 700;font-size: 14px;font-family: Comic Sans MS, cursive;" stroke="none" stroke-width="1px" text-anchor="start">Brazil</text></g><g xmlns="http://www.w3.org/2000/svg" xmlns:xlink="http://www.w3.org/1999/xlink" class="text-container" transform="matrix(1 0 0 1 26.4146 -60)"><text x="0" y="40" dominant-baseline="middle" fill="rgb(51, 51, 51)" style="font-size: 16px; font-weight: bold;font-style: normal;font-weight: 700;font-size: 16px;font-family: Comic Sans MS, cursive;" stroke="none" stroke-width="1px" text-anchor="start">Country</text></g>         </g></svg>