<svg xmlns='http://www.w3.org/2000/svg' xmlns:xlink='http://www.w3.org/1999/xlink' width='672' height='473'>
        <g transform='translate(83.39999999999998, -49.19999999999999)'>             <g xmlns="http://www.w3.org/2000/svg" xmlns:xlink="http://www.w3.org/1999/xlink"><path d="M40.562 50.098 C36.723 217.417, 37.498 384.175, 40.364 520.836 M40.62 50.285 C37.611 167.824, 38.053 284.583, 40.672 520.217" stroke="rgb(0, 0, 0)" stroke-width="1" fill="none"/></g><g xmlns="http://www.w3.org/2000/svg" xmlns:xlink="http://www.w3.org/1999/xlink" class="text-container" transform="matrix(1 0 0 1 40 79.6602)"><text fill="rgb(65, 65, 65)" x="-10" dy="0.32em" style="font-family: Arial; font-size: 16px; text-anchor: end; fill: rgb(65, 65, 65);font-style: normal;font-weight: 400;font-size: 16px;font-family: Comic Sans MS, cursive;" stroke="none" stroke-width="1px" text-anchor="end" dominant-baseline="auto">USA</text></g><g xmlns="http://www.w3.org/2000/svg" xmlns:xlink="http://www.w3.org/1999/xlink" class="text-container" transform="matrix(1 0 0 1 40 125.291)"><text fill="rgb(65, 65, 65)" x="-10" dy="0.32em" style="font-family: Arial; font-size: 16px; text-anchor: end; fill: rgb(65, 65, 65);font-style: normal;font-weight: 400;font-size: 16px;font-family: Comic Sans MS, cursive;" stroke="none" stroke-width="1px" text-anchor="end" dominant-baseline="auto">China</text></g><g xmlns="http://www.w3.org/2000/svg" xmlns:xlink="http://www.w3.org/1999/xlink" class="text-container" transform="matrix(1 0 0 1 40 170.922)"><text fill="rgb(65, 65, 65)" x="-10" dy="0.32em" style="font-family: Arial; font-size: 16px; text-anchor: end; fill: rgb(65, 65, 65);font-style: normal;font-weight: 400;font-size: 16px;font-family: Comic Sans MS, cursive;" stroke="none" stroke-width="1px" text-anchor="end" dominant-baseline="auto">Russia</text></g><g xmlns="http://www.w3.org/2000/svg" xmlns:xlink="http://www.w3.org/1999/xlink" class="text-container" transform="matrix(1 0 0 1 40 216.553)"><text fill="rgb(65, 65, 65)" x="-10" dy="0.32em" style="font-family: Arial; font-size: 16px; text-anchor: end; fill: rgb(65, 65, 65);font-style: normal;font-weight: 400;font-size: 16px;font-family: Comic Sans MS, cursive;" stroke="none" stroke-width="1px" text-anchor="end" dominant-baseline="auto">European Union</text></g><g xmlns="http://www.w3.org/2000/svg" xmlns:xlink="http://www.w3.org/1999/xlink" class="text-container" transform="matrix(1 0 0 1 40 262.184)"><text fill="rgb(65, 65, 65)" x="-10" dy="0.32em" style="font-family: Arial; font-size: 16px; text-anchor: end; fill: rgb(65, 65, 65);font-style: normal;font-weight: 400;font-size: 16px;font-family: Comic Sans MS, cursive;" stroke="none" stroke-width="1px" text-anchor="end" dominant-baseline="auto">Japan</text></g><g xmlns="http://www.w3.org/2000/svg" xmlns:xlink="http://www.w3.org/1999/xlink" class="text-container" transform="matrix(1 0 0 1 40 307.816)"><text fill="rgb(65, 65, 65)" x="-10" dy="0.32em" style="font-family: Arial; font-size: 16px; text-anchor: end; fill: rgb(65, 65, 65);font-style: normal;font-weight: 400;font-size: 16px;font-family: Comic Sans MS, cursive;" stroke="none" stroke-width="1px" text-anchor="end" dominant-baseline="auto">India</text></g><g xmlns="http://www.w3.org/2000/svg" xmlns:xlink="http://www.w3.org/1999/xlink" class="text-container" transform="matrix(1 0 0 1 40 353.447)"><text fill="rgb(65, 65, 65)" x="-10" dy="0.32em" style="font-family: Arial; font-size: 16px; text-anchor: end; fill: rgb(65, 65, 65);font-style: normal;font-weight: 400;font-size: 16px;font-family: Comic Sans MS, cursive;" stroke="none" stroke-width="1px" text-anchor="end" dominant-baseline="auto">Canada</text></g><g xmlns="http://www.w3.org/2000/svg" xmlns:xlink="http://www.w3.org/1999/xlink" class="text-container" transform="matrix(1 0 0 1 40 399.078)"><text fill="rgb(65, 65, 65)" x="-10" dy="0.32em" style="font-family: Arial; font-size: 16px; text-anchor: end; fill: rgb(65, 65, 65);font-style: normal;font-weight: 400;font-size: 16px;font-family: Comic Sans MS, cursive;" stroke="none" stroke-width="1px" text-anchor="end" dominant-baseline="auto">South Korea</text></g><g xmlns="http://www.w3.org/2000/svg" xmlns:xlink="http://www.w3.org/1999/xlink" class="text-container" transform="matrix(1 0 0 1 40 444.709)"><text fill="rgb(65, 65, 65)" x="-10" dy="0.32em" style="font-family: Arial; font-size: 16px; text-anchor: end; fill: rgb(65, 65, 65);font-style: normal;font-weight: 400;font-size: 16px;font-family: Comic Sans MS, cursive;" stroke="none" stroke-width="1px" text-anchor="end" dominant-baseline="auto">Australia</text></g><g xmlns="http://www.w3.org/2000/svg" xmlns:xlink="http://www.w3.org/1999/xlink" class="text-container" transform="matrix(1 0 0 1 40 490.34)"><text fill="rgb(65, 65, 65)" x="-10" dy="0.32em" style="font-family: Arial; font-size: 16px; text-anchor: end; fill: rgb(65, 65, 65);font-style: normal;font-weight: 400;font-size: 16px;font-family: Comic Sans MS, cursive;" stroke="none" stroke-width="1px" text-anchor="end" dominant-baseline="auto">Brazil</text></g><g xmlns="http://www.w3.org/2000/svg" xmlns:xlink="http://www.w3.org/1999/xlink"><path d="M39.885 63.822 C39.885 63.822, 39.885 63.822, 39.885 63.822 M39.885 63.822 C39.885 63.822, 39.885 63.822, 39.885 63.822 M40.387 69.308 C41.722 67.527, 43.031 67.012, 46.234 63.39 M40.03 69.737 C41.795 67.516, 43.375 66.323, 45.666 63.425 M40.77 76.893 C44.538 71.401, 45.132 67.778, 49.861 63.057 M39.266 75.538 C42.443 72.153, 45.8 69.46, 50.478 64.508 M41.409 80.832 C46.353 74.606, 51.295 67.914, 56.161 64.801 M39.765 83.196 C43.242 77.677, 46.112 74.221, 56.836 62.57 M41.014 87.306 C45.508 82.029, 53.807 75.43, 60.384 64.256 M41.004 88.461 C46.868 80.304, 55.056 71.805, 60.334 62.763 M41.275 95.322 C46.924 87.11, 53.512 77.21, 64.862 62.933 M39.686 95.013 C48.518 84.541, 57.146 72.869, 67.187 63.683 M45.394 95.606 C53.261 84.194, 64.361 72.116, 71.447 62.045 M45.008 94.668 C54.892 83.327, 66.725 70.951, 72.477 63.251 M49.47 95.1 C55.065 85.718, 62.289 78.483, 76.157 63.491 M49.213 96.754 C56.969 86.262, 67.357 74.97, 77.202 63.661 M55.806 94.091 C64.33 86.577, 69.997 76.202, 82.222 64.845 M54.286 95.287 C62.575 86.615, 70.419 77.31, 81.889 62.973 M58.52 97.393 C70.264 84.26, 83.343 69.66, 86.49 62.593 M60.262 94.902 C69.917 83.461, 79.802 71.459, 86.708 63.917 M66.216 95.976 C73.928 85.568, 82.261 76.003, 94.079 61.801 M66.001 96.305 C73.872 85.097, 83.521 75.369, 92.128 63.789 M71.149 97.391 C78.981 87.774, 84.077 78.069, 96.09 62.382 M70.218 95.954 C76.256 88.981, 81.161 82.064, 98.819 64.223 M74.345 95.872 C84.721 83.47, 97.882 71.984, 102.35 65.395 M75.205 96.011 C83.709 87.009, 89.501 79.929, 104.586 63.665 M79.821 95.551 C89.968 86.618, 97.765 76.55, 109.249 63.397 M80.74 95.916 C91.986 84.388, 101.855 72.967, 109.148 64.58 M84.969 94.137 C95.854 85.459, 105.431 71.492, 115.436 65.302 M86.896 96.049 C92.62 87.412, 99.638 80.688, 113.454 62.659 M92.8 93.923 C96.422 87.908, 102.134 81.372, 120.284 65.482 M91.039 95.042 C102.569 85.14, 111.464 72.26, 119.392 63.986 M96.998 97.377 C103.349 89.508, 111.452 77.463, 124.643 64.698 M97.523 96.554 C105.231 85.986, 115.597 74.673, 124.517 64.53 M104.237 95.002 C112.752 84.063, 121.238 73.984, 131.086 62.683 M101.637 94.631 C112.295 83.614, 121.593 74.154, 130.381 63.374 M106.085 97.548 C116.45 82.711, 128.894 71.571, 137.519 65.064 M107.92 96.142 C116.401 85.273, 124.478 73.888, 135.165 63.134 M111.246 95.023 C122.044 82.441, 132.13 70.727, 141.991 62.715 M113.501 94.636 C123.877 83.601, 133.243 71.681, 140.676 63.969 M119.556 95.177 C124.01 85.766, 134.134 79.522, 146.243 62.479 M117.389 95.293 C127.191 85.702, 137.924 74.452, 146.498 63.794 M123.784 93.805 C128.006 88.341, 137.614 81.423, 149.219 63.693 M123.44 95.874 C132.229 85.432, 140.73 77.042, 150.703 64.581 M130.174 97.264 C134.337 88.899, 140.469 79.524, 157.604 65.284 M127.697 96.666 C135.933 88.964, 141.536 81.204, 157.806 63.4 M133.817 94.646 C142.12 85.252, 149.114 77.191, 163.542 65.421 M133.678 95.454 C144.174 83.677, 153.538 73.593, 162.186 64.516 M138.589 94.822 C147.378 85.782, 159.714 72.304, 168.566 61.999 M138.548 96.366 C147.799 87.164, 153.501 78.995, 167.532 64.298 M145.066 96.296 C154.149 85.049, 164.957 71.677, 173.495 63.116 M144.36 94.973 C150.323 87.204, 158.169 80.649, 173.42 63.292 M149.353 95.778 C159.226 83.466, 172.452 71.867, 178.163 64.13 M149.56 94.975 C157.936 85.766, 166.981 76.327, 177.874 63.241 M154.755 94.471 C163.748 84.223, 175.206 75.735, 183.101 64.414 M155.361 95.57 C164.569 86.492, 171.34 76.971, 183.605 63.071 M158.79 95.126 C169.961 85.005, 179.244 72.387, 189.019 61.775 M160.648 95.356 C169.767 84.322, 178.588 75.35, 188.95 62.804 M164.427 95.145 C177.111 82.528, 187.762 69.555, 194.156 62.149 M165.172 94.885 C173.705 86.687, 182.143 77.709, 192.849 64.008 M172.99 96.206 C176.244 89.812, 182.904 80.383, 200.584 63.084 M170.147 95.426 C179.353 84.482, 188.459 75.522, 199.249 65.001 M176.685 94.224 C185.533 86.767, 192.827 75.182, 203.848 62.741 M176.732 96.124 C182.691 87.885, 191.05 79.827, 204.521 63.237 M182.149 94.104 C188.804 88.545, 195.88 82.189, 211.115 63.296 M180.954 96.703 C188.468 87.434, 194.909 79.988, 209.47 63.137 M185.906 93.714 C196.299 83.183, 207.214 73.989, 213.773 63.971 M188.238 95.425 C192.603 86.937, 198.976 79.951, 214.829 63.214 M190.434 95.823 C200.849 82.344, 213.825 73.384, 218.614 63.864 M191.639 94.947 C200.188 87.816, 207.718 78.317, 220.032 63.08 M196.814 94.778 C202.614 88.89, 212.542 81.889, 227.459 64.738 M198.27 94.476 C203.368 89.101, 208.985 81.156, 226.191 62.662 M204.314 95.348 C212.248 85.55, 222.685 73.311, 231.252 62.057 M203.48 94.768 C213.876 84.043, 222.357 72.296, 230.23 63.667 M207.921 97.695 C221.124 82.682, 230.311 70.281, 234.312 62.002 M208.838 96.374 C214.869 88.185, 219.879 82.888, 235.656 64.218 M213.814 97.338 C221.216 88.715, 229.23 79.465, 241.513 64.01 M214.477 95.03 C222.221 86.023, 229.981 76.725, 240.269 64.351 M217.595 94.612 C230.268 83.042, 240.587 71.998, 248.479 63.894 M218.977 96.353 C230.689 84.191, 240.956 71.671, 247.1 63.011 M226.001 93.825 C231.159 85.95, 236.173 79.439, 252.707 62.623 M223.877 96.358 C233.15 84.561, 243.267 72.182, 252.007 63.149 M227.821 97.363 C238.856 86.485, 249.868 76.051, 257.746 65.025 M229.824 96.423 C238.717 84.434, 248.82 73.287, 258.231 64.413 M233.511 95.599 C243.541 88.408, 247.345 79.95, 261.148 63.126 M234.587 94.85 C242.301 86.179, 251.439 75.746, 262.051 64.089 M239.472 97.284 C249.526 87.708, 257.545 75.902, 268.679 64.284 M240.508 96.624 C246.128 88.273, 253.965 80.931, 267.816 63.645 M243.557 93.974 C257.126 83.636, 265.124 70.209, 272.437 62.16 M245.545 95.98 C255.509 84.031, 265.59 72.665, 273.054 63.658 M249.652 95.582 C260.367 85.332, 269.921 74.778, 278.751 62.217 M250.777 96.417 C259.353 85.133, 270.028 75.066, 278.56 62.569 M255.817 95.619 C264.943 85.68, 275.926 72.168, 284.359 64.948 M256.17 96.032 C262.626 87.892, 269.304 79.881, 283.037 62.858 M262.294 93.869 C267.875 86.297, 274.871 80.475, 288.261 64.331 M260.75 96.149 C270.891 84.908, 280.833 74.101, 288.784 62.442 M264.947 94.483 C272.277 87.346, 278.251 80.877, 293.699 65.355 M267.214 95.65 C272.35 87.992, 277.781 81.96, 293.654 63.399 M273.386 94.521 C282.89 84.314, 291.103 73.62, 300.259 61.801 M271.358 95.93 C277.921 87.895, 285.797 80.505, 300.422 63.98 M277.437 95.664 C283.771 88.872, 289.27 81.948, 304.793 65.325 M276.713 96.182 C286.011 85.543, 296.105 73.493, 305.383 64.55 M282.915 95.453 C292.669 86.265, 300.869 72.328, 312.166 62.37 M281.517 95.13 C292.605 84.181, 301.693 72.098, 310.93 62.834 M288.741 96.299 C294.88 87.699, 302.845 76.034, 315.675 63.878 M287.354 95.064 C295.747 86.152, 304.102 77.051, 316.58 64.109 M292.267 95.363 C299.474 85.034, 309.946 76.608, 320.444 65.913 M292.564 95.103 C301.434 86.595, 309.881 78.843, 320.129 63.597 M300.474 93.953 C306.332 88.799, 311.11 82.202, 325.234 63.517 M298.897 94.669 C304.884 87.49, 310.693 80.054, 325.612 63.495 M302.006 94.563 C312.03 85.766, 318.922 79.149, 329.264 64.635 M304.276 95.939 C311.729 85.318, 320.739 75.569, 331.942 64.828 M307.561 94.431 C319.833 84.451, 330.884 73.62, 336.442 63.926 M309.453 96.242 C318.206 85.414, 327.898 74.151, 336.133 64.441 M315.847 96.994 C320.19 85.496, 329.472 78.457, 341.559 64.065 M315.281 94.929 C322.107 88.246, 329.953 78.409, 341.689 64.745 M318.481 96.058 C327.704 85.873, 332.955 77.525, 345.613 65.121 M319.375 95.406 C331.222 82.548, 341.674 69.627, 348.262 62.635 M323.01 97.341 C330.226 87.472, 338.825 79.116, 351.026 62.927 M324.384 96.384 C334.796 82.933, 345.443 71.6, 351.841 63.345 M330.341 94.313 C339.425 83.783, 349.955 68.975, 358.241 65.08 M330.737 95.554 C339.824 84.403, 349.122 74.75, 357.726 62.685 M337.008 94.849 C339.798 90.003, 346.701 81.303, 361.152 64.174 M335.763 95.186 C343.531 86.266, 352.494 76.548, 362.438 64.597 M339.53 96.647 C349.22 85.279, 356.202 75.689, 370.16 62.578 M339.935 96.946 C351.405 83.607, 361.402 71.705, 369.667 63.959 M345.553 94.253 C354.006 87.558, 363.622 75.23, 373.96 62.368 M346.734 95.294 C353.37 89.704, 358.89 81.933, 372.951 64.479 M351.042 95.407 C356.431 87.922, 362.398 82.214, 378.382 64.988 M352.057 96.049 C360.375 83.792, 371.756 73.024, 379.833 62.966 M356.603 95.781 C361.785 88.836, 370.254 83.418, 384.849 61.935 M357.428 95.365 C367.308 83.248, 378.127 71.158, 383.799 63.248 M362.179 95.105 C367.537 88.426, 376.673 81.791, 388.915 65.001 M362.668 96.434 C369.513 86.879, 379.399 75.953, 389.082 64.264 M366.757 95.959 C375.951 85.739, 385.858 71.147, 396.415 64.893 M367.426 94.772 C374.585 87.01, 382.933 76.377, 395.344 62.897 M372.496 94.303 C381.679 82.33, 393.313 71.467, 400.059 65.171 M373.367 96.094 C381.393 85.205, 389.533 74.226, 399.734 64.123 M379.325 96.918 C390.619 83.645, 398.56 72.685, 405.672 62.196 M378.232 94.799 C387.387 82.982, 398.269 71.773, 406.085 64.528 M381.196 93.905 C391.674 84.779, 403.885 72.277, 409.482 64.181 M382.791 96.265 C388.763 89.705, 396.001 81.046, 411.601 62.457 M387.857 95.201 C396.763 87.602, 403.268 78.914, 415.997 62.51 M388.564 96.118 C393.836 88.281, 400.615 80.301, 416.381 63.454 M394.808 96.413 C402.238 84.097, 411.272 76.516, 422.144 62.47 M394.677 95.266 C401.338 86.804, 409.788 77.544, 422.447 63.243 M397.415 93.438 C406.323 85.389, 413.533 81.142, 425.632 62.014 M398.431 95.248 C408.531 83.491, 419.825 72.806, 426.368 64.252 M403.324 97.701 C413.49 84.169, 425.186 72, 433.805 62.208 M403.444 94.988 C412.404 86.253, 421.347 75.582, 431.517 64.292 M408.838 96.663 C416.599 88.516, 424.317 81.675, 437.976 63.643 M409.723 94.991 C419.299 82.649, 428.697 72.304, 438.208 63.606 M415.255 96.913 C422.565 86.005, 432.562 76.184, 444.1 65.634 M415.369 96.019 C422.166 87.12, 430.589 77.19, 443.498 64.397 M421.974 93.794 C428.856 88.671, 431.762 82.258, 448.303 62.017 M420.2 95.669 C428.111 86.394, 434.39 77.529, 448.357 64.585 M424.749 96.55 C434.614 87.66, 440.48 77.555, 452.038 62.132 M426.17 95.489 C431.451 89.396, 436.236 82.321, 452.71 63.211 M430.32 94.88 C440.547 84.538, 449.551 76.277, 458.144 62.838 M430.989 96.26 C440.122 82.403, 450.622 72.377, 458.158 63.649 M436.204 97.577 C447.547 82.604, 454.669 69.897, 463.546 62.336 M435.79 95.501 C441.029 89.076, 446.984 80.746, 463.591 64.403 M442.484 96.061 C452.228 84.128, 460.13 70.336, 469.422 63.252 M441.011 95.918 C451.115 85.203, 459.173 76.261, 468.984 63.2 M446.618 97.089 C457.406 83.512, 468.651 73.574, 473.938 63.266 M446.272 95.396 C455.111 86.728, 462.884 77.962, 474.328 63.396 M450.691 97.24 C457.662 87.36, 463.802 82.702, 478.24 62.848 M452.401 96.959 C459.666 85.657, 467.793 77.538, 480.69 63.126 M459.173 95.102 C466.365 87.682, 473.006 79.144, 486.994 65.457 M456.6 95.28 C466.742 85.884, 475.529 75.744, 485.92 63.759 M463.96 94.741 C471.502 88.886, 479.171 76.935, 492.454 62.373 M463.389 95.218 C469.601 88.381, 477.906 78.08, 490.522 64.182 M467.925 95.216 C475.48 88.467, 482.256 76.818, 495.758 62.692 M467.124 96.421 C475.75 86.313, 483.842 78.301, 496.421 64.42 M474.415 95.722 C483.305 86.398, 493.35 74.826, 501.583 65.066 M472.355 95.654 C480.034 87.872, 486.632 80.332, 502.206 64.222 M479.617 95.688 C486.263 89.567, 490.918 82.499, 504.866 65.286 M478.848 94.688 C487.017 84.498, 495.953 74.417, 506.265 62.846 M483.405 96.163 C492.442 89.78, 499.751 78.526, 512.519 64.407 M484.554 96.601 C489.919 87.53, 497.25 81.308, 511.776 63.702 M491.37 93.57 C499.515 83.673, 508.113 74.101, 517.145 63.653 M489.745 94.775 C496.132 88.801, 502.484 79.006, 516.018 63.524 M492.913 97.369 C500.201 87.499, 508.319 80.638, 522.426 64.136 M494.077 95.635 C502.687 85.323, 512.69 75.514, 523.344 63.612 M499.091 95.894 C504.513 88.885, 509.965 81.854, 527.702 65.439 M500.176 95.178 C506.096 88.678, 511.907 82.069, 527.063 64.094 M504.198 94.899 C515.173 86.646, 522.069 78.075, 532.465 64.828 M504.603 96.175 C512.417 88.306, 518.033 78.905, 532.414 63.427 M509.699 96.625 C517.953 88.141, 526.608 78.819, 538.975 62.606 M509.683 96.21 C517.149 86.601, 524.48 79.224, 537.527 63.096 M515.357 96.768 C522.579 86.346, 529.261 78.002, 541.859 65.079 M515.939 95.937 C523.184 86.12, 530.408 78.211, 543.054 62.852 M522.05 95.491 C529.543 86.38, 539.712 77.172, 550.791 63.724 M521.728 95.334 C526.914 87.738, 532.253 81.516, 547.839 63.631 M524.943 96.053 C534.587 89.107, 539.713 82.068, 550.462 71.901 M525.824 95.61 C534.859 86.225, 542.077 78.427, 549.378 69.385 M532.889 96.168 C536.197 89.745, 539.219 83.948, 549.551 77.046 M531.908 96.031 C536.302 89.939, 540.444 85.573, 548.487 75.954 M535.18 95.333 C539.162 92.493, 543.653 89.127, 548.518 83.171 M537.475 95.963 C541.66 90.823, 546.377 85.762, 548.999 81.576 M541.703 96.047 C545.09 92.527, 546.83 89.25, 550.058 87.012 M542.647 95.656 C544.23 93.785, 545.259 92.007, 549.342 87.764 M547.589 95.726 C547.851 95.21, 548.097 94.787, 549.008 94.261 M547.547 95.725 C548.048 95.008, 548.436 94.455, 548.79 94.072" stroke="rgb(63, 138, 255)" stroke-width="0.5" fill="none"/><path d="M39.66 63.694 C201.774 63.815, 362.201 63.484, 549.597 63.896 M40.009 63.422 C168.312 66.673, 297.16 66.096, 548.924 64.016 M548.738 62.889 C547.328 75.068, 550.621 85.366, 547.622 96.694 M548.894 63.191 C549.455 72.989, 549.699 82.903, 548.722 96.625 M548.018 95.314 C353.126 99.157, 157.98 99.056, 39.325 95.967 M548.484 95.93 C395.948 92.068, 243.58 91.925, 39.912 95.895 M41.959 94.058 C41.584 87.811, 39.871 79.904, 41.277 64.473 M39.757 95.213 C40.65 87.553, 40.32 81.677, 40.54 64.286" stroke="rgb(63, 138, 255)" stroke-width="1" fill="none"/></g><g xmlns="http://www.w3.org/2000/svg" xmlns:xlink="http://www.w3.org/1999/xlink"><path d="M40.172 109.122 C40.172 109.122, 40.172 109.122, 40.172 109.122 M40.172 109.122 C40.172 109.122, 40.172 109.122, 40.172 109.122 M39.456 115.164 C42.366 113.652, 43.667 110.619, 45.703 109.601 M40.135 115.721 C41.4 113.627, 42.973 112.242, 45.315 109.864 M40.978 122.293 C43.828 118.716, 45.994 113.181, 52.078 110.618 M40.945 121.955 C43.389 117.343, 47.483 113.111, 51.526 109.622 M41.839 127.157 C44.286 118.984, 49.394 115.661, 57.41 108.107 M39.31 126.983 C45.235 121.703, 52.575 114.508, 55.339 109.812 M39.798 134.286 C45.516 125.67, 50.597 119.259, 62.859 110.648 M40.561 133.687 C45.939 126.711, 52.534 119.394, 61.154 108.361 M41.185 140.159 C48.914 130.309, 53.754 122.599, 68.384 107.523 M40.727 139.615 C49.958 127.997, 58.947 118.986, 66.608 108.438 M44.122 144.961 C49.239 132.38, 57.544 123.611, 70.198 107.234 M43.097 142.05 C53.684 131.036, 64.793 118.429, 71.671 109.535 M48.628 144.717 C55.784 136.16, 59.971 129.43, 76.273 110.805 M47.957 142.616 C58.369 130.233, 69.034 118.451, 77.769 110.302 M51.824 144.643 C65.284 130.375, 78.742 115.878, 83.972 109.428 M53.156 142.712 C63.445 129.987, 74.949 117.581, 83.553 109.774 M56.574 141.827 C67.327 132.747, 77.629 120.594, 89.017 109.615 M57.975 142.996 C68.517 130.514, 80.5 118.543, 88.414 108.387 M61.802 143.673 C73.53 132.07, 81.676 121.283, 93.129 108.912 M64.461 143.163 C70.96 132.722, 80.916 123.249, 93.701 108.996 M68.316 141.443 C75.672 132.917, 83.415 126.33, 96.695 108.065 M68.633 144.014 C75.084 133.911, 82.428 125.675, 97.856 108.368 M73.085 145.184 C85.242 130.461, 96.888 114.445, 104.302 109.348 M73.986 143.808 C81.2 135.002, 88.957 126.038, 103.967 109.795 M79.626 141.484 C92.579 130.043, 104.177 114.931, 109.151 108.828 M79.538 142.626 C90.061 132.103, 99.556 120.321, 108.915 108.501 M84.817 142.946 C96.814 130.086, 106.009 118.547, 113.772 110.249 M83.496 144.418 C90.377 135.995, 97.706 128.566, 113.59 108.927 M90.673 144.137 C98.346 134.211, 108.027 125.76, 118.146 107.911 M89.581 143.345 C98.677 133.592, 106.751 124.343, 118.709 110.05 M93.839 143.755 C104.045 130.412, 116.262 117.794, 126.058 110.721 M94.451 144.359 C105.165 130.997, 116.33 118.551, 123.76 109.52 M102.173 143.944 C105.547 135.673, 114.764 128.158, 128.763 109.063 M99.931 143.917 C111.421 130.787, 121.803 118.2, 130.607 108.956 M104.446 142.786 C117.115 132.689, 126.004 118.645, 133.312 107.863 M106.209 144.433 C117.41 131.011, 128.495 117.464, 135.867 108.958 M111.994 144.255 C121.771 130.063, 130.331 121.772, 142.169 109.339 M110.346 142.594 C119.177 134.192, 128.421 122.504, 141.821 108.939 M115.548 141.608 C123.117 135.246, 130.94 129.51, 144.214 109.26 M116.784 143.338 C124.174 134.376, 132.175 124.672, 144.871 109.499 M122.689 142.526 C130.125 134.948, 138.97 122.97, 149.582 107.309 M122.839 143.057 C130.283 135.775, 136.689 127.271, 151.628 109.371 M126.294 143.574 C133.588 135.716, 142.076 124.011, 157.114 110.269 M126.267 143.298 C133.623 134.754, 141.32 127.773, 156.777 108.619 M133.955 144.493 C139.743 136.157, 149.671 126.822, 163.733 109.926 M132.829 144.051 C143.407 130.728, 154.168 117.848, 161.903 108.933 M136.226 145.29 C146.665 134.63, 155.125 122.231, 167.435 109.377 M136.591 143.132 C144.357 137.141, 149.338 129.394, 167.812 108.901 M142.862 144.824 C155.571 131.055, 165.076 120.034, 173.351 107.433 M142.553 143.175 C152.32 132.354, 161.774 121.463, 172.113 108.501 M150.032 144.024 C157.231 131.494, 165.72 123.22, 178.109 109.231 M147.638 142.983 C157.099 134.289, 167.013 122.73, 178.623 110.123 M154.931 142.463 C164.626 132.38, 175.096 119.194, 182.631 109.95 M154.016 142.255 C159.795 136.098, 167.17 128.758, 184.296 109.745 M160.662 141.369 C167.942 132.984, 174.492 123.995, 182.782 115.842 M158.72 142.465 C166.871 135.137, 173.611 125.431, 182.271 115.063 M164.213 141.014 C167.334 138.546, 173.978 134.918, 181.394 120.754 M164.639 142.575 C171.462 135.813, 179.103 127.801, 182.493 122.297 M168.061 141.504 C172.951 140.922, 177.122 135.312, 184.892 127.947 M169.829 143.811 C172.331 139.529, 177.741 134.421, 182.438 127.002 M173.919 143.962 C177.63 140.313, 179.56 137.696, 184.132 132.671 M174.806 142.608 C176.606 139.972, 179.547 137.48, 183.118 134.074 M180.091 143.285 C180.823 142.139, 181.729 141.365, 183.336 139.306 M180.167 143.403 C181.166 141.738, 182.323 140.61, 183.493 139.292" stroke="rgb(63, 138, 255)" stroke-width="0.5" fill="none"/><path d="M40.016 108.571 C90.248 112.876, 144.789 112.665, 181.878 108.065 M39.939 108.418 C82.434 109.105, 124.317 109.154, 183.488 109.861 M183.935 109.389 C182.925 117.019, 184.502 124.088, 183.23 141.503 M183.923 110.259 C183.051 120.094, 181.87 130.502, 183.618 140.912 M183.934 139.592 C154.379 141.652, 127.312 143.148, 39.661 140.63 M182.467 141.85 C149.845 139.682, 116.48 140.98, 39.66 140.931 M39.497 139.636 C41.077 130.19, 42.182 116.368, 40.014 109.117 M40.621 141.156 C40.331 131.347, 39.716 122.873, 39.667 109.131" stroke="rgb(63, 138, 255)" stroke-width="1" fill="none"/></g><g xmlns="http://www.w3.org/2000/svg" xmlns:xlink="http://www.w3.org/1999/xlink"><path d="M39.804 155.177 C39.804 155.177, 39.804 155.177, 39.804 155.177 M39.804 155.177 C39.804 155.177, 39.804 155.177, 39.804 155.177 M39.449 161.5 C42.177 158.668, 44.072 155.577, 45.32 154.565 M40.351 160.88 C41.752 158.549, 43.147 156.688, 45.163 154.413 M38.568 165.804 C42.729 164.604, 47.775 158.917, 51.983 154.881 M40.075 167.256 C44 163.327, 46.893 158.842, 51.206 154.662 M39.534 172.722 C43.593 168.274, 50.435 162.938, 54.652 154.169 M39.102 174.599 C44.525 167.609, 52.195 158.841, 55.455 155.548 M42.02 180.607 C43.589 171.612, 51.909 167.878, 60.735 153.643 M40.855 179.237 C48.319 168.95, 56.972 160.337, 60.866 154.451 M38.512 186.024 C46.866 176.065, 58.598 166.696, 66.619 155.011 M39.363 186.265 C48.022 176.916, 55.653 168.691, 67.418 155.601 M44.089 186.51 C52.207 176.275, 61.253 166.416, 70.698 157.003 M43.468 185.977 C49.078 181.006, 55.44 174.125, 70.803 154.669 M49.002 186.687 C57.765 176.727, 65.059 167.433, 77.432 153.575 M48.721 188.077 C54.246 179.161, 62.006 171.768, 76.429 154.246 M52.796 187.181 C61.326 178.145, 69.456 169.285, 81.381 156.041 M54.352 187.691 C59.964 181.09, 66.302 172.974, 82.078 155.161 M61.51 188.624 C66.649 180.134, 70.936 171.938, 87.367 154.628 M59.525 186.415 C65.297 181.095, 70.589 173.931, 87.165 155.369 M66.626 187.968 C75.01 177.911, 82.096 168.242, 91.502 154.774 M64.545 187.547 C74.697 176.032, 83.323 165.267, 92.925 154.296 M72.175 188.654 C80.835 174.846, 90.609 163.29, 100.255 154.182 M70.533 186.269 C77.73 176.42, 87.161 167.119, 98.49 154.06 M74.216 186.822 C85.192 179.129, 91.121 169.43, 102.73 154.075 M76.319 186.528 C85.604 176.87, 93.909 166.799, 103.88 155.906 M79.565 186.972 C89.263 178.187, 97.068 169.869, 109.743 154.635 M80.652 187.293 C88.57 179.285, 94.8 170.577, 109.192 154.022 M85.971 185.574 C92.922 177.788, 100.22 172.153, 115.764 156.574 M86.515 186.623 C94.252 177.053, 101.37 170.126, 113.94 155.244 M92.878 186.398 C98.741 181.03, 105.436 173.612, 118.392 157.309 M92.609 187.573 C101.665 174.714, 112.048 164.017, 116.857 158.6 M99.226 186.414 C101.81 180.58, 110.711 171.899, 117.405 164.729 M97.274 187.173 C103.702 179.506, 108.083 174.552, 115.333 164.09 M101.098 186.309 C106.798 180.585, 110.42 176.041, 115.303 171.566 M101.563 186.397 C105.186 183.504, 108.575 179.458, 117.078 169.68 M106.899 186.55 C110.83 185.223, 112.515 182.775, 117.038 177.692 M107.679 186.725 C109.783 184.774, 112.154 181.508, 116.011 176.514 M113.389 187.503 C113.903 185.351, 114.825 183.773, 116.994 182.63 M112.678 186.761 C114.442 185.314, 116.141 183.647, 117.014 182.521" stroke="rgb(63, 138, 255)" stroke-width="0.5" fill="none"/><path d="M40.917 156.31 C64.043 153.128, 92.03 153.797, 117.845 154.794 M40.378 154.158 C64.135 152.921, 90.186 153.431, 116.1 155.378 M114.528 156.214 C117.94 166.389, 114.644 176.852, 118.136 188.385 M117.082 155.489 C116.493 168.069, 115.751 180.823, 117.254 187.471 M118.186 185.955 C99.622 186.68, 82.989 186.06, 40.024 187.946 M115.682 186.834 C92.832 185.552, 69.04 184.875, 40.095 187.722 M39.659 188.525 C41.943 178.296, 39.325 172.651, 40.423 154.407 M39.043 185.99 C40.727 180.738, 39.047 174.399, 40.318 154.226" stroke="rgb(63, 138, 255)" stroke-width="1" fill="none"/></g><g xmlns="http://www.w3.org/2000/svg" xmlns:xlink="http://www.w3.org/1999/xlink"><path d="M40.091 200.477 C40.091 200.477, 40.091 200.477, 40.091 200.477 M40.091 200.477 C40.091 200.477, 40.091 200.477, 40.091 200.477 M39.102 206.089 C41.186 205.314, 44.067 203.56, 44.767 200.268 M39.591 207.226 C41.855 204.764, 43.673 202.369, 45.219 201.131 M38.642 213.356 C42.569 210.06, 45.723 206.234, 49.232 198.904 M39.46 211.942 C42.757 209.733, 46.025 206.181, 51.11 200.921 M39.441 216.982 C43.521 214.908, 47.799 210.084, 55.639 199.132 M40.559 219.694 C44.615 214.724, 47.918 209.596, 54.847 200.618 M37.765 225.239 C43.266 220.106, 50.821 211.94, 62.542 202.229 M39.148 224.492 C44.622 219.677, 48.26 215.43, 61.471 200.643 M39.863 232.265 C50.562 218.763, 58.818 206.551, 64.819 198.918 M39.597 230.816 C48.82 218.775, 60.178 207.737, 65.421 201.549 M44.907 232.058 C51.944 223.842, 60.43 213.952, 70.818 200.183 M43.559 232.91 C49.733 224.034, 56.614 216.366, 72.465 201.232 M47.476 233.594 C54.314 226.084, 60.674 218.196, 75.758 200.659 M48.845 232.16 C55.524 223.812, 63.264 216.537, 77.95 200.214 M55.304 232.972 C65.117 220.452, 78.318 208.605, 82.96 199.416 M54.064 232.788 C64.941 219.976, 75.92 208.081, 82.469 200.541 M60.131 230.84 C65.96 223.089, 76.771 211.934, 85.951 202.017 M60.196 232.749 C69.393 221.289, 80.031 209.464, 87.803 201.028 M65.204 230.994 C75.21 221.568, 86.379 212.458, 91.949 198.907 M64.21 232.084 C72.119 224.575, 79.324 215.137, 92.522 201.172 M70.432 232.528 C78.225 224.731, 84.029 217.616, 98.65 200.945 M70.364 233.092 C78.516 223.157, 86.296 215.048, 98.348 200.168 M74.152 232.048 C85.629 219.979, 99.565 205.196, 103.483 199.961 M75.641 233.333 C85.296 221.726, 96.763 208.852, 104.823 200.353 M81.479 233.407 C88.216 225.097, 93.851 216.682, 109.122 198.895 M81.483 232.643 C87.594 226.478, 91.404 220.143, 109.215 201.388 M87.452 231.493 C93.324 220.738, 102.671 210.822, 114.02 199.188 M86.79 232.465 C95.776 223.724, 103.709 212.762, 113.897 199.742 M93.5 230.739 C101.055 223.714, 110.145 214.062, 120.261 202.375 M91.089 233.014 C100.784 221.352, 110.878 212.335, 119.915 200.994 M95.199 234.044 C105.262 222.642, 114.345 210.105, 123.092 202.956 M97.744 232.361 C102.912 224.471, 110.834 216.023, 124.567 200.858 M103.532 234.229 C112.009 218.978, 122.137 209.387, 130.705 201.162 M103.185 231.81 C111.946 220.817, 119.739 210.378, 131.07 200.766 M108.269 231.47 C115.568 222.761, 120.355 217.477, 134.005 199.232 M107.018 232.75 C117.417 222.776, 126.995 210.948, 134.48 200.537 M112.637 233.626 C119.146 221.772, 129.061 212.734, 139.329 199.753 M112.196 231.935 C121.225 223.481, 127.549 214.866, 139.866 200.366 M119.038 233.412 C123.527 226.14, 128.661 219.435, 145.716 201.396 M117.786 231.597 C123.29 226.311, 128.951 219.083, 146.053 200.595 M123.957 230.975 C132.637 225.011, 138.094 214.566, 153.059 199.194 M123.628 231.612 C130.555 225.764, 137.168 217.542, 151.672 199.886 M130.009 234.131 C140.372 221.08, 150.712 211.584, 154.516 200.906 M128.917 232.661 C136.751 222.684, 145.22 213.669, 155.685 200.218 M133.667 233.617 C143.167 221.74, 151.072 211.676, 160.196 201.274 M134.51 231.935 C141.365 225.677, 148.864 216.553, 162.458 201.134 M140.056 231.183 C148.178 226.019, 155.227 218.863, 164.54 200.372 M139.181 232.089 C147.674 224.259, 155.733 215.299, 166.455 203.056 M144.302 231.053 C149.11 227.383, 156.686 220.747, 164.586 208.648 M143.984 232.483 C152.098 223.744, 160.044 214.55, 165.159 208.96 M150.643 231.764 C153.874 229.755, 156.952 222.417, 165.893 213.979 M150.645 232.84 C156.246 224.388, 162.315 217.321, 165.639 214.357 M154.588 234.138 C158.91 227.504, 163.762 222.533, 166.306 220.287 M154.613 233.039 C156.816 230.538, 159.626 227.518, 165.992 220.865 M160.204 232.486 C161.834 230.382, 162.761 229.085, 165.71 227.175 M160.739 232.249 C162.028 230.838, 163.493 228.989, 165.2 227.473" stroke="rgb(63, 138, 255)" stroke-width="0.5" fill="none"/><path d="M39.278 202.238 C64.973 198.069, 94.121 197.365, 166.281 200.126 M39.989 200.537 C76.152 202.082, 112.966 202.464, 165.737 201.086 M166.995 199.508 C165.106 208.118, 164.522 212.328, 165.828 233.818 M164.842 200.28 C166.358 207.367, 166.062 214.011, 165.499 232.473 M166.857 233.012 C134.741 233.925, 105.221 234.611, 40.566 233.035 M164.187 233.03 C116.331 232.245, 69.124 231.593, 40.239 232.372 M38.224 234.163 C39.362 224.893, 39.841 216.279, 41.81 198.846 M39.025 231.85 C38.913 221.198, 39.505 208.935, 39.397 201.287" stroke="rgb(63, 138, 255)" stroke-width="1" fill="none"/></g><g xmlns="http://www.w3.org/2000/svg" xmlns:xlink="http://www.w3.org/1999/xlink"><path d="M39.723 246.533 C39.723 246.533, 39.723 246.533, 39.723 246.533 M39.723 246.533 C39.723 246.533, 39.723 246.533, 39.723 246.533 M40.318 252.857 C41.925 250.39, 44.32 248.38, 45.631 245.577 M40.193 252.498 C41.719 250.427, 43.582 247.705, 45.44 246.343 M41.45 259.818 C43.067 255.452, 44.069 254.774, 49.446 245.896 M39.395 258.021 C44.2 253.641, 47.224 248.675, 49.719 246.412 M41.64 263.068 C44.493 261.572, 46.931 255.487, 56.581 245.438 M40.562 264.368 C46.619 257.719, 52.083 251.078, 55.182 245.824 M39.093 271.348 C47.829 263.678, 53.672 255.848, 60.502 244.586 M40.28 270.401 C45.289 265.827, 48.842 259.01, 61.158 246.907 M39.117 276.882 C49.013 265.74, 59.349 253.848, 65.265 245.846 M39.527 277.581 C47.94 268.624, 55.989 259.849, 67.365 246.272 M42.187 279.286 C52.474 267.624, 63.546 256.639, 71.36 248.089 M44.414 278.486 C49.87 270.958, 55.815 264.749, 72.553 245.811 M48.573 279.74 C54.903 270.081, 60.894 263.958, 77.952 246.29 M49.558 279.378 C56.119 269.861, 64.358 261.631, 78.105 245.506 M55.858 278.415 C61.92 267.199, 70.669 259.998, 82.356 245.989 M55.353 278.313 C65.372 265.793, 75.3 255.593, 82.004 246.732 M57.914 278.558 C65.305 270.012, 76.205 260.981, 89.262 246.804 M59.816 278.792 C68.931 269.861, 75.637 258.411, 87.546 246.186 M63.54 279.718 C69.238 271.888, 74.202 269.154, 87.756 251.525 M65.993 277.115 C72.688 270.787, 77.38 263.751, 87.83 251.786 M72.009 278.612 C73.637 272.305, 77.321 269.472, 89.081 256.933 M69.486 277.63 C74.29 273.421, 79.411 268.059, 87.975 259.015 M74.466 276.647 C79.376 274.029, 82.919 270.026, 86.869 266.022 M76.367 277.51 C80.761 272.929, 85.127 267.006, 88.524 264.666 M80.603 278.417 C81.582 276.459, 83.081 275.093, 87.043 269.858 M80.686 278.169 C82.63 276.723, 84.043 274.09, 87.915 270.928 M86.761 278.096 C86.873 277.444, 87.574 276.897, 87.823 276.462 M86.544 277.923 C86.992 277.385, 87.482 276.854, 87.874 276.538" stroke="rgb(63, 138, 255)" stroke-width="0.5" fill="none"/><path d="M40.091 244.854 C51.459 246.283, 67.41 243.915, 85.742 247.459 M40.507 246.337 C54.053 246.065, 65.478 246.763, 88.67 247.176 M86.12 245.785 C88.075 255.17, 87.236 264.981, 88.12 279.136 M88.152 245.731 C86.241 258.994, 87.57 271.66, 87.111 277.517 M86.523 276.306 C72.021 278.194, 55.441 277.144, 39.936 277.9 M88.429 278.39 C75.867 277.766, 63.825 278.299, 40.137 278.454 M41.571 276.847 C41.392 270.666, 40.358 258.203, 38.442 247.688 M40.729 278.081 C40.149 266.95, 39.593 257.285, 39.79 246.66" stroke="rgb(63, 138, 255)" stroke-width="1" fill="none"/></g><g xmlns="http://www.w3.org/2000/svg" xmlns:xlink="http://www.w3.org/1999/xlink"><path d="M40.01 291.833 C40.01 291.833, 40.01 291.833, 40.01 291.833 M40.01 291.833 C40.01 291.833, 40.01 291.833, 40.01 291.833 M39.087 298.572 C40.724 296.064, 43.186 294.255, 44.978 292.932 M39.969 297.971 C41.347 296.818, 43.247 294.391, 45.243 292.42 M39.368 304.115 C44.199 300.456, 44.691 296.761, 51.422 293 M40.429 303.232 C43.983 298.719, 48.402 294.94, 50.562 292.052 M40.552 311.5 C42.746 306.319, 46.312 301.416, 54.873 293.914 M40.174 310.32 C43.46 305.886, 49.136 298.725, 55.123 292.578 M40.322 314.04 C45.95 309.028, 56.585 298.395, 60.071 290.938 M40.601 316.786 C47.762 307.533, 55.166 298.794, 60.369 290.9 M40.01 320.994 C45.055 316.765, 52.649 310.679, 61.005 296.371 M39.997 321.577 C45.872 315.853, 50.165 309.803, 62.601 296.423 M42.525 324.704 C51.45 316.939, 57.048 308.38, 64.529 300.784 M44.46 325.126 C47.848 318.237, 53.641 312.985, 63.104 301.508 M48.364 324.695 C53.302 320.521, 59.812 312.026, 64.038 306.954 M50.262 324.591 C52.328 318.922, 56.203 316.15, 62.015 308.347 M54.431 323.601 C56.017 321.975, 59.595 318.179, 61.962 314.632 M54.519 324.411 C56.76 320.886, 59.132 319.314, 62.458 315.01 M59.698 323.531 C60.735 323.232, 61.704 322.27, 62.337 320.819 M59.791 323.726 C61.176 322.383, 61.88 321.345, 62.75 320.637" stroke="rgb(63, 138, 255)" stroke-width="0.5" fill="none"/><path d="M38.09 293.137 C43.717 290.696, 50.155 292.528, 62.419 289.917 M39.165 291.295 C48.673 291.548, 57.304 292.711, 62.586 292.815 M63.696 293.685 C60.413 301.833, 63.302 312.092, 62.321 322.688 M61.56 292.501 C61.408 301.137, 61.6 308.496, 62.055 324.321 M62.491 324.594 C57.923 324.662, 51.753 324.271, 38.013 322.173 M61.662 323.344 C55.119 323.219, 47.517 324.031, 40.788 324.425 M40.249 325.741 C42.302 314.237, 41.93 301.495, 38.698 290.573 M40.74 323.591 C40.311 315.312, 39.478 307.463, 40.36 291.764" stroke="rgb(63, 138, 255)" stroke-width="1" fill="none"/></g><g xmlns="http://www.w3.org/2000/svg" xmlns:xlink="http://www.w3.org/1999/xlink"><path d="M40.298 337.133 C40.298 337.133, 40.298 337.133, 40.298 337.133 M40.298 337.133 C40.298 337.133, 40.298 337.133, 40.298 337.133 M40.563 344.325 C41.271 341.831, 43.275 340.143, 44.682 338.211 M39.776 343.902 C41.335 341.892, 42.568 340.529, 45.376 337.861 M39.001 349.906 C41.104 346.368, 45.428 343.683, 47.744 338.214 M39.352 349.732 C41.914 347.909, 44.934 344.836, 48.544 339.99 M41.312 355.96 C42.924 352.48, 46.568 346.797, 49.838 346.483 M40.179 356.186 C43.084 352.104, 46.945 348.285, 48.674 346.258 M39.968 362.234 C40.938 358.816, 45.727 357.171, 47.97 351.886 M40.389 361.275 C42.427 359.056, 44.749 355.746, 49.223 351.407 M40.546 367.485 C41.807 365.985, 45.083 361.6, 48.281 358.863 M40.797 368.078 C42.203 364.779, 44.386 362.017, 48.74 358.247 M43.417 369.492 C45.112 367.555, 47.013 365.839, 49.354 362.969 M43.903 369.444 C45.367 367.914, 46.859 365.386, 49.235 363.269" stroke="rgb(63, 138, 255)" stroke-width="0.5" fill="none"/><path d="M40.498 337.417 C42.667 336.934, 46.197 337.403, 48.421 338.224 M40.297 337.833 C42.282 337.889, 44.336 337.518, 48.724 337.374 M48.879 335.715 C47.289 349.595, 47.629 358.581, 49.972 368.684 M47.74 337.32 C49.104 349.991, 49.445 361.804, 49.371 368.969 M48.367 368.917 C46.046 368.818, 44.598 369.169, 40.107 369.283 M48.341 369.792 C46.224 369.511, 43.666 369.402, 40.186 369.422 M40.067 368.612 C41.017 360.804, 41.089 350.841, 41.057 337.433 M40.106 370.143 C39.833 360.253, 39.62 350.922, 40.406 337.907" stroke="rgb(63, 138, 255)" stroke-width="1" fill="none"/></g><g xmlns="http://www.w3.org/2000/svg" xmlns:xlink="http://www.w3.org/1999/xlink"><path d="M39.929 383.188 C39.929 383.188, 39.929 383.188, 39.929 383.188 M39.929 383.188 C39.929 383.188, 39.929 383.188, 39.929 383.188 M40.324 388.208 C41.723 387.22, 43.984 385.092, 45.383 382.046 M40.656 388.515 C42.072 386.008, 44.595 383.673, 45.417 383.05 M38.708 396.279 C43.477 392.455, 46.609 388.838, 48.491 383.791 M40.369 395.864 C43.299 390.695, 48.318 386.64, 50.61 384.565 M39.754 402.022 C41.879 398.888, 44.675 395.037, 49.895 388.616 M40.303 401.907 C44.011 396.707, 46.887 392.337, 50.729 390.265 M41.258 406.197 C43.133 404.339, 48.724 398.758, 49.462 396.803 M39.675 406.883 C42.139 405.352, 44.832 402.015, 49.892 395.653 M40.839 414.07 C45.017 410.558, 48.892 403.917, 50.36 401.699 M40.445 413.693 C43.656 408.631, 48.74 404.608, 50.984 401.331 M43.371 414.851 C46.337 411.977, 48.731 410.747, 50.521 408.338 M44.419 414.669 C45.617 412.88, 46.555 412.149, 50.52 407.879 M49.321 415.095 C49.299 414.956, 49.54 414.759, 49.922 414.465 M49.25 415.16 C49.522 414.857, 49.745 414.584, 49.918 414.362" stroke="rgb(63, 138, 255)" stroke-width="0.5" fill="none"/><path d="M39.262 383.791 C43.474 382.965, 46.844 384.117, 50.058 383.692 M39.534 382.778 C41.72 382.895, 44.17 383.63, 49.9 383.494 M51.212 384.224 C49.924 390.239, 48.54 398.537, 50.466 414.122 M49.619 383.902 C49.787 395.43, 48.974 408.518, 49.708 416.028 M50.304 414.901 C45.997 414.361, 41.987 414.821, 40.79 415.257 M49.59 415.246 C45.891 415.093, 42.479 415.562, 40.25 415.129 M40.51 413.288 C38.906 405.245, 38.388 395.542, 38.946 383.598 M39.438 414.246 C41.229 406.403, 40.672 395.736, 40.361 382.736" stroke="rgb(63, 138, 255)" stroke-width="1" fill="none"/></g><g xmlns="http://www.w3.org/2000/svg" xmlns:xlink="http://www.w3.org/1999/xlink"><path d="M40.217 428.489 C40.217 428.489, 40.217 428.489, 40.217 428.489 M40.217 428.489 C40.217 428.489, 40.217 428.489, 40.217 428.489 M39.456 434.97 C41.223 434.179, 41.956 432.801, 43.427 430.687 M40.211 435.087 C41.498 433.624, 42.717 432.261, 44.152 430.591 M39.792 441.495 C41.045 440.567, 41.432 438.921, 43.787 436.208 M39.871 441.392 C41.083 439.59, 42.851 437.969, 43.792 436.908 M40.437 447.385 C41.314 445.608, 42.56 444.634, 43.54 443.225 M39.968 447.072 C40.587 446.285, 41.566 445.181, 43.242 443.231 M39.408 452.758 C41.492 452.192, 41.774 450.37, 43.508 449.341 M39.884 453.326 C41.257 452.132, 41.972 450.722, 43.51 448.535 M40.374 458.85 C41.136 457.762, 42.338 456.904, 43.775 455.536 M40.203 458.808 C41.518 457.29, 42.963 456.085, 43.381 455.011" stroke="rgb(63, 138, 255)" stroke-width="0.5" fill="none"/><path d="M39.89 429.005 C41.124 428.74, 41.849 428.992, 43.303 428.629 M40.075 428.876 C40.837 428.83, 41.863 428.722, 43.316 428.862 M43.362 426.981 C44.863 437.63, 42.384 445.016, 44.104 460.946 M44.102 428.508 C44.383 436.83, 42.675 444.541, 42.381 460.575 M42.882 460.366 C42.772 460.834, 41.686 460.619, 39.869 460.862 M43.093 460.729 C42.225 460.549, 41.245 460.655, 39.876 460.826 M41.304 460.776 C40.953 451.831, 39.806 441.124, 39.593 427.796 M39.336 460.609 C40.709 451.127, 39.706 440.969, 39.477 428.399" stroke="rgb(63, 138, 255)" stroke-width="1" fill="none"/></g><g xmlns="http://www.w3.org/2000/svg" xmlns:xlink="http://www.w3.org/1999/xlink"><path d="M39.848 474.544 C39.848 474.544, 39.848 474.544, 39.848 474.544 M39.848 474.544 C39.848 474.544, 39.848 474.544, 39.848 474.544 M40.569 479.83 C40.928 479.157, 42.215 478.221, 44.694 475.58 M40.506 479.912 C41.963 478.355, 43.476 476.722, 44.211 475.606 M39.858 486.808 C41.308 485.212, 41.509 484.227, 44.223 482.471 M39.754 486.419 C40.636 485.508, 41.384 484.496, 43.855 481.929 M39.458 493.338 C40.074 491.258, 41.443 490.438, 43.251 488 M39.868 493.249 C40.561 491.926, 41.527 491.124, 43.803 488.17 M39.525 498.048 C41.443 497.864, 42.349 497.016, 44.643 493.689 M40.108 498.907 C41.318 496.789, 43.111 495.12, 43.949 493.874 M39.715 505.09 C41.587 504.089, 42.031 502, 43.626 500.907 M39.994 504.848 C41.674 503.029, 43.233 501.505, 43.853 500.742" stroke="rgb(84, 184, 255)" stroke-width="0.5" fill="none"/><path d="M40.171 474.304 C40.462 474.438, 41.125 474.502, 42.244 474.246 M39.92 474.429 C40.556 474.433, 41.006 474.417, 42.157 474.301 M41.604 474.599 C42.912 481.076, 41.576 490.055, 42.607 506.03 M42.213 473.459 C41.214 485.315, 42.988 496.884, 42.044 505.953 M42.034 506.179 C41.226 506.089, 40.719 506.099, 39.91 506.113 M42.026 506.369 C41.577 506.29, 41.224 506.369, 40.094 506.343 M38.264 505.895 C38.116 499.563, 41.113 492.564, 39.277 473.454 M40.165 505.863 C41.071 495.06, 39.977 484.653, 39.615 473.674" stroke="rgb(84, 184, 255)" stroke-width="1" fill="none"/></g><g xmlns="http://www.w3.org/2000/svg" xmlns:xlink="http://www.w3.org/1999/xlink" class="text-container" transform="matrix(1 0 0 1 40 50)"><text class="label" x="513.8" y="29.660194174757294" dy="0.32em" style="font-family: Arial; font-size: 16px; fill: rgb(65, 65, 65); opacity: 1;font-style: normal;font-weight: 400;font-size: 16px;font-family: Comic Sans MS, cursive;" stroke="none" stroke-width="1px" fill="rgb(65, 65, 65)" text-anchor="start" dominant-baseline="auto">48 b</text></g><g xmlns="http://www.w3.org/2000/svg" xmlns:xlink="http://www.w3.org/1999/xlink" class="text-container" transform="matrix(1 0 0 1 40 50)"><text class="label" x="148.10000000000002" y="75.29126213592235" dy="0.32em" style="font-family: Arial; font-size: 16px; fill: rgb(65, 65, 65); opacity: 1;font-style: normal;font-weight: 400;font-size: 16px;font-family: Comic Sans MS, cursive;" stroke="none" stroke-width="1px" fill="rgb(65, 65, 65)" text-anchor="start" dominant-baseline="auto">13.5 b</text></g><g xmlns="http://www.w3.org/2000/svg" xmlns:xlink="http://www.w3.org/1999/xlink" class="text-container" transform="matrix(1 0 0 1 40 50)"><text class="label" x="81.32000000000001" y="120.9223300970874" dy="0.32em" style="font-family: Arial; font-size: 16px; fill: rgb(65, 65, 65); opacity: 1;font-style: normal;font-weight: 400;font-size: 16px;font-family: Comic Sans MS, cursive;" stroke="none" stroke-width="1px" fill="rgb(65, 65, 65)" text-anchor="start" dominant-baseline="auto">7.2 b</text></g><g xmlns="http://www.w3.org/2000/svg" xmlns:xlink="http://www.w3.org/1999/xlink" class="text-container" transform="matrix(1 0 0 1 40 50)"><text class="label" x="130.08" y="166.55339805825244" dy="0.32em" style="font-family: Arial; font-size: 16px; fill: rgb(65, 65, 65); opacity: 1;font-style: normal;font-weight: 400;font-size: 16px;font-family: Comic Sans MS, cursive;" stroke="none" stroke-width="1px" fill="rgb(65, 65, 65)" text-anchor="start" dominant-baseline="auto">11.8 b</text></g><g xmlns="http://www.w3.org/2000/svg" xmlns:xlink="http://www.w3.org/1999/xlink" class="text-container" transform="matrix(1 0 0 1 40 50)"><text class="label" x="52.699999999999996" y="212.1844660194175" dy="0.32em" style="font-family: Arial; font-size: 16px; fill: rgb(65, 65, 65); opacity: 1;font-style: normal;font-weight: 400;font-size: 16px;font-family: Comic Sans MS, cursive;" stroke="none" stroke-width="1px" fill="rgb(65, 65, 65)" text-anchor="start" dominant-baseline="auto">4.5 b</text></g><g xmlns="http://www.w3.org/2000/svg" xmlns:xlink="http://www.w3.org/1999/xlink" class="text-container" transform="matrix(1 0 0 1 40 50)"><text class="label" x="27.26" y="257.8155339805826" dy="0.32em" style="font-family: Arial; font-size: 16px; fill: rgb(65, 65, 65); opacity: 1;font-style: normal;font-weight: 400;font-size: 16px;font-family: Comic Sans MS, cursive;" stroke="none" stroke-width="1px" fill="rgb(65, 65, 65)" text-anchor="start" dominant-baseline="auto">2.1 b</text></g><g xmlns="http://www.w3.org/2000/svg" xmlns:xlink="http://www.w3.org/1999/xlink" class="text-container" transform="matrix(1 0 0 1 40 50)"><text class="label" x="13.48" y="303.4466019417476" dy="0.32em" style="font-family: Arial; font-size: 16px; fill: rgb(65, 65, 65); opacity: 1;font-style: normal;font-weight: 400;font-size: 16px;font-family: Comic Sans MS, cursive;" stroke="none" stroke-width="1px" fill="rgb(65, 65, 65)" text-anchor="start" dominant-baseline="auto">0.8 b</text></g><g xmlns="http://www.w3.org/2000/svg" xmlns:xlink="http://www.w3.org/1999/xlink" class="text-container" transform="matrix(1 0 0 1 40 50)"><text class="label" x="14.540000000000001" y="349.07766990291265" dy="0.32em" style="font-family: Arial; font-size: 16px; fill: rgb(65, 65, 65); opacity: 1;font-style: normal;font-weight: 400;font-size: 16px;font-family: Comic Sans MS, cursive;" stroke="none" stroke-width="1px" fill="rgb(65, 65, 65)" text-anchor="start" dominant-baseline="auto">0.9 b</text></g><g xmlns="http://www.w3.org/2000/svg" xmlns:xlink="http://www.w3.org/1999/xlink" class="text-container" transform="matrix(1 0 0 1 40 50)"><text class="label" x="8.18" y="394.7087378640777" dy="0.32em" style="font-family: Arial; font-size: 16px; fill: rgb(65, 65, 65); opacity: 1;font-style: normal;font-weight: 400;font-size: 16px;font-family: Comic Sans MS, cursive;" stroke="none" stroke-width="1px" fill="rgb(65, 65, 65)" text-anchor="start" dominant-baseline="auto">0.3 b</text></g><g xmlns="http://www.w3.org/2000/svg" xmlns:xlink="http://www.w3.org/1999/xlink" class="text-container" transform="matrix(1 0 0 1 40 50)"><text class="label" x="7.12" y="440.33980582524276" dy="0.32em" style="font-family: Arial; font-size: 16px; fill: rgb(65, 65, 65); opacity: 1;font-style: normal;font-weight: 400;font-size: 16px;font-family: Comic Sans MS, cursive;" stroke="none" stroke-width="1px" fill="rgb(65, 65, 65)" text-anchor="start" dominant-baseline="auto">0.2 b</text></g>         </g></svg>