<svg xmlns='http://www.w3.org/2000/svg' xmlns:xlink='http://www.w3.org/1999/xlink' width='573' height='580'>
        <g transform='translate(1.0, -32.000000000000014)'>             <g xmlns="http://www.w3.org/2000/svg" xmlns:xlink="http://www.w3.org/1999/xlink" transform="translate(40, 50)"><g class="x-axis" transform="translate(0, 470)" fill="none" font-size="10" font-family="sans-serif" text-anchor="middle"><path class="domain" stroke="currentColor" d="M0.5,0.5H530.5"/><g class="tick" opacity="1" transform="translate(33.44660194174757,0)"><line stroke="currentColor" y2="0"/><text fill="currentColor" y="3" dy="0.71em" transform="rotate(-45)" style="font-family: Arial; font-size: 16px; text-anchor: end; fill: rgb(65, 65, 65);">USA</text></g><g class="tick" opacity="1" transform="translate(84.90291262135922,0)"><line stroke="currentColor" y2="0"/><text fill="currentColor" y="3" dy="0.71em" transform="rotate(-45)" style="font-family: Arial; font-size: 16px; text-anchor: end; fill: rgb(65, 65, 65);">China</text></g><g class="tick" opacity="1" transform="translate(136.35922330097088,0)"><line stroke="currentColor" y2="0"/><text fill="currentColor" y="3" dy="0.71em" transform="rotate(-45)" style="font-family: Arial; font-size: 16px; text-anchor: end; fill: rgb(65, 65, 65);">Russia</text></g><g class="tick" opacity="1" transform="translate(187.81553398058256,0)"><line stroke="currentColor" y2="0"/><text fill="currentColor" y="3" dy="0.71em" transform="rotate(-45)" style="font-family: Arial; font-size: 16px; text-anchor: end; fill: rgb(65, 65, 65);">European Union</text></g><g class="tick" opacity="1" transform="translate(239.2718446601942,0)"><line stroke="currentColor" y2="0"/><text fill="currentColor" y="3" dy="0.71em" transform="rotate(-45)" style="font-family: Arial; font-size: 16px; text-anchor: end; fill: rgb(65, 65, 65);">Japan</text></g><g class="tick" opacity="1" transform="translate(290.7281553398058,0)"><line stroke="currentColor" y2="0"/><text fill="currentColor" y="3" dy="0.71em" transform="rotate(-45)" style="font-family: Arial; font-size: 16px; text-anchor: end; fill: rgb(65, 65, 65);">India</text></g><g class="tick" opacity="1" transform="translate(342.18446601941747,0)"><line stroke="currentColor" y2="0"/><text fill="currentColor" y="3" dy="0.71em" transform="rotate(-45)" style="font-family: Arial; font-size: 16px; text-anchor: end; fill: rgb(65, 65, 65);">Canada</text></g><g class="tick" opacity="1" transform="translate(393.6407766990291,0)"><line stroke="currentColor" y2="0"/><text fill="currentColor" y="3" dy="0.71em" transform="rotate(-45)" style="font-family: Arial; font-size: 16px; text-anchor: end; fill: rgb(65, 65, 65);">South Korea</text></g><g class="tick" opacity="1" transform="translate(445.09708737864077,0)"><line stroke="currentColor" y2="0"/><text fill="currentColor" y="3" dy="0.71em" transform="rotate(-45)" style="font-family: Arial; font-size: 16px; text-anchor: end; fill: rgb(65, 65, 65);">Australia</text></g><g class="tick" opacity="1" transform="translate(496.5533980582524,0)"><line stroke="currentColor" y2="0"/><text fill="currentColor" y="3" dy="0.71em" transform="rotate(-45)" style="font-family: Arial; font-size: 16px; text-anchor: end; fill: rgb(65, 65, 65);">Brazil</text></g></g><g class="y-axis" fill="none" font-size="10" font-family="sans-serif" text-anchor="end"><g class="tick" opacity="1" transform="translate(0,470.5)"><line stroke="currentColor" x2="0"/><text fill="currentColor" x="-10" dy="0.32em" style="font-family: Arial; font-size: 16px; fill: rgb(65, 65, 65);">0 b</text></g><g class="tick" opacity="1" transform="translate(0,376.5)"><line stroke="currentColor" x2="0"/><text fill="currentColor" x="-10" dy="0.32em" style="font-family: Arial; font-size: 16px; fill: rgb(65, 65, 65);">10 b</text></g><g class="tick" opacity="1" transform="translate(0,282.5)"><line stroke="currentColor" x2="0"/><text fill="currentColor" x="-10" dy="0.32em" style="font-family: Arial; font-size: 16px; fill: rgb(65, 65, 65);">20 b</text></g><g class="tick" opacity="1" transform="translate(0,188.5)"><line stroke="currentColor" x2="0"/><text fill="currentColor" x="-10" dy="0.32em" style="font-family: Arial; font-size: 16px; fill: rgb(65, 65, 65);">30 b</text></g><g class="tick" opacity="1" transform="translate(0,94.49999999999999)"><line stroke="currentColor" x2="0"/><text fill="currentColor" x="-10" dy="0.32em" style="font-family: Arial; font-size: 16px; fill: rgb(65, 65, 65);">40 b</text></g><g class="tick" opacity="1" transform="translate(0,0.5)"><line stroke="currentColor" x2="0"/><text fill="currentColor" x="-10" dy="0.32em" style="font-family: Arial; font-size: 16px; fill: rgb(65, 65, 65);">50 b</text></g></g><g class="bar-group" transform="translate(15.4368932038835, 0)"><rect class="bar-front" x="0" y="18.80000000000002" width="36.019417475728154" height="451.2" fill="rgb(49, 108, 199)" rx="2" ry="2"/><path class="bar-top" d="                 M0,18.80000000000002                 L15,3.8000000000000185                 L51.019417475728154,3.8000000000000185                 L36.019417475728154,18.80000000000002                 Z             " fill="rgb(53, 115, 213)"/><path class="bar-right" d="                 M36.019417475728154,18.80000000000002                 L51.019417475728154,3.8000000000000185                 L51.019417475728154,455                 L36.019417475728154,470                 Z             " fill="rgb(46, 100, 185)"/></g><g class="bar-group" transform="translate(66.89320388349515, 0)"><rect class="bar-front" x="0" y="343.09999999999997" width="36.019417475728154" height="126.90000000000003" fill="#3f8aff" rx="2" ry="2"/><path class="bar-top" d="                 M0,343.09999999999997                 L15,328.09999999999997                 L51.019417475728154,328.09999999999997                 L36.019417475728154,343.09999999999997                 Z             " fill="rgb(68, 148, 255)"/><path class="bar-right" d="                 M36.019417475728154,343.09999999999997                 L51.019417475728154,328.09999999999997                 L51.019417475728154,455                 L36.019417475728154,470                 Z             " fill="rgb(59, 128, 237)"/></g><g class="bar-group" transform="translate(118.34951456310681, 0)"><rect class="bar-front" x="0" y="402.32" width="36.019417475728154" height="67.68" fill="#3f8aff" rx="2" ry="2"/><path class="bar-top" d="                 M0,402.32                 L15,387.32                 L51.019417475728154,387.32                 L36.019417475728154,402.32                 Z             " fill="rgb(68, 148, 255)"/><path class="bar-right" d="                 M36.019417475728154,402.32                 L51.019417475728154,387.32                 L51.019417475728154,455                 L36.019417475728154,470                 Z             " fill="rgb(59, 128, 237)"/></g><g class="bar-group" transform="translate(169.80582524271847, 0)"><rect class="bar-front" x="0" y="359.08" width="36.019417475728154" height="110.92000000000002" fill="#3f8aff" rx="2" ry="2"/><path class="bar-top" d="                 M0,359.08                 L15,344.08                 L51.019417475728154,344.08                 L36.019417475728154,359.08                 Z             " fill="rgb(68, 148, 255)"/><path class="bar-right" d="                 M36.019417475728154,359.08                 L51.019417475728154,344.08                 L51.019417475728154,455                 L36.019417475728154,470                 Z             " fill="rgb(59, 128, 237)"/></g><g class="bar-group" transform="translate(221.26213592233012, 0)"><rect class="bar-front" x="0" y="427.7" width="36.019417475728154" height="42.30000000000001" fill="#3f8aff" rx="2" ry="2"/><path class="bar-top" d="                 M0,427.7                 L15,412.7                 L51.019417475728154,412.7                 L36.019417475728154,427.7                 Z             " fill="rgb(68, 148, 255)"/><path class="bar-right" d="                 M36.019417475728154,427.7                 L51.019417475728154,412.7                 L51.019417475728154,455                 L36.019417475728154,470                 Z             " fill="rgb(59, 128, 237)"/></g><g class="bar-group" transform="translate(272.71844660194176, 0)"><rect class="bar-front" x="0" y="450.26" width="36.019417475728154" height="19.74000000000001" fill="#3f8aff" rx="2" ry="2"/><path class="bar-top" d="                 M0,450.26                 L15,435.26                 L51.019417475728154,435.26                 L36.019417475728154,450.26                 Z             " fill="rgb(68, 148, 255)"/><path class="bar-right" d="                 M36.019417475728154,450.26                 L51.019417475728154,435.26                 L51.019417475728154,455                 L36.019417475728154,470                 Z             " fill="rgb(59, 128, 237)"/></g><g class="bar-group" transform="translate(324.1747572815534, 0)"><rect class="bar-front" x="0" y="462.48" width="36.019417475728154" height="7.519999999999982" fill="#3f8aff" rx="2" ry="2"/><path class="bar-top" d="                 M0,462.48                 L15,447.48                 L51.019417475728154,447.48                 L36.019417475728154,462.48                 Z             " fill="rgb(68, 148, 255)"/><path class="bar-right" d="                 M36.019417475728154,462.48                 L51.019417475728154,447.48                 L51.019417475728154,455                 L36.019417475728154,470                 Z             " fill="rgb(59, 128, 237)"/></g><g class="bar-group" transform="translate(375.63106796116506, 0)"><rect class="bar-front" x="0" y="461.54" width="36.019417475728154" height="8.45999999999998" fill="#3f8aff" rx="2" ry="2"/><path class="bar-top" d="                 M0,461.54                 L15,446.54                 L51.019417475728154,446.54                 L36.019417475728154,461.54                 Z             " fill="rgb(68, 148, 255)"/><path class="bar-right" d="                 M36.019417475728154,461.54                 L51.019417475728154,446.54                 L51.019417475728154,455                 L36.019417475728154,470                 Z             " fill="rgb(59, 128, 237)"/></g><g class="bar-group" transform="translate(427.0873786407767, 0)"><rect class="bar-front" x="0" y="467.18" width="36.019417475728154" height="2.819999999999993" fill="#3f8aff" rx="2" ry="2"/><path class="bar-top" d="                 M0,467.18                 L15,452.18                 L51.019417475728154,452.18                 L36.019417475728154,467.18                 Z             " fill="rgb(68, 148, 255)"/><path class="bar-right" d="                 M36.019417475728154,467.18                 L51.019417475728154,452.18                 L51.019417475728154,455                 L36.019417475728154,470                 Z             " fill="rgb(59, 128, 237)"/></g><g class="bar-group" transform="translate(478.54368932038835, 0)"><rect class="bar-front" x="0" y="468.12" width="36.019417475728154" height="1.8799999999999955" fill="#3f8aff" rx="2" ry="2"/><path class="bar-top" d="                 M0,468.12                 L15,453.12                 L51.019417475728154,453.12                 L36.019417475728154,468.12                 Z             " fill="rgb(68, 148, 255)"/><path class="bar-right" d="                 M36.019417475728154,468.12                 L51.019417475728154,453.12                 L51.019417475728154,455                 L36.019417475728154,470                 Z             " fill="rgb(59, 128, 237)"/></g><text class="label" x="33.44660194174757" y="-6.1999999999999815" text-anchor="middle" style="font-family: Arial; font-size: 16px; fill: rgb(65, 65, 65); opacity: 1;">48 b</text><text class="label" x="84.90291262135922" y="318.09999999999997" text-anchor="middle" style="font-family: Arial; font-size: 16px; fill: rgb(65, 65, 65); opacity: 1;">13.5 b</text><text class="label" x="136.35922330097088" y="377.32" text-anchor="middle" style="font-family: Arial; font-size: 16px; fill: rgb(65, 65, 65); opacity: 1;">7.2 b</text><text class="label" x="187.81553398058256" y="334.08" text-anchor="middle" style="font-family: Arial; font-size: 16px; fill: rgb(65, 65, 65); opacity: 1;">11.8 b</text><text class="label" x="239.2718446601942" y="402.7" text-anchor="middle" style="font-family: Arial; font-size: 16px; fill: rgb(65, 65, 65); opacity: 1;">4.5 b</text><text class="label" x="290.7281553398058" y="425.26" text-anchor="middle" style="font-family: Arial; font-size: 16px; fill: rgb(65, 65, 65); opacity: 1;">2.1 b</text><text class="label" x="342.18446601941747" y="437.48" text-anchor="middle" style="font-family: Arial; font-size: 16px; fill: rgb(65, 65, 65); opacity: 1;">0.8 b</text><text class="label" x="393.6407766990291" y="436.54" text-anchor="middle" style="font-family: Arial; font-size: 16px; fill: rgb(65, 65, 65); opacity: 1;">0.9 b</text><text class="label" x="445.09708737864077" y="442.18" text-anchor="middle" style="font-family: Arial; font-size: 16px; fill: rgb(65, 65, 65); opacity: 1;">0.3 b</text><text class="label" x="496.5533980582524" y="443.12" text-anchor="middle" style="font-family: Arial; font-size: 16px; fill: rgb(65, 65, 65); opacity: 1;">0.2 b</text></g>         </g></svg>