<svg xmlns='http://www.w3.org/2000/svg' xmlns:xlink='http://www.w3.org/1999/xlink' width='504' height='399'>
        <g transform='translate(-60.0, -81.2)'>             <defs xmlns="http://www.w3.org/2000/svg" xmlns:xlink="http://www.w3.org/1999/xlink"/><g xmlns="http://www.w3.org/2000/svg" xmlns:xlink="http://www.w3.org/1999/xlink" transform="translate(60, 60)"><path class="bar" d="M0,387.881L0.17,387.707C0.34,387.532,0.68,387.184,1.02,386.761C1.36,386.339,1.7,385.844,2.04,385.25C2.38,384.657,2.72,383.966,3.06,383.147C3.4,382.328,3.74,381.381,4.08,380.271C4.42,379.162,4.76,377.889,5.1,376.413C5.44,374.937,5.78,373.258,6.12,371.331C6.46,369.404,6.8,367.23,7.14,364.763C7.48,362.295,7.82,359.534,8.16,356.435C8.5,353.336,8.84,349.898,9.18,346.081C9.52,342.264,9.86,338.068,10.2,333.461C10.54,328.855,10.88,323.838,11.22,318.392C11.56,312.947,11.9,307.073,12.24,300.773C12.58,294.472,12.92,287.745,13.26,280.615C13.6,273.485,13.94,265.953,14.28,258.071C14.62,250.188,14.96,241.955,15.3,233.452C15.64,224.949,15.98,216.176,16.32,207.242C16.66,198.307,17,189.212,17.34,180.091C17.68,170.97,18.02,161.823,18.36,152.804C18.7,143.786,19.04,134.896,19.38,126.302C19.72,117.709,20.06,109.411,20.4,101.578C20.74,93.745,21.08,86.377,21.42,79.634C21.76,72.891,22.1,66.772,22.44,61.418C22.78,56.064,23.12,51.474,23.46,47.756C23.8,44.038,24.14,41.193,24.48,39.288C24.82,37.383,25.16,36.419,25.5,36.419C25.84,36.419,26.18,37.383,26.52,39.288C26.86,41.193,27.2,44.038,27.54,47.756C27.88,51.474,28.22,56.064,28.56,61.418C28.9,66.772,29.24,72.891,29.58,79.634C29.92,86.377,30.26,93.745,30.6,101.578C30.94,109.411,31.28,117.709,31.62,126.302C31.96,134.896,32.3,143.786,32.64,152.804C32.98,161.823,33.32,170.97,33.66,180.091C34,189.212,34.34,198.307,34.68,207.242C35.02,216.176,35.36,224.949,35.7,233.452C36.04,241.955,36.38,250.188,36.72,258.071C37.06,265.953,37.4,273.485,37.74,280.615C38.08,287.745,38.42,294.472,38.76,300.773C39.1,307.073,39.44,312.947,39.78,318.392C40.12,323.838,40.46,328.855,40.8,333.461C41.14,338.068,41.48,342.264,41.82,346.081C42.16,349.898,42.5,353.336,42.84,356.435C43.18,359.534,43.52,362.295,43.86,364.763C44.2,367.23,44.54,369.404,44.88,371.331C45.22,373.258,45.56,374.937,45.9,376.413C46.24,377.889,46.58,379.162,46.92,380.271C47.26,381.381,47.6,382.328,47.94,383.147C48.28,383.966,48.62,384.657,48.96,385.25C49.3,385.844,49.64,386.339,49.98,386.761C50.32,387.184,50.66,387.532,50.83,387.707L51,387.881L51,390L50.83,390C50.66,390,50.32,390,49.98,390C49.64,390,49.3,390,48.96,390C48.62,390,48.28,390,47.94,390C47.6,390,47.26,390,46.92,390C46.58,390,46.24,390,45.9,390C45.56,390,45.22,390,44.88,390C44.54,390,44.2,390,43.86,390C43.52,390,43.18,390,42.84,390C42.5,390,42.16,390,41.82,390C41.48,390,41.14,390,40.8,390C40.46,390,40.12,390,39.78,390C39.44,390,39.1,390,38.76,390C38.42,390,38.08,390,37.74,390C37.4,390,37.06,390,36.72,390C36.38,390,36.04,390,35.7,390C35.36,390,35.02,390,34.68,390C34.34,390,34,390,33.66,390C33.32,390,32.98,390,32.64,390C32.3,390,31.96,390,31.62,390C31.28,390,30.94,390,30.6,390C30.26,390,29.92,390,29.58,390C29.24,390,28.9,390,28.56,390C28.22,390,27.88,390,27.54,390C27.2,390,26.86,390,26.52,390C26.18,390,25.84,390,25.5,390C25.16,390,24.82,390,24.48,390C24.14,390,23.8,390,23.46,390C23.12,390,22.78,390,22.44,390C22.1,390,21.76,390,21.42,390C21.08,390,20.74,390,20.4,390C20.06,390,19.72,390,19.38,390C19.04,390,18.7,390,18.36,390C18.02,390,17.68,390,17.34,390C17,390,16.66,390,16.32,390C15.98,390,15.64,390,15.3,390C14.96,390,14.62,390,14.28,390C13.94,390,13.6,390,13.26,390C12.92,390,12.58,390,12.24,390C11.9,390,11.56,390,11.22,390C10.88,390,10.54,390,10.2,390C9.86,390,9.52,390,9.18,390C8.84,390,8.5,390,8.16,390C7.82,390,7.48,390,7.14,390C6.8,390,6.46,390,6.12,390C5.78,390,5.44,390,5.1,390C4.76,390,4.42,390,4.08,390C3.74,390,3.4,390,3.06,390C2.72,390,2.38,390,2.04,390C1.7,390,1.36,390,1.02,390C0.68,390,0.34,390,0.17,390L0,390Z" fill="#3f8aff" rx="0" ry="0" style="stroke: none; stroke-width: 0; filter: none;"/><path class="bar" d="M51,389.404L51.17,389.355C51.34,389.306,51.68,389.208,52.02,389.089C52.36,388.97,52.7,388.831,53.04,388.664C53.38,388.497,53.72,388.303,54.06,388.073C54.4,387.842,54.74,387.576,55.08,387.264C55.42,386.952,55.76,386.594,56.1,386.179C56.44,385.764,56.78,385.291,57.12,384.749C57.46,384.207,57.8,383.596,58.14,382.902C58.48,382.208,58.82,381.432,59.16,380.56C59.5,379.688,59.84,378.721,60.18,377.648C60.52,376.574,60.86,375.394,61.2,374.098C61.54,372.803,61.88,371.392,62.22,369.86C62.56,368.329,62.9,366.677,63.24,364.905C63.58,363.133,63.92,361.241,64.26,359.236C64.6,357.23,64.94,355.112,65.28,352.895C65.62,350.678,65.96,348.362,66.3,345.971C66.64,343.579,66.98,341.112,67.32,338.599C67.66,336.086,68,333.528,68.34,330.963C68.68,328.398,69.02,325.825,69.36,323.289C69.7,320.752,70.04,318.252,70.38,315.835C70.72,313.418,71.06,311.084,71.4,308.881C71.74,306.678,72.08,304.606,72.42,302.709C72.76,300.813,73.1,299.092,73.44,297.586C73.78,296.081,74.12,294.79,74.46,293.744C74.8,292.698,75.14,291.898,75.48,291.362C75.82,290.826,76.16,290.555,76.5,290.555C76.84,290.555,77.18,290.826,77.52,291.362C77.86,291.898,78.2,292.698,78.54,293.744C78.88,294.79,79.22,296.081,79.56,297.586C79.9,299.092,80.24,300.813,80.58,302.709C80.92,304.606,81.26,306.678,81.6,308.881C81.94,311.084,82.28,313.418,82.62,315.835C82.96,318.252,83.3,320.752,83.64,323.289C83.98,325.825,84.32,328.398,84.66,330.963C85,333.528,85.34,336.086,85.68,338.599C86.02,341.112,86.36,343.579,86.7,345.971C87.04,348.362,87.38,350.678,87.72,352.895C88.06,355.112,88.4,357.23,88.74,359.236C89.08,361.241,89.42,363.133,89.76,364.905C90.1,366.677,90.44,368.329,90.78,369.86C91.12,371.392,91.46,372.803,91.8,374.098C92.14,375.394,92.48,376.574,92.82,377.648C93.16,378.721,93.5,379.688,93.84,380.56C94.18,381.432,94.52,382.208,94.86,382.902C95.2,383.596,95.54,384.207,95.88,384.749C96.22,385.291,96.56,385.764,96.9,386.179C97.24,386.594,97.58,386.952,97.92,387.264C98.26,387.576,98.6,387.842,98.94,388.073C99.28,388.303,99.62,388.497,99.96,388.664C100.3,388.831,100.64,388.97,100.98,389.089C101.32,389.208,101.66,389.306,101.83,389.355L102,389.404L102,390L101.83,390C101.66,390,101.32,390,100.98,390C100.64,390,100.3,390,99.96,390C99.62,390,99.28,390,98.94,390C98.6,390,98.26,390,97.92,390C97.58,390,97.24,390,96.9,390C96.56,390,96.22,390,95.88,390C95.54,390,95.2,390,94.86,390C94.52,390,94.18,390,93.84,390C93.5,390,93.16,390,92.82,390C92.48,390,92.14,390,91.8,390C91.46,390,91.12,390,90.78,390C90.44,390,90.1,390,89.76,390C89.42,390,89.08,390,88.74,390C88.4,390,88.06,390,87.72,390C87.38,390,87.04,390,86.7,390C86.36,390,86.02,390,85.68,390C85.34,390,85,390,84.66,390C84.32,390,83.98,390,83.64,390C83.3,390,82.96,390,82.62,390C82.28,390,81.94,390,81.6,390C81.26,390,80.92,390,80.58,390C80.24,390,79.9,390,79.56,390C79.22,390,78.88,390,78.54,390C78.2,390,77.86,390,77.52,390C77.18,390,76.84,390,76.5,390C76.16,390,75.82,390,75.48,390C75.14,390,74.8,390,74.46,390C74.12,390,73.78,390,73.44,390C73.1,390,72.76,390,72.42,390C72.08,390,71.74,390,71.4,390C71.06,390,70.72,390,70.38,390C70.04,390,69.7,390,69.36,390C69.02,390,68.68,390,68.34,390C68,390,67.66,390,67.32,390C66.98,390,66.64,390,66.3,390C65.96,390,65.62,390,65.28,390C64.94,390,64.6,390,64.26,390C63.92,390,63.58,390,63.24,390C62.9,390,62.56,390,62.22,390C61.88,390,61.54,390,61.2,390C60.86,390,60.52,390,60.18,390C59.84,390,59.5,390,59.16,390C58.82,390,58.48,390,58.14,390C57.8,390,57.46,390,57.12,390C56.78,390,56.44,390,56.1,390C55.76,390,55.42,390,55.08,390C54.74,390,54.4,390,54.06,390C53.72,390,53.38,390,53.04,390C52.7,390,52.36,390,52.02,390C51.68,390,51.34,390,51.17,390L51,390Z" fill="#3f8aff" rx="0" ry="0" style="stroke: none; stroke-width: 0; filter: none;"/><path class="bar" d="M102,389.479L102.17,389.436C102.34,389.393,102.68,389.308,103.02,389.204C103.36,389.1,103.7,388.978,104.04,388.832C104.38,388.686,104.72,388.517,105.06,388.315C105.4,388.114,105.74,387.881,106.08,387.608C106.42,387.336,106.76,387.023,107.1,386.66C107.44,386.297,107.78,385.884,108.12,385.411C108.46,384.937,108.8,384.402,109.14,383.796C109.48,383.189,109.82,382.511,110.16,381.749C110.5,380.987,110.84,380.142,111.18,379.203C111.52,378.265,111.86,377.233,112.2,376.101C112.54,374.968,112.88,373.735,113.22,372.396C113.56,371.058,113.9,369.614,114.24,368.065C114.58,366.516,114.92,364.862,115.26,363.11C115.6,361.357,115.94,359.505,116.28,357.567C116.62,355.63,116.96,353.606,117.3,351.515C117.64,349.425,117.98,347.268,118.32,345.072C118.66,342.876,119,340.64,119.34,338.397C119.68,336.155,120.02,333.906,120.36,331.689C120.7,329.472,121.04,327.287,121.38,325.174C121.72,323.062,122.06,321.022,122.4,319.096C122.74,317.171,123.08,315.359,123.42,313.702C123.76,312.044,124.1,310.54,124.44,309.224C124.78,307.907,125.12,306.779,125.46,305.865C125.8,304.951,126.14,304.252,126.48,303.783C126.82,303.315,127.16,303.078,127.5,303.078C127.84,303.078,128.18,303.315,128.52,303.783C128.86,304.252,129.2,304.951,129.54,305.865C129.88,306.779,130.22,307.907,130.56,309.224C130.9,310.54,131.24,312.044,131.58,313.702C131.92,315.359,132.26,317.171,132.6,319.096C132.94,321.022,133.28,323.062,133.62,325.174C133.96,327.287,134.3,329.472,134.64,331.689C134.98,333.906,135.32,336.155,135.66,338.397C136,340.64,136.34,342.876,136.68,345.072C137.02,347.268,137.36,349.425,137.7,351.515C138.04,353.606,138.38,355.63,138.72,357.567C139.06,359.505,139.4,361.357,139.74,363.11C140.08,364.862,140.42,366.516,140.76,368.065C141.1,369.614,141.44,371.058,141.78,372.396C142.12,373.735,142.46,374.968,142.8,376.101C143.14,377.233,143.48,378.265,143.82,379.203C144.16,380.142,144.5,380.987,144.84,381.749C145.18,382.511,145.52,383.189,145.86,383.796C146.2,384.402,146.54,384.937,146.88,385.411C147.22,385.884,147.56,386.297,147.9,386.66C148.24,387.023,148.58,387.336,148.92,387.608C149.26,387.881,149.6,388.114,149.94,388.315C150.28,388.517,150.62,388.686,150.96,388.832C151.3,388.978,151.64,389.1,151.98,389.204C152.32,389.308,152.66,389.393,152.83,389.436L153,389.479L153,390L152.83,390C152.66,390,152.32,390,151.98,390C151.64,390,151.3,390,150.96,390C150.62,390,150.28,390,149.94,390C149.6,390,149.26,390,148.92,390C148.58,390,148.24,390,147.9,390C147.56,390,147.22,390,146.88,390C146.54,390,146.2,390,145.86,390C145.52,390,145.18,390,144.84,390C144.5,390,144.16,390,143.82,390C143.48,390,143.14,390,142.8,390C142.46,390,142.12,390,141.78,390C141.44,390,141.1,390,140.76,390C140.42,390,140.08,390,139.74,390C139.4,390,139.06,390,138.72,390C138.38,390,138.04,390,137.7,390C137.36,390,137.02,390,136.68,390C136.34,390,136,390,135.66,390C135.32,390,134.98,390,134.64,390C134.3,390,133.96,390,133.62,390C133.28,390,132.94,390,132.6,390C132.26,390,131.92,390,131.58,390C131.24,390,130.9,390,130.56,390C130.22,390,129.88,390,129.54,390C129.2,390,128.86,390,128.52,390C128.18,390,127.84,390,127.5,390C127.16,390,126.82,390,126.48,390C126.14,390,125.8,390,125.46,390C125.12,390,124.78,390,124.44,390C124.1,390,123.76,390,123.42,390C123.08,390,122.74,390,122.4,390C122.06,390,121.72,390,121.38,390C121.04,390,120.7,390,120.36,390C120.02,390,119.68,390,119.34,390C119,390,118.66,390,118.32,390C117.98,390,117.64,390,117.3,390C116.96,390,116.62,390,116.28,390C115.94,390,115.6,390,115.26,390C114.92,390,114.58,390,114.24,390C113.9,390,113.56,390,113.22,390C112.88,390,112.54,390,112.2,390C111.86,390,111.52,390,111.18,390C110.84,390,110.5,390,110.16,390C109.82,390,109.48,390,109.14,390C108.8,390,108.46,390,108.12,390C107.78,390,107.44,390,107.1,390C106.76,390,106.42,390,106.08,390C105.74,390,105.4,390,105.06,390C104.72,390,104.38,390,104.04,390C103.7,390,103.36,390,103.02,390C102.68,390,102.34,390,102.17,390L102,390Z" fill="#3f8aff" rx="0" ry="0" style="stroke: none; stroke-width: 0; filter: none;"/><path class="bar" d="M153,389.682L153.17,389.656C153.34,389.63,153.68,389.578,154.02,389.514C154.36,389.451,154.7,389.377,155.04,389.288C155.38,389.199,155.72,389.095,156.06,388.972C156.4,388.849,156.74,388.707,157.08,388.541C157.42,388.374,157.76,388.183,158.1,387.962C158.44,387.741,158.78,387.489,159.12,387.2C159.46,386.911,159.8,386.585,160.14,386.214C160.48,385.844,160.82,385.43,161.16,384.965C161.5,384.5,161.84,383.985,162.18,383.412C162.52,382.84,162.86,382.21,163.2,381.519C163.54,380.828,163.88,380.076,164.22,379.259C164.56,378.442,164.9,377.561,165.24,376.616C165.58,375.671,165.92,374.662,166.26,373.592C166.6,372.523,166.94,371.393,167.28,370.211C167.62,369.028,167.96,367.793,168.3,366.518C168.64,365.242,168.98,363.926,169.32,362.586C169.66,361.246,170,359.882,170.34,358.514C170.68,357.146,171.02,355.773,171.36,354.421C171.7,353.068,172.04,351.734,172.38,350.445C172.72,349.156,173.06,347.912,173.4,346.737C173.74,345.562,174.08,344.457,174.42,343.445C174.76,342.434,175.1,341.516,175.44,340.713C175.78,339.91,176.12,339.221,176.46,338.663C176.8,338.106,177.14,337.679,177.48,337.393C177.82,337.107,178.16,336.963,178.5,336.963C178.84,336.963,179.18,337.107,179.52,337.393C179.86,337.679,180.2,338.106,180.54,338.663C180.88,339.221,181.22,339.91,181.56,340.713C181.9,341.516,182.24,342.434,182.58,343.445C182.92,344.457,183.26,345.562,183.6,346.737C183.94,347.912,184.28,349.156,184.62,350.445C184.96,351.734,185.3,353.068,185.64,354.421C185.98,355.773,186.32,357.146,186.66,358.514C187,359.882,187.34,361.246,187.68,362.586C188.02,363.926,188.36,365.242,188.7,366.518C189.04,367.793,189.38,369.028,189.72,370.211C190.06,371.393,190.4,372.523,190.74,373.592C191.08,374.662,191.42,375.671,191.76,376.616C192.1,377.561,192.44,378.442,192.78,379.259C193.12,380.076,193.46,380.828,193.8,381.519C194.14,382.21,194.48,382.84,194.82,383.412C195.16,383.985,195.5,384.5,195.84,384.965C196.18,385.43,196.52,385.844,196.86,386.214C197.2,386.585,197.54,386.911,197.88,387.2C198.22,387.489,198.56,387.741,198.9,387.962C199.24,388.183,199.58,388.374,199.92,388.541C200.26,388.707,200.6,388.849,200.94,388.972C201.28,389.095,201.62,389.199,201.96,389.288C202.3,389.377,202.64,389.451,202.98,389.514C203.32,389.578,203.66,389.63,203.83,389.656L204,389.682L204,390L203.83,390C203.66,390,203.32,390,202.98,390C202.64,390,202.3,390,201.96,390C201.62,390,201.28,390,200.94,390C200.6,390,200.26,390,199.92,390C199.58,390,199.24,390,198.9,390C198.56,390,198.22,390,197.88,390C197.54,390,197.2,390,196.86,390C196.52,390,196.18,390,195.84,390C195.5,390,195.16,390,194.82,390C194.48,390,194.14,390,193.8,390C193.46,390,193.12,390,192.78,390C192.44,390,192.1,390,191.76,390C191.42,390,191.08,390,190.74,390C190.4,390,190.06,390,189.72,390C189.38,390,189.04,390,188.7,390C188.36,390,188.02,390,187.68,390C187.34,390,187,390,186.66,390C186.32,390,185.98,390,185.64,390C185.3,390,184.96,390,184.62,390C184.28,390,183.94,390,183.6,390C183.26,390,182.92,390,182.58,390C182.24,390,181.9,390,181.56,390C181.22,390,180.88,390,180.54,390C180.2,390,179.86,390,179.52,390C179.18,390,178.84,390,178.5,390C178.16,390,177.82,390,177.48,390C177.14,390,176.8,390,176.46,390C176.12,390,175.78,390,175.44,390C175.1,390,174.76,390,174.42,390C174.08,390,173.74,390,173.4,390C173.06,390,172.72,390,172.38,390C172.04,390,171.7,390,171.36,390C171.02,390,170.68,390,170.34,390C170,390,169.66,390,169.32,390C168.98,390,168.64,390,168.3,390C167.96,390,167.62,390,167.28,390C166.94,390,166.6,390,166.26,390C165.92,390,165.58,390,165.24,390C164.9,390,164.56,390,164.22,390C163.88,390,163.54,390,163.2,390C162.86,390,162.52,390,162.18,390C161.84,390,161.5,390,161.16,390C160.82,390,160.48,390,160.14,390C159.8,390,159.46,390,159.12,390C158.78,390,158.44,390,158.1,390C157.76,390,157.42,390,157.08,390C156.74,390,156.4,390,156.06,390C155.72,390,155.38,390,155.04,390C154.7,390,154.36,390,154.02,390C153.68,390,153.34,390,153.17,390L153,390Z" fill="#3f8aff" rx="0" ry="0" style="stroke: none; stroke-width: 0; filter: none;"/><path class="bar" d="M204,389.801L204.17,389.785C204.34,389.769,204.68,389.736,205.02,389.696C205.36,389.657,205.7,389.61,206.04,389.555C206.38,389.499,206.72,389.434,207.06,389.358C207.4,389.281,207.74,389.192,208.08,389.088C208.42,388.984,208.76,388.865,209.1,388.726C209.44,388.588,209.78,388.43,210.12,388.25C210.46,388.069,210.8,387.865,211.14,387.634C211.48,387.403,211.82,387.144,212.16,386.853C212.5,386.563,212.84,386.24,213.18,385.883C213.52,385.525,213.86,385.131,214.2,384.699C214.54,384.268,214.88,383.797,215.22,383.287C215.56,382.776,215.9,382.226,216.24,381.635C216.58,381.044,216.92,380.414,217.26,379.745C217.6,379.077,217.94,378.371,218.28,377.632C218.62,376.893,218.96,376.121,219.3,375.324C219.64,374.526,219.98,373.704,220.32,372.866C220.66,372.029,221,371.176,221.34,370.321C221.68,369.466,222.02,368.608,222.36,367.763C222.7,366.917,223.04,366.084,223.38,365.278C223.72,364.473,224.06,363.695,224.4,362.96C224.74,362.226,225.08,361.535,225.42,360.903C225.76,360.271,226.1,359.697,226.44,359.195C226.78,358.694,227.12,358.263,227.46,357.915C227.8,357.566,228.14,357.299,228.48,357.121C228.82,356.942,229.16,356.852,229.5,356.852C229.84,356.852,230.18,356.942,230.52,357.121C230.86,357.299,231.2,357.566,231.54,357.915C231.88,358.263,232.22,358.694,232.56,359.195C232.9,359.697,233.24,360.271,233.58,360.903C233.92,361.535,234.26,362.226,234.6,362.96C234.94,363.695,235.28,364.473,235.62,365.278C235.96,366.084,236.3,366.917,236.64,367.763C236.98,368.608,237.32,369.466,237.66,370.321C238,371.176,238.34,372.029,238.68,372.866C239.02,373.704,239.36,374.526,239.7,375.324C240.04,376.121,240.38,376.893,240.72,377.632C241.06,378.371,241.4,379.077,241.74,379.745C242.08,380.414,242.42,381.044,242.76,381.635C243.1,382.226,243.44,382.776,243.78,383.287C244.12,383.797,244.46,384.268,244.8,384.699C245.14,385.131,245.48,385.525,245.82,385.883C246.16,386.24,246.5,386.563,246.84,386.853C247.18,387.144,247.52,387.403,247.86,387.634C248.2,387.865,248.54,388.069,248.88,388.25C249.22,388.43,249.56,388.588,249.9,388.726C250.24,388.865,250.58,388.984,250.92,389.088C251.26,389.192,251.6,389.281,251.94,389.358C252.28,389.434,252.62,389.499,252.96,389.555C253.3,389.61,253.64,389.657,253.98,389.696C254.32,389.736,254.66,389.769,254.83,389.785L255,389.801L255,390L254.83,390C254.66,390,254.32,390,253.98,390C253.64,390,253.3,390,252.96,390C252.62,390,252.28,390,251.94,390C251.6,390,251.26,390,250.92,390C250.58,390,250.24,390,249.9,390C249.56,390,249.22,390,248.88,390C248.54,390,248.2,390,247.86,390C247.52,390,247.18,390,246.84,390C246.5,390,246.16,390,245.82,390C245.48,390,245.14,390,244.8,390C244.46,390,244.12,390,243.78,390C243.44,390,243.1,390,242.76,390C242.42,390,242.08,390,241.74,390C241.4,390,241.06,390,240.72,390C240.38,390,240.04,390,239.7,390C239.36,390,239.02,390,238.68,390C238.34,390,238,390,237.66,390C237.32,390,236.98,390,236.64,390C236.3,390,235.96,390,235.62,390C235.28,390,234.94,390,234.6,390C234.26,390,233.92,390,233.58,390C233.24,390,232.9,390,232.56,390C232.22,390,231.88,390,231.54,390C231.2,390,230.86,390,230.52,390C230.18,390,229.84,390,229.5,390C229.16,390,228.82,390,228.48,390C228.14,390,227.8,390,227.46,390C227.12,390,226.78,390,226.44,390C226.1,390,225.76,390,225.42,390C225.08,390,224.74,390,224.4,390C224.06,390,223.72,390,223.38,390C223.04,390,222.7,390,222.36,390C222.02,390,221.68,390,221.34,390C221,390,220.66,390,220.32,390C219.98,390,219.64,390,219.3,390C218.96,390,218.62,390,218.28,390C217.94,390,217.6,390,217.26,390C216.92,390,216.58,390,216.24,390C215.9,390,215.56,390,215.22,390C214.88,390,214.54,390,214.2,390C213.86,390,213.52,390,213.18,390C212.84,390,212.5,390,212.16,390C211.82,390,211.48,390,211.14,390C210.8,390,210.46,390,210.12,390C209.78,390,209.44,390,209.1,390C208.76,390,208.42,390,208.08,390C207.74,390,207.4,390,207.06,390C206.72,390,206.38,390,206.04,390C205.7,390,205.36,390,205.02,390C204.68,390,204.34,390,204.17,390L204,390Z" fill="#3f8aff" rx="0" ry="0" style="stroke: none; stroke-width: 0; filter: none;"/><path class="bar" d="M255,389.907L255.17,389.9C255.34,389.892,255.68,389.877,256.02,389.858C256.36,389.84,256.7,389.818,257.04,389.792C257.38,389.766,257.72,389.736,258.06,389.7C258.4,389.664,258.74,389.623,259.08,389.574C259.42,389.526,259.76,389.47,260.1,389.406C260.44,389.341,260.78,389.268,261.12,389.183C261.46,389.099,261.8,389.004,262.14,388.896C262.48,388.788,262.82,388.667,263.16,388.532C263.5,388.396,263.84,388.246,264.18,388.079C264.52,387.912,264.86,387.728,265.2,387.526C265.54,387.325,265.88,387.105,266.22,386.867C266.56,386.629,266.9,386.372,267.24,386.096C267.58,385.821,267.92,385.526,268.26,385.214C268.6,384.902,268.94,384.573,269.28,384.228C269.62,383.883,269.96,383.523,270.3,383.151C270.64,382.779,270.98,382.395,271.32,382.004C271.66,381.613,272,381.216,272.34,380.816C272.68,380.417,273.02,380.017,273.36,379.623C273.7,379.228,274.04,378.839,274.38,378.463C274.72,378.087,275.06,377.724,275.4,377.382C275.74,377.039,276.08,376.716,276.42,376.421C276.76,376.126,277.1,375.859,277.44,375.625C277.78,375.39,278.12,375.189,278.46,375.027C278.8,374.864,279.14,374.74,279.48,374.656C279.82,374.573,280.16,374.531,280.5,374.531C280.84,374.531,281.18,374.573,281.52,374.656C281.86,374.74,282.2,374.864,282.54,375.027C282.88,375.189,283.22,375.39,283.56,375.625C283.9,375.859,284.24,376.126,284.58,376.421C284.92,376.716,285.26,377.039,285.6,377.382C285.94,377.724,286.28,378.087,286.62,378.463C286.96,378.839,287.3,379.228,287.64,379.623C287.98,380.017,288.32,380.417,288.66,380.816C289,381.216,289.34,381.613,289.68,382.004C290.02,382.395,290.36,382.779,290.7,383.151C291.04,383.523,291.38,383.883,291.72,384.228C292.06,384.573,292.4,384.902,292.74,385.214C293.08,385.526,293.42,385.821,293.76,386.096C294.1,386.372,294.44,386.629,294.78,386.867C295.12,387.105,295.46,387.325,295.8,387.526C296.14,387.728,296.48,387.912,296.82,388.079C297.16,388.246,297.5,388.396,297.84,388.532C298.18,388.667,298.52,388.788,298.86,388.896C299.2,389.004,299.54,389.099,299.88,389.183C300.22,389.268,300.56,389.341,300.9,389.406C301.24,389.47,301.58,389.526,301.92,389.574C302.26,389.623,302.6,389.664,302.94,389.7C303.28,389.736,303.62,389.766,303.96,389.792C304.3,389.818,304.64,389.84,304.98,389.858C305.32,389.877,305.66,389.892,305.83,389.9L306,389.907L306,390L305.83,390C305.66,390,305.32,390,304.98,390C304.64,390,304.3,390,303.96,390C303.62,390,303.28,390,302.94,390C302.6,390,302.26,390,301.92,390C301.58,390,301.24,390,300.9,390C300.56,390,300.22,390,299.88,390C299.54,390,299.2,390,298.86,390C298.52,390,298.18,390,297.84,390C297.5,390,297.16,390,296.82,390C296.48,390,296.14,390,295.8,390C295.46,390,295.12,390,294.78,390C294.44,390,294.1,390,293.76,390C293.42,390,293.08,390,292.74,390C292.4,390,292.06,390,291.72,390C291.38,390,291.04,390,290.7,390C290.36,390,290.02,390,289.68,390C289.34,390,289,390,288.66,390C288.32,390,287.98,390,287.64,390C287.3,390,286.96,390,286.62,390C286.28,390,285.94,390,285.6,390C285.26,390,284.92,390,284.58,390C284.24,390,283.9,390,283.56,390C283.22,390,282.88,390,282.54,390C282.2,390,281.86,390,281.52,390C281.18,390,280.84,390,280.5,390C280.16,390,279.82,390,279.48,390C279.14,390,278.8,390,278.46,390C278.12,390,277.78,390,277.44,390C277.1,390,276.76,390,276.42,390C276.08,390,275.74,390,275.4,390C275.06,390,274.72,390,274.38,390C274.04,390,273.7,390,273.36,390C273.02,390,272.68,390,272.34,390C272,390,271.66,390,271.32,390C270.98,390,270.64,390,270.3,390C269.96,390,269.62,390,269.28,390C268.94,390,268.6,390,268.26,390C267.92,390,267.58,390,267.24,390C266.9,390,266.56,390,266.22,390C265.88,390,265.54,390,265.2,390C264.86,390,264.52,390,264.18,390C263.84,390,263.5,390,263.16,390C262.82,390,262.48,390,262.14,390C261.8,390,261.46,390,261.12,390C260.78,390,260.44,390,260.1,390C259.76,390,259.42,390,259.08,390C258.74,390,258.4,390,258.06,390C257.72,390,257.38,390,257.04,390C256.7,390,256.36,390,256.02,390C255.68,390,255.34,390,255.17,390L255,390Z" fill="#3f8aff" rx="0" ry="0" style="stroke: none; stroke-width: 0; filter: none;"/><path class="bar" d="M306,389.96L306.17,389.957C306.34,389.954,306.68,389.947,307.02,389.939C307.36,389.931,307.7,389.922,308.04,389.911C308.38,389.9,308.72,389.887,309.06,389.872C309.4,389.856,309.74,389.838,310.08,389.818C310.42,389.797,310.76,389.773,311.1,389.745C311.44,389.718,311.78,389.686,312.12,389.65C312.46,389.614,312.8,389.573,313.14,389.527C313.48,389.481,313.82,389.429,314.16,389.371C314.5,389.313,314.84,389.248,315.18,389.177C315.52,389.105,315.86,389.026,316.2,388.94C316.54,388.854,316.88,388.759,317.22,388.657C317.56,388.555,317.9,388.445,318.24,388.327C318.58,388.209,318.92,388.083,319.26,387.949C319.6,387.815,319.94,387.674,320.28,387.526C320.62,387.379,320.96,387.224,321.3,387.065C321.64,386.905,321.98,386.741,322.32,386.573C322.66,386.406,323,386.235,323.34,386.064C323.68,385.893,324.02,385.722,324.36,385.553C324.7,385.383,325.04,385.217,325.38,385.056C325.72,384.895,326.06,384.739,326.4,384.592C326.74,384.445,327.08,384.307,327.42,384.181C327.76,384.054,328.1,383.939,328.44,383.839C328.78,383.739,329.12,383.653,329.46,383.583C329.8,383.513,330.14,383.46,330.48,383.424C330.82,383.388,331.16,383.37,331.5,383.37C331.84,383.37,332.18,383.388,332.52,383.424C332.86,383.46,333.2,383.513,333.54,383.583C333.88,383.653,334.22,383.739,334.56,383.839C334.9,383.939,335.24,384.054,335.58,384.181C335.92,384.307,336.26,384.445,336.6,384.592C336.94,384.739,337.28,384.895,337.62,385.056C337.96,385.217,338.3,385.383,338.64,385.553C338.98,385.722,339.32,385.893,339.66,386.064C340,386.235,340.34,386.406,340.68,386.573C341.02,386.741,341.36,386.905,341.7,387.065C342.04,387.224,342.38,387.379,342.72,387.526C343.06,387.674,343.4,387.815,343.74,387.949C344.08,388.083,344.42,388.209,344.76,388.327C345.1,388.445,345.44,388.555,345.78,388.657C346.12,388.759,346.46,388.854,346.8,388.94C347.14,389.026,347.48,389.105,347.82,389.177C348.16,389.248,348.5,389.313,348.84,389.371C349.18,389.429,349.52,389.481,349.86,389.527C350.2,389.573,350.54,389.614,350.88,389.65C351.22,389.686,351.56,389.718,351.9,389.745C352.24,389.773,352.58,389.797,352.92,389.818C353.26,389.838,353.6,389.856,353.94,389.872C354.28,389.887,354.62,389.9,354.96,389.911C355.3,389.922,355.64,389.931,355.98,389.939C356.32,389.947,356.66,389.954,356.83,389.957L357,389.96L357,390L356.83,390C356.66,390,356.32,390,355.98,390C355.64,390,355.3,390,354.96,390C354.62,390,354.28,390,353.94,390C353.6,390,353.26,390,352.92,390C352.58,390,352.24,390,351.9,390C351.56,390,351.22,390,350.88,390C350.54,390,350.2,390,349.86,390C349.52,390,349.18,390,348.84,390C348.5,390,348.16,390,347.82,390C347.48,390,347.14,390,346.8,390C346.46,390,346.12,390,345.78,390C345.44,390,345.1,390,344.76,390C344.42,390,344.08,390,343.74,390C343.4,390,343.06,390,342.72,390C342.38,390,342.04,390,341.7,390C341.36,390,341.02,390,340.68,390C340.34,390,340,390,339.66,390C339.32,390,338.98,390,338.64,390C338.3,390,337.96,390,337.62,390C337.28,390,336.94,390,336.6,390C336.26,390,335.92,390,335.58,390C335.24,390,334.9,390,334.56,390C334.22,390,333.88,390,333.54,390C333.2,390,332.86,390,332.52,390C332.18,390,331.84,390,331.5,390C331.16,390,330.82,390,330.48,390C330.14,390,329.8,390,329.46,390C329.12,390,328.78,390,328.44,390C328.1,390,327.76,390,327.42,390C327.08,390,326.74,390,326.4,390C326.06,390,325.72,390,325.38,390C325.04,390,324.7,390,324.36,390C324.02,390,323.68,390,323.34,390C323,390,322.66,390,322.32,390C321.98,390,321.64,390,321.3,390C320.96,390,320.62,390,320.28,390C319.94,390,319.6,390,319.26,390C318.92,390,318.58,390,318.24,390C317.9,390,317.56,390,317.22,390C316.88,390,316.54,390,316.2,390C315.86,390,315.52,390,315.18,390C314.84,390,314.5,390,314.16,390C313.82,390,313.48,390,313.14,390C312.8,390,312.46,390,312.12,390C311.78,390,311.44,390,311.1,390C310.76,390,310.42,390,310.08,390C309.74,390,309.4,390,309.06,390C308.72,390,308.38,390,308.04,390C307.7,390,307.36,390,307.02,390C306.68,390,306.34,390,306.17,390L306,390Z" fill="#3f8aff" rx="0" ry="0" style="stroke: none; stroke-width: 0; filter: none;"/><path class="bar" d="M357,389.965L357.17,389.962C357.34,389.959,357.68,389.953,358.02,389.946C358.36,389.939,358.7,389.931,359.04,389.921C359.38,389.911,359.72,389.899,360.06,389.886C360.4,389.872,360.74,389.856,361.08,389.838C361.42,389.819,361.76,389.798,362.1,389.774C362.44,389.749,362.78,389.721,363.12,389.689C363.46,389.657,363.8,389.621,364.14,389.579C364.48,389.538,364.82,389.492,365.16,389.441C365.5,389.389,365.84,389.332,366.18,389.268C366.52,389.204,366.86,389.134,367.2,389.058C367.54,388.981,367.88,388.897,368.22,388.807C368.56,388.716,368.9,388.618,369.24,388.513C369.58,388.408,369.92,388.296,370.26,388.177C370.6,388.058,370.94,387.933,371.28,387.801C371.62,387.67,371.96,387.533,372.3,387.391C372.64,387.249,372.98,387.103,373.32,386.954C373.66,386.805,374,386.654,374.34,386.502C374.68,386.35,375.02,386.197,375.36,386.047C375.7,385.896,376.04,385.748,376.38,385.605C376.72,385.462,377.06,385.324,377.4,385.193C377.74,385.062,378.08,384.94,378.42,384.827C378.76,384.715,379.1,384.613,379.44,384.524C379.78,384.434,380.12,384.358,380.46,384.296C380.8,384.234,381.14,384.187,381.48,384.155C381.82,384.123,382.16,384.107,382.5,384.107C382.84,384.107,383.18,384.123,383.52,384.155C383.86,384.187,384.2,384.234,384.54,384.296C384.88,384.358,385.22,384.434,385.56,384.524C385.9,384.613,386.24,384.715,386.58,384.827C386.92,384.94,387.26,385.062,387.6,385.193C387.94,385.324,388.28,385.462,388.62,385.605C388.96,385.748,389.3,385.896,389.64,386.047C389.98,386.197,390.32,386.35,390.66,386.502C391,386.654,391.34,386.805,391.68,386.954C392.02,387.103,392.36,387.249,392.7,387.391C393.04,387.533,393.38,387.67,393.72,387.801C394.06,387.933,394.4,388.058,394.74,388.177C395.08,388.296,395.42,388.408,395.76,388.513C396.1,388.618,396.44,388.716,396.78,388.807C397.12,388.897,397.46,388.981,397.8,389.058C398.14,389.134,398.48,389.204,398.82,389.268C399.16,389.332,399.5,389.389,399.84,389.441C400.18,389.492,400.52,389.538,400.86,389.579C401.2,389.621,401.54,389.657,401.88,389.689C402.22,389.721,402.56,389.749,402.9,389.774C403.24,389.798,403.58,389.819,403.92,389.838C404.26,389.856,404.6,389.872,404.94,389.886C405.28,389.899,405.62,389.911,405.96,389.921C406.3,389.931,406.64,389.939,406.98,389.946C407.32,389.953,407.66,389.959,407.83,389.962L408,389.965L408,390L407.83,390C407.66,390,407.32,390,406.98,390C406.64,390,406.3,390,405.96,390C405.62,390,405.28,390,404.94,390C404.6,390,404.26,390,403.92,390C403.58,390,403.24,390,402.9,390C402.56,390,402.22,390,401.88,390C401.54,390,401.2,390,400.86,390C400.52,390,400.18,390,399.84,390C399.5,390,399.16,390,398.82,390C398.48,390,398.14,390,397.8,390C397.46,390,397.12,390,396.78,390C396.44,390,396.1,390,395.76,390C395.42,390,395.08,390,394.74,390C394.4,390,394.06,390,393.72,390C393.38,390,393.04,390,392.7,390C392.36,390,392.02,390,391.68,390C391.34,390,391,390,390.66,390C390.32,390,389.98,390,389.64,390C389.3,390,388.96,390,388.62,390C388.28,390,387.94,390,387.6,390C387.26,390,386.92,390,386.58,390C386.24,390,385.9,390,385.56,390C385.22,390,384.88,390,384.54,390C384.2,390,383.86,390,383.52,390C383.18,390,382.84,390,382.5,390C382.16,390,381.82,390,381.48,390C381.14,390,380.8,390,380.46,390C380.12,390,379.78,390,379.44,390C379.1,390,378.76,390,378.42,390C378.08,390,377.74,390,377.4,390C377.06,390,376.72,390,376.38,390C376.04,390,375.7,390,375.36,390C375.02,390,374.68,390,374.34,390C374,390,373.66,390,373.32,390C372.98,390,372.64,390,372.3,390C371.96,390,371.62,390,371.28,390C370.94,390,370.6,390,370.26,390C369.92,390,369.58,390,369.24,390C368.9,390,368.56,390,368.22,390C367.88,390,367.54,390,367.2,390C366.86,390,366.52,390,366.18,390C365.84,390,365.5,390,365.16,390C364.82,390,364.48,390,364.14,390C363.8,390,363.46,390,363.12,390C362.78,390,362.44,390,362.1,390C361.76,390,361.42,390,361.08,390C360.74,390,360.4,390,360.06,390C359.72,390,359.38,390,359.04,390C358.7,390,358.36,390,358.02,390C357.68,390,357.34,390,357.17,390L357,390Z" fill="#3f8aff" rx="0" ry="0" style="stroke: none; stroke-width: 0; filter: none;"/><path class="bar" d="M408,389.987L408.17,389.986C408.34,389.985,408.68,389.982,409.02,389.98C409.36,389.977,409.7,389.974,410.04,389.97C410.38,389.967,410.72,389.962,411.06,389.957C411.4,389.952,411.74,389.946,412.08,389.939C412.42,389.932,412.76,389.924,413.1,389.915C413.44,389.906,413.78,389.895,414.12,389.883C414.46,389.871,414.8,389.858,415.14,389.842C415.48,389.827,415.82,389.81,416.16,389.79C416.5,389.771,416.84,389.749,417.18,389.726C417.52,389.702,417.86,389.675,418.2,389.647C418.54,389.618,418.88,389.586,419.22,389.552C419.56,389.518,419.9,389.482,420.24,389.442C420.58,389.403,420.92,389.361,421.26,389.316C421.6,389.272,421.94,389.225,422.28,389.175C422.62,389.126,422.96,389.075,423.3,389.022C423.64,388.968,423.98,388.914,424.32,388.858C424.66,388.802,425,388.745,425.34,388.688C425.68,388.631,426.02,388.574,426.36,388.518C426.7,388.461,427.04,388.406,427.38,388.352C427.72,388.298,428.06,388.246,428.4,388.197C428.74,388.148,429.08,388.102,429.42,388.06C429.76,388.018,430.1,387.98,430.44,387.946C430.78,387.913,431.12,387.884,431.46,387.861C431.8,387.838,432.14,387.82,432.48,387.808C432.82,387.796,433.16,387.79,433.5,387.79C433.84,387.79,434.18,387.796,434.52,387.808C434.86,387.82,435.2,387.838,435.54,387.861C435.88,387.884,436.22,387.913,436.56,387.946C436.9,387.98,437.24,388.018,437.58,388.06C437.92,388.102,438.26,388.148,438.6,388.197C438.94,388.246,439.28,388.298,439.62,388.352C439.96,388.406,440.3,388.461,440.64,388.518C440.98,388.574,441.32,388.631,441.66,388.688C442,388.745,442.34,388.802,442.68,388.858C443.02,388.914,443.36,388.968,443.7,389.022C444.04,389.075,444.38,389.126,444.72,389.175C445.06,389.225,445.4,389.272,445.74,389.316C446.08,389.361,446.42,389.403,446.76,389.442C447.1,389.482,447.44,389.518,447.78,389.552C448.12,389.586,448.46,389.618,448.8,389.647C449.14,389.675,449.48,389.702,449.82,389.726C450.16,389.749,450.5,389.771,450.84,389.79C451.18,389.81,451.52,389.827,451.86,389.842C452.2,389.858,452.54,389.871,452.88,389.883C453.22,389.895,453.56,389.906,453.9,389.915C454.24,389.924,454.58,389.932,454.92,389.939C455.26,389.946,455.6,389.952,455.94,389.957C456.28,389.962,456.62,389.967,456.96,389.97C457.3,389.974,457.64,389.977,457.98,389.98C458.32,389.982,458.66,389.985,458.83,389.986L459,389.987L459,390L458.83,390C458.66,390,458.32,390,457.98,390C457.64,390,457.3,390,456.96,390C456.62,390,456.28,390,455.94,390C455.6,390,455.26,390,454.92,390C454.58,390,454.24,390,453.9,390C453.56,390,453.22,390,452.88,390C452.54,390,452.2,390,451.86,390C451.52,390,451.18,390,450.84,390C450.5,390,450.16,390,449.82,390C449.48,390,449.14,390,448.8,390C448.46,390,448.12,390,447.78,390C447.44,390,447.1,390,446.76,390C446.42,390,446.08,390,445.74,390C445.4,390,445.06,390,444.72,390C444.38,390,444.04,390,443.7,390C443.36,390,443.02,390,442.68,390C442.34,390,442,390,441.66,390C441.32,390,440.98,390,440.64,390C440.3,390,439.96,390,439.62,390C439.28,390,438.94,390,438.6,390C438.26,390,437.92,390,437.58,390C437.24,390,436.9,390,436.56,390C436.22,390,435.88,390,435.54,390C435.2,390,434.86,390,434.52,390C434.18,390,433.84,390,433.5,390C433.16,390,432.82,390,432.48,390C432.14,390,431.8,390,431.46,390C431.12,390,430.78,390,430.44,390C430.1,390,429.76,390,429.42,390C429.08,390,428.74,390,428.4,390C428.06,390,427.72,390,427.38,390C427.04,390,426.7,390,426.36,390C426.02,390,425.68,390,425.34,390C425,390,424.66,390,424.32,390C423.98,390,423.64,390,423.3,390C422.96,390,422.62,390,422.28,390C421.94,390,421.6,390,421.26,390C420.92,390,420.58,390,420.24,390C419.9,390,419.56,390,419.22,390C418.88,390,418.54,390,418.2,390C417.86,390,417.52,390,417.18,390C416.84,390,416.5,390,416.16,390C415.82,390,415.48,390,415.14,390C414.8,390,414.46,390,414.12,390C413.78,390,413.44,390,413.1,390C412.76,390,412.42,390,412.08,390C411.74,390,411.4,390,411.06,390C410.72,390,410.38,390,410.04,390C409.7,390,409.36,390,409.02,390C408.68,390,408.34,390,408.17,390L408,390Z" fill="#3f8aff" rx="0" ry="0" style="stroke: none; stroke-width: 0; filter: none;"/><path class="bar" d="M459,389.991L459.17,389.99C459.34,389.99,459.68,389.988,460.02,389.987C460.36,389.985,460.7,389.983,461.04,389.98C461.38,389.978,461.72,389.975,462.06,389.971C462.4,389.968,462.74,389.964,463.08,389.959C463.42,389.955,463.76,389.95,464.1,389.943C464.44,389.937,464.78,389.93,465.12,389.922C465.46,389.914,465.8,389.905,466.14,389.895C466.48,389.885,466.82,389.873,467.16,389.86C467.5,389.847,467.84,389.833,468.18,389.817C468.52,389.801,468.86,389.784,469.2,389.764C469.54,389.745,469.88,389.724,470.22,389.702C470.56,389.679,470.9,389.654,471.24,389.628C471.58,389.602,471.92,389.574,472.26,389.544C472.6,389.515,472.94,389.483,473.28,389.45C473.62,389.417,473.96,389.383,474.3,389.348C474.64,389.312,474.98,389.276,475.32,389.239C475.66,389.201,476,389.163,476.34,389.125C476.68,389.087,477.02,389.049,477.36,389.012C477.7,388.974,478.04,388.937,478.38,388.901C478.72,388.865,479.06,388.831,479.4,388.798C479.74,388.766,480.08,388.735,480.42,388.707C480.76,388.679,481.1,388.653,481.44,388.631C481.78,388.609,482.12,388.589,482.46,388.574C482.8,388.558,483.14,388.547,483.48,388.539C483.82,388.531,484.16,388.527,484.5,388.527C484.84,388.527,485.18,388.531,485.52,388.539C485.86,388.547,486.2,388.558,486.54,388.574C486.88,388.589,487.22,388.609,487.56,388.631C487.9,388.653,488.24,388.679,488.58,388.707C488.92,388.735,489.26,388.766,489.6,388.798C489.94,388.831,490.28,388.865,490.62,388.901C490.96,388.937,491.3,388.974,491.64,389.012C491.98,389.049,492.32,389.087,492.66,389.125C493,389.163,493.34,389.201,493.68,389.239C494.02,389.276,494.36,389.312,494.7,389.348C495.04,389.383,495.38,389.417,495.72,389.45C496.06,389.483,496.4,389.515,496.74,389.544C497.08,389.574,497.42,389.602,497.76,389.628C498.1,389.654,498.44,389.679,498.78,389.702C499.12,389.724,499.46,389.745,499.8,389.764C500.14,389.784,500.48,389.801,500.82,389.817C501.16,389.833,501.5,389.847,501.84,389.86C502.18,389.873,502.52,389.885,502.86,389.895C503.2,389.905,503.54,389.914,503.88,389.922C504.22,389.93,504.56,389.937,504.9,389.943C505.24,389.95,505.58,389.955,505.92,389.959C506.26,389.964,506.6,389.968,506.94,389.971C507.28,389.975,507.62,389.978,507.96,389.98C508.3,389.983,508.64,389.985,508.98,389.987C509.32,389.988,509.66,389.99,509.83,389.99L510,389.991L510,390L509.83,390C509.66,390,509.32,390,508.98,390C508.64,390,508.3,390,507.96,390C507.62,390,507.28,390,506.94,390C506.6,390,506.26,390,505.92,390C505.58,390,505.24,390,504.9,390C504.56,390,504.22,390,503.88,390C503.54,390,503.2,390,502.86,390C502.52,390,502.18,390,501.84,390C501.5,390,501.16,390,500.82,390C500.48,390,500.14,390,499.8,390C499.46,390,499.12,390,498.78,390C498.44,390,498.1,390,497.76,390C497.42,390,497.08,390,496.74,390C496.4,390,496.06,390,495.72,390C495.38,390,495.04,390,494.7,390C494.36,390,494.02,390,493.68,390C493.34,390,493,390,492.66,390C492.32,390,491.98,390,491.64,390C491.3,390,490.96,390,490.62,390C490.28,390,489.94,390,489.6,390C489.26,390,488.92,390,488.58,390C488.24,390,487.9,390,487.56,390C487.22,390,486.88,390,486.54,390C486.2,390,485.86,390,485.52,390C485.18,390,484.84,390,484.5,390C484.16,390,483.82,390,483.48,390C483.14,390,482.8,390,482.46,390C482.12,390,481.78,390,481.44,390C481.1,390,480.76,390,480.42,390C480.08,390,479.74,390,479.4,390C479.06,390,478.72,390,478.38,390C478.04,390,477.7,390,477.36,390C477.02,390,476.68,390,476.34,390C476,390,475.66,390,475.32,390C474.98,390,474.64,390,474.3,390C473.96,390,473.62,390,473.28,390C472.94,390,472.6,390,472.26,390C471.92,390,471.58,390,471.24,390C470.9,390,470.56,390,470.22,390C469.88,390,469.54,390,469.2,390C468.86,390,468.52,390,468.18,390C467.84,390,467.5,390,467.16,390C466.82,390,466.48,390,466.14,390C465.8,390,465.46,390,465.12,390C464.78,390,464.44,390,464.1,390C463.76,390,463.42,390,463.08,390C462.74,390,462.4,390,462.06,390C461.72,390,461.38,390,461.04,390C460.7,390,460.36,390,460.02,390C459.68,390,459.34,390,459.17,390L459,390Z" fill="#3f8aff" rx="0" ry="0" style="stroke: none; stroke-width: 0; filter: none;"/><text class="value-label" x="25.5" y="30.454545454545467" text-anchor="middle" style="font-family: Arial; font-weight: 400; fill: rgb(65, 65, 65); font-size: 12px;">48 b</text><text class="value-label" x="76.5" y="285.28409090909093" text-anchor="middle" style="font-family: Arial; font-weight: 400; fill: rgb(65, 65, 65); font-size: 12px;">13.5 b</text><text class="value-label" x="127.5" y="297.84090909090907" text-anchor="middle" style="font-family: Arial; font-weight: 400; fill: rgb(65, 65, 65); font-size: 12px;">11.8 b</text><text class="value-label" x="178.5" y="331.8181818181818" text-anchor="middle" style="font-family: Arial; font-weight: 400; fill: rgb(65, 65, 65); font-size: 12px;">7.2 b</text><text class="value-label" x="229.5" y="351.7613636363636" text-anchor="middle" style="font-family: Arial; font-weight: 400; fill: rgb(65, 65, 65); font-size: 12px;">4.5 b</text><text class="value-label" x="280.5" y="369.4886363636364" text-anchor="middle" style="font-family: Arial; font-weight: 400; fill: rgb(65, 65, 65); font-size: 12px;">2.1 b</text><text class="value-label" x="331.5" y="378.3522727272727" text-anchor="middle" style="font-family: Arial; font-weight: 400; fill: rgb(65, 65, 65); font-size: 12px;">0.9 b</text><text class="value-label" x="382.5" y="379.0909090909091" text-anchor="middle" style="font-family: Arial; font-weight: 400; fill: rgb(65, 65, 65); font-size: 12px;">0.8 b</text><text class="value-label" x="433.5" y="382.7840909090909" text-anchor="middle" style="font-family: Arial; font-weight: 400; fill: rgb(65, 65, 65); font-size: 12px;">0.3 b</text><text class="value-label" x="484.5" y="383.52272727272725" text-anchor="middle" style="font-family: Arial; font-weight: 400; fill: rgb(65, 65, 65); font-size: 12px;">0.2 b</text><text class="dimension-label" text-anchor="middle" style="font-family: Arial; font-size: 10px; font-weight: 500; fill: rgb(65, 65, 65);"><tspan x="25.5" y="400" dy="0.71em">USA</tspan></text><text class="dimension-label" text-anchor="middle" style="font-family: Arial; font-size: 10px; font-weight: 500; fill: rgb(65, 65, 65);"><tspan x="76.5" y="400" dy="0.71em">China</tspan></text><text class="dimension-label" text-anchor="middle" style="font-family: Arial; font-size: 10px; font-weight: 500; fill: rgb(65, 65, 65);"><tspan x="127.5" y="400" dy="0.71em">European</tspan><tspan x="127.5" y="412" dy="0.71em">Union</tspan></text><text class="dimension-label" text-anchor="middle" style="font-family: Arial; font-size: 10px; font-weight: 500; fill: rgb(65, 65, 65);"><tspan x="178.5" y="400" dy="0.71em">Russia</tspan></text><text class="dimension-label" text-anchor="middle" style="font-family: Arial; font-size: 10px; font-weight: 500; fill: rgb(65, 65, 65);"><tspan x="229.5" y="400" dy="0.71em">Japan</tspan></text><text class="dimension-label" text-anchor="middle" style="font-family: Arial; font-size: 10px; font-weight: 500; fill: rgb(65, 65, 65);"><tspan x="280.5" y="400" dy="0.71em">India</tspan></text><text class="dimension-label" text-anchor="middle" style="font-family: Arial; font-size: 10px; font-weight: 500; fill: rgb(65, 65, 65);"><tspan x="331.5" y="400" dy="0.71em">South</tspan><tspan x="331.5" y="412" dy="0.71em">Korea</tspan></text><text class="dimension-label" text-anchor="middle" style="font-family: Arial; font-size: 10px; font-weight: 500; fill: rgb(65, 65, 65);"><tspan x="382.5" y="400" dy="0.71em">Canada</tspan></text><text class="dimension-label" text-anchor="middle" style="font-family: Arial; font-size: 10px; font-weight: 500; fill: rgb(65, 65, 65);"><tspan x="433.5" y="400" dy="0.71em">Australia</tspan></text><text class="dimension-label" text-anchor="middle" style="font-family: Arial; font-size: 10px; font-weight: 500; fill: rgb(65, 65, 65);"><tspan x="484.5" y="400" dy="0.71em">Brazil</tspan></text><g class="icon-group" transform="translate(25.5, 439.1)"/><g class="icon-group" transform="translate(76.5, 439.1)"/><g class="icon-group" transform="translate(127.5, 439.1)"/><g class="icon-group" transform="translate(178.5, 439.1)"/><g class="icon-group" transform="translate(229.5, 439.1)"/><g class="icon-group" transform="translate(280.5, 439.1)"/><g class="icon-group" transform="translate(331.5, 439.1)"/><g class="icon-group" transform="translate(382.5, 439.1)"/><g class="icon-group" transform="translate(433.5, 439.1)"/><g class="icon-group" transform="translate(484.5, 439.1)"/></g>         </g></svg>