<svg xmlns='http://www.w3.org/2000/svg' xmlns:xlink='http://www.w3.org/1999/xlink' width='396' height='536'>
        <g transform='translate(-102.66699999979767, -12.199999999999989)'>             <g xmlns="http://www.w3.org/2000/svg" xmlns:xlink="http://www.w3.org/1999/xlink" class="other"><g transform="translate(190.8733253479004, 15)"><circle cx="5" cy="6" r="5" fill="#667eea" class="mark"/><text x="15" y="6" dominant-baseline="middle" fill="#414141" class="label" style="font-size: 12px;">iOS App Store</text></g><g transform="translate(296.84431076049805, 15)"><circle cx="5" cy="6" r="5" fill="#764ba2" class="mark"/><text x="15" y="6" dominant-baseline="middle" fill="#414141" class="label" style="font-size: 12px;">Google Play Store</text></g></g><g xmlns="http://www.w3.org/2000/svg" xmlns:xlink="http://www.w3.org/1999/xlink" transform="translate(20, 60)"><g class="other" transform="translate(0, 0)"><text x="140" y="64.66666666666666" text-anchor="middle" font-size="14px" font-weight="bold" fill="#414141" class="label">2009</text><g class="other" transform="translate(140, 130)"><path class="mark" d="M-57.333,0A57.333,57.333,0,1,1,57.333,0L38.222,0A38.222,38.222,0,1,0,-38.222,0Z" fill="#666666" opacity="0.3"/><path class="mark" d="M-57.333,0A57.333,57.333,0,0,1,-55.843,-12.986L-37.229,-8.657A38.222,38.222,0,0,0,-38.222,0Z" fill="#667eea" style="filter: none;"/><text class="value" x="-47.777777777777786" y="9.555555555555562" text-anchor="middle" dominant-baseline="central" font-size="11.466666666666669px" font-weight="bold" fill="#667eea">4</text><path class="mark" d="M-35.356,0A35.356,35.356,0,1,1,35.356,0L16.244,0A16.244,16.244,0,1,0,-16.244,0Z" fill="#666666" opacity="0.3"/><path class="mark" d="M-35.356,0A35.356,35.356,0,0,1,-34.838,-6.029L-16.007,-2.77A16.244,16.244,0,0,0,-16.244,0Z" fill="#764ba2" style="filter: none;"/><text class="value" x="-25.800000000000004" y="9.55555555555556" text-anchor="middle" dominant-baseline="central" font-size="11.466666666666669px" font-weight="bold" fill="#764ba2">3</text></g></g><g class="other" transform="translate(280, 0)"><text x="140" y="64.66666666666666" text-anchor="middle" font-size="14px" font-weight="bold" fill="#414141" class="label">2010</text><g class="other" transform="translate(140, 130)"><path class="mark" d="M-57.333,0A57.333,57.333,0,1,1,57.333,0L38.222,0A38.222,38.222,0,1,0,-38.222,0Z" fill="#666666" opacity="0.3"/><path class="mark" d="M-57.333,0A57.333,57.333,0,0,1,-48.232,-30.997L-32.155,-20.664A38.222,38.222,0,0,0,-38.222,0Z" fill="#667eea" style="filter: none;"/><text class="value" x="-47.777777777777786" y="9.555555555555562" text-anchor="middle" dominant-baseline="central" font-size="11.466666666666669px" font-weight="bold" fill="#667eea">10</text><path class="mark" d="M-35.356,0A35.356,35.356,0,1,1,35.356,0L16.244,0A16.244,16.244,0,1,0,-16.244,0Z" fill="#666666" opacity="0.3"/><path class="mark" d="M-35.356,0A35.356,35.356,0,0,1,-33.923,-9.961L-15.586,-4.577A16.244,16.244,0,0,0,-16.244,0Z" fill="#764ba2" style="filter: none;"/><text class="value" x="-25.800000000000004" y="9.55555555555556" text-anchor="middle" dominant-baseline="central" font-size="11.466666666666669px" font-weight="bold" fill="#764ba2">5</text></g></g><g class="other" transform="translate(0, 173.33333333333334)"><text x="140" y="64.66666666666666" text-anchor="middle" font-size="14px" font-weight="bold" fill="#414141" class="label">2011</text><g class="other" transform="translate(140, 130)"><path class="mark" d="M-57.333,0A57.333,57.333,0,1,1,57.333,0L38.222,0A38.222,38.222,0,1,0,-38.222,0Z" fill="#666666" opacity="0.3"/><path class="mark" d="M-57.333,0A57.333,57.333,0,0,1,-23.817,-52.152L-15.878,-34.768A38.222,38.222,0,0,0,-38.222,0Z" fill="#667eea" style="filter: none;"/><text class="value" x="-47.777777777777786" y="9.555555555555562" text-anchor="middle" dominant-baseline="central" font-size="11.466666666666669px" font-weight="bold" fill="#667eea">20</text><path class="mark" d="M-35.356,0A35.356,35.356,0,1,1,35.356,0L16.244,0A16.244,16.244,0,1,0,-16.244,0Z" fill="#666666" opacity="0.3"/><path class="mark" d="M-35.356,0A35.356,35.356,0,0,1,-29.743,-19.115L-13.666,-8.782A16.244,16.244,0,0,0,-16.244,0Z" fill="#764ba2" style="filter: none;"/><text class="value" x="-25.800000000000004" y="9.55555555555556" text-anchor="middle" dominant-baseline="central" font-size="11.466666666666669px" font-weight="bold" fill="#764ba2">10</text></g></g><g class="other" transform="translate(280, 173.33333333333334)"><text x="140" y="64.66666666666666" text-anchor="middle" font-size="14px" font-weight="bold" fill="#414141" class="label">2012</text><g class="other" transform="translate(140, 130)"><path class="mark" d="M-57.333,0A57.333,57.333,0,1,1,57.333,0L38.222,0A38.222,38.222,0,1,0,-38.222,0Z" fill="#666666" opacity="0.3"/><path class="mark" d="M-57.333,0A57.333,57.333,0,0,1,8.159,-56.75L5.44,-37.833A38.222,38.222,0,0,0,-38.222,0Z" fill="#667eea" style="filter: none;"/><text class="value" x="-47.777777777777786" y="9.555555555555562" text-anchor="middle" dominant-baseline="central" font-size="11.466666666666669px" font-weight="bold" fill="#667eea">30</text><path class="mark" d="M-35.356,0A35.356,35.356,0,1,1,35.356,0L16.244,0A16.244,16.244,0,1,0,-16.244,0Z" fill="#666666" opacity="0.3"/><path class="mark" d="M-35.356,0A35.356,35.356,0,0,1,-5.032,-34.996L-2.312,-16.079A16.244,16.244,0,0,0,-16.244,0Z" fill="#764ba2" style="filter: none;"/><text class="value" x="-25.800000000000004" y="9.55555555555556" text-anchor="middle" dominant-baseline="central" font-size="11.466666666666669px" font-weight="bold" fill="#764ba2">25</text></g></g><g class="other" transform="translate(0, 346.6666666666667)"><text x="140" y="64.66666666666666" text-anchor="middle" font-size="14px" font-weight="bold" fill="#414141" class="label">2013</text><g class="other" transform="translate(140, 130)"><path class="mark" d="M-57.333,0A57.333,57.333,0,1,1,57.333,0L38.222,0A38.222,38.222,0,1,0,-38.222,0Z" fill="#666666" opacity="0.3"/><path class="mark" d="M-57.333,0A57.333,57.333,0,0,1,23.817,-52.152L15.878,-34.768A38.222,38.222,0,0,0,-38.222,0Z" fill="#667eea" style="filter: none;"/><text class="value" x="-47.777777777777786" y="9.555555555555562" text-anchor="middle" dominant-baseline="central" font-size="11.466666666666669px" font-weight="bold" fill="#667eea">35</text><path class="mark" d="M-35.356,0A35.356,35.356,0,1,1,35.356,0L16.244,0A16.244,16.244,0,1,0,-16.244,0Z" fill="#666666" opacity="0.3"/><path class="mark" d="M-35.356,0A35.356,35.356,0,1,1,35.356,0L16.244,0A16.244,16.244,0,1,0,-16.244,0Z" fill="#764ba2" style="filter: none;"/><text class="value" x="-25.800000000000004" y="9.55555555555556" text-anchor="middle" dominant-baseline="central" font-size="11.466666666666669px" font-weight="bold" fill="#764ba2">55</text></g></g></g>         </g></svg>