<svg xmlns='http://www.w3.org/2000/svg' xmlns:xlink='http://www.w3.org/1999/xlink' width='578' height='557'>
        <g transform='translate(-11.814740600308511, -19.19999999999999)'>             <g xmlns="http://www.w3.org/2000/svg" xmlns:xlink="http://www.w3.org/1999/xlink" transform="translate(300, 300)"><line class="axis" x1="0" y1="0" x2="1.5308084989341916e-14" y2="-250" stroke="#bbb" stroke-width="1"/><line class="axis" x1="0" y1="0" x2="237.76412907378838" y2="-77.25424859373685" stroke="#bbb" stroke-width="1"/><line class="axis" x1="0" y1="0" x2="146.9463130731183" y2="202.25424859373686" stroke="#bbb" stroke-width="1"/><line class="axis" x1="0" y1="0" x2="-146.94631307311826" y2="202.25424859373686" stroke="#bbb" stroke-width="1"/><line class="axis" x1="0" y1="0" x2="-237.7641290737884" y2="-77.25424859373682" stroke="#bbb" stroke-width="1"/><text class="label" x="1.6532731788489267e-14" y="-270" text-anchor="start" dominant-baseline="middle" fill="#333" font-size="16px" font-weight="bold">2009</text><text class="label" x="256.7852593996914" y="-83.43458848123579" text-anchor="start" dominant-baseline="middle" fill="#333" font-size="16px" font-weight="bold">2010</text><text class="label" x="158.70201811896774" y="218.4345884812358" text-anchor="start" dominant-baseline="middle" fill="#333" font-size="16px" font-weight="bold">2011</text><text class="label" x="-158.70201811896771" y="218.4345884812358" text-anchor="end" dominant-baseline="middle" fill="#333" font-size="16px" font-weight="bold">2012</text><text class="label" x="-256.7852593996915" y="-83.43458848123576" text-anchor="end" dominant-baseline="middle" fill="#333" font-size="16px" font-weight="bold">2013</text><path class="mark" d="M0,-13.636L21.615,-7.023L26.718,36.773L-66.794,91.934L-237.764,-77.254ZM0,0L0,0L0,0L0,0L0,0Z" fill="#764ba2" fill-opacity="0.3" stroke="#764ba2" stroke-width="2" stroke-opacity="0.8"/><circle class="mark" cx="8.349864539641044e-16" cy="-13.636363636363635" r="3" fill="#764ba2" stroke="#fff" stroke-width="1"/><circle class="mark" cx="21.614920824889854" cy="-7.023113508521532" r="3" fill="#764ba2" stroke="#fff" stroke-width="1"/><circle class="mark" cx="26.71751146783969" cy="36.77349974431579" r="3" fill="#764ba2" stroke="#fff" stroke-width="1"/><circle class="mark" cx="-66.7937786695992" cy="91.93374936078948" r="3" fill="#764ba2" stroke="#fff" stroke-width="1"/><circle class="mark" cx="-237.7641290737884" cy="-77.25424859373682" r="3" fill="#764ba2" stroke="#fff" stroke-width="1"/><path class="mark" d="M0,-18.182L43.23,-14.046L53.435,73.547L-80.153,110.32L-151.304,-49.162ZM0,0L0,0L0,0L0,0L0,0Z" fill="#667eea" fill-opacity="0.3" stroke="#667eea" stroke-width="2" stroke-opacity="0.8"/><circle class="mark" cx="1.1133152719521392e-15" cy="-18.18181818181818" r="3" fill="#667eea" stroke="#fff" stroke-width="1"/><circle class="mark" cx="43.22984164977971" cy="-14.046227017043064" r="3" fill="#667eea" stroke="#fff" stroke-width="1"/><circle class="mark" cx="53.43502293567938" cy="73.54699948863158" r="3" fill="#667eea" stroke="#fff" stroke-width="1"/><circle class="mark" cx="-80.15253440351904" cy="110.32049923294737" r="3" fill="#667eea" stroke="#fff" stroke-width="1"/><circle class="mark" cx="-151.30444577422898" cy="-49.16179455965071" r="3" fill="#667eea" stroke="#fff" stroke-width="1"/></g><g xmlns="http://www.w3.org/2000/svg" xmlns:xlink="http://www.w3.org/1999/xlink" transform="translate(157.67299270629883, 560)"><g transform="translate(107.67299270629883, 0)"><circle class="mark" cx="5" cy="10" r="5" fill="#667eea"/><text class="label" x="15" y="10" dominant-baseline="middle" fill="#333" style="font-size: 14px; font-weight: bold;">iOS App Store</text></g><g transform="translate(246.9084815979004, 0)"><circle class="mark" cx="5" cy="10" r="5" fill="#764ba2"/><text class="label" x="15" y="10" dominant-baseline="middle" fill="#333" style="font-size: 14px; font-weight: bold;">Google Play Store</text></g></g>         </g></svg>