<svg xmlns='http://www.w3.org/2000/svg' xmlns:xlink='http://www.w3.org/1999/xlink' width='517' height='516'>
        <g transform='translate(-43.599999999999994, -24.200000000000003)'>             <g xmlns="http://www.w3.org/2000/svg" xmlns:xlink="http://www.w3.org/1999/xlink" class="subplot" transform="translate(20, 20)"><g transform="translate(40, 40)"><rect x="21.099999999999994" y="-27" width="30" height="3" fill="#764ba2"/><text x="56.099999999999994" y="-25" text-anchor="start" dominant-baseline="middle" style="font-family: Arial; font-size: 14px; font-weight: bold; fill: rgb(26, 26, 79);">Google Play Store</text><line x1="0" y1="336.33217993079586" x2="220" y2="336.33217993079586" stroke="#1a1a4f" stroke-opacity="0.1" stroke-dasharray="2,2"/><line x1="0" y1="170.24221453287203" x2="220" y2="170.24221453287203" stroke="#1a1a4f" stroke-opacity="0.1" stroke-dasharray="2,2"/><line x1="0" y1="4.1522491349481605" x2="220" y2="4.1522491349481605" stroke="#1a1a4f" stroke-opacity="0.1" stroke-dasharray="2,2"/><text x="-5" y="336.33217993079586" text-anchor="end" dominant-baseline="middle" style="font-family: Arial; font-size: 10px; fill: rgb(26, 26, 79); opacity: 0.7;">20</text><text x="-5" y="170.24221453287203" text-anchor="end" dominant-baseline="middle" style="font-family: Arial; font-size: 10px; fill: rgb(26, 26, 79); opacity: 0.7;">40</text><text x="-5" y="4.1522491349481605" text-anchor="end" dominant-baseline="middle" style="font-family: Arial; font-size: 10px; fill: rgb(26, 26, 79); opacity: 0.7;">60</text><line x1="0" y1="338.82352941176475" x2="220" y2="338.82352941176475" stroke="#333" stroke-width="1" stroke-dasharray="3,3"/><path class="line" fill="none" stroke="#764ba2" stroke-width="3" d="M10,477.509C26.655,474.048,43.311,470.588,59.966,460.9C76.621,451.211,93.276,447.059,109.932,419.377C126.587,391.696,143.242,356.952,159.897,294.81C176.598,232.497,193.299,139.086,210,45.675"/><line x1="10" y1="335.82352941176475" x2="10" y2="341.82352941176475" stroke="#110c57" stroke-width="1"/><text x="10" y="333.82352941176475" transform="rotate(90, 10, 328.82352941176475)" text-anchor="end" style="font-family: Arial; font-size: 10px; font-weight: bold; fill: rgb(17, 12, 87); opacity: 0.3;">2009</text><line x1="59.96577686516085" y1="335.82352941176475" x2="59.96577686516085" y2="341.82352941176475" stroke="#110c57" stroke-width="1"/><text x="59.96577686516085" y="333.82352941176475" transform="rotate(90, 59.96577686516085, 328.82352941176475)" text-anchor="end" style="font-family: Arial; font-size: 10px; font-weight: bold; fill: rgb(17, 12, 87); opacity: 0.3;">2010</text><line x1="109.9315537303217" y1="335.82352941176475" x2="109.9315537303217" y2="341.82352941176475" stroke="#110c57" stroke-width="1"/><text x="109.9315537303217" y="333.82352941176475" transform="rotate(90, 109.9315537303217, 328.82352941176475)" text-anchor="end" style="font-family: Arial; font-size: 10px; font-weight: bold; fill: rgb(17, 12, 87); opacity: 0.3;">2011</text><line x1="159.89733059548254" y1="335.82352941176475" x2="159.89733059548254" y2="341.82352941176475" stroke="#110c57" stroke-width="1"/><text x="159.89733059548254" y="353.82352941176475" transform="rotate(90, 159.89733059548254, 348.82352941176475)" text-anchor="start" style="font-family: Arial; font-size: 10px; font-weight: bold; fill: rgb(17, 12, 87); opacity: 0.3;">2012</text><line x1="210" y1="335.82352941176475" x2="210" y2="341.82352941176475" stroke="#110c57" stroke-width="1"/><text x="210" y="353.82352941176475" transform="rotate(90, 210, 348.82352941176475)" text-anchor="start" style="font-family: Arial; font-size: 10px; font-weight: bold; fill: rgb(17, 12, 87); opacity: 0.3;">2013</text><path class="line" fill="none" stroke="#ccc" stroke-width="1" opacity="0.5" d="M10,469.204C26.655,455.363,43.311,441.522,59.966,419.377C76.621,397.232,93.276,364.014,109.932,336.332C126.587,308.651,143.242,274.039,159.897,253.287C176.598,232.479,193.299,222.122,210,211.765"/></g></g><g xmlns="http://www.w3.org/2000/svg" xmlns:xlink="http://www.w3.org/1999/xlink" class="subplot" transform="translate(300, 20)"><g transform="translate(40, 40)"><rect x="37.900000000000006" y="-27" width="30" height="3" fill="#667eea"/><text x="72.9" y="-25" text-anchor="start" dominant-baseline="middle" style="font-family: Arial; font-size: 14px; font-weight: bold; fill: rgb(26, 26, 79);">iOS App Store</text><line x1="0" y1="336.33217993079586" x2="220" y2="336.33217993079586" stroke="#1a1a4f" stroke-opacity="0.1" stroke-dasharray="2,2"/><line x1="0" y1="170.24221453287203" x2="220" y2="170.24221453287203" stroke="#1a1a4f" stroke-opacity="0.1" stroke-dasharray="2,2"/><line x1="0" y1="4.1522491349481605" x2="220" y2="4.1522491349481605" stroke="#1a1a4f" stroke-opacity="0.1" stroke-dasharray="2,2"/><text x="-5" y="336.33217993079586" text-anchor="end" dominant-baseline="middle" style="font-family: Arial; font-size: 10px; fill: rgb(26, 26, 79); opacity: 0.7;">20</text><text x="-5" y="170.24221453287203" text-anchor="end" dominant-baseline="middle" style="font-family: Arial; font-size: 10px; fill: rgb(26, 26, 79); opacity: 0.7;">40</text><text x="-5" y="4.1522491349481605" text-anchor="end" dominant-baseline="middle" style="font-family: Arial; font-size: 10px; fill: rgb(26, 26, 79); opacity: 0.7;">60</text><line x1="0" y1="338.82352941176475" x2="220" y2="338.82352941176475" stroke="#333" stroke-width="1" stroke-dasharray="3,3"/><path class="line" fill="none" stroke="#667eea" stroke-width="3" d="M10,469.204C26.655,455.363,43.311,441.522,59.966,419.377C76.621,397.232,93.276,364.014,109.932,336.332C126.587,308.651,143.242,274.039,159.897,253.287C176.598,232.479,193.299,222.122,210,211.765"/><line x1="10" y1="335.82352941176475" x2="10" y2="341.82352941176475" stroke="#110c57" stroke-width="1"/><line x1="59.96577686516085" y1="335.82352941176475" x2="59.96577686516085" y2="341.82352941176475" stroke="#110c57" stroke-width="1"/><line x1="109.9315537303217" y1="335.82352941176475" x2="109.9315537303217" y2="341.82352941176475" stroke="#110c57" stroke-width="1"/><line x1="159.89733059548254" y1="335.82352941176475" x2="159.89733059548254" y2="341.82352941176475" stroke="#110c57" stroke-width="1"/><line x1="210" y1="335.82352941176475" x2="210" y2="341.82352941176475" stroke="#110c57" stroke-width="1"/><path class="line" fill="none" stroke="#ccc" stroke-width="1" opacity="0.5" d="M10,477.509C26.655,474.048,43.311,470.588,59.966,460.9C76.621,451.211,93.276,447.059,109.932,419.377C126.587,391.696,143.242,356.952,159.897,294.81C176.598,232.497,193.299,139.086,210,45.675"/></g></g>         </g></svg>