<svg xmlns='http://www.w3.org/2000/svg' xmlns:xlink='http://www.w3.org/1999/xlink' width='564' height='574'>
        <g transform='translate(-20.466115702479357, -11.199999999999989)'>             <g xmlns="http://www.w3.org/2000/svg" xmlns:xlink="http://www.w3.org/1999/xlink" transform="translate(20, 40)"><rect x="250" y="0" width="60" height="500" fill="#1a2748" opacity="0.5"/><line x1="250" y1="0" x2="250" y2="500" stroke="#9badd3" opacity="0.6" stroke-width="1"/><line x1="310" y1="0" x2="310" y2="500" stroke="#9badd3" opacity="0.6" stroke-width="1"/><text x="250" y="520" text-anchor="middle" fill="#fff" style="font-size: 12px;">0</text><text x="310" y="520" text-anchor="middle" fill="#fff" style="font-size: 12px;">0</text><text x="208.67768595041323" y="520" text-anchor="middle" fill="#fff" style="font-size: 12px;">10</text><text x="351.3223140495868" y="520" text-anchor="middle" fill="#fff" style="font-size: 12px;">10</text><text x="167.35537190082644" y="520" text-anchor="middle" fill="#fff" style="font-size: 12px;">20</text><text x="392.64462809917353" y="520" text-anchor="middle" fill="#fff" style="font-size: 12px;">20</text><text x="126.03305785123969" y="520" text-anchor="middle" fill="#fff" style="font-size: 12px;">30</text><text x="433.9669421487603" y="520" text-anchor="middle" fill="#fff" style="font-size: 12px;">30</text><text x="84.71074380165291" y="520" text-anchor="middle" fill="#fff" style="font-size: 12px;">40</text><text x="475.28925619834706" y="520" text-anchor="middle" fill="#fff" style="font-size: 12px;">40</text><text x="43.38842975206614" y="520" text-anchor="middle" fill="#fff" style="font-size: 12px;">50</text><text x="516.6115702479339" y="520" text-anchor="middle" fill="#fff" style="font-size: 12px;">50</text><text x="2.06611570247936" y="520" text-anchor="middle" fill="#fff" style="font-size: 12px;">60</text><text x="557.9338842975206" y="520" text-anchor="middle" fill="#fff" style="font-size: 12px;">60</text><path fill="#764ba2" d="M237.603,22.727L229.339,136.286L208.678,249.844L146.694,363.403L22.727,477.273L250,477.273L250,363.403L250,249.844L250,136.286L250,22.727Z"/><rect x="2" y="238" width="159" height="24" fill="white" opacity="0.5" rx="3"/><text x="5" y="250" text-anchor="start" dominant-baseline="middle" fill="#764ba2" style="font-size: 14px; font-weight: bold;">Google Play Store</text><path fill="#667eea" d="M326.529,22.727L351.322,136.286L392.645,249.844L433.967,363.403L454.628,477.273L310,477.273L310,363.403L310,249.844L310,136.286L310,22.727Z"/><rect x="435" y="238" width="123" height="24" fill="white" opacity="0.5" rx="3"/><text x="555" y="250" text-anchor="end" dominant-baseline="middle" fill="#667eea" style="font-size: 14px; font-weight: bold;">iOS App Store</text><text x="280" y="22.727272727272727" text-anchor="middle" dominant-baseline="middle" fill="#fff" style="font-size: 12px;">2009</text><line x1="260" y1="22.727272727272727" x2="250" y2="22.727272727272727" stroke="#ffffff" stroke-width="1.5"/><line x1="310" y1="22.727272727272727" x2="300" y2="22.727272727272727" stroke="#ffffff" stroke-width="1.5"/><text x="280" y="136.2858565117292" text-anchor="middle" dominant-baseline="middle" fill="#fff" style="font-size: 12px;">2010</text><line x1="260" y1="136.2858565117292" x2="250" y2="136.2858565117292" stroke="#ffffff" stroke-width="1.5"/><line x1="310" y1="136.2858565117292" x2="300" y2="136.2858565117292" stroke="#ffffff" stroke-width="1.5"/><text x="280" y="249.8444402961857" text-anchor="middle" dominant-baseline="middle" fill="#fff" style="font-size: 12px;">2011</text><line x1="260" y1="249.8444402961857" x2="250" y2="249.8444402961857" stroke="#ffffff" stroke-width="1.5"/><line x1="310" y1="249.8444402961857" x2="300" y2="249.8444402961857" stroke="#ffffff" stroke-width="1.5"/><text x="280" y="363.4030240806421" text-anchor="middle" dominant-baseline="middle" fill="#fff" style="font-size: 12px;">2012</text><line x1="260" y1="363.4030240806421" x2="250" y2="363.4030240806421" stroke="#ffffff" stroke-width="1.5"/><line x1="310" y1="363.4030240806421" x2="300" y2="363.4030240806421" stroke="#ffffff" stroke-width="1.5"/><text x="280" y="477.2727272727273" text-anchor="middle" dominant-baseline="middle" fill="#fff" style="font-size: 12px;">2013</text><line x1="260" y1="477.2727272727273" x2="250" y2="477.2727272727273" stroke="#ffffff" stroke-width="1.5"/><line x1="310" y1="477.2727272727273" x2="300" y2="477.2727272727273" stroke="#ffffff" stroke-width="1.5"/><text x="280" y="545" text-anchor="middle" fill="#fff" style="font-size: 14px; font-weight: bold;">Units</text></g><text xmlns="http://www.w3.org/2000/svg" xmlns:xlink="http://www.w3.org/1999/xlink" x="300" y="20" text-anchor="middle" fill="#fff" style="font-size: 14px; font-weight: bold;">Units</text>         </g></svg>