<svg xmlns='http://www.w3.org/2000/svg' xmlns:xlink='http://www.w3.org/1999/xlink' width='541' height='435'>
        <g transform='translate(-20.0, -146.47272727272724)'>             <g xmlns="http://www.w3.org/2000/svg" xmlns:xlink="http://www.w3.org/1999/xlink" transform="translate(60, 20)"><line x1="-40" y1="540" x2="480" y2="540" stroke="#9badd3" opacity="0.6" stroke-width="1"/><text x="-10" y="424.09090909090907" text-anchor="end" dominant-baseline="middle" style="font-family: Arial; font-size: 16px; fill: rgb(135, 170, 192);">20</text><text x="-10" y="293.1818181818182" text-anchor="end" dominant-baseline="middle" style="font-family: Arial; font-size: 16px; fill: rgb(135, 170, 192);">40</text><text x="-10" y="162.27272727272725" text-anchor="end" dominant-baseline="middle" style="font-family: Arial; font-size: 16px; fill: rgb(135, 170, 192);">60</text><text x="21.81818181818182" y="560" text-anchor="middle" style="font-family: Arial; font-size: 16px; font-weight: bold; fill: rgb(135, 170, 192);">2009</text><text x="130.83442225126004" y="560" text-anchor="middle" style="font-family: Arial; font-size: 16px; font-weight: bold; fill: rgb(135, 170, 192);">2010</text><text x="239.85066268433826" y="560" text-anchor="middle" style="font-family: Arial; font-size: 16px; font-weight: bold; fill: rgb(135, 170, 192);">2011</text><text x="348.8669031174164" y="560" text-anchor="middle" style="font-family: Arial; font-size: 16px; font-weight: bold; fill: rgb(135, 170, 192);">2012</text><path fill="url(#gradient-Google-Play-Store)" opacity="0.8" d="M21.818,520.364C58.157,517.636,94.496,514.909,130.834,507.273C167.173,499.636,203.512,496.364,239.851,474.545C276.189,452.727,312.528,425.343,348.867,376.364C385.305,327.25,421.744,253.625,458.182,180L458.182,540C421.744,540,385.305,540,348.867,540C312.528,540,276.189,540,239.851,540C203.512,540,167.173,540,130.834,540C94.496,540,58.157,540,21.818,540Z" style="filter: url(&quot;#drop-shadow&quot;);"/><path fill="url(#gradient-iOS-App-Store)" opacity="0.8" d="M21.818,513.818C58.157,502.909,94.496,492,130.834,474.545C167.173,457.091,203.512,430.909,239.851,409.091C276.189,387.273,312.528,359.993,348.867,343.636C385.305,327.235,421.744,319.072,458.182,310.909L458.182,540C421.744,540,385.305,540,348.867,540C312.528,540,276.189,540,239.851,540C203.512,540,167.173,540,130.834,540C94.496,540,58.157,540,21.818,540Z" style="filter: url(&quot;#drop-shadow&quot;);"/><rect class="background" x="0" y="147.27272727272725" width="480" height="392.72727272727275" fill="#87aac0" opacity="0.1"/><line x1="21.81818181818182" y1="147.27272727272725" x2="21.81818181818182" y2="540" stroke="#87aac0" opacity="0.2" class="background" stroke-width="1"/><line x1="130.83442225126004" y1="147.27272727272725" x2="130.83442225126004" y2="540" stroke="#87aac0" opacity="0.2" class="background" stroke-width="1"/><line x1="239.85066268433826" y1="147.27272727272725" x2="239.85066268433826" y2="540" stroke="#87aac0" opacity="0.2" class="background" stroke-width="1"/><line x1="348.8669031174164" y1="147.27272727272725" x2="348.8669031174164" y2="540" stroke="#87aac0" opacity="0.2" class="background" stroke-width="1"/><line x1="458.1818181818182" y1="147.27272727272725" x2="458.1818181818182" y2="540" stroke="#87aac0" opacity="0.2" class="background" stroke-width="1"/><line x1="-40" y1="540" x2="480" y2="540" stroke="#87aac0" opacity="0.2" stroke-width="1" class="background"/><line x1="-40" y1="409.09090909090907" x2="480" y2="409.09090909090907" stroke="#87aac0" opacity="0.2" stroke-width="1" class="background"/><line x1="-40" y1="278.1818181818182" x2="480" y2="278.1818181818182" stroke="#87aac0" opacity="0.2" stroke-width="1" class="background"/><line x1="-40" y1="147.27272727272725" x2="480" y2="147.27272727272725" stroke="#87aac0" opacity="0.2" stroke-width="1" class="background"/><text x="458.1818181818182" y="137.27272727272725" text-anchor="middle" style="font-family: Arial; font-size: 14px; fill: rgb(135, 170, 192);">2013</text><path d="M453.1818181818182,147.27272727272725 L463.1818181818182,147.27272727272725 L458.1818181818182,152.27272727272725Z" fill="#87aac0"/><line x1="458.1818181818182" y1="152.27272727272725" x2="458.1818181818182" y2="540" stroke="#87aac0" stroke-width="1" stroke-dasharray="3,3"/><rect x="418.1818181818182" y="260.9090909090909" rx="10" ry="10" width="80" height="40" fill="#667eea"/><path d="M458.1818181818182, 310.9090909090909                         L448.1818181818182, 295.9090909090909                         L468.1818181818182, 295.9090909090909 Z" fill="#667eea"/><text x="458.1818181818182" y="270.9090909090909" text-anchor="middle" dominant-baseline="middle" style="font-family: Arial; font-size: 10px; fill: rgb(255, 255, 255); opacity: 0.5;">iOS App Store</text><text x="458.1818181818182" y="288.9090909090909" text-anchor="middle" dominant-baseline="middle" style="font-family: Arial; font-size: 22px; font-weight: bold; fill: rgb(255, 255, 255);">35</text><rect x="418.1818181818182" y="130.00000000000003" rx="10" ry="10" width="80" height="40" fill="#764ba2"/><path d="M458.1818181818182, 180.00000000000003                         L448.1818181818182, 165.00000000000003                         L468.1818181818182, 165.00000000000003 Z" fill="#764ba2"/><text x="458.1818181818182" y="140.00000000000003" text-anchor="middle" dominant-baseline="middle" style="font-family: Arial; font-size: 10px; fill: rgb(255, 255, 255); opacity: 0.5;">Google Play Store</text><text x="458.1818181818182" y="158.00000000000003" text-anchor="middle" dominant-baseline="middle" style="font-family: Arial; font-size: 22px; font-weight: bold; fill: rgb(255, 255, 255);">55</text></g><defs xmlns="http://www.w3.org/2000/svg" xmlns:xlink="http://www.w3.org/1999/xlink"><linearGradient id="gradient-iOS-App-Store" x1="0%" y1="0%" x2="0%" y2="100%"><stop offset="0%" stop-color="rgb(102, 126, 234)" stop-opacity="1"/><stop offset="100%" stop-color="rgb(146, 180, 255)" stop-opacity="1"/></linearGradient><linearGradient id="gradient-Google-Play-Store" x1="0%" y1="0%" x2="0%" y2="100%"><stop offset="0%" stop-color="rgb(118, 75, 162)" stop-opacity="1"/><stop offset="100%" stop-color="rgb(169, 107, 231)" stop-opacity="1"/></linearGradient><filter id="drop-shadow" x="-50%" y="-100%" width="200%" height="200%"><feComponentTransfer><feFuncA type="linear" slope="0.2"/></feComponentTransfer><feGaussianBlur in="SourceAlpha" stdDeviation="25" result="blur"/><feOffset in="blur" dx="0" dy="15" result="offsetBlur"/><feMerge><feMergeNode in="offsetBlur"/><feMergeNode in="SourceGraphic"/></feMerge></filter></defs>         </g></svg>