<svg xmlns='http://www.w3.org/2000/svg' xmlns:xlink='http://www.w3.org/1999/xlink' width='535' height='500'>
        <g transform='translate(-35.8, -61.35384615384615)'>             <g xmlns="http://www.w3.org/2000/svg" xmlns:xlink="http://www.w3.org/1999/xlink" transform="translate(60, 60)"><line x1="0" y1="407.3076923076923" x2="510" y2="407.3076923076923" stroke="#dddddd" stroke-width="1" class="background"/><line x1="0" y1="291.9230769230769" x2="510" y2="291.9230769230769" stroke="#dddddd" stroke-width="1" class="background"/><line x1="0" y1="176.5384615384615" x2="510" y2="176.5384615384615" stroke="#dddddd" stroke-width="1" class="background"/><line x1="0" y1="61.153846153846146" x2="510" y2="61.153846153846146" stroke="#dddddd" stroke-width="1" class="background"/><line x1="0" y1="349.6153846153846" x2="510" y2="349.6153846153846" stroke="#dddddd" stroke-width="1" class="background"/><line x1="0" y1="234.2307692307692" x2="510" y2="234.2307692307692" stroke="#dddddd" stroke-width="1" class="background"/><line x1="0" y1="118.8461538461538" x2="510" y2="118.8461538461538" stroke="#dddddd" stroke-width="1" class="background"/><text x="-10" y="407.3076923076923" text-anchor="end" dominant-baseline="middle" fill="#666" style="font-size: 14px;">0</text><text x="-10" y="291.9230769230769" text-anchor="end" dominant-baseline="middle" fill="#666" style="font-size: 14px;">20</text><text x="-10" y="176.5384615384615" text-anchor="end" dominant-baseline="middle" fill="#666" style="font-size: 14px;">40</text><text x="-10" y="61.153846153846146" text-anchor="end" dominant-baseline="middle" fill="#666" style="font-size: 14px;">60</text><text x="23.181818181818183" y="500" text-anchor="middle" fill="#666" style="font-size: 14px;">2009</text><text x="139.0115736419638" y="500" text-anchor="middle" fill="#666" style="font-size: 14px;">2010</text><text x="254.8413291021094" y="500" text-anchor="middle" fill="#666" style="font-size: 14px;">2011</text><text x="370.671084562255" y="500" text-anchor="middle" fill="#666" style="font-size: 14px;">2012</text><text x="486.8181818181818" y="500" text-anchor="middle" fill="#666" style="font-size: 14px;">2013</text><line x1="0" y1="480" x2="510" y2="480" stroke="#aaa" stroke-width="1"/><path fill="none" stroke="#764ba2" stroke-width="4" d="M23.182,390L139.012,390L139.012,378.462L254.841,378.462L254.841,349.615L370.671,349.615L370.671,263.077L486.818,263.077L486.818,90"/><path fill="none" stroke="#667eea" stroke-width="4" d="M23.182,384.231L139.012,384.231L139.012,349.615L254.841,349.615L254.841,291.923L370.671,291.923L370.671,234.231L486.818,234.231L486.818,205.385"/><rect x="13.181818181818183" y="405" width="20" height="24" rx="5" ry="5" fill="#667eea"/><text x="23.181818181818183" y="417" text-anchor="middle" dominant-baseline="middle" fill="#fff" font-weight="bold" style="font-size: 14px;">4</text><rect x="13.181818181818183" y="435" width="20" height="24" rx="5" ry="5" fill="#764ba2"/><text x="23.181818181818183" y="447" text-anchor="middle" dominant-baseline="middle" fill="#fff" font-weight="bold" style="font-size: 14px;">3</text><rect x="239.8413291021094" y="306" width="30" height="24" rx="5" ry="5" fill="#667eea"/><text x="254.8413291021094" y="318" text-anchor="middle" dominant-baseline="middle" fill="#fff" font-weight="bold" style="font-size: 14px;">20</text><rect x="239.8413291021094" y="363" width="30" height="24" rx="5" ry="5" fill="#764ba2"/><text x="254.8413291021094" y="375" text-anchor="middle" dominant-baseline="middle" fill="#fff" font-weight="bold" style="font-size: 14px;">10</text><rect x="471.8181818181818" y="105" width="30" height="24" rx="5" ry="5" fill="#764ba2"/><text x="486.8181818181818" y="117" text-anchor="middle" dominant-baseline="middle" fill="#fff" font-weight="bold" style="font-size: 14px;">55</text><rect x="471.8181818181818" y="219" width="30" height="24" rx="5" ry="5" fill="#667eea"/><text x="486.8181818181818" y="231" text-anchor="middle" dominant-baseline="middle" fill="#fff" font-weight="bold" style="font-size: 14px;">35</text><g transform="translate(112.67299270629883, 1.1538461538461462)"><g transform="translate(0, 0)"><line x1="0" y1="10" x2="10" y2="10" stroke="#764ba2" stroke-width="4"/><text x="15" y="10" dominant-baseline="middle" fill="#333" style="font-size: 14px; font-weight: bold;">Google Play Store</text></g><g transform="translate(165.41852569580078, 0)"><line x1="0" y1="10" x2="10" y2="10" stroke="#667eea" stroke-width="4"/><text x="15" y="10" dominant-baseline="middle" fill="#333" style="font-size: 14px; font-weight: bold;">iOS App Store</text></g></g></g>         </g></svg>