<svg xmlns='http://www.w3.org/2000/svg' xmlns:xlink='http://www.w3.org/1999/xlink' width='490' height='545'>
        <g transform='translate(0.0, -71.7)'>             <defs xmlns="http://www.w3.org/2000/svg" xmlns:xlink="http://www.w3.org/1999/xlink"/><g xmlns="http://www.w3.org/2000/svg" xmlns:xlink="http://www.w3.org/1999/xlink" transform="translate(177.9140625, 70)"><g transform="translate(0, 12.5)"><path d="M -174.9140625 -8.107142448425293 H -36.154022216796875 Q -32.154022216796875 -8.107142448425293 -32.154022216796875 -4.107142448425293 V 10.107142448425293 Q -32.154022216796875 14.107142448425293 -36.154022216796875 14.107142448425293 H -174.9140625 V -8.107142448425293 Z" fill="#cccccc"/><path d="M -177.9140625 -11.107142448425293 H -39.154022216796875 Q -35.154022216796875 -11.107142448425293 -35.154022216796875 -7.107142448425293 V 7.107142448425293 Q -35.154022216796875 11.107142448425293 -39.154022216796875 11.107142448425293 H -177.9140625 V -11.107142448425293 Z" fill="#ffffff"/><text x="-171.9140625" y="0" dy="0.35em" text-anchor="start" style="font-family: Arial; font-size: 16px; font-weight: 500; fill: rgb(0, 0, 0);">Google Play Store</text></g><g transform="translate(0, 45.5)"><text x="-5" y="0" dy="0.35em" text-anchor="end" style="font-family: Arial; font-size: 16px; font-weight: 500; fill: rgb(65, 65, 65);">2009</text></g><rect x="0" y="25" width="16.962939049586776" height="41" fill="#764ba2" rx="0" ry="0" style="stroke: none; stroke-width: 0; filter: none;"/><text x="11.962939049586776" y="45.5" dy="0.35em" text-anchor="end" style="fill: rgb(255, 255, 255); font-family: Arial; font-size: 12px; font-weight: 400; pointer-events: none;">3</text><g transform="translate(0, 94.7)"><text x="-5" y="0" dy="0.35em" text-anchor="end" style="font-family: Arial; font-size: 16px; font-weight: 500; fill: rgb(65, 65, 65);">2010</text></g><rect x="0" y="74.2" width="28.271565082644624" height="41" fill="#764ba2" rx="0" ry="0" style="stroke: none; stroke-width: 0; filter: none;"/><text x="23.271565082644624" y="94.7" dy="0.35em" text-anchor="end" style="fill: rgb(255, 255, 255); font-family: Arial; font-size: 12px; font-weight: 400; pointer-events: none;">5</text><g transform="translate(0, 143.9)"><text x="-5" y="0" dy="0.35em" text-anchor="end" style="font-family: Arial; font-size: 16px; font-weight: 500; fill: rgb(65, 65, 65);">2011</text></g><rect x="0" y="123.4" width="56.54313016528925" height="41" fill="#764ba2" rx="0" ry="0" style="stroke: none; stroke-width: 0; filter: none;"/><text x="51.54313016528925" y="143.9" dy="0.35em" text-anchor="end" style="fill: rgb(255, 255, 255); font-family: Arial; font-size: 12px; font-weight: 400; pointer-events: none;">10</text><g transform="translate(0, 193.10000000000002)"><text x="-5" y="0" dy="0.35em" text-anchor="end" style="font-family: Arial; font-size: 16px; font-weight: 500; fill: rgb(65, 65, 65);">2012</text></g><rect x="0" y="172.60000000000002" width="141.35782541322314" height="41" fill="#764ba2" rx="0" ry="0" style="stroke: none; stroke-width: 0; filter: none;"/><text x="136.35782541322314" y="193.10000000000002" dy="0.35em" text-anchor="end" style="fill: rgb(255, 255, 255); font-family: Arial; font-size: 12px; font-weight: 400; pointer-events: none;">25</text><g transform="translate(0, 242.3)"><text x="-5" y="0" dy="0.35em" text-anchor="end" style="font-family: Arial; font-size: 16px; font-weight: 500; fill: rgb(65, 65, 65);">2013</text></g><rect x="0" y="221.8" width="310.9872159090909" height="41" fill="#764ba2" rx="0" ry="0" style="stroke: none; stroke-width: 0; filter: none;"/><text x="305.9872159090909" y="242.3" dy="0.35em" text-anchor="end" style="fill: rgb(255, 255, 255); font-family: Arial; font-size: 12px; font-weight: 400; pointer-events: none;">55</text><g transform="translate(0, 295.3)"><path d="M -174.9140625 -8.107142448425293 H -64.59709930419922 Q -60.59709930419922 -8.107142448425293 -60.59709930419922 -4.107142448425293 V 10.107142448425293 Q -60.59709930419922 14.107142448425293 -64.59709930419922 14.107142448425293 H -174.9140625 V -8.107142448425293 Z" fill="#cccccc"/><path d="M -177.9140625 -11.107142448425293 H -67.59709930419922 Q -63.59709930419922 -11.107142448425293 -63.59709930419922 -7.107142448425293 V 7.107142448425293 Q -63.59709930419922 11.107142448425293 -67.59709930419922 11.107142448425293 H -177.9140625 V -11.107142448425293 Z" fill="#ffffff"/><text x="-171.9140625" y="0" dy="0.35em" text-anchor="start" style="font-family: Arial; font-size: 16px; font-weight: 500; fill: rgb(0, 0, 0);">iOS App Store</text></g><g transform="translate(0, 328.3)"><text x="-5" y="0" dy="0.35em" text-anchor="end" style="font-family: Arial; font-size: 16px; font-weight: 500; fill: rgb(65, 65, 65);">2009</text></g><rect x="0" y="307.8" width="22.617252066115697" height="41" fill="#667eea" rx="0" ry="0" style="stroke: none; stroke-width: 0; filter: none;"/><text x="17.617252066115697" y="328.3" dy="0.35em" text-anchor="end" style="fill: rgb(255, 255, 255); font-family: Arial; font-size: 12px; font-weight: 400; pointer-events: none;">4</text><g transform="translate(0, 377.5)"><text x="-5" y="0" dy="0.35em" text-anchor="end" style="font-family: Arial; font-size: 16px; font-weight: 500; fill: rgb(65, 65, 65);">2010</text></g><rect x="0" y="357" width="56.54313016528925" height="41" fill="#667eea" rx="0" ry="0" style="stroke: none; stroke-width: 0; filter: none;"/><text x="51.54313016528925" y="377.5" dy="0.35em" text-anchor="end" style="fill: rgb(255, 255, 255); font-family: Arial; font-size: 12px; font-weight: 400; pointer-events: none;">10</text><g transform="translate(0, 426.70000000000005)"><text x="-5" y="0" dy="0.35em" text-anchor="end" style="font-family: Arial; font-size: 16px; font-weight: 500; fill: rgb(65, 65, 65);">2011</text></g><rect x="0" y="406.20000000000005" width="113.0862603305785" height="41" fill="#667eea" rx="0" ry="0" style="stroke: none; stroke-width: 0; filter: none;"/><text x="108.0862603305785" y="426.70000000000005" dy="0.35em" text-anchor="end" style="fill: rgb(255, 255, 255); font-family: Arial; font-size: 12px; font-weight: 400; pointer-events: none;">20</text><g transform="translate(0, 475.90000000000003)"><text x="-5" y="0" dy="0.35em" text-anchor="end" style="font-family: Arial; font-size: 16px; font-weight: 500; fill: rgb(65, 65, 65);">2012</text></g><rect x="0" y="455.40000000000003" width="169.62939049586777" height="41" fill="#667eea" rx="0" ry="0" style="stroke: none; stroke-width: 0; filter: none;"/><text x="164.62939049586777" y="475.90000000000003" dy="0.35em" text-anchor="end" style="fill: rgb(255, 255, 255); font-family: Arial; font-size: 12px; font-weight: 400; pointer-events: none;">30</text><g transform="translate(0, 525.1)"><text x="-5" y="0" dy="0.35em" text-anchor="end" style="font-family: Arial; font-size: 16px; font-weight: 500; fill: rgb(65, 65, 65);">2013</text></g><rect x="0" y="504.6" width="197.9009555785124" height="41" fill="#667eea" rx="0" ry="0" style="stroke: none; stroke-width: 0; filter: none;"/><text x="192.9009555785124" y="525.1" dy="0.35em" text-anchor="end" style="fill: rgb(255, 255, 255); font-family: Arial; font-size: 12px; font-weight: 400; pointer-events: none;">35</text></g>         </g></svg>