<svg xmlns='http://www.w3.org/2000/svg' xmlns:xlink='http://www.w3.org/1999/xlink' width='604' height='472'>
        <g transform='translate(8.400000000000006, -50.19999999999999)'>             <g xmlns="http://www.w3.org/2000/svg" xmlns:xlink="http://www.w3.org/1999/xlink"><path d="M40.584 50.491 C42.544 154.428, 41.493 258.348, 40.14 520.943 M40.463 50.105 C38.489 213.854, 38.283 377.363, 40.593 520.386" stroke="rgb(0, 0, 0)" stroke-width="1" fill="none"/></g><g xmlns="http://www.w3.org/2000/svg" xmlns:xlink="http://www.w3.org/1999/xlink" class="text-container" transform="matrix(1 0 0 1 40 107.642)"><text fill="rgb(65, 65, 65)" x="-10" dy="0.32em" style="font-family: Arial; font-size: 16px; text-anchor: end; fill: rgb(65, 65, 65);font-style: normal;font-weight: 400;font-size: 16px;font-family: Comic Sans MS, cursive;" stroke="none" stroke-width="1px" text-anchor="end" dominant-baseline="auto">2009</text></g><g xmlns="http://www.w3.org/2000/svg" xmlns:xlink="http://www.w3.org/1999/xlink" class="text-container" transform="matrix(1 0 0 1 40 196.321)"><text fill="rgb(65, 65, 65)" x="-10" dy="0.32em" style="font-family: Arial; font-size: 16px; text-anchor: end; fill: rgb(65, 65, 65);font-style: normal;font-weight: 400;font-size: 16px;font-family: Comic Sans MS, cursive;" stroke="none" stroke-width="1px" text-anchor="end" dominant-baseline="auto">2010</text></g><g xmlns="http://www.w3.org/2000/svg" xmlns:xlink="http://www.w3.org/1999/xlink" class="text-container" transform="matrix(1 0 0 1 40 285)"><text fill="rgb(65, 65, 65)" x="-10" dy="0.32em" style="font-family: Arial; font-size: 16px; text-anchor: end; fill: rgb(65, 65, 65);font-style: normal;font-weight: 400;font-size: 16px;font-family: Comic Sans MS, cursive;" stroke="none" stroke-width="1px" text-anchor="end" dominant-baseline="auto">2011</text></g><g xmlns="http://www.w3.org/2000/svg" xmlns:xlink="http://www.w3.org/1999/xlink" class="text-container" transform="matrix(1 0 0 1 40 373.679)"><text fill="rgb(65, 65, 65)" x="-10" dy="0.32em" style="font-family: Arial; font-size: 16px; text-anchor: end; fill: rgb(65, 65, 65);font-style: normal;font-weight: 400;font-size: 16px;font-family: Comic Sans MS, cursive;" stroke="none" stroke-width="1px" text-anchor="end" dominant-baseline="auto">2012</text></g><g xmlns="http://www.w3.org/2000/svg" xmlns:xlink="http://www.w3.org/1999/xlink" class="text-container" transform="matrix(1 0 0 1 40 462.358)"><text fill="rgb(65, 65, 65)" x="-10" dy="0.32em" style="font-family: Arial; font-size: 16px; text-anchor: end; fill: rgb(65, 65, 65);font-style: normal;font-weight: 400;font-size: 16px;font-family: Comic Sans MS, cursive;" stroke="none" stroke-width="1px" text-anchor="end" dominant-baseline="auto">2013</text></g><g xmlns="http://www.w3.org/2000/svg" xmlns:xlink="http://www.w3.org/1999/xlink"><path d="M39.719 76.927 C39.719 76.927, 39.719 76.927, 39.719 76.927 M39.719 76.927 C39.719 76.927, 39.719 76.927, 39.719 76.927 M39.841 81.912 C41.879 80.655, 42.423 78.645, 45.548 77.325 M40.039 82.439 C40.99 81.62, 42.269 79.802, 45.485 76.684 M39.378 88.505 C43.52 85.533, 46.406 82.822, 49.443 77.833 M39.253 89.102 C41.644 86.892, 44.108 83.518, 50.614 76.998 M39.964 94.534 C45.781 87.17, 50.915 79.81, 55.57 75.625 M40.654 94.913 C45.251 88.522, 50.456 81.904, 56.347 76.492 M39.843 102.485 C46.941 94.068, 50.561 87.654, 60.365 77.375 M39.701 101.473 C47.413 93.512, 52.205 86.791, 60.424 77.171 M38.446 106.314 C44.823 101.446, 54.516 92.294, 65.864 77.357 M40.533 107.901 C47.579 97.783, 54.82 88.854, 66.385 76.376 M39.964 114.305 C48.985 106.505, 52.949 96.964, 69.117 80.206 M39.504 112.364 C46.724 104.731, 55.998 95.412, 69.249 79.818 M41.739 118.091 C49.188 107.061, 60.656 92.837, 67.207 86.332 M40.757 119.211 C46.255 111.588, 52.545 104.765, 68.361 86.526 M39.242 123.76 C48.868 112.073, 59.353 104.052, 70.151 93.808 M39.465 124.348 C49.373 116.045, 57.362 105.998, 69.067 92.025 M39.792 130.85 C50.496 118.751, 59.434 106.729, 67.378 98.599 M39.804 132.111 C45.952 125.303, 51.689 117.532, 67.916 98.022 M41.012 137.453 C46.302 131.444, 52.828 124.226, 68.072 102.338 M40.696 138.214 C48.312 128.337, 55.405 120.145, 68.531 104.721 M42.539 139.781 C48.825 132.582, 56.013 125.012, 69.832 108.369 M43.286 139.395 C51.196 131.065, 58.573 122.613, 69.355 110.009 M48.355 140.032 C53.929 134.626, 57.263 128.941, 70.204 118.171 M49.518 138.971 C54.324 132.651, 58.815 128.285, 69.569 116.445 M56.305 140.246 C59.208 133.989, 61.585 131.337, 69.388 120.779 M54.13 139.93 C58.17 135.374, 61.47 131.693, 69.984 121.488 M61.153 138.636 C63.665 133.556, 66.314 130.964, 69.116 128.806 M59.882 138.452 C62.806 134.754, 67.134 131.699, 69.382 128.226 M65.248 138.856 C66.767 137.181, 67.518 136.65, 68.962 134.648 M65.511 138.874 C66.018 137.62, 66.864 136.556, 69.278 134.331" stroke="rgb(63, 138, 255)" stroke-width="0.5" fill="none"/><path d="M40.485 75.839 C48.687 76.092, 55.805 76.657, 68.194 78.147 M39.146 76.638 C49.361 75.786, 57.05 76.804, 68.14 76.539 M68.543 78.177 C67.038 97.376, 69.767 118.115, 69.466 139.967 M69.048 76.811 C68.036 95.104, 69.413 114.59, 68.56 139.621 M68.941 137.231 C59.9 137.528, 47.115 136.879, 40.434 138.5 M69.145 138.516 C62.903 137.889, 56.358 138.292, 40.006 139.512 M40.299 139.997 C40.623 119.536, 40.144 100.851, 41.559 76.113 M39.966 139.526 C39.951 121.438, 39.163 101.629, 39.211 75.993" stroke="rgb(63, 138, 255)" stroke-width="1" fill="none"/></g><g xmlns="http://www.w3.org/2000/svg" xmlns:xlink="http://www.w3.org/1999/xlink"><path d="M39.719 76.927 C39.719 76.927, 39.719 76.927, 39.719 76.927 M39.719 76.927 C39.719 76.927, 39.719 76.927, 39.719 76.927 M39.753 82.067 C42.483 79.935, 44.321 78.297, 45.511 75.859 M39.734 82.387 C41.678 80.906, 43.461 79.031, 45.366 76.574 M39.489 87.599 C43.725 84.831, 48.536 80.084, 50.699 75.999 M40.223 88.4 C43.245 85.579, 46.641 82.23, 50.895 77.583 M39.408 93.625 C46.363 89.987, 51.202 83.306, 55.958 76.365 M41.075 93.629 C43.16 91.542, 46.49 87.628, 55.881 76.495 M40.061 99.468 C45.558 93.68, 52.022 88.144, 61.605 75.468 M40.901 101.88 C48.032 93.201, 56.106 83.168, 61.457 77.374 M40.698 107.34 C48.232 98.029, 56.519 87.26, 64.733 77.682 M38.926 107.891 C50.737 94.725, 62.003 81.879, 67.044 77.038 M38.374 114.083 C46.578 102.172, 56.55 91.897, 72.107 75.644 M40.413 112.873 C47.582 104.23, 56.894 95.749, 70.981 77.56 M39.308 120.98 C53.845 105.168, 63.413 91.618, 77.947 77.158 M40.594 119.369 C48.145 109.14, 56.563 100.527, 76.914 75.845 M40.069 126.153 C51.698 114.784, 59.681 100.981, 77.529 81.291 M40.01 124.965 C56.47 106.621, 72.381 89.832, 79.794 80.115 M39.42 129.655 C51.565 116.167, 64.178 101.648, 80.196 87.44 M40.234 131.322 C52.768 115.205, 65.964 100.251, 79.243 86.567 M40.498 138.254 C49.803 127.463, 59.812 116.79, 79.584 92.684 M39.957 137.165 C47.323 126.671, 57.325 116.769, 79.45 91.917 M42.753 140.055 C54.887 125.273, 67.649 113.808, 81.375 96.633 M43.323 139.973 C54.74 127.294, 65.546 115.169, 79.153 97.726 M51.377 138.812 C56.789 132.679, 61.27 122.523, 79.118 106.261 M49.611 137.724 C55.808 130.773, 62.518 125.305, 79.741 105.151 M52.739 137.371 C62.046 129.747, 71.726 121.82, 80.768 112.333 M55.42 138.296 C62.569 131.475, 68.902 122.108, 79.864 110.743 M58.836 138.845 C65.782 130.653, 73.489 124.446, 78.891 114.792 M60.933 138.441 C64.324 133.345, 69.694 129.417, 79.803 116.763 M63.407 139.094 C70.287 134.107, 75.733 127.873, 78.299 123.649 M66.164 138.672 C70.392 134.17, 75.385 128.286, 78.567 123.682 M72.025 138.913 C73.629 134.716, 75.913 132.819, 79.514 127.614 M70.682 139.166 C73.011 135.213, 76.563 132.794, 79.546 129.118 M76.149 138.885 C76.507 137.954, 77.27 136.763, 78.798 135.399 M76.161 139.146 C77.317 137.162, 78.618 136.075, 79.188 135.217" stroke="rgb(63, 138, 255)" stroke-width="0.5" fill="none"/><path d="M41.599 76.153 C48.653 78.317, 59.057 75.291, 79.812 77.563 M40.364 76.996 C51.085 77.343, 63.184 76.145, 78.371 76.554 M76.796 75.748 C76.497 93.785, 78.805 106.993, 78.426 139.551 M78.458 76.543 C79.041 95.496, 80.731 114.476, 78.521 137.959 M78.076 138.583 C65.188 137.79, 50.061 138.86, 41.798 138.554 M79.252 139.345 C65.805 138.375, 52.911 140.031, 40.17 137.788 M41.589 140.106 C39.5 114.855, 40.025 90.666, 40.43 75.846 M39.391 138.211 C41.014 118.028, 41.373 98.204, 39.781 76.99" stroke="rgb(63, 138, 255)" stroke-width="1" fill="none"/></g><g xmlns="http://www.w3.org/2000/svg" xmlns:xlink="http://www.w3.org/1999/xlink"><path d="M40.327 164.907 C40.327 164.907, 40.327 164.907, 40.327 164.907 M40.327 164.907 C40.327 164.907, 40.327 164.907, 40.327 164.907 M40.289 171.118 C41.621 170.675, 42.078 168.23, 45.632 164.882 M40.357 171.225 C41.064 169.711, 42.461 168.098, 45.326 165.109 M41.22 178.916 C43.989 173.421, 47.927 168.349, 49.639 165.07 M39.216 178.123 C42.693 174.611, 45.858 171.428, 50.92 166.347 M38.659 184.776 C44.195 179.498, 48.451 172.259, 55.452 164.862 M40.412 183.259 C44.617 177.435, 48.82 173.668, 55.631 165.865 M38.313 190.445 C44.748 185.699, 48.715 178.205, 59.791 164.75 M39.532 189.401 C44.454 184.118, 51.197 177.219, 61.925 165.601 M40.355 194.922 C49.457 185.529, 56.684 175.592, 65.765 164.192 M39.856 196.753 C50.377 185.31, 59.481 173.522, 66.4 165.349 M39.877 200.003 C48.29 192.827, 57.433 179.915, 71.393 164.38 M40.792 201.17 C50.344 189.635, 59.532 178.141, 72.047 165.205 M40.844 209.801 C50.585 193.177, 63.574 183.638, 76.47 164.555 M39.167 207.497 C50.039 197.894, 58.657 186.037, 77.987 164.233 M41.055 213.708 C49.738 201.251, 58.397 191.432, 84.084 165.99 M39.304 214.28 C52.072 199.751, 65.785 185.317, 82.597 166.286 M41.191 218.937 C53.856 207.111, 65.001 191.467, 89.039 165.935 M39.815 220.679 C59.704 199.052, 78.506 178.189, 87.405 164.34 M40.122 225.406 C57.357 206.401, 72.752 187.069, 89.421 168.523 M39.395 226.61 C55.827 209.645, 70.05 193.617, 89.399 170.716 M44.21 228.341 C55.523 214.49, 67.575 201.104, 86.714 177.39 M44.121 228.327 C55.525 213.635, 68.211 201.824, 88.862 175.725 M50.033 226.077 C58.542 217.87, 69.857 205.088, 88.521 180.844 M49.18 226.921 C64.024 210.254, 80.065 192.873, 88.737 182.032 M53.518 225.797 C66.257 216.067, 75.19 204.212, 89.253 190.374 M55.583 227.77 C61.74 219.711, 69.138 211.931, 87.915 187.461 M61.357 228.205 C68.886 217.406, 78.511 210.656, 87.522 193.789 M59.383 227.81 C67.449 219.953, 72.412 213.473, 88.616 195.24 M65.02 226.475 C71.534 218.585, 79.995 212.563, 89.858 199.256 M65 227.182 C71.724 220.827, 77.689 214.372, 87.926 200.49 M71.42 227.767 C77.71 217.818, 85.103 214.311, 87.919 206.088 M71.093 226.827 C76.805 222.685, 79.679 217.066, 88.713 206.627 M74.945 229.421 C80.949 223.297, 86.332 215.653, 88.217 211.657 M75.83 227.91 C77.917 225.044, 81.957 221.07, 87.927 212.783 M81.649 227.738 C83.43 224.522, 86.178 220.131, 88.999 219.684 M81.745 226.789 C84.168 224.85, 86.199 221.551, 88.741 218.482 M86.752 227.617 C87.291 227.195, 87.665 226.592, 88.431 225.164 M86.523 227.607 C86.966 226.977, 87.493 226.521, 88.507 225.405" stroke="rgb(63, 138, 255)" stroke-width="0.5" fill="none"/><path d="M41.79 167.272 C51.999 164.322, 68.107 167.706, 86.438 164.5 M40.296 166.244 C59.15 165.316, 78.534 164.108, 89.021 165.89 M87.527 166.207 C88.2 184.021, 86.974 202.944, 88.51 226.205 M88.028 165.643 C87.157 180.083, 87.406 193.958, 88.463 226.804 M87.888 226.048 C71.765 227.767, 56.823 228.195, 38.658 227.25 M88.503 226.881 C76.965 226.71, 64.837 225.844, 40.379 228.213 M39.389 225.429 C41.517 215.122, 41.112 202.27, 39.227 165.594 M39.225 227.713 C38.246 210.853, 39.053 194.094, 40.571 165.963" stroke="rgb(63, 138, 255)" stroke-width="1" fill="none"/></g><g xmlns="http://www.w3.org/2000/svg" xmlns:xlink="http://www.w3.org/1999/xlink"><path d="M40.327 164.907 C40.327 164.907, 40.327 164.907, 40.327 164.907 M40.327 164.907 C40.327 164.907, 40.327 164.907, 40.327 164.907 M39.993 172.062 C41.749 169.386, 44.224 168.068, 45.616 165.488 M39.918 171.021 C41.803 168.725, 44.448 166.397, 45.624 165.455 M40.191 179.281 C42.21 173.437, 45.582 171.226, 51.765 166.969 M40.43 177.188 C41.716 174.542, 44.472 171.832, 49.79 165.854 M39.584 184.34 C45.507 179.986, 50.105 174.864, 55.262 165.867 M39.369 183.302 C46.161 176.56, 52.815 171.022, 55.82 166.112 M41.906 187.932 C47.412 181.252, 56.252 173.935, 61.697 165.654 M39.471 189.044 C45.962 183.824, 50.067 177.719, 61.137 165.423 M38.893 195.473 C50.077 185.261, 60.318 172.689, 68.353 163.589 M40.435 197.05 C45.898 189.103, 52.942 181.332, 66.64 165.666 M40.778 200.268 C47.07 194.597, 52.469 186.587, 73.081 167.077 M39.237 201.676 C50.658 188.576, 62.251 175.002, 71.318 165.901 M38.334 208.89 C53.345 190.855, 69.395 172.963, 77.274 164.398 M39.666 207.184 C52.297 193.393, 65.643 176.92, 77.001 165.793 M41.488 211.848 C55.94 198.058, 71.531 179.394, 82.245 164.999 M40.082 214.427 C56.486 197.579, 70.454 180.513, 82.764 166.26 M38.056 220.35 C51.144 203.428, 66.934 189.669, 86.977 163.515 M40.457 220.925 C56.961 201.227, 72.494 182.874, 86.852 165.48 M40.339 226.114 C54.487 209.781, 67.157 194.735, 94.167 167.295 M40.469 227.34 C58.817 205.059, 78.694 180.79, 92.193 164.797 M42.218 229.373 C55.756 215.409, 66.15 203.239, 97.146 166.593 M43.603 230.186 C59.495 207.187, 78.94 185.863, 98.008 165.626 M46.857 230.661 C66.221 206.925, 87.676 182.743, 102.743 164.426 M47.217 229.292 C65.492 208.683, 83.89 186.008, 103.662 164.807 M52.021 229.294 C69.046 209.483, 83.886 194.564, 107.82 164.226 M53.809 228.89 C69.119 209.388, 87.046 190.708, 109.515 165.252 M60.149 228.558 C79.434 208.63, 98.549 182.874, 115.496 165.837 M57.419 228.998 C79.96 206.882, 100.258 183.11, 114.741 165.439 M63.703 229.532 C82.854 206.746, 101.04 185.471, 120.609 164.239 M64.613 228.622 C83.97 206.44, 102.772 183.218, 120.621 164.705 M69.735 229.154 C90.053 205.666, 115.058 177.893, 122.855 166.886 M68.756 228.865 C89.271 205.444, 110.753 181.702, 124.861 164.638 M74.138 230.152 C88.82 211.134, 104.009 196.777, 131.915 165.738 M73.936 229.984 C98.209 203.141, 120.236 178.483, 130.924 164.599 M79.479 228.167 C95.877 209.776, 114.842 187.319, 134.571 164.788 M79.4 229.112 C94.745 209.704, 110.257 191.782, 135.358 166.048 M86.283 229.094 C94.97 214.736, 109.627 202.374, 138.552 166.3 M84.833 228.891 C96.218 215.906, 108.808 201.111, 138.959 166.381 M88.962 231.454 C108.953 205.915, 129.343 183.079, 138.405 173.886 M89.402 229.915 C107.319 209.078, 125.048 188.327, 139.477 174.35 M96.326 228.055 C109.123 212.302, 127.063 190.65, 137.365 180.779 M95.189 229.078 C110.815 208.977, 127.412 190.257, 138.839 179.309 M101.278 230.071 C111.037 219.116, 117.989 206.706, 138.989 186.476 M101.179 229.493 C112.949 214.728, 125.491 200.584, 138.718 184.949 M104.73 230.816 C115.719 218.763, 126.62 205.253, 138.692 193.709 M105.333 229.676 C116.097 219.237, 124.627 208.291, 139.099 192.859 M110.634 227.731 C118.348 219.693, 126.35 211.129, 140.31 197.472 M111.052 230.266 C122.336 218.586, 132.192 206.575, 139.923 197.31 M118.421 228.612 C123.261 218.128, 135.092 207.534, 139.984 204.803 M116.591 229.295 C122.435 223.853, 127.996 216.83, 139.506 204.539 M123.811 229.348 C126.167 223.826, 132.83 217.167, 141.002 209.401 M122.431 229.875 C126.312 224.443, 128.825 219.455, 138.17 208.763 M126.121 229.517 C129.751 227.23, 135.054 223.261, 138.599 216.371 M126.394 230.273 C130.382 227.022, 132.87 223.678, 139.551 215.5 M132.874 229.233 C134.804 227.776, 135.607 225.046, 138.448 222.285 M133.049 229.218 C135.192 226.365, 137.484 224.01, 138.632 222.641" stroke="rgb(63, 138, 255)" stroke-width="0.5" fill="none"/><path d="M41.731 165.736 C70.037 166.629, 100.621 167.182, 137.829 167.157 M40.84 165.103 C76.273 164.223, 113.511 166.055, 137.196 165.449 M134.664 165.497 C138.915 189.534, 135.915 214.883, 134.454 229.247 M137.109 165.637 C134.35 181.221, 136.027 195.342, 135.364 228.103 M135.414 228.283 C114.926 226.496, 94.275 227.477, 41.22 227.427 M137.106 227.145 C103.558 227.957, 72.031 227.146, 40.518 227.018 M40.427 228.82 C38.721 209.598, 39.847 194.738, 41.398 166.538 M39.688 227.508 C39.855 211.937, 39.453 195.315, 39.201 165.345" stroke="rgb(63, 138, 255)" stroke-width="1" fill="none"/></g><g xmlns="http://www.w3.org/2000/svg" xmlns:xlink="http://www.w3.org/1999/xlink"><path d="M40.279 253.641 C40.279 253.641, 40.279 253.641, 40.279 253.641 M40.279 253.641 C40.279 253.641, 40.279 253.641, 40.279 253.641 M39.744 259.536 C41.309 259.052, 43.203 257.082, 45.038 254.732 M39.955 259.675 C41.729 257.992, 43.143 256.32, 45.61 254.343 M39.654 265.696 C41.776 261.919, 45.48 260.34, 49.927 254.544 M40.375 266.848 C42.028 263.86, 45.383 259.145, 50.232 253.389 M41.382 273.582 C46.257 268.101, 49.909 262.293, 57.513 252.387 M40.656 271.2 C45.78 265.466, 50.891 259.623, 55.205 254.757 M38.751 276.672 C42.836 271.689, 50.996 270.479, 62.311 255.456 M40.051 279.416 C44.958 271.468, 50.314 265.07, 61.567 254.607 M40.21 284.532 C46.751 278.216, 50.756 270.59, 66.746 254.055 M40.938 283.146 C49.893 273.381, 61.372 262.583, 67.327 254.877 M41.123 291.431 C51.084 280.763, 58.807 267.532, 71.707 253.791 M39.494 291.127 C49.311 279.094, 58.793 268.697, 71.052 255.117 M40.156 298.774 C55.632 282.354, 69.175 267.408, 78.067 252.4 M39.767 296.538 C48.974 287.455, 56.594 276.871, 76.439 254.105 M41.351 302.187 C52.205 290.12, 63.236 278.107, 83.703 254.148 M40.344 301.752 C51.097 291.206, 60 280.682, 81.967 253.545 M40.495 310.192 C58.147 291.294, 71.77 271.979, 86.677 251.913 M40.039 308.513 C52.435 294.498, 67.73 278.222, 87.245 253.433 M39.26 313.491 C56.309 298.97, 74.186 277.516, 91.137 256.049 M40.615 315.418 C59.223 292.591, 78.658 269.499, 92.297 254.392 M43.525 317.245 C60.289 296.518, 79.258 277.977, 100.241 253.867 M44.215 316.373 C59.98 299.797, 74.388 281.853, 97.99 254.286 M50.842 316.478 C65.304 300.185, 80.464 278.024, 103.761 255.259 M48.914 317.007 C59.943 303.753, 70.792 291.646, 102.804 254.033 M54.997 317.204 C72.232 296.836, 87.867 275.347, 109.422 252.124 M53.962 316.773 C72.974 296.651, 91.014 274.682, 109.33 254.357 M58.829 315.401 C78.048 297.869, 95.496 276.596, 114.162 252.973 M60.984 315.584 C79.167 294.297, 98.676 273.671, 114.65 253.643 M64.039 316.76 C79.739 298.524, 97.933 277.602, 118.921 253.137 M66.17 316.538 C81.007 298.808, 96.3 280.896, 120.283 253.602 M70.225 315.201 C89.538 292.72, 112.038 272.449, 125.711 253.526 M70.365 316.962 C84.346 299.731, 97.199 285.448, 124.309 253.829 M77.586 317.528 C93.924 293.773, 111.697 276.069, 131.45 252.832 M75.693 316.162 C95.525 291.534, 115.901 267.932, 130.38 253.024 M82.469 315.162 C100.058 295.044, 115.661 275.919, 134.023 255.453 M82.159 315.507 C95.697 299.906, 110.064 284.251, 134.753 254.907 M85.858 314.792 C103.635 296.71, 119.868 280.742, 135.748 259.294 M85.713 315.924 C96.571 302.682, 107.006 290.346, 135.702 258.119 M93.91 316.501 C107.527 296.853, 126.416 278.978, 136.549 263.512 M92.648 316.892 C104.706 301.257, 115.869 287.51, 135.814 265.212 M98.559 314.694 C110.834 298.94, 124.241 285.089, 134.932 271.267 M97.296 316.516 C108.925 303.668, 119.988 290.039, 136.692 270.517 M102.983 316.885 C114.057 303.264, 121.613 293.09, 136.391 276.016 M102.839 315.861 C115.683 300.74, 127.84 287.36, 136.993 275.825 M107.44 317.455 C113.962 309.245, 119.114 303.821, 137.415 281.652 M108.401 316.824 C115.004 307.181, 123.586 298.895, 136.482 283.09 M112.993 317.704 C119.769 311.45, 122.759 302.463, 135.155 288.386 M113.155 316.288 C120.229 308.963, 124.084 303.583, 135.856 288.781 M118.123 315.219 C123.252 309.651, 126.38 304.871, 136.529 293.297 M119.309 316.904 C125.005 309.693, 129.847 302.293, 136.768 295.778 M123.336 318.52 C127.719 313.81, 132.391 306.752, 136.806 300.726 M122.911 315.911 C125.829 313.129, 130.567 309.618, 136.923 302.123 M128.331 317.368 C132.295 314.166, 133.237 308.796, 135.987 306.555 M128.987 316.389 C130.3 314.161, 132.685 312.295, 137.101 307.599 M134.22 316.464 C134.487 315.957, 135.592 315.237, 136.617 313.278 M133.917 316.41 C135.005 315.365, 136.059 314.334, 136.521 313.479" stroke="rgb(63, 138, 255)" stroke-width="0.5" fill="none"/><path d="M38.73 255.039 C70.697 253.187, 102.214 254.949, 135.647 253.451 M39.535 253.204 C70.774 254.641, 102.892 256.266, 135.971 253.706 M134.495 254.192 C138.983 271.098, 138.423 290.652, 135.827 317.96 M135.527 253.944 C135.796 278.004, 137.621 300.565, 136.781 316.625 M137.744 314.703 C103.212 316.886, 68.53 315.283, 40.888 317.33 M136.188 316.322 C117.164 316.799, 97.274 316.784, 40.739 316.824 M38.413 314.424 C37.601 297.033, 39.407 274.617, 41.062 253.905 M40.939 316.088 C40.128 300.071, 40.138 282.508, 40.444 254.417" stroke="rgb(63, 138, 255)" stroke-width="1" fill="none"/></g><g xmlns="http://www.w3.org/2000/svg" xmlns:xlink="http://www.w3.org/1999/xlink"><path d="M40.279 253.641 C40.279 253.641, 40.279 253.641, 40.279 253.641 M40.279 253.641 C40.279 253.641, 40.279 253.641, 40.279 253.641 M39.385 259.671 C41.224 258.588, 42.575 256.759, 45.293 253.97 M39.889 259.991 C41.279 258.986, 42.589 256.818, 45.154 253.729 M39.467 266.446 C43.925 262.037, 45.557 261.458, 51.584 254.023 M39.001 265.972 C42.508 262.773, 45.081 260.475, 51.373 253.091 M40.978 273.26 C44.756 265.944, 49.99 260.873, 55.335 252.665 M39.501 273.039 C44.019 267.479, 49.044 263.219, 56.773 253.3 M40.347 278.048 C44.959 274.441, 50.791 268.539, 59.355 255.34 M40.792 278.068 C47.113 269.243, 53.944 260.537, 59.992 254.127 M41.276 282.147 C47.696 276.813, 52.533 268.513, 66.88 255.431 M40.903 284.757 C46.751 275.542, 53.334 268.432, 66.145 254.85 M41.567 288.895 C46.955 283.92, 51.634 275.112, 71.635 254.362 M40.782 290.195 C47.138 282.556, 52.718 275.306, 71.299 253.977 M40.761 297.689 C50.596 283.663, 62.81 273.021, 79.036 255.022 M39.267 296.801 C53.004 279.963, 68.201 264.379, 77.867 254.288 M40.419 302.037 C52.447 289.362, 65.557 274.672, 80.946 254.913 M39.406 301.766 C54.899 285.497, 71.312 268.858, 81.787 254.867 M39.231 308.358 C51.832 295.734, 59.185 285.028, 89.509 255.412 M39.378 308.004 C56.25 290.118, 72.465 271.927, 86.942 253.803 M40.424 316.6 C59.855 292.151, 76.668 272.633, 94.522 253.296 M40.215 315.455 C54.372 300.215, 66.419 284.454, 93.534 253.935 M43.579 317.209 C56.209 301.42, 73.234 287.295, 99.828 253.586 M44.198 316.464 C55.878 301.394, 69.038 287.056, 98.647 253.018 M50.995 315.818 C66.764 293.844, 87.338 270.514, 103.893 254.929 M50.4 316.861 C61.5 302.558, 73.21 289.664, 104.141 253.782 M53.508 317.201 C71.245 298.062, 89.227 276.717, 107.07 252.391 M54.818 315.676 C71.711 295.34, 90.314 275.949, 109.469 254.382 M59.927 316.234 C75.136 300.155, 89.257 283.031, 112.907 252.879 M60.447 315.813 C72.726 301.97, 84.611 288.816, 113.8 254.909 M66.181 314.497 C77.865 305.278, 89.115 289.687, 121.123 253.689 M64.387 316.709 C78.05 299.506, 91.42 283.984, 118.829 253.119 M70.647 317.639 C82.709 300.449, 98.412 285.96, 124.758 254.842 M71.626 316.062 C87.082 296.743, 104.26 277.024, 125.376 253.882 M74.178 316.486 C91.819 299.988, 107.128 280.558, 128.886 252.631 M75.515 317.069 C94.99 295.125, 113.215 272.802, 129.458 252.909 M80.82 316.525 C100.083 292.961, 119.184 270.805, 135.698 255.649 M82.128 315.273 C97.483 298.037, 112.956 281.39, 135.365 253.258 M85.059 317.122 C104.597 294.287, 124.123 273.473, 139.103 252.632 M87.344 316.823 C102.156 298.241, 117.296 281.267, 141.767 253.83 M91.134 314.525 C105.982 297.454, 122.716 279.039, 146.079 252.106 M92.357 316.639 C108.339 297.175, 124.23 278.291, 146.069 254.467 M98.21 316.598 C115.907 298.843, 131.661 280.665, 152.076 254.883 M96.725 315.412 C118.061 293.493, 139.344 270.06, 150.977 253.965 M103.924 314.95 C124.175 291.69, 144.449 266.272, 155.258 252.826 M101.93 316.108 C117.545 299.406, 131.748 283.67, 155.965 253.337 M106.859 316.47 C120.685 298.397, 133.441 283.825, 163.497 253.288 M107.81 315.573 C124.343 296.607, 140.733 278.074, 162.849 253.103 M112.685 317.258 C128.644 298.035, 145.526 276.561, 165.739 255.067 M113.404 315.197 C128.226 297.767, 142.458 282.328, 166.701 253.424 M116.888 314.405 C136.649 296.799, 151.813 276.471, 173.245 252.115 M118.209 315.65 C131.13 301.521, 145.284 285.663, 173.129 254.432 M123.856 315.948 C140.319 297.999, 158.054 278.233, 178.896 252.362 M122.413 316.732 C138.294 296.983, 154.568 278.577, 176.855 253.804 M129.755 316.826 C144.679 298.011, 158.433 279.666, 181.304 254.35 M129.779 315.197 C145.315 294.129, 163.981 273.856, 182.112 253.873 M133.103 316.523 C153.275 293.146, 172.713 271.52, 187.886 254.296 M133.594 316.997 C154.498 293.932, 174.873 269.156, 188.198 253.229 M139.579 316.989 C157.566 296.686, 172.253 277.479, 194.02 253.031 M139.785 316.572 C158.145 296.623, 174 276.163, 193.439 254.827 M146.575 315.274 C157.503 300.05, 171.809 288.324, 199.031 252.859 M145.456 316.123 C156.461 302.958, 169.065 288.643, 199.056 254.105 M149.203 317.18 C162.163 301.222, 176.195 285.245, 203.619 254.719 M150.824 315.153 C165.507 299.994, 177.892 284.826, 203.567 254.246 M156.195 315.79 C172.925 299.72, 188.021 278.53, 209.102 252.058 M154.758 317.206 C175.552 291.735, 195.788 267.925, 210.225 253.025 M161.174 314.401 C172.011 305.163, 183.517 291.082, 212.779 254.685 M161.52 316.202 C176.478 298.488, 192.266 281.98, 213.964 254.303 M167.72 316.391 C180.548 299.984, 198.557 284.818, 220.468 254.204 M165.185 316.306 C183.663 296.152, 198.858 276.497, 220.215 253.975 M171.069 314.312 C190.743 294.583, 209.715 271.986, 226.784 252.407 M171.906 315.818 C190.858 293.36, 209.689 273.492, 225.82 253.268 M177.782 315.446 C193.871 295.969, 207.601 280.919, 230.236 252.677 M177.45 315.791 C197.229 290.671, 218.458 267.558, 231.022 254.079 M182.932 317.795 C196.542 295.921, 214.558 275.401, 234.069 256.651 M182.697 315.943 C199.337 299.516, 214.405 280.109, 233.483 258.021 M188.483 318.089 C194.884 303.871, 207.613 293.129, 231.536 265.202 M187.635 316.879 C196.299 304.977, 206.783 294.039, 233.271 263.778 M191.592 314.68 C204.553 304.286, 214.175 291.246, 232.641 270.768 M192.787 316.372 C201.716 306.233, 210.279 294.775, 232.938 268.653 M198.604 314.496 C206.386 307.045, 216.622 293.278, 234.044 277.219 M197.631 316.92 C210.232 301.307, 223.392 286.559, 232.548 274.621 M204.441 317.245 C212.762 304.095, 218.765 296.709, 231.252 280.639 M202.759 315.397 C213.67 303.902, 223.436 292.712, 233.301 282.298 M208.556 315.547 C216.259 305.385, 221.391 298.2, 234.053 289.05 M208.668 316.632 C214.881 308.769, 223.203 300.465, 234.12 287.093 M214.791 316.895 C221.534 308.534, 226.748 302.34, 233.377 292.401 M214.49 316.49 C217.862 310.776, 220.655 306.702, 232.755 293.185 M220.094 314.411 C223.192 312.111, 225.776 309.858, 234.105 300.647 M219.281 315.409 C221.122 312.628, 224.704 309.319, 233.521 299.439 M224.382 317.094 C227.065 312.915, 229.155 310.064, 233.901 306.476 M224.958 316.189 C226.247 313.79, 227.878 311.977, 233.815 305.894 M229.623 315.854 C230.646 314.635, 232.519 313.774, 232.814 312.815 M229.563 316.033 C230.487 315.184, 231.379 314.185, 232.732 312.409" stroke="rgb(63, 138, 255)" stroke-width="0.5" fill="none"/><path d="M38.191 253.049 C107.956 253.374, 175.453 254.601, 234.336 252.913 M40.206 254.455 C115.581 250.291, 189.771 250.632, 232.1 253.517 M231.976 254.243 C232.232 271.741, 232.802 293.366, 232.254 317.2 M232.436 254.651 C232.325 273.918, 232.668 294.012, 231.902 315.759 M233.532 315.906 C191.862 317.4, 155.335 316.787, 41.774 317.8 M232.05 316.536 C179.3 313.892, 128.007 312.455, 40.061 315.128 M38.964 316.409 C40.021 295.867, 41.388 276.842, 40.65 252.016 M39.256 315.356 C39.788 304.117, 38.689 289.968, 40.1 254.729" stroke="rgb(63, 138, 255)" stroke-width="1" fill="none"/></g><g xmlns="http://www.w3.org/2000/svg" xmlns:xlink="http://www.w3.org/1999/xlink"><path d="M40.231 342.375 C40.231 342.375, 40.231 342.375, 40.231 342.375 M40.231 342.375 C40.231 342.375, 40.231 342.375, 40.231 342.375 M39.765 349.157 C41.648 346.933, 44.068 344.326, 45.579 342.681 M39.816 348.817 C41.25 347.481, 42.422 346.257, 44.901 342.461 M39.989 355.654 C42.135 351.474, 48.557 345.436, 51.996 342.846 M40.464 355.596 C42.316 352.123, 43.845 348.383, 50.747 342.379 M39.016 361.142 C43.583 355.702, 45.717 351.363, 55.832 343.488 M40.104 360.712 C46.422 355.465, 51.784 349.253, 56.541 342.479 M41.103 366.084 C46.193 359.88, 49.61 352.656, 62.683 341.079 M40.377 366.849 C46.422 360.143, 52.435 352.147, 61.697 342.979 M41.969 372.807 C50.236 362.266, 55.08 356.616, 64.782 341.14 M39.722 372.708 C47.915 365.008, 55.14 356.364, 65.651 341.76 M40.777 379.369 C48.82 369.708, 55.198 361.329, 73.59 343.658 M40.15 379.394 C46.543 371.725, 53.617 363.705, 71.241 342.072 M37.809 385.654 C49.293 373.941, 59.89 363.405, 78.511 341.507 M39.133 386.018 C50.453 374.259, 61.759 361.428, 77.311 343.225 M40.604 392.739 C54.351 371.704, 72.34 353.614, 81.791 344.534 M40.379 391.841 C54.243 376.636, 66.181 362.617, 83.033 343.899 M39.638 399.412 C53.311 383.628, 62.818 369.165, 89.487 343.219 M39.818 397.065 C49.947 383.732, 62.669 371.006, 88.19 342.993 M41.348 401.746 C51.085 387.712, 65.524 376.655, 90.77 342.155 M39.292 402.837 C54.773 387.589, 69.142 368.516, 92.442 343.285 M44.548 403.956 C56.472 390.529, 69.18 379.635, 100.125 343.586 M43.651 405.221 C56.39 389.223, 70.68 374.918, 98.841 342.149 M48.758 405.427 C62.86 391.499, 76.37 377.808, 103.725 344.377 M49.492 404.861 C62.049 388.502, 76.189 373.393, 103.007 342.016 M54.001 404.033 C68.573 386.326, 89.261 366.575, 110.183 341.528 M54.621 405.717 C72.849 381.422, 91.778 358.791, 108.203 341.62 M60.929 404.455 C74.533 386.483, 95.215 368.166, 114.948 341.027 M60.415 404.441 C73.079 391.717, 84.465 377.128, 114.279 341.904 M65.368 404.184 C76.874 389.795, 90.009 377.398, 121.074 340.579 M64.934 405.692 C77.677 389.236, 92.126 373.22, 119.686 341.789 M72.33 406.121 C89.651 381.958, 111.744 357.465, 124.035 344.495 M71.57 405.42 C92.405 380.39, 112.897 357.827, 124.914 342.4 M77.621 404.964 C88.631 391.638, 99.089 377.15, 131.912 342.832 M75.184 405.572 C96.689 381.152, 117.481 357.571, 130.165 342.429 M83.286 405.479 C99.106 388.879, 113.462 369.568, 136.43 344.733 M81.838 404.471 C97.081 384.603, 114.176 366.759, 134.516 342.423 M86.067 404.23 C103.907 387.727, 116.855 370.382, 139.662 341.139 M86.874 404.141 C107.48 381.273, 127.826 357.624, 141.683 342.743 M93.07 404.09 C110.306 386.615, 124.983 366.74, 146.677 342.439 M91.906 404.852 C110.176 384.426, 126.936 365.448, 146.798 343.014 M95.202 403.87 C115.663 384.397, 135.661 362.82, 151.761 343.298 M97.817 405.841 C107.677 391.011, 120.222 379.71, 151.041 343.079 M103.797 403.876 C123.767 381.051, 145.463 354.985, 157.043 341.509 M102.758 404.412 C122.431 383.117, 139.997 361.291, 157.285 342.936 M106.608 405.601 C126.869 382.237, 145.833 361.18, 161.62 342.485 M107.398 405.395 C129.092 382.003, 149.084 358.522, 162.427 341.642 M114.136 403.259 C126.917 387.146, 141.017 369.961, 167.609 344.065 M114.056 403.873 C132.44 381.183, 152.945 358.968, 167.43 343.322 M118.839 405.909 C137.56 380.487, 159.614 357.393, 171.975 342.071 M117.478 405.854 C133.932 385.138, 150.462 367.129, 173.434 342.406 M123.516 406.287 C139.351 384.931, 157.373 367.728, 176.851 341.423 M123.032 404.162 C139.821 385.245, 156.396 365.273, 178.255 343.042 M127.955 405.817 C142.884 389.389, 158.386 372.461, 182.25 342.713 M129.934 405.5 C143.252 387.897, 157.775 371.852, 182.837 343.18 M135.067 405.303 C154.405 382.267, 173.443 360.905, 189.383 344.272 M133.802 404.407 C150.84 387.567, 167.792 368.301, 188.653 343.488 M139.759 406.468 C150.011 391.37, 165.469 375.772, 194.71 341.444 M138.64 404.201 C157.184 383.616, 177.48 361.637, 193.33 342.834 M143.799 404.954 C159.321 388.192, 175.886 367.652, 197.56 343.506 M144.851 405.866 C165.875 380.552, 186.652 356.436, 199.607 343.587 M149.975 406.858 C164.297 387.432, 177.751 373.246, 204.099 344.084 M149.485 404.336 C161.982 390.776, 174.603 376.292, 204.991 343.913 M157.036 403.546 C170.036 386.532, 186.89 367.811, 211.25 340.958 M155.503 404.787 C170.264 389.067, 184.582 372.352, 209.663 342.998 M162.158 403.989 C177.683 382.421, 194.578 365.485, 214.796 343.494 M160.223 405.74 C174.972 391.646, 185.082 377.553, 215.599 343.026 M166.429 406.184 C183.997 385.434, 200.371 366.515, 220.845 344.346 M166.822 404.472 C187.865 379.989, 209.537 355.179, 221.192 342.691 M170.198 406.483 C186.808 389.288, 197.9 372.344, 223.436 342.893 M171.667 405.751 C187.338 386.013, 202.982 368.183, 225.029 343.668 M176.032 405.351 C190.808 391.285, 202.608 378.016, 229.385 340.796 M175.586 405.379 C195.509 384.094, 212.62 364.032, 231.81 342.645 M181.285 405.513 C191.669 394.127, 203.345 381.659, 234.633 344.657 M181.938 404.585 C199.264 383.527, 217.029 364.173, 236.724 342.258 M185.312 405.26 C208.961 381.308, 229.099 355.67, 240.681 341.96 M186.755 405.951 C206.522 383.877, 226.069 360.287, 241.556 341.965 M190.968 403.58 C213.103 380.933, 231.749 357.818, 247.067 344.501 M191.817 404.328 C209.634 382.651, 227.195 362.1, 245.567 343.029 M197.982 404.17 C212.993 385.131, 229.514 366.43, 253.407 342.066 M198.332 404.765 C210.831 390.339, 223.184 375.086, 252.642 342.937 M202.335 403.336 C223.509 380.291, 244.156 361.312, 256.424 343.821 M202.65 403.96 C222.442 382.266, 241.037 360.265, 257.231 342.532 M209.321 403.806 C222.984 390.302, 234.303 372.913, 261.239 342.356 M208.544 405.264 C225.033 387.069, 239.075 369.036, 263.759 343.263 M215.307 402.919 C233.323 381.686, 250.444 360.576, 265.83 343.336 M214.299 404.81 C235.592 382.06, 254.475 358.673, 268.738 341.969 M218.345 406.573 C234.634 386.045, 251.267 368.338, 272.03 340.422 M219.53 404.12 C229.591 393.919, 241.087 380.516, 273.824 342.481 M224.113 406.218 C237.275 388.394, 254.313 372.671, 276.855 344.504 M225.422 403.891 C240.623 386.615, 257.567 366.567, 277.666 342.037 M228.386 403.155 C247.303 384.849, 266.374 364.721, 282.119 346.853 M230.084 404.468 C245.739 386.814, 263.002 369.884, 281.472 346.956 M233.52 403.996 C256.309 385.598, 271.209 362.181, 280.349 353 M235.513 404.968 C252.726 385.331, 266.915 367.333, 280.688 352.573 M239.766 406.163 C247.949 391.894, 259.145 383.927, 279.344 358.586 M240.389 405.788 C254.888 387.36, 270.058 370.846, 279.982 357.617 M244.517 405.734 C252.913 393.652, 261.833 382.62, 280.85 364.657 M245.702 403.692 C254.083 394.218, 262.211 385.154, 281.489 364.773 M249.638 404.22 C257.953 396.263, 264.34 389.61, 282.606 368.781 M251.449 405.847 C260.104 394.481, 269.498 385.138, 281.434 370.348 M257.381 406.118 C262.378 397.889, 269.833 390.437, 281.512 375.272 M256.644 405.051 C260.052 398.218, 266.476 393.702, 280.984 375.779 M261.861 406.14 C263.941 400.092, 271.73 394.313, 279.325 380.855 M262.286 405.352 C267.767 398.6, 274.597 389.747, 280.903 381.415 M268.051 404.021 C268.207 399.635, 272.596 399.615, 280.738 390.62 M265.72 404.656 C271.232 399.479, 276.357 392.121, 281.719 389.293 M273.115 403.641 C275.603 402.874, 277.121 401.042, 281.852 394.322 M272.555 405.119 C274.464 401.621, 276.013 399.461, 281.437 394.054 M276.668 405.729 C278.493 404.217, 278.859 402.795, 280.965 401.115 M276.928 404.904 C278.495 403.712, 279.966 401.766, 280.789 400.961" stroke="rgb(63, 138, 255)" stroke-width="0.5" fill="none"/><path d="M40.266 342.914 C128.374 343.404, 216.945 344.862, 281.655 341.485 M40.405 342.911 C127.905 340.805, 215.322 340.166, 281.723 342.285 M279.809 344.411 C282.247 366.152, 280.196 387.799, 282.529 404.324 M281.419 343.593 C281.915 367.033, 282.723 391.907, 281.085 404.834 M280.851 403.394 C215.342 407.511, 148.555 407.131, 40.123 404.763 M280.71 405.211 C186.887 404.133, 93.143 403.909, 39.266 404.891 M41.438 403.131 C39.935 384.066, 40.387 361.875, 39.69 340.872 M40.571 404.547 C39.047 380.673, 38.726 357.933, 40.789 342.731" stroke="rgb(63, 138, 255)" stroke-width="1" fill="none"/></g><g xmlns="http://www.w3.org/2000/svg" xmlns:xlink="http://www.w3.org/1999/xlink"><path d="M40.231 342.375 C40.231 342.375, 40.231 342.375, 40.231 342.375 M40.231 342.375 C40.231 342.375, 40.231 342.375, 40.231 342.375 M39.179 349.399 C40.998 347.648, 43.451 345.621, 44.857 343.183 M40.284 348.532 C41.723 347.208, 43.035 345.65, 45.498 342.429 M38.9 356.159 C44.175 350.516, 45.655 348.043, 51.084 343.294 M38.951 354.394 C42.802 352.577, 45.025 348.167, 50.721 341.577 M40.845 359.044 C45.737 356.631, 49.15 349.193, 56.628 342.356 M39.308 359.843 C43.84 356.322, 48.119 351.548, 55.021 342.692 M39.487 367.936 C45.959 361.723, 48.754 354.892, 62.905 341.156 M40.154 367.08 C45.389 361.94, 49.697 356.35, 60.748 342.578 M38.333 373.856 C45.985 362.816, 56.004 355.144, 66.2 343.535 M40.981 372.397 C45.864 364.836, 50.964 358.645, 66.046 342.568 M38.687 378.49 C47.99 371.283, 58.956 359.9, 73.777 342.247 M40.87 379.897 C51.842 365.73, 63.671 350.953, 71.235 342.672 M38.27 386.579 C51.328 374.598, 58.282 364.671, 75.518 343.19 M39.011 385.007 C52.663 372.603, 64.586 358.73, 78.061 342.128 M38.579 390.589 C53.704 373.743, 71.63 356.162, 82.732 344.327 M39.336 390.565 C53.949 376.601, 66.025 362.546, 82.25 343.155 M39.823 399.309 C50.388 383.481, 62.126 373.538, 88.198 341.337 M40.633 398.305 C49.717 386.333, 59.326 376.821, 88.446 341.67 M40.137 404.614 C53.178 391.065, 62.751 379.587, 94.01 342.31 M39.86 402.394 C54.099 388.119, 67.952 373.867, 93.165 343.851 M45.905 405.424 C54.399 390.343, 70.679 375.027, 98.121 342.818 M44.233 405.472 C57.298 392.536, 68.5 377.679, 98.697 342.361 M49.814 404.42 C72.206 381.296, 94.267 355.06, 103.738 341.145 M49.609 405.346 C69.474 380.548, 90.331 356.28, 103.532 342.55 M53.536 404.345 C71.665 384.759, 91.201 364.648, 109.131 342.605 M54.515 405.75 C67.65 390.578, 79.418 374.11, 109.948 342.187 M61.254 405.571 C74.158 391.912, 85.134 378.957, 114.189 341.161 M60.012 405.361 C78.653 381.059, 98.481 358.137, 114.417 343.153 M64.206 406.939 C76.693 389.399, 89.971 377.03, 118.514 340.718 M65.387 406.073 C80.292 388.419, 94.846 371.691, 119.294 342.178 M69.513 403.397 C84.162 387.424, 100.592 370.97, 123.727 341.887 M71.214 404.522 C85.34 388.187, 99.88 371.743, 124.003 343.23 M75.427 404.07 C87.212 391.866, 98.591 377.082, 130.692 343.601 M75.141 405.603 C91.846 387.725, 106.145 370.188, 129.979 342.692 M82.9 406.316 C100.529 382.705, 118.787 360, 136.412 344.162 M81.278 403.922 C95.08 388.671, 109.445 372.593, 135.778 342.352 M85.583 403.98 C105.499 381.078, 128.968 357.853, 140.678 343.45 M86.189 405.098 C105.708 384.191, 124.035 361.778, 140.405 342.122 M91.878 403.746 C114.649 377.926, 135.358 355.977, 144.303 343.668 M91.632 404.818 C108.675 385.776, 124.228 367.947, 144.919 341.869 M98.055 404.282 C108.601 394.089, 118.475 380.669, 152.202 343.217 M96.072 404.906 C110.53 389.222, 124.955 373.759, 152.238 342.561 M102.528 404.537 C114.548 389.519, 130.925 370.635, 157.813 344.627 M102.106 403.682 C120.75 383.006, 138.806 361.181, 157.375 343.362 M107.413 406.78 C128.153 380.62, 148.704 358.481, 160.295 340.671 M106.889 404.599 C121.762 389.615, 135.068 375.667, 162.322 342.767 M114.863 404.879 C125.938 393.59, 135.245 377.835, 167.462 341.944 M113.138 405.002 C129.207 384.057, 147.318 364.749, 166.564 343.458 M119.438 406.866 C138.677 380.555, 155.124 358.532, 172.599 341.95 M118.506 405.71 C139.669 383.151, 159.642 359.306, 172.859 342.825 M124.276 403.485 C136.668 391.495, 147.73 377.115, 175.939 341.879 M123.061 405.01 C136.608 390.628, 148.902 374.967, 176.99 343.649 M127.543 404.296 C145.294 390.84, 159.02 372.322, 182.153 343.357 M128.723 403.988 C147.735 382.869, 165.731 361.114, 183.563 341.854 M135.721 405.418 C145.432 389.517, 157.827 374.671, 187.369 343.353 M135.253 404.323 C151.785 384.549, 169.298 363.615, 188.045 342.656 M139.632 406.282 C151.164 390.061, 161.448 376.643, 192.696 342.107 M139.998 404.005 C154.382 390.473, 168.561 373.91, 193.499 343.085 M144.527 405.062 C160.661 388.859, 173.02 369.719, 200.248 340.699 M143.703 404.879 C157.242 391.589, 169.096 376.277, 199.661 342.073 M151.392 405.003 C162.34 392.914, 171.005 379.315, 202.577 344.465 M150.982 405.325 C170.405 382.979, 189.148 361.583, 204.608 342.963 M156.115 405.867 C170.968 386.542, 189.071 367.6, 210.756 343.23 M155.238 404.588 C172.41 384.613, 189.573 363.456, 208.968 342.885 M160.592 405.015 C171.68 387.527, 188.239 373.107, 214.123 341.473 M160.951 404.494 C180.896 380.367, 202.353 357.424, 213.752 343.492 M167.043 406.115 C178.725 387.693, 195.96 370.863, 219.435 343.276 M165.139 404.893 C178.174 390.212, 193.573 373.284, 220.665 343.143 M171.746 405.81 C186.997 388.342, 201.497 368.827, 223.442 342.052 M172.349 404.339 C188.466 387.124, 203.744 369.191, 224.482 342.838 M176.32 407.047 C191.485 384.868, 210.81 367.29, 231.413 344.261 M176.342 406.057 C186.616 391.708, 197.559 380.191, 230.84 342.993 M184.005 405.636 C202.666 382.498, 218.489 362.8, 236.153 344.583 M182.793 404.836 C204.475 380.933, 224.502 356.633, 235.658 341.994 M187.446 406.162 C206.893 382.317, 225.925 359.649, 242.291 340.774 M186.2 404.482 C199.581 390.773, 212.044 376.79, 241.728 341.905 M194.279 404.361 C207.973 390.288, 221.173 372.302, 245.495 341.705 M192.03 403.815 C210.422 386.063, 228.177 365.269, 246.774 342.94 M198.527 405.891 C217.854 382.437, 237.307 360.693, 252.982 343.528 M197.809 405.882 C216.222 383.601, 236.38 362.267, 252.599 342.889 M201.918 404.935 C221.51 386.009, 236.48 365.954, 255.317 344.056 M202.99 405.091 C216.437 387.919, 231.762 370.236, 257.224 343.706 M207.268 404.999 C228.094 382.814, 245.275 361.111, 262.825 343.93 M207.513 404.794 C225.172 386.71, 243.672 366.576, 262.454 342.089 M213.215 406.247 C230.483 389.346, 242.437 372.587, 267.235 343.143 M214.129 404.449 C228.681 387.513, 243.012 370.927, 267.684 342.082 M220.258 404.806 C233.862 391.337, 245.336 374.598, 275.074 343.958 M218.74 404.137 C233.398 386.219, 247.405 370.357, 273.961 342.631 M225.742 402.805 C237.116 390.648, 250.366 379.132, 278.319 343.88 M224.827 405.412 C242.444 385.502, 259.055 367.138, 278.848 342.43 M227.778 406.607 C243.298 391.129, 253.443 376.161, 282.927 341.036 M230.034 405.272 C243.027 389.131, 257.603 374.086, 283.656 343.002 M237.242 405.397 C251.94 386.818, 266.319 370.075, 290.195 342.749 M235.051 404.228 C255.832 379.418, 277.443 356.816, 288.189 343.161 M239.858 403.482 C258.532 384.85, 273.736 365.045, 295.908 342.438 M240.247 404.749 C257.734 383.4, 277.095 362.657, 294.913 342.939 M246.041 404.737 C266.301 381.307, 287.297 357.544, 300.308 341.948 M246.501 405.211 C262.958 384.585, 277.34 367.949, 300.213 343.487 M251.568 403.014 C265.18 389.133, 279.936 372.244, 305.728 342.348 M251.511 405.813 C270.607 382.739, 291.812 358.827, 305.389 342.039 M255.272 404.008 C277.537 382.074, 295.886 360.168, 311.49 341.15 M255.82 405.079 C274.626 383.582, 293.189 363.086, 310.323 342.602 M260.262 404.581 C275.349 389.51, 289.433 373.1, 314.219 342.254 M261.516 405.66 C273.26 392.483, 285.72 379.767, 316.28 343.112 M264.945 404.395 C277.813 390.845, 291.989 376.968, 320.785 342.207 M266.457 404.419 C285.301 381.422, 304.795 358.069, 320.694 342.152 M273.95 403.673 C294.905 381.906, 312.737 356.879, 325.972 344.31 M271.727 405.26 C283.944 388.8, 296.701 374.733, 325.889 343.324 M278.377 406.148 C296.919 381.174, 320.241 359.862, 327.694 345.848 M277.555 405.493 C288.528 392.571, 300.156 379.499, 328.917 345.479 M284.296 404.018 C293.385 390.791, 306.103 377.281, 328.366 348.562 M283.646 404.459 C297.783 387.306, 312.024 370.907, 329.533 349.483 M286.867 403.3 C296.921 395.654, 306.623 386.084, 330.609 356.156 M287.062 405.962 C301.682 387.374, 317.743 370.565, 329.765 357.036 M294.84 404.847 C301.753 396.628, 307.323 387.569, 329.018 363.974 M292.869 405.536 C301.989 394.893, 309.327 384.605, 330.078 362.669 M300.381 403.57 C306.556 396.579, 318.934 384.645, 328.184 367.392 M297.391 405.464 C305.415 396.689, 312.584 389.229, 329.017 368.371 M303.996 403.298 C308.635 399.473, 314.977 394.528, 327.814 374.171 M303.309 405.011 C313.338 394.813, 320.568 385.386, 329.657 375.032 M309.77 404.941 C316.709 398.549, 321.372 389.152, 330.645 382.712 M308.838 404.415 C313.156 400.036, 318.421 393.974, 330.41 380.189 M316.293 404.496 C318.853 399.331, 322.392 395.517, 330.154 387.899 M314.793 404.783 C317.866 400.912, 321.35 396.632, 330.082 386.698 M318.378 404.212 C320.834 401.03, 324.675 400.519, 329.532 394.144 M319.562 404.628 C323.587 401.339, 327.516 396.286, 330.026 394.167 M324.749 405.362 C327.107 402.816, 327.691 401.432, 330.228 399.807 M325.44 404.434 C326.703 403.06, 328.431 401.03, 329.872 399.519" stroke="rgb(63, 138, 255)" stroke-width="0.5" fill="none"/><path d="M38.521 342.59 C110.593 342.991, 177.922 342.871, 328.351 342.672 M39.804 342.091 C125.441 342.057, 210.945 342.276, 329.61 343 M330.142 341.722 C330.39 355.244, 328.646 368.828, 329.724 405.138 M328.51 342.483 C329.488 356.271, 328.197 367.975, 329.125 405.421 M329.431 403.81 C250.414 408.359, 169.835 407.183, 39.335 405.05 M329.81 404.177 C258.648 405.655, 189.131 405.927, 40.415 404.077 M41.585 405.583 C40.856 388.176, 41.146 368.623, 41.699 343.741 M39.156 404.842 C38.608 391.384, 38.911 379.333, 39.829 342.739" stroke="rgb(63, 138, 255)" stroke-width="1" fill="none"/></g><g xmlns="http://www.w3.org/2000/svg" xmlns:xlink="http://www.w3.org/1999/xlink"><path d="M40.183 431.11 C40.183 431.11, 40.183 431.11, 40.183 431.11 M40.183 431.11 C40.183 431.11, 40.183 431.11, 40.183 431.11 M39.712 436.803 C41.451 435.06, 43.092 434.772, 44.951 430.83 M40.213 437.375 C41.604 435.333, 44.397 432.813, 45.259 431.306 M39.021 444.6 C44.979 439.327, 48.856 435.144, 49.75 430.588 M39.761 442.358 C42.039 440.036, 43.913 438.97, 50.689 430.55 M40.831 450.207 C43.548 445.97, 48.359 438.889, 54.085 432.634 M40.617 448.739 C45.968 444.075, 50.83 436.914, 55.255 431.953 M39.053 457.866 C49.84 445.779, 55.8 435.584, 61.493 429.794 M39.094 456.829 C45.227 449.16, 52.347 441.484, 61.939 430.37 M40.366 462.654 C51.788 448.909, 62.221 437.222, 67.72 429.972 M39.749 460.874 C49.691 449.899, 59.722 438.177, 65.782 431.912 M40.627 466.232 C49.902 454.368, 64.602 439.653, 72.711 431.304 M40.382 468.345 C50.286 457.435, 59.119 447.936, 72.557 430.96 M41.671 473.191 C53.486 460.155, 63.247 447.861, 75.558 432.088 M39.806 473.678 C50.79 459.85, 63.804 446.445, 77.53 431.257 M40.498 478.738 C50.037 467.869, 59.88 454.859, 83.624 430.172 M40.415 480.194 C54.664 462.18, 70.857 444.803, 81.754 430.846 M40.535 487.352 C56.581 467.701, 73.441 446.787, 87.728 432.606 M39.848 485.941 C55.618 467.781, 69.955 450.916, 87.814 430.632 M38.563 492.13 C59.137 467.764, 80.032 446.087, 90.91 430.416 M39.922 492.54 C52.484 480.053, 64.38 465.182, 92.811 432.567 M43.253 495.372 C60.036 474.692, 78.315 456.377, 97.393 431.773 M43.388 494.833 C60.559 475.859, 76.032 458.093, 98.893 430.72 M50.431 492.988 C67.606 471.037, 87.655 452.626, 104.397 431.456 M49.606 493.29 C62.265 480.023, 74.862 467.256, 102.489 432.037 M53.84 494.564 C72.291 474.915, 89.793 453.917, 110.28 430.972 M54.73 493.088 C68.357 477.308, 83.079 460.345, 109.268 431.896 M60.81 491.718 C77.394 477.585, 92.273 456.225, 113.259 432.44 M59.593 494.416 C81.177 469.064, 101.939 444.676, 113.481 430.726 M63.257 495.763 C85.679 470.721, 108.19 448.006, 118.455 431.042 M64.659 494.092 C78.014 479.052, 92.423 463.843, 120.162 431.13 M70.295 494.166 C91.84 468.429, 112.418 444.604, 125.978 431.047 M69.815 494.113 C91.886 470.486, 112.128 446.478, 125.547 430.761 M75.61 492.57 C89.231 480.808, 100.831 464.42, 130.451 430.732 M75.547 494.569 C93.505 473.588, 110.586 454.862, 130.924 431.731 M82.511 491.575 C93.073 481.086, 106.187 466.444, 135.582 430.396 M80.994 493.268 C94.149 479.949, 106 464.737, 135.204 432.401 M87.521 493.592 C99.107 478.596, 110.634 464.96, 139.475 430.492 M86.142 492.81 C101.065 474.571, 118.51 455.706, 140.069 431.355 M92.006 492.055 C108.331 472.202, 125.58 451.103, 147.663 430.23 M91.79 493.365 C111.778 469.659, 132.934 444.003, 145.138 430.69 M95.413 494.245 C116.008 471.876, 136.352 450.93, 153.42 429.711 M96.602 494.762 C118.201 468.542, 139.345 444.458, 150.634 430.592 M102.32 495.052 C121.119 474.646, 134.431 455.915, 158.376 432.213 M103.586 492.978 C118.555 474.91, 134.271 458.296, 157.048 431.472 M108.746 494.954 C120.871 479.647, 132.494 463.703, 161.44 430.391 M107.415 493.319 C120.723 476.738, 136.398 457.823, 162.976 430.106 M111.928 494.56 C131.397 468.74, 153.584 445.17, 167.259 433.253 M113.831 493.327 C131.704 471.38, 151.019 448.103, 167.034 431.844 M118.415 495.215 C132.516 473.532, 150.915 459.242, 172.322 431.34 M118.312 492.973 C134.038 475.859, 150.893 457.987, 173.69 430.415 M125.1 491.995 C136.297 479.333, 146.382 468.237, 177.241 432.443 M124.845 492.978 C145.01 467.768, 166.668 445.026, 178.382 430.45 M129.93 494.543 C144.076 474.212, 161.372 458.679, 181.645 430.177 M128.736 493.899 C143.115 479.235, 155.31 462.982, 182.564 431.996 M134.988 494.93 C148.202 480.057, 161.124 464.826, 187.011 432.484 M133.783 493.477 C146.581 476.665, 161.525 461.666, 189.254 430.85 M137.94 493.402 C150.03 479.983, 163.109 463.992, 195.728 430.856 M139.25 493.189 C151.366 479.506, 164.739 465.521, 193.2 430.47 M144.284 494.831 C163.037 473.683, 183.508 450.468, 199.416 432.35 M144.377 492.61 C163.265 474.11, 179.316 453.804, 199.493 430.571 M151.239 493.431 C171.159 469.975, 194.996 444.833, 203.819 431.101 M150.77 494.085 C164.191 475.339, 181.415 458.709, 205.602 430.566 M156.972 493.35 C176.221 472.452, 190.383 453.99, 208.746 432.913 M154.376 494.224 C171.794 475.938, 187.747 456.104, 209.963 430.427 M159.375 495.544 C180.652 470.516, 199.023 452.089, 215.6 430.469 M160.623 492.917 C180.241 470.454, 200.502 447.027, 215.384 431.025 M165.531 492.065 C181.921 475.652, 197.065 460.232, 220.898 429.792 M165.4 493.141 C175.876 481.196, 188.851 469, 220.489 432.054 M170.766 493.719 C184.581 477.065, 201.617 461.477, 225.573 431.012 M171.72 493.815 C192.097 470.211, 211.949 448.365, 224.434 432.357 M176.054 493.188 C192.963 472.475, 213.683 453.532, 229.271 430.095 M176.139 494.081 C187.423 479.793, 201.596 465.488, 231.494 431.677 M180.266 493.622 C199.047 474.921, 216.567 454.345, 236.958 433.15 M183.015 492.675 C200.574 472.478, 218.95 452.038, 236.053 431.926 M185.724 494.651 C205.68 474.668, 220.485 454.885, 239.775 431.046 M187.431 494.459 C199.278 481.879, 209.808 467.149, 241.66 431.238 M190.951 491.616 C210.854 472.261, 228.034 453.631, 247.451 429.917 M193.194 493.061 C210.9 473.666, 227.637 453.656, 246.077 431.824 M199.095 493.073 C213.077 479.618, 225.331 460.545, 252.393 429.795 M197.597 494.193 C216.814 471.884, 235.241 452.621, 251.357 430.855 M202.846 491.548 C220.249 474.635, 235.503 460.165, 259.015 431.389 M202.934 492.537 C220.243 473.729, 236.742 453.617, 257.5 430.774 M207.117 493.237 C225.122 472.084, 242.024 452.906, 261.237 431.229 M207.908 493.634 C229.069 469.61, 250.581 444.668, 263.719 431.209 M214.16 492.273 C231.459 478.819, 244.172 458.785, 269.276 432.172 M213.63 492.598 C224.333 479.21, 235.908 466.14, 267.738 431.239 M220.865 494.563 C231.874 473.937, 251.278 458.404, 274.882 429.155 M219.573 492.905 C231.74 480.247, 243.28 466.291, 274.077 431.836 M223.6 491.699 C244.301 472.716, 263.641 449.259, 276.594 431.147 M224.476 493.487 C243 472.54, 259.935 451.657, 277.955 432.412 M231.11 494.151 C242.736 476.312, 259.453 463.057, 283.154 430.694 M229.824 493.444 C250.426 468.246, 273.05 443.949, 284.088 431.17 M235.441 494.798 C255.883 470.535, 273.991 453.224, 290.094 430.966 M235.915 494.005 C253.187 471.736, 272.566 448.315, 288.093 431.517 M239.841 494.516 C252.902 474.719, 266.251 461.332, 293.243 429.205 M240.831 494.626 C259.232 470.748, 278.099 448.878, 294.876 431.949 M245.364 493.333 C267.197 471.722, 284.947 446.024, 298.203 431.753 M246.225 493.692 C259.483 475.089, 276.105 456.786, 300.439 431.697 M251.391 493.071 C271.12 470.406, 287.904 449.684, 303.929 432.964 M250.766 494.057 C266.509 476.674, 282.449 457.862, 304.317 431.001 M255.635 494.141 C265.349 481.729, 277.357 469.718, 311.847 433.123 M256.925 492.679 C277.352 470.928, 298.07 447.127, 309.589 432.221 M262.268 495.327 C274.413 477.247, 289.438 458.672, 314.586 432.756 M262.358 493.932 C273.185 480.306, 286.137 466.734, 315.794 431.745 M266.896 493.823 C284.305 472.134, 303.803 454.473, 320.076 430.62 M266.238 493.521 C285.624 472.11, 304.248 450.642, 321.456 432.318 M271.195 494.27 C285.988 476.113, 302.077 456.133, 324.11 431.71 M272.779 493.307 C293.531 470.897, 315.292 446.027, 326.767 432.157 M275.786 495.692 C297.82 468.351, 317.014 445.293, 332.136 432.848 M277.575 494.45 C294.568 472.177, 316.042 449.983, 331.283 431.084 M283.605 493.6 C304.132 469.761, 323.413 444.332, 334.899 432.936 M282.549 493.826 C299.938 473.477, 315.551 454.622, 336.242 431.678 M285.948 493.229 C307.705 469.609, 330.937 443.847, 341.452 432.229 M288.138 493.821 C302.635 474.335, 319.982 454.415, 341.494 430.754 M292.688 492.317 C314.093 469.38, 332.151 443.898, 347.476 430.776 M294.146 493.334 C311.766 474.963, 328.315 455.293, 346.232 432.419 M298.514 493.502 C320.093 468.227, 339.352 448.045, 352.928 429.734 M299.217 494.484 C312.633 477.171, 327.564 458.264, 352.182 430.529 M302.652 495.179 C324.671 471.34, 339.685 450.777, 358.196 431.25 M303.736 492.833 C318.906 474.514, 334.91 457.056, 356.905 430.59 M309.975 494.342 C323.648 479.518, 334.87 464.928, 364.077 429.611 M308.509 493.857 C329.24 471.977, 348.835 450.429, 364.324 431.009 M314.557 491.896 C334.759 474.328, 351.53 451.323, 367.603 431.164 M314.499 492.744 C332.905 471.708, 350.52 450.188, 367.559 431.192 M320.818 494.43 C340.531 470.522, 359.915 447.607, 374.051 431.191 M318.906 493.808 C332.731 477.587, 345.093 464.1, 373.736 432 M325.259 494.73 C347.85 467.709, 368.467 445.278, 379.855 430.866 M325.428 493.734 C347.709 469.572, 367.564 446.115, 378.268 430.981 M328.317 493.144 C346.062 473.247, 366.349 453.041, 384.049 430.169 M329.699 493.081 C347.17 476.527, 362.42 457.751, 384.476 431.397 M337.753 494.002 C357.743 470.018, 375.826 443.327, 389.319 430.919 M336.42 494.299 C351.656 472.572, 369.013 453.995, 389.345 431.399 M341.157 494.827 C357.222 476.668, 374.235 454.842, 394.026 429.535 M340.784 493.573 C362.693 468.705, 383.143 445.99, 395.497 431.29 M346.326 495.256 C362.045 475.927, 374.35 459.693, 398.757 429.891 M346.875 492.628 C359.317 478.439, 373.756 461.513, 399.601 431.644 M352.873 494.935 C369.062 472.781, 384.617 454.798, 406.333 431.842 M351.315 494.112 C362.538 479.698, 374.624 466.146, 406.651 430.792 M358.714 491.743 C371.247 480.044, 380.473 465.976, 411.066 430.76 M356.568 494.205 C369.349 479.769, 380.193 466.607, 411.241 431.754 M360.34 494.306 C377.536 477.296, 392.859 458.045, 417.179 431.544 M361.55 493.715 C378.439 476.355, 393.069 459.457, 415.925 430.751 M365.805 492.026 C385.414 469.208, 407.041 448.597, 421.128 431.414 M368.56 492.33 C382.261 478.564, 394.922 462.905, 421.972 430.764 M373.105 495.576 C391.33 473.453, 407.795 452.798, 428.403 429.863 M372.45 494.522 C387.708 478.308, 402.358 460.231, 427.335 431.119 M376.81 492.373 C396.81 470.424, 418.265 445.256, 432.644 429.381 M378.916 494.082 C391.538 477.147, 405.662 461.152, 432.934 431.521 M384.026 494.927 C396.261 478.388, 410.503 461.362, 439.12 430.773 M384.279 493.742 C403.063 471.714, 421.152 450.547, 438.383 431.26 M388.138 494.331 C401.672 479.488, 418.65 462.59, 444.144 432.972 M387.525 493.64 C402.157 477.398, 417.596 459.94, 443.509 431.179 M393.325 493.709 C407.606 475.114, 422.663 461.583, 446.701 433.468 M393.958 494.257 C415.12 470.647, 435.912 445.507, 448.327 432.664 M399.34 494.834 C414.856 472.432, 435.106 450.489, 451.693 431.893 M398.563 492.965 C409.346 480.901, 420.439 468.358, 453.697 430.616 M404.739 493.797 C417.828 475.706, 429.653 462.472, 458.935 429.91 M404.698 493.49 C419.678 478.419, 433.133 463.225, 459.247 432.296 M410.223 494.844 C428.915 471.87, 448.117 448.839, 462.573 430.177 M409.488 494.143 C423.284 475.935, 439.274 458.663, 463.23 430.953 M415.63 494.317 C430.282 476.028, 442.697 463.271, 470.924 431.61 M414.703 493.949 C436.207 468.164, 455.451 445.533, 468.634 430.601 M422.126 494.589 C437.758 471.239, 455.942 452.85, 474.397 432.796 M419.686 494.37 C437.793 471.703, 457.509 449.264, 474.361 430.963 M426.325 491.828 C443.872 470.79, 459.82 452.334, 480.906 431.176 M425.958 492.602 C440.952 474.014, 457.756 454.846, 479.638 431.679 M430.932 494.859 C449.567 475.536, 465.066 453.208, 486.687 432.704 M431.319 494.698 C443.665 481.162, 455.385 467.134, 484.647 431.569 M437.393 492.72 C446.713 480.849, 460.607 464.132, 489.962 430.16 M435.574 493.789 C450.729 476.432, 463.474 460.627, 490.694 430.63 M442.193 492.448 C459.643 472.185, 478.979 447.693, 497.438 430.179 M441.399 492.835 C454.893 479.478, 466.686 465.719, 496.465 430.723 M446.261 495.242 C467.183 470.852, 488.681 446.455, 500.144 429.845 M448.14 493.142 C465.825 470.76, 485.339 449.593, 501.542 431.279 M451.093 492.462 C469.356 475.076, 482.214 460.51, 505.753 432.183 M452.475 493.808 C466.423 476.708, 481.141 461.267, 505.642 430.682 M458.703 492.683 C473.306 471.251, 494.518 450.877, 510.161 430.731 M457.106 492.946 C468.955 478.864, 482.902 462.839, 511.107 431.668 M464.262 494.415 C482.912 472.569, 500.234 451.139, 517.801 432.395 M463.233 493.883 C484.376 470.002, 504.86 445.259, 517.305 431.341 M468.826 493.019 C480.702 479.161, 493.954 464.652, 522.811 430.699 M469.245 492.383 C489.279 472.429, 507.12 449.132, 521.584 431.408 M473.289 493.075 C483.121 482.566, 496.03 467.916, 529.362 431.648 M472.921 493.386 C490.001 477.961, 503.217 460.636, 527.89 430.767 M478.51 492.397 C495.795 477.084, 509.56 460.664, 533.59 430.718 M479.005 493.582 C492.327 476.481, 505.337 461.353, 533.802 431.417 M484.992 491.879 C504.705 469.811, 526.45 445.831, 540.32 430.855 M484.829 494.591 C502.278 475.03, 518.713 454.953, 539.068 431.319 M488.282 493.239 C510.845 468.694, 531.241 443.222, 542.266 430.215 M490.622 492.575 C501.686 480.268, 512.187 465.943, 543.322 432.03 M493.297 492.829 C509.281 471.666, 527.28 453.562, 549.498 432.731 M493.763 493.726 C511.807 473.783, 530.606 452.092, 548.315 430.925 M501.678 493.585 C516.676 472.819, 535.452 452.941, 555.523 433.174 M501.02 493.997 C512.665 477.996, 525.619 463.187, 554.473 431.293 M507.033 495.46 C525.905 468.183, 545.46 445.267, 558.499 430.853 M505.481 493.307 C525.113 470.851, 545.69 446.339, 558.243 431.522 M511.64 492.781 C531.441 472.063, 552.536 446.905, 564.946 429.742 M511.192 494.561 C523.691 477.012, 539.377 460.417, 565.288 430.864 M514.639 493.773 C527.897 479.941, 539.761 465.893, 568.471 430.121 M515.888 494.372 C529.135 479.283, 540.767 466.903, 568.738 432.048 M520.491 495.186 C531.417 481.577, 542.175 472.156, 570.449 438.199 M520.904 493.673 C537.01 474.763, 553.12 455.29, 570.496 437.383 M528.399 494.421 C538.108 481.104, 550.512 465.407, 570.971 445.23 M525.842 494.128 C537.696 481.496, 548.677 468.878, 569.161 442.798 M530.422 495.336 C540.353 481.277, 550.782 473.381, 571.541 449.28 M531.785 494.126 C538.895 483.562, 548.493 474.101, 570.214 450.241 M535.427 491.69 C546.511 482.11, 555.951 472.342, 568.589 454.875 M537.63 492.999 C549.505 478.908, 561.133 465.022, 569.455 456.659 M542.084 494.854 C549.826 486.113, 556.957 477.76, 571.535 461.259 M542.743 493.743 C549.005 486.076, 553.728 480.254, 569.575 461.528 M548.492 493.507 C554.88 484.178, 566.268 473.622, 570.208 468.75 M547.766 493.626 C556.11 484.23, 564.569 475.134, 570.932 467.812 M554.545 493.69 C557.188 487.348, 560.93 481.475, 570.974 474.635 M552.624 493.387 C559.389 486.883, 566.104 478.139, 569.043 474.623 M560.109 491.751 C560.104 491.154, 565.218 486.127, 570.95 478.833 M559.167 492.6 C561.956 488.345, 566.405 483.214, 570.105 480.167 M563.645 494.062 C564.374 492.067, 566.748 491.071, 569.363 487.162 M563.664 493.484 C564.844 491.173, 566.778 488.868, 569.861 485.966 M569.005 493.354 C569.32 493.197, 569.572 492.967, 569.633 492.675 M569.038 493.333 C569.238 493.213, 569.437 493.011, 569.723 492.625" stroke="rgb(63, 138, 255)" stroke-width="0.5" fill="none"/><path d="M39.842 430.972 C180.734 433.325, 320.805 433.273, 570.614 431.557 M39.757 431.013 C189.698 428.294, 339.145 428.458, 570.011 431.102 M570.107 430.163 C570.277 448.702, 570.354 463.167, 569.701 492.973 M570.654 430.59 C569.602 451.135, 569.438 469.929, 570.425 493.315 M570.367 494.138 C436.051 490.073, 300.027 489.711, 40.526 493.935 M569.736 493.4 C440.215 489.877, 311.186 489.483, 39.846 493.768 M39.549 492.483 C39.987 482.616, 40.033 467.289, 39.66 431.588 M40.146 493.566 C40.913 471.87, 39.698 449.833, 40.434 431.797" stroke="rgb(63, 138, 255)" stroke-width="1" fill="none"/></g><g xmlns="http://www.w3.org/2000/svg" xmlns:xlink="http://www.w3.org/1999/xlink"><path d="M40.183 431.11 C40.183 431.11, 40.183 431.11, 40.183 431.11 M40.183 431.11 C40.183 431.11, 40.183 431.11, 40.183 431.11 M40.051 438.216 C40.782 435.727, 41.883 435.35, 45.605 431.976 M40.249 437.207 C40.719 436.338, 41.935 434.669, 45.563 431.814 M38.721 444.005 C45.084 438.394, 48.523 436.132, 50.2 431.907 M40.768 442.406 C43.626 439.615, 46.559 436.12, 51.327 431.458 M40.034 451.235 C46.393 444.614, 51.591 439.833, 54.603 432.25 M40.863 449.801 C46.358 443.422, 50.492 436.806, 55.736 430.552 M40.909 454.926 C46.078 448.209, 54.34 438.563, 61.461 431.202 M39.708 455.997 C45.532 450.172, 49.303 443.686, 60.462 430.224 M41.109 463.4 C49.696 452.274, 57.009 442.595, 66.665 430.054 M39.842 460.898 C49.109 451.469, 57.64 442.091, 67.33 430.853 M40.231 466.823 C50.608 458.237, 58.722 445.258, 73.477 430.667 M39.769 467.402 C47.347 458.871, 56.267 451.417, 71.161 431.23 M41.967 473.174 C50.913 463.55, 58.529 450.059, 75.17 431.555 M40.96 472.97 C51.923 458.697, 63.886 445.566, 77.399 430.781 M40.986 481.08 C56.022 464.241, 69.997 448.898, 83.108 432.007 M40.77 480.705 C56.318 462.027, 71.399 444.481, 82.445 430.263 M41.62 486.11 C54.546 470.056, 70.796 448.629, 87.675 431.296 M39.219 485.874 C50.467 472.195, 61.497 461.198, 87.82 431.112 M41.712 493.92 C52.662 475.061, 65.451 462.729, 91.181 431.771 M39.885 492.768 C57.488 473.528, 73.411 455.825, 91.989 432.325 M44.633 493.115 C61.055 472.135, 82.92 451.977, 96.735 431.529 M43.125 494.124 C64.04 470.757, 83.405 447.176, 98.591 430.469 M49.215 493.433 C65.804 476.716, 81.107 458.281, 103.49 432.164 M48.679 493.384 C67.587 472.643, 86.875 450.065, 103.637 431.437 M56.067 495.521 C64.629 481.923, 76.814 465.576, 109.955 432.387 M54.542 493.999 C69.786 477.287, 85.633 459.904, 109.548 431.962 M59.083 494.152 C69.881 478.735, 82.879 465.429, 114.503 429.933 M59.854 494.062 C81.012 471.997, 99.311 447.879, 114.928 431.76 M66.183 492.956 C80.591 472.718, 97.959 454.354, 117.644 431.568 M64.163 493.856 C85.315 472.495, 103.115 451.073, 119.628 431.065 M68.841 494.28 C83.628 477.607, 96.573 464.265, 123.313 430.165 M69.821 493.371 C84.307 475.812, 98.799 459.453, 123.616 431.366 M75.956 495.2 C93.847 476.666, 109.275 455.416, 128.849 431.056 M75.34 494.337 C96.483 471.707, 115.023 448.557, 130.309 431.98 M82.809 492.066 C98.112 472.971, 118.303 451.266, 135.169 432.822 M80.906 493.12 C95.003 478.55, 108.398 462.351, 136.083 431.929 M85.65 493.862 C107.866 471.199, 127.808 448.477, 140.242 432.014 M86.658 492.987 C99.362 479.309, 113.178 466.155, 141.377 430.53 M91.565 491.956 C107.642 476.521, 122.733 458.763, 146.656 429.862 M91.851 492.49 C113.289 469.978, 133.997 446.728, 146.668 432.298 M96.21 493.368 C116.065 470.229, 134.018 447.047, 149.667 432.323 M97.482 493.667 C111.563 478.917, 123.301 465.287, 151.246 431.208 M102.776 492.013 C110.847 479.504, 123.459 468.904, 154.982 429.833 M101.755 494.136 C117.016 475.398, 131.519 458.45, 157.237 430.602 M106.018 492.037 C119.96 479.131, 132.856 463.178, 163.129 431.574 M107.058 494.446 C117.826 480.843, 128.237 469.347, 161.804 431.462 M111.809 491.531 C126.052 475.256, 139.613 458.8, 169.032 430.005 M113.603 492.813 C125.7 478.359, 138.096 464.533, 166.816 430.455 M116.323 495.086 C130.505 481.33, 141.965 467.364, 171.715 430.121 M117.598 493.766 C137.329 469.309, 159.581 446.092, 171.913 430.107 M125.083 493.674 C135.645 478.353, 147.887 467.166, 176.646 431.094 M124.696 494.243 C138.23 476.074, 153.61 457.129, 178.493 431.896 M129.002 493.453 C148.686 470.937, 165.316 447.674, 184.584 430.304 M129.64 493.487 C140.885 481.246, 152.953 467.05, 182.86 430.876 M132.733 493.257 C152.463 471.55, 170.571 449.232, 188.62 433.256 M133.746 492.515 C149.919 475.103, 166.307 455.491, 188.073 430.818 M139.044 492.634 C154.898 476.357, 170.578 457.239, 193.53 429.407 M140.402 493.926 C158.606 472.01, 179.243 448.638, 193.335 430.235 M146.02 492.961 C156.583 479.159, 171.886 465.423, 200.449 429.581 M144.885 493.921 C162.323 472.802, 178.104 454.828, 198.767 430.634 M151.656 492.441 C167.674 472.102, 189.851 447.643, 206.061 431.379 M150.198 493.769 C165.755 475.761, 182.496 455.576, 203.897 431.731 M155.843 493.349 C169.072 473.529, 184.582 456.353, 208.389 430.064 M155.814 494.492 C174.668 471.938, 194.772 449.951, 208.609 432.164 M162.775 494.248 C174.453 476.802, 188.827 464.54, 212.7 432.072 M160.284 493.329 C182.259 471.421, 201.386 448.96, 213.704 432.347 M167.762 492.764 C175.467 479.448, 188.991 466.527, 221.683 430.874 M166.287 494.249 C182.177 476.376, 199.418 457.82, 219.958 431.835 M170.928 494.047 C183.899 478.856, 199.591 460.117, 225.557 433.354 M171.339 492.758 C187.591 471.162, 206.303 450.493, 225.362 430.687 M175.771 493.616 C197.814 469.843, 219.566 444.78, 229.707 429.783 M175.694 493.233 C197.276 471.838, 217.442 448.917, 230.412 432.053 M182.185 494.755 C199.986 473.363, 214.458 457.819, 237.503 431.665 M182.743 493.403 C196.95 476.484, 211.132 458.979, 236.489 432.458 M185.962 492.728 C207.231 470.802, 225.827 451.5, 241.7 431.795 M187.922 493.649 C199.971 477.317, 214.473 461.337, 241.095 431.697 M191.86 492.144 C207.885 477.446, 223.02 459.827, 246.602 429.584 M192.708 492.72 C209.848 474.996, 224.63 457.904, 246.924 432.474 M196.869 495.042 C214.546 474.735, 233.798 453.289, 252.369 432.33 M197.037 493.987 C212.052 479.868, 223.74 465.291, 251.283 431.197 M203.575 495.228 C222.69 471.473, 238.655 448.142, 258.118 431.006 M203.493 493.532 C218.439 476.787, 233.608 458.661, 256.467 430.762 M209.759 495.137 C223.287 478.758, 235.166 461.564, 262.147 432.403 M208.838 493.544 C227.204 472.168, 245.742 450.996, 262.081 430.432 M213.178 495.206 C231.43 470.92, 252.052 449.079, 266.15 430.819 M214.182 493.856 C230.3 475.228, 246.428 456.211, 267.432 431.613 M219.566 493.238 C229.218 481.29, 240.887 468.361, 271.4 432.579 M219.517 493.611 C232.174 479.503, 245.364 465.662, 274.251 431.697 M223.015 494.6 C233.81 479.95, 247.898 465.971, 276.52 429.852 M223.916 492.699 C237.488 478.879, 250.894 463.391, 277.537 431.489 M229.935 492.246 C241.264 480.821, 251.034 468.881, 282.312 430.176 M229.314 493.922 C242.833 479.188, 257.104 463.192, 284.398 430.472 M236.946 492.932 C254.8 470.931, 275.757 448.214, 289.42 432.322 M235.883 494.167 C254.479 472.041, 272.348 452.425, 289.929 432.022 M240.418 495.01 C257.556 469.33, 280.581 449.123, 294.871 429.87 M239.428 493.242 C257.298 470.696, 277.279 448.746, 294.2 430.755 M245.891 492.458 C255.77 483.128, 268.368 468.895, 299.448 429.493 M245.38 492.384 C263.105 472.677, 283.441 450.75, 299 430.789 M252.766 493.345 C271.674 470.224, 290.054 447.423, 303.62 432.244 M251.69 493.319 C262.543 478.767, 276.956 464.456, 305.448 431.029 M257.29 495.064 C276.455 471.422, 295.682 447.52, 308.642 430.805 M256.286 493.393 C276.324 471.584, 293.94 451.821, 310.229 431.348 M261.909 491.809 C277.549 479.953, 288.486 462.517, 317.759 432.452 M261.173 493.253 C274.682 479.428, 289.784 463.6, 316.655 430.232 M269.098 492.768 C276.441 482.503, 290.308 467.371, 320.471 429.395 M267.318 494.098 C287.752 469.084, 309.247 445.939, 321.75 431.559 M273.455 493.443 C281.884 483.024, 294.203 469.664, 327.587 432.867 M272.67 494.329 C287.344 476.18, 302.622 457.547, 326.818 432.369 M275.756 495.296 C298.502 471.375, 316.39 448.345, 330.349 430.342 M277.597 494.506 C297.102 471.016, 316.032 447.525, 331.837 431.126 M282.056 493.714 C301.119 474.13, 317.773 454.004, 335.514 432.787 M282.392 493.924 C303.025 470.484, 323.208 446.115, 336.101 432.059 M288.185 493.126 C310.001 470.59, 327.703 447.847, 342.328 429.353 M288.37 493.961 C307.878 470.041, 328.744 446.848, 341.465 431.01 M291.526 493.811 C310.923 474.007, 324.38 455.699, 346.472 430.863 M292.665 493.283 C312.471 472.284, 330.859 451.592, 348.101 431.55 M299.444 493.949 C313.052 477.953, 327.286 459.659, 353.966 429.776 M297.466 493.032 C319.818 469.395, 340.02 445.562, 351.955 431.676 M304.443 493.045 C319.442 474.235, 339.336 453.177, 357.699 431.44 M303.407 494.179 C316.175 479.283, 327.22 466.799, 358.23 431.488 M307.083 495.306 C324.46 475.094, 340.295 453.853, 364.63 432.123 M308.541 494.422 C327.717 470.928, 349.084 447.78, 363.594 431.829 M315.646 493.945 C331.935 468.313, 353.793 446.3, 367.776 431.078 M314.986 493.609 C335.036 467.735, 357.232 443.17, 368.091 432.32 M321.421 494.729 C341.523 469.938, 360.957 445.069, 372.735 429.649 M320.394 493.997 C336.928 471.333, 354.004 450.936, 374.06 430.475 M326.03 494.673 C343.907 471.881, 364.763 449.762, 378.161 431.422 M325.095 493.506 C339.754 478.681, 353.004 462.407, 377.73 433.932 M328.646 493.462 C341.163 481.946, 351.784 471.489, 376.414 439.268 M331.193 493.593 C347.393 475.574, 363.293 455.338, 377.241 438.801 M334.902 493.219 C352.847 473.791, 367.849 456.045, 377.223 443.572 M335.763 493.194 C347.557 479.251, 360.69 463.575, 377.576 446.05 M342.603 492.364 C347.994 487.363, 354.73 476.395, 376.878 452.103 M341.213 493.427 C349.406 486.521, 357.585 476.308, 378.08 451.924 M347.614 493.835 C352.908 481.793, 364.734 474.057, 376.896 456.056 M346.165 493.402 C354.445 485.857, 360.473 476.887, 377.414 457.738 M350.393 493.828 C356.721 484.384, 366.312 476.605, 376.53 463.734 M351.93 494.585 C359.178 484.273, 367.58 474.834, 377.804 462.757 M358.054 492.307 C362.83 485.59, 370.553 480.456, 376.876 469.454 M356.754 494.054 C362.335 488.804, 367.842 482.388, 377.575 470.236 M361.525 493.168 C366.224 491.662, 367.786 484.984, 376.413 476.012 M361.889 493.587 C367.029 487.55, 373.699 479.229, 378.183 475.092 M368.308 493.598 C369.999 491.182, 373.296 486.742, 378.739 481.029 M367.537 492.598 C371.299 489.129, 374.003 485.115, 376.919 481.346 M373.052 493.161 C374.999 491.174, 376.502 489.376, 377.014 487.874 M372.621 493.605 C374.355 491.526, 376.245 489.83, 377.514 488.376" stroke="rgb(84, 184, 255)" stroke-width="0.5" fill="none"/><path d="M41.23 432.196 C130.212 431.111, 222.459 431.217, 376.757 432.056 M39.95 431.819 C152.437 429.554, 264.841 429.345, 377.598 430.937 M378.383 429.464 C378.679 452.226, 379.244 474.909, 379.123 491.695 M377.63 432.049 C379.042 446.728, 379.105 463.042, 377.194 494.302 M376.431 493.111 C271.578 489.157, 164.366 491.019, 38.686 493.648 M377.301 493.921 C258.67 495.534, 141.162 495.64, 40.089 492.806 M40.483 492.292 C38.768 467.46, 39.173 442.594, 39.017 430.08 M39.558 493.697 C38.966 470.349, 38.698 449.542, 39.392 432.188" stroke="rgb(84, 184, 255)" stroke-width="1" fill="none"/></g><g xmlns="http://www.w3.org/2000/svg" xmlns:xlink="http://www.w3.org/1999/xlink" class="text-container" transform="matrix(1 0 0 1 40 50)"><text class="label" x="33.90909090909091" y="57.64150943396224" dy="0.32em" style="font-family: Arial; font-size: 16px; fill: rgb(65, 65, 65); opacity: 1;font-style: normal;font-weight: 400;font-size: 16px;font-family: Comic Sans MS, cursive;" stroke="none" stroke-width="1px" fill="rgb(65, 65, 65)" text-anchor="start" dominant-baseline="auto">3</text></g><g xmlns="http://www.w3.org/2000/svg" xmlns:xlink="http://www.w3.org/1999/xlink" class="text-container" transform="matrix(1 0 0 1 40 50)"><text class="label" x="43.54545454545455" y="57.64150943396224" dy="0.32em" style="font-family: Arial; font-size: 16px; fill: rgb(65, 65, 65); opacity: 1;font-style: normal;font-weight: 400;font-size: 16px;font-family: Comic Sans MS, cursive;" stroke="none" stroke-width="1px" fill="rgb(65, 65, 65)" text-anchor="start" dominant-baseline="auto">4</text></g><g xmlns="http://www.w3.org/2000/svg" xmlns:xlink="http://www.w3.org/1999/xlink" class="text-container" transform="matrix(1 0 0 1 40 50)"><text class="label" x="53.18181818181818" y="146.32075471698113" dy="0.32em" style="font-family: Arial; font-size: 16px; fill: rgb(65, 65, 65); opacity: 1;font-style: normal;font-weight: 400;font-size: 16px;font-family: Comic Sans MS, cursive;" stroke="none" stroke-width="1px" fill="rgb(65, 65, 65)" text-anchor="start" dominant-baseline="auto">5</text></g><g xmlns="http://www.w3.org/2000/svg" xmlns:xlink="http://www.w3.org/1999/xlink" class="text-container" transform="matrix(1 0 0 1 40 50)"><text class="label" x="101.36363636363636" y="146.32075471698113" dy="0.32em" style="font-family: Arial; font-size: 16px; fill: rgb(65, 65, 65); opacity: 1;font-style: normal;font-weight: 400;font-size: 16px;font-family: Comic Sans MS, cursive;" stroke="none" stroke-width="1px" fill="rgb(65, 65, 65)" text-anchor="start" dominant-baseline="auto">10</text></g><g xmlns="http://www.w3.org/2000/svg" xmlns:xlink="http://www.w3.org/1999/xlink" class="text-container" transform="matrix(1 0 0 1 40 50)"><text class="label" x="101.36363636363636" y="235" dy="0.32em" style="font-family: Arial; font-size: 16px; fill: rgb(65, 65, 65); opacity: 1;font-style: normal;font-weight: 400;font-size: 16px;font-family: Comic Sans MS, cursive;" stroke="none" stroke-width="1px" fill="rgb(65, 65, 65)" text-anchor="start" dominant-baseline="auto">10</text></g><g xmlns="http://www.w3.org/2000/svg" xmlns:xlink="http://www.w3.org/1999/xlink" class="text-container" transform="matrix(1 0 0 1 40 50)"><text class="label" x="197.72727272727272" y="235" dy="0.32em" style="font-family: Arial; font-size: 16px; fill: rgb(65, 65, 65); opacity: 1;font-style: normal;font-weight: 400;font-size: 16px;font-family: Comic Sans MS, cursive;" stroke="none" stroke-width="1px" fill="rgb(65, 65, 65)" text-anchor="start" dominant-baseline="auto">20</text></g><g xmlns="http://www.w3.org/2000/svg" xmlns:xlink="http://www.w3.org/1999/xlink" class="text-container" transform="matrix(1 0 0 1 40 50)"><text class="label" x="245.9090909090909" y="323.6792452830189" dy="0.32em" style="font-family: Arial; font-size: 16px; fill: rgb(65, 65, 65); opacity: 1;font-style: normal;font-weight: 400;font-size: 16px;font-family: Comic Sans MS, cursive;" stroke="none" stroke-width="1px" fill="rgb(65, 65, 65)" text-anchor="start" dominant-baseline="auto">25</text></g><g xmlns="http://www.w3.org/2000/svg" xmlns:xlink="http://www.w3.org/1999/xlink" class="text-container" transform="matrix(1 0 0 1 40 50)"><text class="label" x="294.09090909090907" y="323.6792452830189" dy="0.32em" style="font-family: Arial; font-size: 16px; fill: rgb(65, 65, 65); opacity: 1;font-style: normal;font-weight: 400;font-size: 16px;font-family: Comic Sans MS, cursive;" stroke="none" stroke-width="1px" fill="rgb(65, 65, 65)" text-anchor="start" dominant-baseline="auto">30</text></g><g xmlns="http://www.w3.org/2000/svg" xmlns:xlink="http://www.w3.org/1999/xlink" class="text-container" transform="matrix(1 0 0 1 40 50)"><text class="label" x="535" y="412.35849056603774" dy="0.32em" style="font-family: Arial; font-size: 16px; fill: rgb(65, 65, 65); opacity: 1;font-style: normal;font-weight: 400;font-size: 16px;font-family: Comic Sans MS, cursive;" stroke="none" stroke-width="1px" fill="rgb(65, 65, 65)" text-anchor="start" dominant-baseline="auto">55</text></g><g xmlns="http://www.w3.org/2000/svg" xmlns:xlink="http://www.w3.org/1999/xlink" class="text-container" transform="matrix(1 0 0 1 40 50)"><text class="label" x="342.27272727272725" y="412.35849056603774" dy="0.32em" style="font-family: Arial; font-size: 16px; fill: rgb(65, 65, 65); opacity: 1;font-style: normal;font-weight: 400;font-size: 16px;font-family: Comic Sans MS, cursive;" stroke="none" stroke-width="1px" fill="rgb(65, 65, 65)" text-anchor="start" dominant-baseline="auto">35</text></g>         </g></svg>