<svg xmlns='http://www.w3.org/2000/svg' xmlns:xlink='http://www.w3.org/1999/xlink' width='493' height='472'>
        <g transform='translate(-56.599999999999994, -79.61538461538461)'>             <defs xmlns="http://www.w3.org/2000/svg" xmlns:xlink="http://www.w3.org/1999/xlink"/><g xmlns="http://www.w3.org/2000/svg" xmlns:xlink="http://www.w3.org/1999/xlink" transform="translate(150, 60)"><path d="M 0 19.615384615384613 L 341.4285714285714 19.615384615384613 L 341.4285714285714 19.615384615384613 L 371.4285714285714 58.84615384615385 L 341.4285714285714 98.07692307692308 L 341.4285714285714 98.07692307692308 L 0 98.07692307692308 Z" fill="#3f8aff" style="stroke: none; stroke-width: 0; filter: none;"/><text x="-58" y="58.84615384615385" dy="0.35em" text-anchor="end" style="font-family: Arial; font-size: 16px; font-weight: 500; fill: rgb(65, 65, 65);">2013</text><text x="376.4285714285714" y="58.84615384615385" dy="0.35em" text-anchor="start" style="font-family: Arial; font-size: 20px; font-weight: 400; fill: rgb(65, 65, 65);">55</text><path d="M 0 19.615384615384613 L 341.4285714285714 19.615384615384613 L 341.4285714285714 19.615384615384613 L 371.4285714285714 58.84615384615385 L 341.4285714285714 98.07692307692308 L 341.4285714285714 98.07692307692308 L 0 98.07692307692308 Z" fill="#3f8aff" style="stroke: none; stroke-width: 0; filter: none;"/><text x="-58" y="58.84615384615385" dy="0.35em" text-anchor="end" style="font-family: Arial; font-size: 16px; font-weight: 500; fill: rgb(65, 65, 65);">2013</text><text x="376.4285714285714" y="58.84615384615385" dy="0.35em" text-anchor="start" style="font-family: Arial; font-size: 20px; font-weight: 400; fill: rgb(65, 65, 65);">55</text><path d="M 0 117.6923076923077 L 138.83116883116884 117.6923076923077 L 138.83116883116884 117.6923076923077 L 168.83116883116884 156.92307692307693 L 138.83116883116884 196.15384615384616 L 138.83116883116884 196.15384615384616 L 0 196.15384615384616 Z" fill="#3f8aff" style="stroke: none; stroke-width: 0; filter: none;"/><text x="-58" y="156.92307692307693" dy="0.35em" text-anchor="end" style="font-family: Arial; font-size: 16px; font-weight: 500; fill: rgb(65, 65, 65);">2012</text><text x="173.83116883116884" y="156.92307692307693" dy="0.35em" text-anchor="start" style="font-family: Arial; font-size: 20px; font-weight: 400; fill: rgb(65, 65, 65);">25</text><path d="M 0 117.6923076923077 L 138.83116883116884 117.6923076923077 L 138.83116883116884 117.6923076923077 L 168.83116883116884 156.92307692307693 L 138.83116883116884 196.15384615384616 L 138.83116883116884 196.15384615384616 L 0 196.15384615384616 Z" fill="#3f8aff" style="stroke: none; stroke-width: 0; filter: none;"/><text x="-58" y="156.92307692307693" dy="0.35em" text-anchor="end" style="font-family: Arial; font-size: 16px; font-weight: 500; fill: rgb(65, 65, 65);">2012</text><text x="173.83116883116884" y="156.92307692307693" dy="0.35em" text-anchor="start" style="font-family: Arial; font-size: 20px; font-weight: 400; fill: rgb(65, 65, 65);">25</text><path d="M 0 215.76923076923077 L 37.532467532467535 215.76923076923077 L 37.532467532467535 215.76923076923077 L 67.53246753246754 255 L 37.532467532467535 294.2307692307692 L 37.532467532467535 294.2307692307692 L 0 294.2307692307692 Z" fill="#3f8aff" style="stroke: none; stroke-width: 0; filter: none;"/><text x="-58" y="255" dy="0.35em" text-anchor="end" style="font-family: Arial; font-size: 16px; font-weight: 500; fill: rgb(65, 65, 65);">2011</text><text x="72.53246753246754" y="255" dy="0.35em" text-anchor="start" style="font-family: Arial; font-size: 20px; font-weight: 400; fill: rgb(65, 65, 65);">10</text><path d="M 0 313.8461538461538 L 3.7662337662337677 313.8461538461538 L 3.7662337662337677 313.8461538461538 L 33.76623376623377 353.07692307692304 L 3.7662337662337677 392.30769230769226 L 3.7662337662337677 392.30769230769226 L 0 392.30769230769226 Z" fill="#3f8aff" style="stroke: none; stroke-width: 0; filter: none;"/><text x="-58" y="353.07692307692304" dy="0.35em" text-anchor="end" style="font-family: Arial; font-size: 16px; font-weight: 500; fill: rgb(65, 65, 65);">2010</text><text x="38.76623376623377" y="353.07692307692304" dy="0.35em" text-anchor="start" style="font-family: Arial; font-size: 20px; font-weight: 400; fill: rgb(65, 65, 65);">5</text><path d="M 0 215.76923076923077 L 37.532467532467535 215.76923076923077 L 37.532467532467535 215.76923076923077 L 67.53246753246754 255 L 37.532467532467535 294.2307692307692 L 37.532467532467535 294.2307692307692 L 0 294.2307692307692 Z" fill="#3f8aff" style="stroke: none; stroke-width: 0; filter: none;"/><text x="-58" y="255" dy="0.35em" text-anchor="end" style="font-family: Arial; font-size: 16px; font-weight: 500; fill: rgb(65, 65, 65);">2011</text><text x="72.53246753246754" y="255" dy="0.35em" text-anchor="start" style="font-family: Arial; font-size: 20px; font-weight: 400; fill: rgb(65, 65, 65);">10</text><path d="M 0 313.8461538461538 L 3.7662337662337677 313.8461538461538 L 3.7662337662337677 313.8461538461538 L 33.76623376623377 353.07692307692304 L 3.7662337662337677 392.30769230769226 L 3.7662337662337677 392.30769230769226 L 0 392.30769230769226 Z" fill="#3f8aff" style="stroke: none; stroke-width: 0; filter: none;"/><text x="-58" y="353.07692307692304" dy="0.35em" text-anchor="end" style="font-family: Arial; font-size: 16px; font-weight: 500; fill: rgb(65, 65, 65);">2010</text><text x="38.76623376623377" y="353.07692307692304" dy="0.35em" text-anchor="start" style="font-family: Arial; font-size: 20px; font-weight: 400; fill: rgb(65, 65, 65);">5</text><path d="M 0 411.9230769230769 L 0 411.9230769230769 L 0 411.9230769230769 L 20.259740259740262 451.15384615384613 L 0 490.38461538461536 L 0 490.38461538461536 L 0 490.38461538461536 Z" fill="#3f8aff" style="stroke: none; stroke-width: 0; filter: none;"/><text x="-58" y="451.15384615384613" dy="0.35em" text-anchor="end" style="font-family: Arial; font-size: 16px; font-weight: 500; fill: rgb(65, 65, 65);">2009</text><text x="25.259740259740262" y="451.15384615384613" dy="0.35em" text-anchor="start" style="font-family: Arial; font-size: 20px; font-weight: 400; fill: rgb(65, 65, 65);">3</text><path d="M 0 411.9230769230769 L 0 411.9230769230769 L 0 411.9230769230769 L 20.259740259740262 451.15384615384613 L 0 490.38461538461536 L 0 490.38461538461536 L 0 490.38461538461536 Z" fill="#3f8aff" style="stroke: none; stroke-width: 0; filter: none;"/><text x="-58" y="451.15384615384613" dy="0.35em" text-anchor="end" style="font-family: Arial; font-size: 16px; font-weight: 500; fill: rgb(65, 65, 65);">2009</text><text x="25.259740259740262" y="451.15384615384613" dy="0.35em" text-anchor="start" style="font-family: Arial; font-size: 20px; font-weight: 400; fill: rgb(65, 65, 65);">3</text></g>         </g></svg>