<svg xmlns='http://www.w3.org/2000/svg' xmlns:xlink='http://www.w3.org/1999/xlink' width='575' height='563'>
        <g transform='translate(-35.0, -3.332231404958719)'>             <g xmlns="http://www.w3.org/2000/svg" xmlns:xlink="http://www.w3.org/1999/xlink" transform="translate(80,40)"><rect width="340" height="500" fill="url(#grid-background-gradient)" class="background" rx="0" ry="0"/><line class="background" x1="-5" y1="500" x2="340" y2="500" stroke="#f0dcc1" stroke-width="1" opacity="0.2"/><line class="background" x1="-5" y1="417.35537190082647" x2="340" y2="417.35537190082647" stroke="#f0dcc1" stroke-width="1" opacity="0.2"/><line class="background" x1="-5" y1="334.7107438016529" x2="340" y2="334.7107438016529" stroke="#f0dcc1" stroke-width="1" opacity="0.2"/><line class="background" x1="-5" y1="252.06611570247938" x2="340" y2="252.06611570247938" stroke="#f0dcc1" stroke-width="1" opacity="0.2"/><line class="background" x1="-5" y1="169.42148760330582" x2="340" y2="169.42148760330582" stroke="#f0dcc1" stroke-width="1" opacity="0.2"/><line class="background" x1="-5" y1="86.77685950413228" x2="340" y2="86.77685950413228" stroke="#f0dcc1" stroke-width="1" opacity="0.2"/><line class="background" x1="-5" y1="4.13223140495872" x2="340" y2="4.13223140495872" stroke="#f0dcc1" stroke-width="1" opacity="0.2"/><line class="background" x1="92.67438242797586" y1="0" x2="92.67438242797586" y2="510" stroke="#f0dcc1" stroke-width="1" opacity="0.3"/><line class="background" x1="169.89421940140627" y1="0" x2="169.89421940140627" y2="510" stroke="#f0dcc1" stroke-width="1" opacity="0.3"/><line class="background" x1="247.11405637483665" y1="0" x2="247.11405637483665" y2="510" stroke="#f0dcc1" stroke-width="1" opacity="0.3"/><g transform="translate(360, 45.454545454545524)"><rect x="0" y="-10" width="23.235351562500004" height="20" fill="#764ba2" rx="0" ry="0"/><path d="             M -12,0              L 0,-10              L 0,10              Z         " fill="#764ba2"/><text x="10.5615234375" y="2" text-anchor="middle" dominant-baseline="middle" style="font-family: Arial; font-size: 16px; fill: rgb(28, 28, 28);">55</text><text x="31.123046875" y="2" text-anchor="start" dominant-baseline="middle" style="font-family: Arial; font-size: 16px; font-weight: bold; fill: rgb(118, 75, 162);">Google Play Store</text></g><g transform="translate(360, 210.74380165289259)"><rect x="0" y="-10" width="23.235351562500004" height="20" fill="#667eea" rx="0" ry="0"/><path d="             M -12,0              L 0,-10              L 0,10              Z         " fill="#667eea"/><text x="10.5615234375" y="2" text-anchor="middle" dominant-baseline="middle" style="font-family: Arial; font-size: 16px; fill: rgb(28, 28, 28);">35</text><text x="31.123046875" y="2" text-anchor="start" dominant-baseline="middle" style="font-family: Arial; font-size: 16px; font-weight: bold; fill: rgb(102, 126, 234);">iOS App Store</text></g><path class="line" fill="none" stroke="#764ba2" stroke-width="2" d="M15.455,475.207C41.194,471.763,66.934,468.32,92.674,458.678C118.414,449.036,144.154,444.904,169.894,417.355C195.634,389.807,221.374,355.231,247.114,293.388C272.925,231.377,298.735,138.416,324.545,45.455"/><path class="line" fill="none" stroke="#667eea" stroke-width="2" d="M15.455,466.942C41.194,453.168,66.934,439.394,92.674,417.355C118.414,395.317,144.154,362.259,169.894,334.711C195.634,307.163,221.374,272.718,247.114,252.066C272.925,231.358,298.735,221.051,324.545,210.744"/><text x="15.454545454545455" y="525" text-anchor="middle" style="font-family: Arial; font-size: 16px; fill: rgb(240, 220, 193);">2009</text><text x="92.67438242797586" y="525" text-anchor="middle" style="font-family: Arial; font-size: 16px; fill: rgb(240, 220, 193);">2010</text><text x="169.89421940140627" y="525" text-anchor="middle" style="font-family: Arial; font-size: 16px; fill: rgb(240, 220, 193);">2011</text><text x="247.11405637483665" y="525" text-anchor="middle" style="font-family: Arial; font-size: 16px; fill: rgb(240, 220, 193);">2012</text><text x="324.54545454545456" y="525" text-anchor="middle" style="font-family: Arial; font-size: 16px; fill: rgb(240, 220, 193);">2013</text><text x="-10" y="500" text-anchor="end" dominant-baseline="middle" style="font-family: Arial; font-size: 16px; fill: rgb(240, 220, 193);">0</text><text x="-10" y="417.35537190082647" text-anchor="end" dominant-baseline="middle" style="font-family: Arial; font-size: 16px; fill: rgb(240, 220, 193);">10</text><text x="-10" y="334.7107438016529" text-anchor="end" dominant-baseline="middle" style="font-family: Arial; font-size: 16px; fill: rgb(240, 220, 193);">20</text><text x="-10" y="252.06611570247938" text-anchor="end" dominant-baseline="middle" style="font-family: Arial; font-size: 16px; fill: rgb(240, 220, 193);">30</text><text x="-10" y="169.42148760330582" text-anchor="end" dominant-baseline="middle" style="font-family: Arial; font-size: 16px; fill: rgb(240, 220, 193);">40</text><text x="-10" y="86.77685950413228" text-anchor="end" dominant-baseline="middle" style="font-family: Arial; font-size: 16px; fill: rgb(240, 220, 193);">50</text><text x="-10" y="4.13223140495872" text-anchor="end" dominant-baseline="middle" style="font-family: Arial; font-size: 16px; fill: rgb(240, 220, 193);">60</text><g transform="translate(-45, -35.867768595041284)"><path d="         M 0,0          H 62.783203125          V 20          H 37.3916015625          L 31.3916015625,26          L 25.3916015625,20          H 0          Z     " fill="transparent" stroke="#f0dcc1" stroke-width="1" stroke-opacity="0.5"/><text x="31.3916015625" y="12" text-anchor="middle" dominant-baseline="middle" style="font-family: Arial; font-size: 16px; fill: rgb(240, 220, 193);">Units</text></g></g><defs xmlns="http://www.w3.org/2000/svg" xmlns:xlink="http://www.w3.org/1999/xlink"><linearGradient class="background" id="grid-background-gradient" x1="0%" y1="0%" x2="0%" y2="100%"><stop offset="0%" stop-color="#f0dcc1" stop-opacity="0"/><stop offset="100%" stop-color="#f0dcc1" stop-opacity="0.3"/></linearGradient><linearGradient id="vertical-grid-gradient" x1="0%" y1="0%" x2="0%" y2="100%"><stop offset="0%" stop-color="#f0dcc1" stop-opacity="0.1"/><stop offset="100%" stop-color="#f0dcc1" stop-opacity="0.4"/></linearGradient><linearGradient id="line-gradient-google-play-store" x1="0%" y1="0%" x2="0%" y2="100%"><stop offset="0%" stop-color="#764ba2" stop-opacity="0.3"/><stop offset="100%" stop-color="#764ba2" stop-opacity="0"/></linearGradient><linearGradient id="line-gradient-ios-app-store" x1="0%" y1="0%" x2="0%" y2="100%"><stop offset="0%" stop-color="#667eea" stop-opacity="0.3"/><stop offset="100%" stop-color="#667eea" stop-opacity="0"/></linearGradient></defs>         </g></svg>