<svg xmlns='http://www.w3.org/2000/svg' xmlns:xlink='http://www.w3.org/1999/xlink' width='540' height='513'>
        <g transform='translate(-20.0, -42.2)'>             <g xmlns="http://www.w3.org/2000/svg" xmlns:xlink="http://www.w3.org/1999/xlink" transform="translate(176, 60)"><line x1="16.545454545454547" y1="0" x2="16.545454545454547" y2="480" stroke="#ffffff" stroke-opacity="0.1" stroke-width="1"/><line x1="99.21610354053885" y1="0" x2="99.21610354053885" y2="480" stroke="#ffffff" stroke-opacity="0.1" stroke-width="1"/><line x1="181.88675253562317" y1="0" x2="181.88675253562317" y2="480" stroke="#ffffff" stroke-opacity="0.1" stroke-width="1"/><line x1="264.55740153070747" y1="0" x2="264.55740153070747" y2="480" stroke="#ffffff" stroke-opacity="0.1" stroke-width="1"/><line x1="347.4545454545455" y1="0" x2="347.4545454545455" y2="480" stroke="#ffffff" stroke-opacity="0.1" stroke-width="1"/><text x="16.545454545454547" y="-10" text-anchor="middle" dominant-baseline="bottom" fill="#ffffff" style="font-size: 12px;">2009</text><text x="16.545454545454547" y="495" text-anchor="middle" dominant-baseline="hanging" fill="#ffffff" style="font-size: 12px;">2009</text><text x="99.21610354053885" y="-10" text-anchor="middle" dominant-baseline="bottom" fill="#ffffff" style="font-size: 12px;">2010</text><text x="99.21610354053885" y="495" text-anchor="middle" dominant-baseline="hanging" fill="#ffffff" style="font-size: 12px;">2010</text><text x="181.88675253562317" y="-10" text-anchor="middle" dominant-baseline="bottom" fill="#ffffff" style="font-size: 12px;">2011</text><text x="181.88675253562317" y="495" text-anchor="middle" dominant-baseline="hanging" fill="#ffffff" style="font-size: 12px;">2011</text><text x="264.55740153070747" y="-10" text-anchor="middle" dominant-baseline="bottom" fill="#ffffff" style="font-size: 12px;">2012</text><text x="264.55740153070747" y="495" text-anchor="middle" dominant-baseline="hanging" fill="#ffffff" style="font-size: 12px;">2012</text><text x="347.4545454545455" y="-10" text-anchor="middle" dominant-baseline="bottom" fill="#ffffff" style="font-size: 12px;">2013</text><text x="347.4545454545455" y="495" text-anchor="middle" dominant-baseline="hanging" fill="#ffffff" style="font-size: 12px;">2013</text><line x1="-156" y1="160" x2="364" y2="160" stroke="#764ba2" stroke-width="1.5" stroke-opacity="0.8"/><path fill="#764ba2" d="M16.545,151.273L30.324,150.303C44.102,149.333,71.659,147.394,99.216,144C126.773,140.606,154.33,135.758,181.887,126.061C209.444,116.364,237.001,101.818,264.595,80C292.19,58.182,319.822,29.091,333.638,14.545L347.455,0L347.455,160L333.638,160C319.822,160,292.19,160,264.595,160C237.001,160,209.444,160,181.887,160C154.33,160,126.773,160,99.216,160C71.659,160,44.102,160,30.324,160L16.545,160Z"/><text x="-156" y="150" text-anchor="start" dominant-baseline="middle" fill="#764ba2" font-weight="bold" style="font-size: 14px;">Google Play Store</text><g transform="translate(364, 0)" fill="none" font-size="10" font-family="sans-serif" text-anchor="start"><path class="domain" stroke="#764ba2" d="M0.5,160.5V0.5"/><g class="tick" opacity="1" transform="translate(0,160.5)"><line stroke="currentColor" x2="0"/><text fill="#764ba2" x="3" dy="0.32em" font-size="10px" dx="0.5em">0</text></g><g class="tick" opacity="1" transform="translate(0,102.31818181818181)"><line stroke="currentColor" x2="0"/><text fill="#764ba2" x="3" dy="0.32em" font-size="10px" dx="0.5em">20</text></g><g class="tick" opacity="1" transform="translate(0,44.13636363636363)"><line stroke="currentColor" x2="0"/><text fill="#764ba2" x="3" dy="0.32em" font-size="10px" dx="0.5em">40</text></g></g><line x1="0" y1="101.81818181818181" x2="364" y2="101.81818181818181" stroke="#764ba2" stroke-opacity="0.2" stroke-width="0.5" stroke-dasharray="2,2"/><line x1="0" y1="43.63636363636363" x2="364" y2="43.63636363636363" stroke="#764ba2" stroke-opacity="0.2" stroke-width="0.5" stroke-dasharray="2,2"/><line x1="-156" y1="400" x2="364" y2="400" stroke="#667eea" stroke-width="1.5" stroke-opacity="0.8"/><path fill="#667eea" d="M16.545,381.714L30.324,377.143C44.102,372.571,71.659,363.429,99.216,351.238C126.773,339.048,154.33,323.81,181.887,308.571C209.444,293.333,237.001,278.095,264.595,266.667C292.19,255.238,319.822,247.619,333.638,243.81L347.455,240L347.455,400L333.638,400C319.822,400,292.19,400,264.595,400C237.001,400,209.444,400,181.887,400C154.33,400,126.773,400,99.216,400C71.659,400,44.102,400,30.324,400L16.545,400Z"/><text x="-156" y="390" text-anchor="start" dominant-baseline="middle" fill="#667eea" font-weight="bold" style="font-size: 14px;">iOS App Store</text><g transform="translate(364, 240)" fill="none" font-size="10" font-family="sans-serif" text-anchor="start"><path class="domain" stroke="#667eea" d="M0.5,160.5V0.5"/><g class="tick" opacity="1" transform="translate(0,160.5)"><line stroke="currentColor" x2="0"/><text fill="#667eea" x="3" dy="0.32em" font-size="10px" dx="0.5em">0</text></g><g class="tick" opacity="1" transform="translate(0,114.78571428571429)"><line stroke="currentColor" x2="0"/><text fill="#667eea" x="3" dy="0.32em" font-size="10px" dx="0.5em">10</text></g><g class="tick" opacity="1" transform="translate(0,69.07142857142858)"><line stroke="currentColor" x2="0"/><text fill="#667eea" x="3" dy="0.32em" font-size="10px" dx="0.5em">20</text></g><g class="tick" opacity="1" transform="translate(0,23.357142857142865)"><line stroke="currentColor" x2="0"/><text fill="#667eea" x="3" dy="0.32em" font-size="10px" dx="0.5em">30</text></g></g><line x1="0" y1="354.2857142857143" x2="364" y2="354.2857142857143" stroke="#667eea" stroke-opacity="0.2" stroke-width="0.5" stroke-dasharray="2,2"/><line x1="0" y1="308.57142857142856" x2="364" y2="308.57142857142856" stroke="#667eea" stroke-opacity="0.2" stroke-width="0.5" stroke-dasharray="2,2"/><line x1="0" y1="262.8571428571429" x2="364" y2="262.8571428571429" stroke="#667eea" stroke-opacity="0.2" stroke-width="0.5" stroke-dasharray="2,2"/></g>         </g></svg>