<svg xmlns='http://www.w3.org/2000/svg' xmlns:xlink='http://www.w3.org/1999/xlink' width='466' height='417'>
        <g transform='translate(-74.3046875, -107.30769230769232)'>             <defs xmlns="http://www.w3.org/2000/svg" xmlns:xlink="http://www.w3.org/1999/xlink"/><g xmlns="http://www.w3.org/2000/svg" xmlns:xlink="http://www.w3.org/1999/xlink" transform="translate(120, 90)"><g transform="translate(0, 17.30769230769232)"><rect x="0" y="0" width="420" height="69.23076923076923" class="background" fill="#e6f0fa" rx="0" ry="0"/><rect x="0" y="0" width="12.6" height="69.23076923076923" fill="#3f8aff" rx="0" ry="0" style="stroke: none; stroke-width: 0; filter: none;"/><text x="17.6" y="34.61538461538461" dy="0.35em" text-anchor="start" style="font-family: Arial; font-size: 27.6923px; font-weight: 400; fill: rgb(65, 65, 65);">3</text><g transform="translate(-45.6953125, 34.61538461538461)"><text x="0" y="0" text-anchor="start" style="font-family: Arial; font-size: 16px; font-weight: 500; fill: rgb(65, 65, 65);">2009</text></g></g><g transform="translate(0, 103.84615384615385)"><rect x="0" y="0" width="420" height="69.23076923076923" class="background" fill="#e6f0fa" rx="0" ry="0"/><rect x="0" y="0" width="21" height="69.23076923076923" fill="#3f8aff" rx="0" ry="0" style="stroke: none; stroke-width: 0; filter: none;"/><text x="26" y="34.61538461538461" dy="0.35em" text-anchor="start" style="font-family: Arial; font-size: 27.6923px; font-weight: 400; fill: rgb(65, 65, 65);">5</text><g transform="translate(-45.6953125, 34.61538461538461)"><text x="0" y="0" text-anchor="start" style="font-family: Arial; font-size: 16px; font-weight: 500; fill: rgb(65, 65, 65);">2010</text></g></g><g transform="translate(0, 190.3846153846154)"><rect x="0" y="0" width="420" height="69.23076923076923" class="background" fill="#e6f0fa" rx="0" ry="0"/><rect x="0" y="0" width="42" height="69.23076923076923" fill="#3f8aff" rx="0" ry="0" style="stroke: none; stroke-width: 0; filter: none;"/><text x="37" y="34.61538461538461" dy="0.35em" text-anchor="end" style="font-family: Arial; font-size: 27.6923px; font-weight: 400; fill: rgb(255, 255, 255);">10</text><g transform="translate(-45.6953125, 34.61538461538461)"><text x="0" y="0" text-anchor="start" style="font-family: Arial; font-size: 16px; font-weight: 500; fill: rgb(65, 65, 65);">2011</text></g></g><g transform="translate(0, 276.9230769230769)"><rect x="0" y="0" width="420" height="69.23076923076923" class="background" fill="#e6f0fa" rx="0" ry="0"/><rect x="0" y="0" width="105" height="69.23076923076923" fill="#3f8aff" rx="0" ry="0" style="stroke: none; stroke-width: 0; filter: none;"/><text x="100" y="34.61538461538461" dy="0.35em" text-anchor="end" style="font-family: Arial; font-size: 27.6923px; font-weight: 400; fill: rgb(255, 255, 255);">25</text><g transform="translate(-45.6953125, 34.61538461538461)"><text x="0" y="0" text-anchor="start" style="font-family: Arial; font-size: 16px; font-weight: 500; fill: rgb(65, 65, 65);">2012</text></g></g><g transform="translate(0, 363.46153846153845)"><rect x="0" y="0" width="420" height="69.23076923076923" class="background" fill="#e6f0fa" rx="0" ry="0"/><rect x="0" y="0" width="231.00000000000003" height="69.23076923076923" fill="#3f8aff" rx="0" ry="0" style="stroke: none; stroke-width: 0; filter: none;"/><text x="226.00000000000003" y="34.61538461538461" dy="0.35em" text-anchor="end" style="font-family: Arial; font-size: 27.6923px; font-weight: 400; fill: rgb(255, 255, 255);">55</text><g transform="translate(-45.6953125, 34.61538461538461)"><text x="0" y="0" text-anchor="start" style="font-family: Arial; font-size: 16px; font-weight: 500; fill: rgb(65, 65, 65);">2013</text></g></g></g>         </g></svg>