<svg xmlns='http://www.w3.org/2000/svg' xmlns:xlink='http://www.w3.org/1999/xlink' width='535' height='478'>
        <g transform='translate(-16.480000000000018, -76.04615384615384)'>             <g xmlns="http://www.w3.org/2000/svg" xmlns:xlink="http://www.w3.org/1999/xlink"><path d="M149.789 79.859 C149.789 79.859, 149.789 79.859, 149.789 79.859 M149.789 79.859 C149.789 79.859, 149.789 79.859, 149.789 79.859 M150.164 85.515 C152.381 83.507, 154.575 81.878, 155.964 79.796 M149.923 85.401 C151.262 84.251, 152.41 82.841, 155.454 79.67 M150.258 92.505 C154.945 88.971, 156.344 83.882, 159.616 79.541 M150.601 91.825 C153.794 87.851, 157.393 82.563, 161.174 80.391 M148.859 96.076 C155.829 89.029, 159.906 85.947, 164.775 80.824 M150.977 97.404 C155.695 91.409, 160.26 84.95, 166.383 78.539 M151.476 104.868 C157.197 95.299, 162.624 88.747, 170.503 79.568 M150.307 104.687 C156.622 96.02, 164.424 88.537, 170.289 79.096 M149.449 109.609 C158.304 101.397, 166.321 92.551, 176.109 78.855 M150.512 109.983 C161.012 97.162, 170.477 85.677, 176.882 78.844 M149.134 114.776 C161.194 103.621, 171.149 91.303, 181.265 81.235 M149.463 115.528 C159.926 105.402, 168.727 95.262, 181.77 79.857 M150.242 122.291 C157.689 112.87, 168.847 100.732, 187.697 78.28 M149.504 121.937 C156.092 113.984, 164.624 103.599, 186.544 80.291 M149.914 128.597 C164.195 110.44, 182.762 91.854, 193.855 78.362 M149.496 128.585 C163.982 110.705, 180.26 94.241, 192.169 79.332 M149.18 134.392 C166.843 114.465, 186.412 92.964, 199.491 78.388 M150.996 134.662 C160.949 119.784, 174.557 105.033, 198.233 79.552 M150.015 142.245 C161.997 125.949, 173.736 113.069, 204.304 79.597 M149.939 140.426 C169.477 116.627, 189.674 93.773, 203.854 79.574 M149.775 146.25 C166.809 129.621, 180.78 113.193, 209.048 78.395 M149.707 146.465 C166.563 126.974, 185.188 105.273, 208.05 79.607 M151.584 154.279 C166.056 133.438, 183.312 116.73, 213.65 79.733 M150.876 153.545 C168.017 133.117, 184.849 113.34, 213.258 79.009 M150.156 158.322 C168.642 134.169, 190.866 112.32, 217.894 79.274 M150.399 157.826 C169.949 134.133, 191.268 110.566, 219.608 79.677 M155.633 159.906 C174.897 137.964, 188.662 118.64, 223.759 79.239 M156.135 158.546 C172.082 136.969, 189.386 117.032, 224.507 79.664 M160.667 159.893 C180.523 137.495, 195.873 113.438, 227.798 80.448 M161.801 157.666 C185.751 127.47, 212.889 96.236, 228.453 80.017 M168.049 159.98 C187.732 135.415, 204.587 112.941, 234.191 79.655 M165.965 158.993 C192.136 128.083, 218.134 98.436, 234.452 79.624 M173.204 159.362 C196.305 125.868, 223.46 95.887, 240.107 78.872 M171.819 157.738 C189.645 140.463, 205.644 123.869, 239.002 80.3 M175.489 159.404 C193.49 141.381, 209.317 120.555, 243.904 80.631 M177.234 159.431 C198.218 135.291, 219.909 110.788, 244.603 80.447 M181.076 157.815 C205.575 131.757, 225.863 104.825, 250.488 79.672 M181.681 157.471 C201.61 136.575, 218.891 114.229, 251.179 79.28 M185.448 160.155 C205.247 137.546, 228.256 116.051, 255.041 80.323 M186.782 157.983 C211.057 129.839, 235.325 100.373, 255.386 80.203 M193.463 158.382 C207.669 140.182, 222.158 125.777, 261.798 81.193 M192.652 157.854 C209.304 140.899, 225.082 123.936, 260.114 79.797 M197.117 157.385 C217.869 134.107, 238.003 112.216, 265.927 78.188 M198.53 159.305 C214.193 140.652, 229.567 122.308, 266.766 80.095 M205.06 156.43 C222.525 135.566, 240.285 111.802, 269.916 80.272 M202.837 157.488 C226.007 131.069, 249.158 105.852, 271.265 79.392 M208.844 158.637 C230.982 133.235, 255.002 106.377, 277.692 78.095 M209.317 158.23 C228.858 135.656, 247.966 112.04, 278.188 79.179 M214.906 159.199 C229.352 141.019, 245.675 120.661, 284.239 78.396 M214.952 157.738 C229.031 139.661, 246.046 121.275, 283.147 80.532 M219.542 159.387 C243.606 130.239, 269.049 101.942, 288.84 80.175 M219.22 158.464 C244.203 130.762, 267.571 103.523, 288.175 79.879 M225.606 157.111 C243.302 139.624, 256.39 122.369, 293.818 80.789 M225.203 158.298 C248.907 130.708, 273.905 103.061, 293.687 80.585 M228.157 160.462 C254.39 128.566, 278.067 100.307, 300.529 77.707 M229.216 158.875 C255.042 128.944, 279.862 98.495, 298.404 80.001 M235.432 158.809 C254.201 140.885, 269.663 121.144, 301.636 79.553 M236.287 157.725 C257.324 135.193, 276.996 112.201, 304.525 79.48 M239.818 156.774 C257.894 137.868, 271.804 116.849, 309.138 78.268 M240.07 157.888 C258.097 136.734, 276.123 118.114, 310.111 79.614 M245.715 158.111 C270.601 133.572, 294.463 106.868, 315.746 81.688 M245.512 157.886 C263.645 136.576, 282.53 115.929, 313.343 79.541 M250.157 157.279 C271.86 134.936, 290.047 111.62, 321.289 79.314 M250.012 158.543 C270.908 136.565, 292.133 111.571, 319.709 78.487 M256.758 157.912 C277.444 136.03, 298.29 109.891, 325.766 80.318 M257.064 157.725 C278.498 132.151, 300.959 106.072, 325.163 78.726 M262.385 160.033 C282.041 132.464, 306.262 107.663, 330.323 78.566 M261.808 158.912 C283.179 135.558, 305.853 110.557, 329.513 79.961 M268.607 160.062 C282.628 140.424, 299.318 122.176, 335.475 81.554 M267.464 158.142 C289.595 135.491, 309.398 111.784, 335.651 79.069 M270.433 156.76 C291.678 136.618, 311.141 114.779, 341.156 79.462 M273.055 158.119 C289.659 136.932, 308.709 115.856, 340.757 80.37 M278.688 157.838 C298.559 131.814, 321.242 107.028, 347.149 77.949 M277.439 158.616 C302.357 128.108, 328.446 98.628, 345.391 79.017 M281.065 157.535 C304.739 132.187, 326.83 108.217, 351.858 81.21 M282.56 157.773 C305.629 131.87, 327.998 104.516, 351.479 80.278 M289.5 157.197 C309.633 134.111, 327.823 110.44, 356.746 80.432 M288.167 158.179 C312.927 129.802, 339.735 97.797, 357.262 79.861 M293.099 158.639 C309.209 137.488, 324.28 121.386, 360.46 78.255 M292.781 158.113 C320.533 128.893, 346.595 98.347, 362.158 79.606 M300.296 158.1 C326.836 127.577, 353.348 98.292, 367.208 78.545 M298.683 158.052 C324.706 128.569, 350.547 99.048, 366.853 78.77 M302.946 158.971 C320.424 138.792, 335.481 121.109, 372.952 79.741 M304.235 159.11 C322.552 137.79, 341.573 116.081, 372.589 79.043 M308.8 157.386 C330.967 136.198, 347.025 113.47, 379.45 78.985 M308.553 158.287 C325.399 140.506, 343.095 121.912, 377.288 78.745 M315.895 157.27 C339.919 132.111, 361.039 103.972, 383.474 79.18 M315.166 157.386 C337.994 131.743, 363.305 104.307, 382.017 79.421 M317.857 157.099 C342.977 133.195, 366.6 104.241, 389.958 80.813 M320.478 158.123 C344.05 129.24, 368.415 100.823, 387.999 79.092 M326.157 159.873 C345.384 135.397, 361.918 116.427, 394.936 81.35 M324.737 157.996 C351.487 127.568, 376.608 98.332, 394.616 79.448 M330.727 158.916 C350.684 138.71, 368.81 117.264, 400.01 79.762 M330.574 157.744 C350.523 137.378, 368.143 117.471, 399.228 78.518 M335.584 159.756 C356.948 135.756, 377.475 109.688, 404.328 81.323 M336.707 158.969 C354.266 137.73, 372.424 117.616, 403.33 80.029 M339.604 159.185 C366.344 126.898, 393.201 96.208, 408.979 80.377 M341.314 159.5 C357.621 139.027, 373.645 120.851, 410.301 80.363 M344.957 157.298 C367.041 137.845, 382.991 117.677, 413.658 81.518 M346.702 157.777 C374.206 126.818, 401.173 96.146, 414.065 80.122 M352.45 156.959 C367.397 142.898, 383.458 124.995, 419.293 77.747 M352.203 158.18 C375.937 131.879, 399.818 104.346, 420.93 80.142 M358.779 157.671 C368.333 141.938, 383.206 127.652, 427.105 79.155 M358.134 159.01 C378.336 130.456, 402.033 104.398, 425.661 80.318 M361.565 158.908 C388.313 129.064, 415.502 98.897, 429.56 78.75 M362.968 158.661 C389.56 128.222, 415.611 100.175, 430.587 79.778 M369.673 157.335 C384.859 141.62, 397.169 121.323, 436.112 78.323 M367.852 158.018 C385.165 139.55, 401.752 118.988, 436.427 79.596 M372.517 157.04 C398.283 128.467, 424.466 101.516, 441.646 80.105 M372.088 157.713 C388.613 140.75, 404.14 123.742, 441.844 79.899 M378.396 159.118 C393.874 138.422, 409.9 117.899, 448.703 77.76 M378.527 158.397 C391.623 141.932, 405.396 124.653, 447.117 79.451 M384.161 158.704 C410.544 126.351, 435.297 98.672, 452.741 77.724 M382.852 158.097 C405.847 132.337, 427.739 107.213, 452.445 78.286 M391.061 158.875 C408.528 135.093, 430.069 110.758, 459.269 80.151 M388.967 157.617 C412.776 132.27, 436.234 105.474, 457.954 79.516 M395.171 157.078 C422.542 128.786, 446.616 97.979, 461.804 78.392 M394.008 157.792 C408.688 142.738, 421.984 128.557, 461.476 79.895 M399.254 157.43 C421.072 136.099, 442.011 112.262, 469.199 79.371 M400.131 157.108 C415.017 138.881, 432.566 120.359, 468.407 78.717 M404.915 158.406 C429.956 129.636, 454.958 103.241, 473.113 81.229 M405.654 158.299 C430.702 129.362, 455.311 101, 473.08 80.394 M408.668 160.724 C434.108 132.703, 454.041 109.429, 480.503 77.663 M410.509 159.282 C429.428 135.205, 448.642 113.728, 478.845 79.252 M415.499 157.284 C442.114 128.337, 464.308 97.471, 485.447 80.158 M415.687 158.859 C439.358 128.858, 465.238 100.553, 483.472 79.379 M421.933 160.348 C440.769 132.606, 463.254 104.947, 489.266 81.119 M420.676 159.748 C444.246 130.787, 469.761 102.29, 489.72 79.687 M427.205 158.574 C449.968 132.975, 470.937 103.655, 493.789 80.839 M425.79 157.932 C443.387 136.293, 461.258 116.969, 493.601 79.896 M431.236 159.201 C450.242 140.94, 467.621 117.679, 498.24 77.909 M430.927 158.12 C447.722 141.376, 462.919 123.676, 500.876 78.844 M436.557 156.675 C452.641 136.706, 468.829 116.435, 503.932 81.813 M437.557 158.051 C453.618 141.428, 468.707 122.308, 505.354 79.748 M441.17 159.66 C465.661 132.025, 486.655 108.313, 509.546 77.49 M442.287 158.966 C460.689 137.938, 477.01 119.365, 509.821 78.513 M449.194 156.436 C469.958 133.792, 493.989 104.566, 516.513 78.049 M446.558 158.79 C471.879 130.823, 496.358 101.768, 515.848 79.003 M450.882 159.561 C471.62 136.101, 491.137 115.733, 522.499 79.892 M452.262 158.878 C478.037 130.555, 503.75 99.745, 520.792 78.55 M458.877 156.33 C485.378 127.465, 510.735 100.312, 523.514 83.569 M457.163 157.691 C480.979 131.091, 505.294 103.884, 523.721 82.073 M464.338 159.85 C478.87 141.689, 492.515 121.591, 524.828 89.338 M462.799 158.108 C477.333 140.071, 492.908 123.321, 524.805 87.858 M467.003 159.49 C482.872 142.744, 497.993 126.141, 523.81 92.726 M467.677 157.551 C479.615 143.844, 493.247 130.017, 524.309 93.888 M472.114 156.648 C483.929 147.091, 495.334 131.277, 522.883 98.571 M474.022 158.834 C493.244 135.47, 512.449 114.038, 525.044 101.258 M477.72 156.342 C492.961 143.844, 506.632 126.19, 524.704 104.385 M479.048 158.078 C489.692 145.834, 501.452 131.758, 524.036 106.895 M482.586 157.904 C502.307 139.831, 515.908 121.107, 522.404 113.539 M483.376 158.081 C497.046 145.563, 507.244 132.295, 523.885 112.574 M488.852 159.111 C497.983 149.115, 506.053 138.114, 524.331 119.857 M490.438 158.982 C499.012 147.92, 510.467 134.717, 524.186 118.641 M496.445 158.194 C501.206 149.384, 506.681 143.513, 522.484 125.499 M495.253 159.26 C505.933 145.788, 517.572 134.302, 523.847 124.804 M500.697 159.918 C508.306 147.234, 519.465 136.551, 524.094 131.965 M499.735 158.119 C509.782 147.797, 518.562 136.291, 524.374 130.44 M504.038 159.366 C509.07 152.392, 514.94 149.921, 522.975 134.857 M505.871 158.261 C511.165 151.36, 519.514 142.446, 524.2 136.011 M510.408 156.889 C518.064 152.239, 521.118 144.92, 523.136 143.261 M510.648 157.563 C514.515 152.667, 519.77 148.819, 524.192 142.302 M515.12 157.362 C519.091 156.606, 520.263 152.714, 523.315 150.241 M516.529 158.218 C518.891 155.625, 521.449 152.638, 524.363 149.515" stroke="rgb(63, 138, 255)" stroke-width="0.5" fill="none"/><path d="M149.957 79.559 C261.282 77.855, 371.381 78.944, 521.637 78.458 M149.923 79.41 C286.641 82.713, 423.916 83.346, 521.183 79.714 M523.373 79.972 C521.781 104.664, 519.485 130.175, 522.016 156.758 M521.67 80.248 C522.642 97.161, 521.896 114.486, 522.053 157.917 M521.163 159.217 C404.733 158.222, 285.399 159.541, 150.503 158.089 M521.06 158.054 C390.139 160.399, 257.655 159.489, 149.656 157.897 M149.966 156.324 C150.005 134.956, 150.566 112.968, 148.413 78.793 M149.151 158.681 C149.12 139.446, 147.63 120.265, 150.958 79.215" stroke="rgb(63, 138, 255)" stroke-width="1" fill="none"/></g><g xmlns="http://www.w3.org/2000/svg" xmlns:xlink="http://www.w3.org/1999/xlink" class="text-container" transform="matrix(1 0 0 1 150 60)"><text x="-95.12" y="58.84615384615385" dy="0.35em" text-anchor="end" style="font-family: Arial; font-size: 16px; font-weight: 500; fill: rgb(65, 65, 65);font-style: normal;font-weight: 500;font-size: 16px;font-family: Comic Sans MS, cursive;" stroke="none" stroke-width="1px" fill="rgb(65, 65, 65)" dominant-baseline="auto">2013</text></g><g xmlns="http://www.w3.org/2000/svg" xmlns:xlink="http://www.w3.org/1999/xlink" class="text-container" transform="matrix(1 0 0 1 150 60)"><text x="376.4285714285714" y="58.84615384615385" dy="0.35em" text-anchor="start" style="font-family: Arial; font-size: 20px; font-weight: 400; fill: rgb(65, 65, 65);font-style: normal;font-weight: 400;font-size: 20px;font-family: Comic Sans MS, cursive;" stroke="none" stroke-width="1px" fill="rgb(65, 65, 65)" dominant-baseline="auto">55</text></g><g xmlns="http://www.w3.org/2000/svg" xmlns:xlink="http://www.w3.org/1999/xlink"><path d="M149.789 79.859 C149.789 79.859, 149.789 79.859, 149.789 79.859 M149.789 79.859 C149.789 79.859, 149.789 79.859, 149.789 79.859 M149.799 86.249 C151.806 83.411, 154.845 80.407, 155.883 80.061 M150.088 85.77 C151.649 83.282, 153.946 81.006, 155.407 79.454 M150.557 90.572 C153.808 89.715, 154.952 86.962, 159.52 79.191 M149.191 91.311 C152.764 88.673, 154.769 86.487, 160.282 80.415 M152.256 99.389 C157.345 92.362, 159.216 86.753, 167.543 80.525 M149.403 97.942 C154.358 93.634, 157.461 90.672, 166.93 80.3 M151.586 102.299 C158.573 95.95, 166.412 85.014, 171.219 79.884 M149.93 104.272 C155.015 97.327, 161.227 91.422, 170.165 80.65 M147.922 111.286 C160.384 100.084, 166.495 88.531, 178.25 79.627 M148.885 110.115 C157.897 100.633, 166.058 91.446, 177.026 78.658 M150.361 117.363 C161.326 104.516, 174.175 89.305, 182.204 81.638 M149.437 116.281 C162.913 100.927, 175.185 87.349, 182.474 79.35 M148.77 121.701 C163.163 104.513, 179.278 92.2, 188.758 79.066 M149.379 122.182 C165.715 106.586, 180.224 88.587, 188.149 79.691 M149.736 128.151 C164.099 114.514, 177.824 95.374, 191.82 80.187 M149.426 128.133 C164.821 113.5, 177.484 97.201, 191.898 79.38 M148.143 136.072 C165.527 119.796, 179.908 103.025, 196.995 78.022 M149.094 134.947 C168.502 111.823, 187.61 91.109, 197.647 78.854 M150.842 142.758 C167.501 121.991, 182.84 98.095, 203.9 79.757 M150.002 141.447 C162.243 124.678, 175.78 108.562, 203.261 80.216 M150.949 145.92 C166.684 130.313, 181.068 111.717, 206.819 81.165 M150.044 145.609 C166.66 128.188, 183.63 110.113, 208.732 79.354 M151.691 151.985 C169.559 132.233, 187.87 111.132, 213.573 80.776 M150.883 153.155 C168.965 131.912, 186.33 111.701, 212.925 80.227 M151.325 156.673 C170.189 137.198, 185.432 116.516, 218.937 77.532 M151.095 158.45 C163.728 141.769, 178.493 125.447, 218.263 78.467 M155.068 159.888 C178.001 129.184, 201.423 103.242, 223.205 81.182 M156.161 158.16 C178.117 133.285, 201.429 108.019, 223.68 79.22 M160.613 158.633 C185.511 131.031, 205.682 105.995, 229.123 79.072 M160.462 157.77 C181.036 133.547, 202.533 109.06, 229.824 80.113 M165.67 158.721 C190.37 128.26, 217.348 102.979, 235.529 78.044 M166.902 159.052 C183.849 137.904, 201.712 119.265, 233.909 79.346 M172.333 159.407 C198.701 129.311, 226.301 96.865, 239.234 81.11 M171.933 158.166 C196.809 127.467, 222.695 98.182, 239.449 80.819 M176.523 159.337 C194.308 138.018, 212.068 117.792, 244.323 80.298 M177.438 159.092 C196.549 134.256, 219.633 110.418, 244.562 78.629 M183.903 157.199 C200.377 135.46, 221.637 111.241, 248.529 81.012 M181.377 157.722 C195.21 141.362, 209.885 125.221, 250.519 80.837 M185.828 158.484 C206.21 130.962, 229.973 108.426, 254.302 77.764 M187.951 157.804 C206.857 137.105, 227.174 112.929, 255.244 79.131 M191.585 159.075 C216.347 127.505, 244.636 97.255, 260.191 78.327 M192.917 157.629 C215.915 131.487, 239.068 102.375, 260.08 80.585 M198.391 157.777 C220.805 128.206, 248.191 100.311, 268.189 79.963 M197.961 159.525 C218.993 134.401, 239.656 109.212, 267.21 79.135 M204.921 160.323 C218.979 139.854, 236.87 120.392, 271.525 81.132 M202.517 157.963 C228.334 128.699, 253.731 99.615, 271.655 79.673 M209.928 159.895 C234.152 127.062, 263.693 95.991, 276.738 79.352 M209.395 159.655 C230.881 133.849, 254.533 106.111, 277.01 79.348 M215.288 158.18 C229.515 138.382, 250.03 115.085, 282.224 81.511 M214.353 158.59 C231.583 138.801, 249.812 120.191, 282.799 79.446 M217.367 158.377 C240.164 136.969, 255.321 117.051, 289.289 79.733 M218.703 158.302 C242.755 133.712, 266.54 105.88, 287.481 79.808 M225.712 159.77 C247.694 129.476, 271.594 102.968, 294.417 79.078 M223.771 159.222 C252.006 125.987, 278.628 95.647, 292.905 80.227 M231.091 158.112 C255.913 129.144, 284.959 99.279, 299.816 80.138 M230.127 157.923 C244.532 141.162, 258.869 123.597, 297.747 79.856 M235.204 160.041 C251.745 138.424, 270.89 120.614, 303.918 81.318 M234.668 158.95 C255.419 136.174, 275.191 113.153, 304.464 80.093 M239.346 158.29 C260.335 135.774, 278.548 115.79, 307.522 79.633 M240.863 158.317 C256.419 141.291, 271.329 122.491, 308.78 80.217 M246.076 160.185 C267.351 128.866, 294.471 100.137, 313.095 80.125 M246.195 157.814 C268.878 134.502, 290.837 108.022, 314.378 80.359 M251.745 157.167 C273.865 132.815, 295.885 108.348, 320.246 80.591 M251.73 157.846 C271.093 136.878, 291.564 114.43, 320.07 79.96 M258.036 157.636 C269.893 142.08, 285.045 125.564, 324.722 77.899 M257.03 157.532 C278.665 134.251, 299.66 108.864, 324.566 79.236 M262.947 159.317 C286.33 131.723, 312.363 98.832, 330.662 77.299 M262.389 157.899 C288.495 127.312, 314.593 95.839, 331.065 80.22 M265.718 157.627 C287.009 134.901, 304.067 116.27, 336.94 79.928 M266.898 157.833 C283.062 140.885, 298.432 123.649, 336.115 79.319 M273.708 159.323 C292.143 135.154, 309.672 114.19, 340.638 81.06 M271.66 159.1 C295.238 131.923, 319.114 106.057, 339.527 80.808 M277.829 158.3 C290.088 141.265, 307.111 125.651, 345.823 80.439 M277.731 158.986 C290.098 143.128, 305.312 128.268, 346.195 79.312 M282.662 160.232 C300.549 143.775, 313.595 125.672, 351.556 79.736 M282.686 158.345 C307.969 129.085, 332.546 101.026, 351.3 79.746 M289.62 157.928 C301.802 140.85, 320.944 122.647, 358.717 79.593 M288.716 158.685 C307.242 135.108, 327.917 113.842, 355.921 79.887 M294.551 160.409 C308.657 136.791, 327.308 115.203, 361.807 81.626 M292.821 159.369 C321.999 128.345, 349.194 97.795, 360.962 80.726 M299.227 158.152 C313.388 141.444, 328.848 124.267, 366.263 81.439 M297.887 157.798 C318.699 136.352, 338.944 114.227, 367.182 79.075 M302.298 158.818 C317.089 141.541, 331.444 125.032, 371.676 79.058 M303.534 158.929 C329.442 130.9, 353.391 101.798, 373.189 79.581 M310.996 159.508 C336.321 131.802, 361.627 98.225, 376.186 80.279 M308.938 158.416 C334.675 129.016, 360.439 100.92, 377.654 78.544 M313.624 156.554 C334.127 134.776, 353.974 112.421, 384.219 79.552 M313.972 157.992 C335.257 131.925, 358.911 105.889, 383.983 80.679 M320.759 157.843 C347.407 129.66, 370.794 97.713, 390.291 80.773 M319.793 159.29 C341.889 136.436, 362.319 111.671, 387.845 79.38 M323.447 159.706 C350.826 128.302, 379.083 97.217, 394.827 79.099 M324.496 157.868 C342.975 139.702, 360.324 120.336, 392.761 79.214 M330.097 160.526 C348.984 135.074, 369.913 113.587, 401.066 80.272 M331.104 159.392 C348.553 138.619, 367.367 116.742, 399.693 79.637 M338.009 156.904 C356.291 131.232, 381.335 105.591, 405.093 81.07 M335.866 158.962 C357.803 134.364, 380.055 109.851, 404.779 78.892 M340.565 159.694 C359.078 138.051, 378.053 113.003, 409.21 78.954 M340.373 157.918 C358.372 135.805, 376.862 113.837, 409.598 79.518 M348.25 158.206 C362.829 139.057, 383.288 119.592, 414.223 79.603 M346.983 157.699 C373.488 129.707, 399.014 100.71, 414.096 80.645 M350.941 158.733 C378.237 129.594, 403.311 96.05, 420.923 77.999 M351.625 158.424 C369.09 139.227, 388.424 117.83, 421.033 79.651 M355.353 157.452 C380.838 130.31, 400.527 104.02, 426.551 81.159 M358.112 158.213 C376.354 137.848, 394.014 116.388, 425.379 79.145 M363.747 158.639 C380.457 137.656, 393.942 121.416, 429.519 80.212 M362.668 158.281 C376.857 141.095, 392.295 123.482, 431.742 79.513 M366.81 159.874 C391.984 131.313, 415.214 104.878, 436.612 80.807 M367.325 158.19 C390.178 133.125, 410.666 110.524, 436.593 79.058 M372.909 157.581 C391.638 137.69, 407.629 117.577, 441.352 80.42 M373.859 158.289 C387.923 139.798, 402.318 124.104, 440.918 78.319 M376.589 156.473 C401.596 132.052, 424.903 103.717, 445.113 80.269 M379.427 157.969 C395.452 138.865, 411.454 120.115, 446.431 80.368 M383.849 157.24 C408.247 135.761, 429.49 108.838, 450.712 78.511 M383.456 159.037 C407 131.982, 430.17 105.624, 452.325 78.658 M387.623 157.444 C416.124 126.155, 441.81 97.44, 458.488 78.84 M390.039 158.826 C412.209 132.479, 433.091 107.532, 457.605 79.793 M394.897 160.156 C416.029 132.524, 439.191 104.928, 463.919 80.7 M393.426 157.59 C414.855 132.938, 437.582 106.737, 461.554 80.936 M399.892 159.901 C417.797 139.998, 432.355 122.633, 468.033 77.629 M398.915 157.547 C423.37 131.649, 447.378 101.524, 469.034 79.083 M403.04 159.943 C430.309 129.165, 458.448 99.326, 472.521 78.408 M404.131 157.911 C426.388 133.31, 445.564 110.674, 472.606 80.297 M408.557 157.878 C426.219 139.351, 441.475 122.661, 480.073 78.778 M409.203 158.895 C433.775 130.323, 458.414 104.919, 478.193 79.725 M416.782 156.91 C433.466 135.146, 455.015 113.693, 485.298 81.608 M414.968 157.406 C431.312 140.923, 446.302 123.985, 483.487 79.456 M419.096 158.978 C444.789 131.863, 468.342 105.441, 488.745 80.334 M419.692 159.03 C447.286 125.596, 474.729 95.49, 488.607 79.144 M425.629 158.73 C447.996 133.042, 468.865 104.684, 495.472 81.774 M425.413 157.7 C442.671 137.432, 458.192 119.672, 493.404 80.244 M432.292 157.251 C442.913 142.73, 457.61 126.086, 500.84 77.484 M430.413 159.037 C449.684 135.407, 471.188 114.195, 499.862 79.313 M437.164 157.286 C458.554 133.55, 479.135 108.585, 504.412 80.719 M435.793 158.082 C452.777 139.885, 466.729 121.851, 504.413 79.27 M442.776 157.696 C461.811 133.704, 480.315 111.025, 510.097 79.513 M441.651 158.783 C458.797 139.377, 476.7 121.399, 511.142 78.769 M448.843 159.954 C463.478 140.469, 474.581 123.765, 515.319 79.617 M447.922 157.822 C464.62 136.986, 484.294 115.319, 515.474 79.894 M453.973 159.232 C481.159 127.289, 506.083 100.396, 519.491 79.915 M452.778 158.031 C479.646 129.21, 505.523 97.935, 521.103 78.846 M458.581 160.236 C481.584 130.974, 508.486 105.097, 523.208 82.466 M457.414 158.172 C480.929 131.015, 503.546 104.802, 522.954 83.449 M462.306 158.482 C484.179 134.805, 502.666 110.891, 522.756 91.323 M462.211 159.231 C485.403 132.526, 507.297 108.624, 522.695 90.207 M468.483 159.813 C481.687 144.877, 492.569 127.594, 523.061 95.874 M467.737 158.666 C479.67 144.8, 490.419 132.282, 520.797 96.373 M475.292 159.492 C493.039 138.118, 513.168 112.798, 521.573 102.671 M473.387 158.939 C484.347 144.863, 497.067 132.832, 521.324 102.211 M477.292 159.479 C490.826 145.962, 500.299 134.663, 520.209 109.72 M480.013 158.597 C495.682 139.008, 510.894 121.577, 522.619 108.2 M484.674 159.832 C493.157 147.376, 504.738 136.108, 520.387 115.524 M483.426 158.473 C498.499 142.587, 514.368 125.436, 521.529 114.357 M491.272 158.692 C499.885 147.501, 512.07 134.864, 521.029 121.851 M488.871 159.132 C500.196 148.508, 508.665 137.675, 522.531 122.078 M494.253 158.113 C502.872 151.91, 508.514 145.736, 523.508 128.581 M495.718 157.596 C505.57 146.761, 515.334 134.777, 521.363 128.496 M500.119 157.371 C509.873 147.926, 516.546 137.762, 520.185 131.488 M499.859 158.77 C506.198 151.798, 513.882 143.555, 521.336 133.63 M507.379 160.202 C509.965 150.702, 516.446 145.497, 520.925 138.856 M505.226 158.538 C509.776 153.628, 515.328 148.452, 522.747 139.65 M512.205 159.633 C513.805 156.866, 514.957 154.284, 520.606 144.883 M511.563 158.197 C515.286 154.683, 518.302 150.197, 523.042 144.732 M516.211 159.291 C516.688 156.376, 517.75 155.563, 521.311 152.188 M515.63 158.538 C517.584 156.169, 519.815 154.821, 522.216 151.875" stroke="rgb(63, 138, 255)" stroke-width="0.5" fill="none"/><path d="M150.176 80.032 C290.079 75.774, 432.191 74.633, 521.983 80.458 M149.562 79.141 C268.86 82.321, 386.859 82.317, 521.043 79.991 M522.133 78.154 C522.408 107.95, 522.355 137.701, 521.33 159.279 M521.014 78.681 C521.44 100.233, 520.066 122.209, 522.415 158.153 M520.374 157.954 C425.131 160.555, 328.152 160.169, 151.106 158.961 M521.925 157.771 C390.377 159.968, 259.827 159.841, 149.735 157.68 M149.967 157.17 C146.675 136.004, 149.526 112.413, 149.858 78.089 M149.557 157.729 C149.896 138.498, 148.512 120.64, 150.909 79.41" stroke="rgb(63, 138, 255)" stroke-width="1" fill="none"/></g><g xmlns="http://www.w3.org/2000/svg" xmlns:xlink="http://www.w3.org/1999/xlink" class="text-container" transform="matrix(1 0 0 1 150 60)"><text x="-95.12" y="58.84615384615385" dy="0.35em" text-anchor="end" style="font-family: Arial; font-size: 16px; font-weight: 500; fill: rgb(65, 65, 65);font-style: normal;font-weight: 500;font-size: 16px;font-family: Comic Sans MS, cursive;" stroke="none" stroke-width="1px" fill="rgb(65, 65, 65)" dominant-baseline="auto">2013</text></g><g xmlns="http://www.w3.org/2000/svg" xmlns:xlink="http://www.w3.org/1999/xlink" class="text-container" transform="matrix(1 0 0 1 150 60)"><text x="376.4285714285714" y="58.84615384615385" dy="0.35em" text-anchor="start" style="font-family: Arial; font-size: 20px; font-weight: 400; fill: rgb(65, 65, 65);font-style: normal;font-weight: 400;font-size: 20px;font-family: Comic Sans MS, cursive;" stroke="none" stroke-width="1px" fill="rgb(65, 65, 65)" dominant-baseline="auto">55</text></g><g xmlns="http://www.w3.org/2000/svg" xmlns:xlink="http://www.w3.org/1999/xlink"><path d="M149.801 177.921 C149.801 177.921, 149.801 177.921, 149.801 177.921 M149.801 177.921 C149.801 177.921, 149.801 177.921, 149.801 177.921 M150.967 184.148 C151.122 182.734, 152.547 180.207, 154.749 176.9 M150.221 183.577 C151.901 182.115, 153.175 180.01, 155.774 177.145 M149.231 190.508 C151.56 187.729, 153.525 185.381, 159.532 176.437 M150.629 189.326 C153.928 185.574, 158.569 181.425, 159.942 177.764 M151.573 194.41 C157.708 190.082, 164.192 182.199, 166.315 176.428 M148.683 196.778 C155.316 188.174, 163.137 180.792, 166.103 177.901 M149.451 200.985 C157.513 191.95, 165.084 185.061, 172.91 176.242 M149.234 201.092 C158.002 194.312, 165.756 185.544, 171.684 178.167 M149.53 207.876 C161.232 197.211, 168.508 186.212, 178.202 179.134 M149.687 208.953 C156.205 199.671, 164.188 192.173, 176.508 178.074 M148.879 215.1 C157.486 205.136, 167.717 196.064, 181.771 177.401 M149.327 213.131 C161.663 201.412, 172.577 189.418, 181.382 178.78 M150.385 222.029 C158.317 212.149, 164.751 204.183, 188.857 175.538 M149.507 220.749 C162.906 208.139, 173.397 193.357, 186.759 177.357 M148.688 228.673 C160.403 215.899, 169.328 202.743, 191.551 178.182 M150.097 226.868 C161.261 214.354, 173.747 198.86, 192.114 177.689 M148.449 234.123 C163.218 218.722, 173.792 205.641, 196.362 176.065 M150.525 232.583 C159.112 220.893, 170.173 208.426, 197.065 176.636 M150.58 239.275 C159.689 226.116, 170.993 216.066, 204.105 177.378 M149.888 238.864 C165.98 221.039, 182.381 201.902, 202.65 177.812 M149.712 246.492 C171.004 219.363, 190.752 199.267, 207.122 176.313 M149.286 245.515 C165.142 229.254, 179.141 212.234, 208.336 176.455 M149.072 249.008 C168.943 231.526, 186.733 208.852, 214.454 177.6 M149.567 251.153 C173.84 224.117, 197.033 196.678, 213.641 177.565 M150.723 257.838 C169.795 230.946, 192.514 207.15, 219.872 178.128 M150.411 257.41 C175.198 226.916, 198.735 199.13, 219.499 176.482 M156.728 257.675 C172.637 238.206, 192.166 214.182, 225.864 177.794 M156.38 256.956 C175.225 234.479, 193.882 212.672, 224.665 177.208 M161.401 254.959 C182.121 232.947, 200.472 210.82, 229.178 179.932 M161.388 255.883 C181.208 235.788, 199.474 214.304, 229.16 178.635 M168.207 255.184 C183.019 238.646, 198.775 220.293, 234.325 176.095 M166.337 255.203 C181.81 237.718, 196.506 220.186, 234.191 177.854 M170.817 256.367 C183.469 240.907, 198.17 225.733, 238.502 179.77 M172.347 256.029 C189.495 234.52, 206.993 213.902, 240.712 177.594 M174.68 255.57 C191.819 241.06, 207.254 221.435, 243.73 175.672 M176.881 256.582 C196.694 232.951, 217.803 209.37, 245.228 176.683 M183.746 258.43 C203.624 234.305, 224.529 209.459, 252.256 176.87 M182.137 257.106 C195.052 241.188, 208.858 225.029, 250.684 178.101 M187.447 258.09 C209.01 234.315, 226.853 207.705, 254.238 177.174 M186.579 256.612 C206.92 235.297, 228.886 211.913, 257.01 177.092 M193.434 254.953 C207.079 240.533, 221.607 226.257, 262.865 179.346 M193.163 255.77 C216.358 229.223, 239.811 201.818, 262.043 177.815 M199.462 256.751 C214.732 237.057, 232.8 216.31, 267.414 178.507 M197.65 257.278 C218.691 234.574, 238.524 211.163, 266.326 177.049 M204.773 256.28 C219.277 234.773, 238.27 217.111, 270.071 176.022 M202.682 255.406 C222.717 236.018, 242.709 214.581, 272.196 178.488 M207.143 258.332 C227.788 234.928, 249.987 207.307, 276.382 176.219 M209.17 256.698 C232.405 227.092, 257.103 198.706, 278.22 177.967 M215.623 255.822 C238.702 226.93, 261.316 199.066, 283.286 176.928 M214.142 255.95 C235.024 234.716, 253.083 212.117, 281.517 176.942 M218.423 255.318 C241.178 227.997, 267.614 200.495, 286.012 178.899 M219.367 257.692 C246.405 226.191, 273.737 193.48, 288.573 178.337 M224.703 258.093 C252.565 226.557, 277.214 198.083, 294.365 178.302 M224.898 256.362 C246.31 230.191, 270.006 203.72, 292.078 178.323 M228.844 257.253 C244.637 240.059, 258.896 225.102, 298.904 179.171 M230.368 257.31 C248.516 238.15, 265.259 219.046, 298.006 178.209 M236.972 255.276 C259.585 228.817, 282.597 200.006, 304.854 178.544 M235.024 256.899 C257.909 231.023, 280.545 205.575, 302.754 177.133 M238.996 256.307 C263.689 227.254, 289.7 199.395, 307.912 176.936 M239.812 257.21 C256.087 239.749, 272.583 220.821, 309.56 178.054 M245.984 255.008 C264.043 234.75, 287.263 209.824, 314.632 175.972 M246.189 257.245 C270.388 229.333, 294.08 203.289, 314.475 177.701 M250.985 256.678 C270.323 234.679, 285.351 217.797, 318.046 179.558 M251.478 256.486 C267.496 238.158, 283.115 220.42, 319.972 177.331 M255.485 257.897 C274.066 236.175, 291.482 214.878, 319.43 184.609 M257.271 255.463 C279.866 226.32, 304.111 198.67, 319.182 184.62 M261.675 256.278 C283.457 232.516, 302.651 213.503, 321.183 189.058 M260.855 256.286 C280.408 234.222, 300.2 211.711, 318.637 190.215 M267.012 256.952 C277.369 242.958, 288.706 232.21, 320.053 196.093 M266.292 256.231 C279.24 242.735, 290.251 228.639, 318.554 196.626 M272.088 256.962 C280.886 245.513, 291.591 235.8, 320.854 201.428 M272.429 256.63 C290.592 236.069, 309.066 216.185, 318.744 203.162 M277.262 255.349 C287.537 240.047, 299.532 228.403, 319.256 208.943 M276.937 256.213 C289.899 240.83, 303.146 226.758, 319.441 207.722 M282.75 254.994 C297.245 242.608, 309.152 227.452, 317.597 213.951 M282.992 257.256 C291.836 246.333, 297.935 236.842, 319.891 215.603 M286.59 256.944 C294.772 249.705, 301.126 240.311, 318.476 219.148 M287.761 256.645 C295.828 247.989, 303.263 239.868, 319.033 220.107 M295.454 256.277 C301.86 247.264, 309.109 238.059, 320.704 225.119 M292.63 256.107 C300.119 247.542, 308.071 239.428, 318.341 226.323 M297.615 257.668 C303.599 249.739, 311.377 243.501, 317.991 233.729 M298.119 256.554 C304.313 250.339, 310.143 244.851, 319.469 232.956 M303.7 256.101 C309.347 251.011, 312.592 243.49, 319.321 237.163 M304.664 256.85 C308.507 252.246, 311.609 248.037, 318.744 239.179 M310.071 256.062 C311.749 253.29, 314.073 250.14, 319.29 245.199 M308.414 256.888 C311.263 253.727, 313.366 251.184, 319.5 245.623 M314.545 256.652 C315.96 254.881, 317.661 253.566, 319.593 251.811 M314.638 256.38 C316.084 254.728, 317.56 253.493, 319.393 251.057" stroke="rgb(63, 138, 255)" stroke-width="0.5" fill="none"/><path d="M151.729 176.597 C209.981 182.128, 267.221 178.962, 316.847 176.967 M149.771 177.336 C184.147 180.4, 220.932 179.924, 318.411 176.724 M319.808 176.513 C316.419 192.595, 317.406 209.404, 318.802 255.528 M317.834 177.903 C319.578 196.041, 318.915 213.383, 318.145 255.221 M318.057 254.539 C281.792 254.208, 241.479 255.393, 150.106 258.107 M319.481 256.036 C275.53 257.034, 230.144 257.786, 150.797 256.554 M150.654 256.689 C147.561 229.286, 151.102 206.869, 150.933 178.618 M149.912 256.885 C148.266 236.351, 148.434 215.429, 150.232 178.01" stroke="rgb(63, 138, 255)" stroke-width="1" fill="none"/></g><g xmlns="http://www.w3.org/2000/svg" xmlns:xlink="http://www.w3.org/1999/xlink" class="text-container" transform="matrix(1 0 0 1 150 60)"><text x="-95.12" y="156.92307692307693" dy="0.35em" text-anchor="end" style="font-family: Arial; font-size: 16px; font-weight: 500; fill: rgb(65, 65, 65);font-style: normal;font-weight: 500;font-size: 16px;font-family: Comic Sans MS, cursive;" stroke="none" stroke-width="1px" fill="rgb(65, 65, 65)" dominant-baseline="auto">2012</text></g><g xmlns="http://www.w3.org/2000/svg" xmlns:xlink="http://www.w3.org/1999/xlink" class="text-container" transform="matrix(1 0 0 1 150 60)"><text x="173.83116883116884" y="156.92307692307693" dy="0.35em" text-anchor="start" style="font-family: Arial; font-size: 20px; font-weight: 400; fill: rgb(65, 65, 65);font-style: normal;font-weight: 400;font-size: 20px;font-family: Comic Sans MS, cursive;" stroke="none" stroke-width="1px" fill="rgb(65, 65, 65)" dominant-baseline="auto">25</text></g><g xmlns="http://www.w3.org/2000/svg" xmlns:xlink="http://www.w3.org/1999/xlink"><path d="M149.801 177.921 C149.801 177.921, 149.801 177.921, 149.801 177.921 M149.801 177.921 C149.801 177.921, 149.801 177.921, 149.801 177.921 M150.703 183.428 C152.79 181.338, 153.179 179.145, 155.406 177.969 M150.479 183.872 C151.125 182.362, 151.988 181.027, 155.509 177.821 M150.995 188.532 C152.87 186.143, 154.974 183.738, 160.977 176.797 M149.958 190.059 C153.378 185.581, 157.85 180.086, 160.936 177.588 M149.075 197.142 C152.385 191.54, 155.526 189.787, 166.431 178.775 M150.477 197.229 C152.923 190.953, 158.463 185.691, 166.665 177.881 M150.485 201.812 C158.333 193.4, 166.318 184.937, 170.427 177.932 M150.054 202.683 C158.718 193.055, 164.482 185.097, 172.052 177.266 M149.667 210.09 C161.553 197.709, 170.932 185.991, 177.481 178.543 M149.382 208.189 C156.948 198.396, 165.533 189.267, 175.972 177.109 M148.547 212.759 C163.975 199.684, 175.29 185.902, 181.072 176.785 M150.847 214.374 C162.283 200.13, 175.324 186.554, 181.693 178.484 M150.436 221.819 C160.735 206.777, 169.37 198.59, 187.87 176.65 M150.867 221.263 C159.643 208.107, 170.533 195.21, 187.136 176.423 M149.599 227.896 C163.64 213.078, 173.981 199.532, 191.469 177.579 M149.736 226.091 C160.26 213.608, 170.756 203.238, 191.323 177.355 M149.807 232.89 C161.103 222.78, 167.022 210.914, 199.882 175.637 M150.169 232.87 C160.258 220.487, 170.991 209.318, 197.023 177.297 M151.108 237.269 C163.167 226.575, 173.881 213.435, 204.304 177.888 M149.417 238.949 C170.837 217.36, 191.234 193.624, 201.99 177.854 M148.809 243.464 C168.17 225.437, 186.017 200.961, 208.35 179.231 M150.709 244.035 C167.66 224.438, 185.581 204.751, 208.618 177.725 M149.369 250.577 C166.817 230.693, 186.715 209.414, 212.541 177.505 M150.031 251.762 C173.216 222.967, 196.138 196.127, 213.908 177.895 M150.497 255.487 C175.301 229.663, 196.389 203.9, 218.627 179.248 M150.25 256.115 C167.299 234, 186.156 213.735, 218.587 176.994 M154.697 256.642 C170.89 235.719, 187.902 218.693, 225.021 177.74 M155.345 256.534 C172.569 236.089, 190.628 217.359, 224.642 177.99 M159.751 258.005 C187.631 227.91, 214.19 196.232, 228.692 177.677 M161.518 255.588 C181.314 230.963, 204.063 206.45, 228.429 178.796 M166.429 257.844 C192.041 224.997, 219.126 193.189, 235.6 177.167 M166.597 255.348 C189.815 230.561, 212.388 204.432, 234.85 177.423 M173.252 256.814 C185.128 236.677, 203.328 217.694, 239.119 177.062 M172.31 257.288 C194.454 229.184, 216.93 202.748, 239.466 178.647 M175.304 258.28 C203.923 226.61, 227.253 197.786, 246.051 177.705 M176.148 256.124 C189.793 241.457, 205.147 223.789, 245.735 178.565 M183.658 255.8 C198.167 236.57, 215.345 215.112, 249.38 176.507 M182.796 256.026 C206.794 227.456, 233.04 197.548, 251.386 178.12 M188.549 255.933 C211.026 233.096, 233.145 207.137, 256.835 178.807 M186.842 257.785 C205.151 236.345, 223.749 217.05, 256.588 176.783 M193.966 258.038 C211.084 236.69, 227.881 218.555, 261.8 176.74 M193.174 256.101 C212.024 235.666, 229.634 213.043, 261.059 177.007 M199.47 254.962 C226.204 224.566, 249.756 196.839, 267.31 177.735 M198.426 256.184 C220.912 230.411, 243.016 204.233, 266.804 177.114 M201.956 255.432 C228.792 227.621, 250.508 201.915, 269.905 177.777 M202.805 255.598 C225.138 229.925, 245.817 207.376, 271.585 177.211 M209.779 258.696 C237.915 226.311, 265.269 195.038, 277.775 179.025 M209.146 256 C230.716 232.579, 250.94 210.244, 277.961 178.178 M214.425 255.298 C232.093 232.649, 253.364 210.745, 281.612 178.172 M213.748 255.401 C232.097 237.839, 248.689 218.257, 281.75 178.702 M219.066 257.19 C233.018 236.972, 252.212 216.54, 286.627 176.238 M219.272 256.517 C233.661 241.659, 249.568 224.214, 288.56 177.525 M225.537 256.439 C245.115 237.091, 264.467 215.784, 291.717 179.436 M224.06 255.71 C244.88 234.999, 264.038 210.863, 293.783 177.858 M230.172 257.128 C244.114 236.137, 260.227 219.293, 297.78 176.003 M229.96 256.876 C247.077 236.175, 265.188 215.027, 298.923 177.112 M234.893 256.536 C255.724 229.165, 277.063 204.451, 304.395 179.272 M235.429 255.71 C255.776 231.977, 277.616 205.372, 303.789 178.732 M238.688 254.814 C262.434 228.644, 287.517 196.321, 307.264 177.116 M240.167 256.641 C256.509 234.803, 274.788 215.338, 309.578 177.989 M244.256 256.982 C267.126 233.596, 287.519 210.525, 314.417 179.306 M246.844 255.458 C268.534 230.109, 292.608 202.565, 313.76 177.122 M249.435 258.523 C271.058 233.528, 290.934 208.021, 317.49 180.024 M250.519 256.876 C275.664 227.174, 301.6 198.233, 319.121 177.495 M258.357 256.548 C274.5 237.81, 292.741 218.67, 320.558 182.702 M256.957 256.499 C272.333 240.594, 285.663 224.613, 319.536 183.766 M260.74 257.301 C277.944 235.514, 297.589 215.673, 320.786 188.59 M261.686 256.248 C282.638 231.897, 302.999 206.196, 319.645 189.934 M265.807 255.977 C285.659 233.876, 307.127 210.057, 317.344 195.175 M266.498 256.724 C284.725 236.117, 301.412 217.324, 318.126 195.761 M271.637 256.17 C283.733 244.585, 294.591 230.638, 319.198 203.19 M272.517 257.258 C289.814 238.372, 306.768 218.861, 320.219 201.672 M278.444 254.807 C290.048 243.994, 301.076 228.212, 317.342 208.094 M278.852 256.031 C292.842 239.11, 307.007 222.048, 318.455 208.636 M284.035 255.7 C295.857 241.811, 312.434 223.08, 319.474 215.026 M283.531 256.57 C297.545 241.887, 309.742 224.392, 318.602 215.046 M289.443 255.112 C294.802 247.783, 307.012 235.255, 320.393 220.644 M287.717 257.527 C301.043 242.233, 312.335 229.309, 319.975 220.502 M293.539 257.897 C301.037 245.827, 310.855 234.248, 317.474 228.617 M293.83 257.102 C302.923 246.003, 312.702 235.346, 320.05 227.915 M297.69 257.651 C301.93 250.824, 308.961 245.874, 320.783 234.45 M299.15 256.218 C303.929 251.845, 308.785 244.537, 318.801 233.206 M304.836 257.257 C309.058 253.838, 310.162 245.91, 319.366 238.144 M303.481 255.464 C307.651 252.341, 311.613 248.792, 319.745 238.201 M310.617 257.239 C313.12 254.115, 316.089 251.337, 318.561 246.745 M309.361 256.201 C311.371 253.458, 313.879 250.921, 318.485 245.107 M314.296 255.892 C315.982 254.898, 315.915 254.504, 319.557 251.6 M314.852 256.396 C316.162 254.487, 317.357 253.566, 319.223 250.852" stroke="rgb(63, 138, 255)" stroke-width="0.5" fill="none"/><path d="M151.64 178.087 C208.896 181.005, 266.517 178.154, 318.816 176.332 M150.239 176.851 C191.122 179.705, 232.215 179.407, 318.551 178.586 M317.856 178.626 C319.149 201.36, 316.442 228.905, 319.626 255.409 M319.743 176.714 C317.655 198.348, 316.414 220.742, 318.262 255.19 M319.214 255.391 C277.239 253.11, 232 252.497, 150.397 255.462 M318.25 255.927 C277.271 257.58, 234.664 258.266, 149.689 255.965 M150.873 255.471 C151.218 228.404, 148.68 199.379, 149.148 178.642 M149.565 256.248 C150.043 233.167, 148.435 208.805, 149.25 178.519" stroke="rgb(63, 138, 255)" stroke-width="1" fill="none"/></g><g xmlns="http://www.w3.org/2000/svg" xmlns:xlink="http://www.w3.org/1999/xlink" class="text-container" transform="matrix(1 0 0 1 150 60)"><text x="-95.12" y="156.92307692307693" dy="0.35em" text-anchor="end" style="font-family: Arial; font-size: 16px; font-weight: 500; fill: rgb(65, 65, 65);font-style: normal;font-weight: 500;font-size: 16px;font-family: Comic Sans MS, cursive;" stroke="none" stroke-width="1px" fill="rgb(65, 65, 65)" dominant-baseline="auto">2012</text></g><g xmlns="http://www.w3.org/2000/svg" xmlns:xlink="http://www.w3.org/1999/xlink" class="text-container" transform="matrix(1 0 0 1 150 60)"><text x="173.83116883116884" y="156.92307692307693" dy="0.35em" text-anchor="start" style="font-family: Arial; font-size: 20px; font-weight: 400; fill: rgb(65, 65, 65);font-style: normal;font-weight: 400;font-size: 20px;font-family: Comic Sans MS, cursive;" stroke="none" stroke-width="1px" fill="rgb(65, 65, 65)" dominant-baseline="auto">25</text></g><g xmlns="http://www.w3.org/2000/svg" xmlns:xlink="http://www.w3.org/1999/xlink"><path d="M149.814 275.983 C149.814 275.983, 149.814 275.983, 149.814 275.983 M149.814 275.983 C149.814 275.983, 149.814 275.983, 149.814 275.983 M150.938 281.288 C151.488 279.705, 154.624 277.745, 155.919 275.995 M150.454 281.782 C151.395 279.583, 153.555 278.426, 155.233 275.35 M149.485 289.517 C153.048 283.75, 156.852 278.15, 160.336 276.418 M150.147 287.816 C154.29 283.371, 157.936 280.149, 159.998 276.618 M151.615 295.208 C155.156 289.11, 161.823 282.159, 166.575 276.037 M150.241 293.71 C155.183 288.892, 160.283 282.999, 165.438 276.216 M149.567 300.938 C156.529 294.161, 160.741 289.916, 170.314 277.422 M149.254 300.085 C153.748 295.314, 158.265 291.479, 171.196 276.255 M150.335 307.012 C155.375 298.919, 163.074 291.368, 177.142 276.518 M149.506 305.935 C156.612 298.756, 162.892 292.179, 176.938 275.146 M148.773 311.437 C161.923 298.776, 176.064 286.227, 179.946 276.945 M149.528 312.434 C157.783 303.941, 166.21 293.859, 180.885 276.654 M149.632 317.158 C159.364 308.527, 165.696 300.215, 186.68 274.76 M150.699 319.101 C158.272 309.093, 167.018 299.561, 186.364 275.441 M147.957 325.852 C165.957 307.627, 182.943 285.199, 194.174 277.134 M149.662 325.602 C163.407 309.484, 176.161 293.912, 192.367 276.297 M151.782 332.506 C163.052 312.385, 178.973 295.448, 196.407 276.024 M149.31 330.515 C161.158 317.43, 173.262 304.495, 197.341 274.688 M151.749 337.834 C169.604 318.026, 186.09 294.816, 201.981 276.828 M150.069 337.803 C159.664 324.078, 172.192 311.26, 203.744 274.878 M152.107 342.849 C167.342 324.928, 184.366 302.945, 209.686 275.114 M149.919 342.542 C164.904 324.749, 179.162 308.088, 208.423 276.175 M151.714 347.495 C173.03 318.994, 198.686 291.445, 214.617 276.638 M149.131 348.113 C171.183 325.282, 193.235 300.464, 214.046 276.686 M151.649 353.431 C168.771 332.936, 183.176 312.333, 217.642 278.294 M151.126 355.368 C169.657 333.653, 190.794 311.205, 216.301 277.791 M155.257 353.931 C180.23 327.918, 203.044 297.504, 218.318 281.488 M156.311 354.844 C173.984 333.209, 192.66 310.32, 217.113 282.293 M161.319 353.485 C176.858 338.093, 191.183 320.672, 216.085 291.014 M160.882 354.23 C181.503 329.99, 201.746 305.263, 218.068 289.326 M167.805 356.551 C182.976 337.332, 198.461 316.129, 218.494 293.821 M166.796 354.211 C185.325 333.264, 203.404 312.291, 217.781 295.925 M170.868 354.735 C181.386 342.571, 191.26 332.015, 218.724 301.353 M172.202 354.814 C187.71 337.103, 205.075 318.557, 216.722 300.873 M175.746 354.875 C187.211 342.58, 196.586 331.337, 215.85 308.97 M177.393 353.943 C191.271 337.447, 205.47 321.335, 218.057 307.935 M182.195 353.453 C193.526 340.964, 203.434 332.821, 216.43 312.656 M182.535 354.73 C194.305 341.142, 205.283 327.391, 217.911 314.003 M189.033 356.297 C195.855 343.765, 205.995 329.801, 217.466 319.088 M187.164 354.667 C199.164 342.848, 209.432 328.887, 217.944 320.707 M193.961 354.293 C200.199 346.705, 206.027 341.07, 219.49 324.799 M193.072 354.183 C202.851 342.349, 213.472 332.466, 218.589 325.1 M197.729 355.65 C203.955 347.421, 209.609 344.247, 218.34 333.739 M197.494 354.152 C204.127 347.578, 210.488 340.591, 218.452 332.782 M204.02 354.869 C207.973 349.713, 213.324 343.248, 215.707 337.606 M203.102 353.913 C206.654 350.129, 210.236 345.961, 217.603 337.74 M208.401 355.747 C210.867 351.257, 211.836 349.436, 218.741 345.552 M209.176 354.15 C211.57 351.629, 213.671 347.976, 217.552 344.466 M214.183 353.993 C215.009 353.351, 215.912 352.307, 217.882 351.066 M214.198 354.332 C214.885 353.486, 215.273 352.846, 217.24 350.455" stroke="rgb(63, 138, 255)" stroke-width="0.5" fill="none"/><path d="M148.069 276.808 C177.065 274.595, 201.773 273.841, 218.263 277.288 M149.054 275.226 C165.63 275.637, 180.398 275.527, 218.479 276.576 M217.515 275.528 C220.465 295.551, 220.176 317.43, 215.643 353.014 M216.626 276.204 C216.317 305.635, 217.942 335.629, 216.957 354.525 M218.726 354.103 C191.769 352.241, 170.121 352.25, 150.955 354.656 M216.798 355.191 C194.516 352.698, 171.866 353.455, 149.339 354.279 M150.179 355.199 C151.649 335.094, 151.319 313.804, 151.397 273.774 M150.446 354.355 C151.549 323.349, 150.033 294.737, 150.806 276.427" stroke="rgb(63, 138, 255)" stroke-width="1" fill="none"/></g><g xmlns="http://www.w3.org/2000/svg" xmlns:xlink="http://www.w3.org/1999/xlink" class="text-container" transform="matrix(1 0 0 1 150 60)"><text x="-95.12" y="255" dy="0.35em" text-anchor="end" style="font-family: Arial; font-size: 16px; font-weight: 500; fill: rgb(65, 65, 65);font-style: normal;font-weight: 500;font-size: 16px;font-family: Comic Sans MS, cursive;" stroke="none" stroke-width="1px" fill="rgb(65, 65, 65)" dominant-baseline="auto">2011</text></g><g xmlns="http://www.w3.org/2000/svg" xmlns:xlink="http://www.w3.org/1999/xlink" class="text-container" transform="matrix(1 0 0 1 150 60)"><text x="72.53246753246754" y="255" dy="0.35em" text-anchor="start" style="font-family: Arial; font-size: 20px; font-weight: 400; fill: rgb(65, 65, 65);font-style: normal;font-weight: 400;font-size: 20px;font-family: Comic Sans MS, cursive;" stroke="none" stroke-width="1px" fill="rgb(65, 65, 65)" dominant-baseline="auto">10</text></g><g xmlns="http://www.w3.org/2000/svg" xmlns:xlink="http://www.w3.org/1999/xlink"><path d="M149.827 374.045 C149.827 374.045, 149.827 374.045, 149.827 374.045 M149.827 374.045 C149.827 374.045, 149.827 374.045, 149.827 374.045 M150.397 379.89 C151.366 377.904, 154.207 374.88, 155.308 373.621 M150.215 379.333 C152.413 377.471, 153.687 375.832, 155.405 373.836 M150.437 387.449 C152.804 382.932, 157.397 378.57, 160.315 372.861 M149.898 386.19 C152.627 381.69, 156.313 378.151, 160.314 373.708 M150.313 393.793 C154.882 383.465, 159.911 378.807, 166.32 374.069 M149.654 392.743 C153.832 388.638, 156.739 384.037, 166.445 373.388 M151.143 396.453 C157.289 390.73, 166.13 380.704, 169.088 372.366 M149.149 397.886 C155.576 391.681, 162.412 383.453, 170.136 374.012 M149.908 402.722 C159.325 396.703, 166.144 385.7, 175.614 372.066 M149.41 403.838 C160.497 393.573, 170.967 382.128, 177.711 372.945 M148.428 409.015 C163.054 398.339, 173.403 384.78, 183.548 373.247 M151.081 409.442 C157.44 402.325, 164.488 393.104, 182.565 373.25 M150.908 414.679 C161.958 404.722, 170.304 394.676, 184.44 377.84 M150.132 415.972 C160.912 403.247, 171.228 391.527, 184.078 377.609 M150.679 423.603 C162.227 409.935, 174.11 393.614, 186.406 384.164 M150.026 422.39 C158.142 411.449, 167.396 402.689, 185.379 383.606 M150.134 429.712 C157.519 418.08, 166.586 409.453, 184.152 389.035 M151.013 427.969 C163.137 415.076, 176.582 400.38, 185.131 389.825 M148.401 436.359 C161.616 424.155, 170.356 410.656, 183.813 395.119 M149.702 435.131 C160.408 423.2, 169.652 411.573, 183.028 396.355 M149.141 440.09 C157.844 431.57, 171.289 420.487, 184.7 399.553 M149.973 441.516 C159.141 430.572, 168.485 419.743, 184.49 400.655 M148.049 447.172 C161.944 432.923, 169.759 421.199, 183.878 409.04 M149.758 447.329 C163.389 431.42, 176.494 416.019, 183.936 407.787 M151.657 451.673 C165.232 439.659, 176.415 422.904, 184.509 413.968 M151.159 452.364 C156.395 444.065, 165.737 436.198, 184.037 413.247 M156.126 452.648 C163.879 445.036, 169.156 435.059, 184.688 421.043 M156.314 452.555 C163.81 442.111, 172.641 431.819, 183.695 419.053 M162.94 453.415 C168.767 443.205, 174.571 434.787, 183.682 424.707 M160.166 452.27 C170.849 442.699, 179.664 431.989, 184.195 426.245 M166.736 454.657 C170.101 449.233, 176.498 440.941, 183.893 433.626 M165.987 453.753 C172.826 445.168, 178.395 439.669, 184.347 432.787 M171.322 453.963 C176.501 447.971, 179.411 442.978, 182.826 436.615 M171.728 452.646 C175.311 449.953, 177.341 445.46, 183.37 438.79 M176.124 452.963 C178.189 450.708, 181.173 448.278, 183.175 445.186 M176.292 453.46 C178.101 450.603, 180.535 449.225, 183.721 445.008 M182.009 452.483 C182.832 451.731, 183.728 450.614, 184.118 450.374 M182.158 452.558 C182.999 451.769, 183.654 450.963, 184.111 450.257" stroke="rgb(63, 138, 255)" stroke-width="0.5" fill="none"/><path d="M149.865 374.039 C161.369 375.094, 172.531 374.922, 183.235 375.525 M149.292 374.069 C156.908 373.269, 164.913 374.139, 183.753 373.73 M182.569 375.254 C181.079 394.381, 180.987 418.025, 182.644 451.244 M182.93 373.138 C184.927 394.054, 185.062 412.796, 184.76 451.708 M184.693 450.979 C174.476 452.594, 163.773 451.689, 148.471 453.329 M184.169 452.114 C170.903 453.654, 157.503 451.934, 149.927 453.261 M151.23 450.751 C148.756 435.354, 149.619 417.758, 150.643 374.196 M150.244 451.796 C150.339 421.531, 150.226 390.83, 150.654 372.88" stroke="rgb(63, 138, 255)" stroke-width="1" fill="none"/></g><g xmlns="http://www.w3.org/2000/svg" xmlns:xlink="http://www.w3.org/1999/xlink" class="text-container" transform="matrix(1 0 0 1 150 60)"><text x="-95.12" y="353.07692307692304" dy="0.35em" text-anchor="end" style="font-family: Arial; font-size: 16px; font-weight: 500; fill: rgb(65, 65, 65);font-style: normal;font-weight: 500;font-size: 16px;font-family: Comic Sans MS, cursive;" stroke="none" stroke-width="1px" fill="rgb(65, 65, 65)" dominant-baseline="auto">2010</text></g><g xmlns="http://www.w3.org/2000/svg" xmlns:xlink="http://www.w3.org/1999/xlink" class="text-container" transform="matrix(1 0 0 1 150 60)"><text x="38.76623376623377" y="353.07692307692304" dy="0.35em" text-anchor="start" style="font-family: Arial; font-size: 20px; font-weight: 400; fill: rgb(65, 65, 65);font-style: normal;font-weight: 400;font-size: 20px;font-family: Comic Sans MS, cursive;" stroke="none" stroke-width="1px" fill="rgb(65, 65, 65)" dominant-baseline="auto">5</text></g><g xmlns="http://www.w3.org/2000/svg" xmlns:xlink="http://www.w3.org/1999/xlink"><path d="M149.814 275.983 C149.814 275.983, 149.814 275.983, 149.814 275.983 M149.814 275.983 C149.814 275.983, 149.814 275.983, 149.814 275.983 M150.398 281.097 C152.433 280.134, 153.573 277.413, 155.935 275.466 M150.113 281.302 C151.839 279.815, 153.647 277.746, 155.478 275.695 M149.496 286.526 C152.312 285.344, 154.981 279.198, 160.248 277.474 M149.217 288.529 C153.037 283.627, 157.248 279.221, 160.173 275.311 M151.509 295.149 C152.739 288.375, 158.779 284.727, 164.754 274.39 M149.101 294.873 C156.72 286.4, 161.549 280.49, 166.737 275.667 M149.098 301.307 C156.005 291.356, 164.379 283.189, 169.143 277.154 M150.588 300.459 C155.36 293.144, 163.018 286.395, 170.934 276.179 M148.861 305.291 C156.063 300.343, 160.681 295.236, 176.152 276.798 M149.409 306.971 C153.825 301.011, 159.245 293.671, 176.169 274.973 M150.165 313.134 C161.812 296.926, 171.748 285.992, 182.246 274.584 M149.375 311.544 C155.99 304.267, 163.05 296.604, 181.702 275.931 M151.877 317.527 C160.347 306.351, 170.286 294.04, 188.406 277.019 M149.811 319.416 C163.814 301.686, 178.171 287.025, 186.704 274.767 M150.599 326.005 C160.633 312.556, 170.225 299.932, 192.698 274.913 M150.618 325.444 C165.716 305.901, 181.492 288.024, 192.995 274.945 M148.863 328.907 C159.104 316.867, 172.328 308.436, 199.037 273.964 M149.655 330.696 C159.84 319.048, 168.767 307.009, 198.075 274.809 M151.069 337.458 C164.765 318.775, 178.176 304.363, 202.019 275.59 M149.027 337.454 C165.464 318.887, 182.836 297.146, 203.47 276.796 M149.227 343.03 C164.826 323.562, 180.587 307.587, 209.535 277.18 M150.038 342.836 C166.577 323.525, 182.378 305.795, 208.754 275.272 M150.641 349.716 C163.654 330.885, 179.686 316.468, 213.604 276.651 M149.514 348.463 C168.35 331.305, 183.659 311.495, 213.611 276.64 M151.939 355.749 C170.496 332.38, 191.817 310.507, 220.146 277.054 M149.709 354.908 C166.327 338.933, 179.811 322.978, 218.161 276.602 M155.926 355.439 C168.102 338.409, 183.915 324.795, 218.642 284.508 M155.376 354.793 C169.615 334.5, 186.123 318.235, 218.131 282.286 M159.769 355.648 C173.333 340.349, 184.07 326.473, 218.334 288.087 M160.163 355.164 C178.447 330.989, 198.524 308.338, 218.315 288.982 M165.308 353.349 C183.127 330.879, 203.267 311.88, 218.246 293.96 M166.259 354.684 C186.024 332.127, 205.876 307.276, 219.064 294.757 M170.244 356.53 C186.121 335.055, 202.756 318.949, 216.687 300.155 M171.086 353.67 C186.724 336.855, 201.554 320.763, 219.003 301.607 M175.514 355.647 C193.072 336.453, 208.718 318.697, 218.427 305.987 M176.611 355.263 C189.646 339.195, 204.404 322.098, 219.204 306.259 M183.857 356.083 C195.255 336.645, 209.444 323.581, 218.038 313.682 M181.623 354.094 C192.99 342.605, 203.987 329.955, 218.455 313.327 M188.653 353 C194.451 348.445, 202.048 338.925, 216.598 318.906 M187.513 355.23 C198.461 341.57, 211.911 326.904, 218.227 320.151 M192.807 353.176 C201.242 344.8, 209.584 337.503, 218.782 323.397 M193.001 355.276 C197.636 346.581, 205.228 340.342, 219.353 324.756 M199.152 354.293 C204.014 346.426, 213.032 337.845, 216.368 331.654 M198.051 354.963 C203.733 347.389, 209.826 341.487, 217.89 330.527 M202.27 352.995 C205.74 349.042, 209.081 347.109, 220.13 337.847 M204.065 354.991 C209.437 347.667, 213.759 342.498, 217.67 337.239 M207.062 354.66 C210.261 351.731, 213.22 348.017, 217.737 342.62 M207.865 354.108 C211.932 351.424, 215.372 347.316, 218.477 343.609 M214.193 353.979 C215.694 352.77, 216.557 351.454, 218.02 350.176 M213.914 354.293 C214.826 353.197, 215.805 352.642, 217.805 349.967" stroke="rgb(63, 138, 255)" stroke-width="0.5" fill="none"/><path d="M151.672 276.425 C165.093 274.303, 177.212 274.541, 215.806 277.256 M150.194 274.966 C170.183 273.989, 191.362 275.584, 218.19 275.44 M215.904 274.414 C218.127 300.332, 219.297 322.565, 217.466 353.91 M218.126 275.323 C217.003 301.039, 218.037 326.702, 218.291 354.406 M216.039 355.282 C198.73 351.519, 177.644 352.154, 148.379 354.044 M217.842 353.979 C197.054 353.554, 177.343 353.48, 149.186 354.226 M148.487 355.531 C150.166 336.941, 147.886 319.269, 148.702 274.378 M150.618 353.691 C150.895 328.042, 150.88 301.442, 150.986 276.192" stroke="rgb(63, 138, 255)" stroke-width="1" fill="none"/></g><g xmlns="http://www.w3.org/2000/svg" xmlns:xlink="http://www.w3.org/1999/xlink" class="text-container" transform="matrix(1 0 0 1 150 60)"><text x="-95.12" y="255" dy="0.35em" text-anchor="end" style="font-family: Arial; font-size: 16px; font-weight: 500; fill: rgb(65, 65, 65);font-style: normal;font-weight: 500;font-size: 16px;font-family: Comic Sans MS, cursive;" stroke="none" stroke-width="1px" fill="rgb(65, 65, 65)" dominant-baseline="auto">2011</text></g><g xmlns="http://www.w3.org/2000/svg" xmlns:xlink="http://www.w3.org/1999/xlink" class="text-container" transform="matrix(1 0 0 1 150 60)"><text x="72.53246753246754" y="255" dy="0.35em" text-anchor="start" style="font-family: Arial; font-size: 20px; font-weight: 400; fill: rgb(65, 65, 65);font-style: normal;font-weight: 400;font-size: 20px;font-family: Comic Sans MS, cursive;" stroke="none" stroke-width="1px" fill="rgb(65, 65, 65)" dominant-baseline="auto">10</text></g><g xmlns="http://www.w3.org/2000/svg" xmlns:xlink="http://www.w3.org/1999/xlink"><path d="M149.827 374.045 C149.827 374.045, 149.827 374.045, 149.827 374.045 M149.827 374.045 C149.827 374.045, 149.827 374.045, 149.827 374.045 M150.623 379.67 C152.592 378.413, 153.567 376.272, 155.361 374.205 M150.227 379.539 C151.409 378.355, 153.232 376.147, 155.122 373.432 M149.335 386.15 C155.581 381.908, 157.92 378.249, 160.362 375.544 M150.76 385.842 C153.659 381.312, 157.79 376.111, 160.133 373.735 M150.949 392.055 C153.555 388.26, 160.861 381.405, 165.634 373.996 M150.437 392.309 C153.741 387.713, 159.304 382.94, 166.153 373.201 M151.694 396.627 C156.032 390.93, 159.871 384.813, 170.759 375.46 M149.788 398.177 C154.077 393.206, 160.463 387.899, 170.927 373.057 M151.161 405.258 C158.452 393.624, 168.106 385.164, 175.06 373.744 M150.172 404.808 C156.164 395.584, 163.082 388.084, 177.126 373.725 M150.069 410.773 C162.598 398.623, 170.993 383.947, 181.075 372.595 M149.916 409.893 C156.749 400.932, 164.876 394.447, 180.781 374.107 M148.058 415.345 C158.63 408.376, 164.746 398.896, 184.922 378.606 M150.737 416.788 C161.215 404.553, 171.966 392.4, 184.064 376.597 M148.84 424.614 C162.53 407.025, 177.065 393.345, 182.674 383.634 M150.57 422.505 C163.63 408.955, 177.152 392.341, 184.124 382.937 M148.246 427.59 C160.503 414.125, 176.352 401.095, 183.74 389.856 M151.051 428.713 C162.503 414.057, 175.584 398.529, 184.278 389.551 M148.459 436.607 C160.831 419.781, 173.478 409.285, 182.463 395.552 M150.52 434.494 C158.789 424.361, 166.531 414.523, 183.666 395.253 M148.252 441.558 C161.726 428.535, 173.616 414.66, 185.076 401.27 M149.609 440.776 C161.327 428.668, 171.971 416.135, 184.509 401.541 M151.941 447.896 C158.69 438.359, 169.177 429.101, 185.107 409.623 M149.733 446.903 C158.428 435.67, 168.731 424.171, 183.783 407.38 M149.009 454.573 C159.4 440.276, 170.308 431.027, 185.975 413.513 M149.865 453.424 C163.432 437.647, 176.237 423.41, 184.071 413.103 M155.976 454.018 C162.296 444.563, 169.709 436.211, 185.983 418.793 M155.943 452.733 C161.566 444.26, 167.19 439.458, 184.972 419.07 M159.193 452.066 C170.856 441.475, 177.916 432.431, 184.464 427.745 M161.186 452.217 C167.687 444.606, 174.331 436.86, 183.972 425.82 M164.444 453.793 C170.817 445.791, 177.313 442.361, 185.917 432.981 M166.362 452.445 C171.288 448.708, 175.379 441.316, 184.662 432.533 M171.065 452.366 C176.718 449.218, 177.913 442.164, 184.567 436.674 M171.947 453.063 C174.28 450.224, 177.233 447.005, 183.538 437.98 M175.616 453.562 C179.466 449.844, 179.514 449.19, 184.307 444.848 M177.063 453.071 C177.794 451.473, 179.99 449.557, 184.275 444.674 M182.167 452.785 C182.544 451.888, 182.959 451.646, 184.104 450.348 M182.286 452.443 C182.653 451.949, 183.098 451.668, 184.192 450.278" stroke="rgb(63, 138, 255)" stroke-width="0.5" fill="none"/><path d="M149.432 375.517 C155.96 374.702, 162.627 376.415, 181.938 373.847 M149.62 374.587 C156.94 372.962, 164.44 373.843, 182.932 372.879 M182.73 375 C181.905 391.578, 183.887 409.412, 184.135 453.083 M183.752 373.783 C181.7 391.914, 181.501 409.268, 184.257 452.257 M182.343 450.72 C174.935 453.795, 162.229 451.814, 150.776 451.535 M183.197 451.893 C171.597 452.143, 158.3 451.847, 150.451 452.956 M149.957 450.59 C152.58 434.008, 150.223 416.685, 151.719 375.748 M149.86 451.974 C149.115 423.601, 150.116 393.833, 150.293 374.593" stroke="rgb(63, 138, 255)" stroke-width="1" fill="none"/></g><g xmlns="http://www.w3.org/2000/svg" xmlns:xlink="http://www.w3.org/1999/xlink" class="text-container" transform="matrix(1 0 0 1 150 60)"><text x="-95.12" y="353.07692307692304" dy="0.35em" text-anchor="end" style="font-family: Arial; font-size: 16px; font-weight: 500; fill: rgb(65, 65, 65);font-style: normal;font-weight: 500;font-size: 16px;font-family: Comic Sans MS, cursive;" stroke="none" stroke-width="1px" fill="rgb(65, 65, 65)" dominant-baseline="auto">2010</text></g><g xmlns="http://www.w3.org/2000/svg" xmlns:xlink="http://www.w3.org/1999/xlink" class="text-container" transform="matrix(1 0 0 1 150 60)"><text x="38.76623376623377" y="353.07692307692304" dy="0.35em" text-anchor="start" style="font-family: Arial; font-size: 20px; font-weight: 400; fill: rgb(65, 65, 65);font-style: normal;font-weight: 400;font-size: 20px;font-family: Comic Sans MS, cursive;" stroke="none" stroke-width="1px" fill="rgb(65, 65, 65)" dominant-baseline="auto">5</text></g><g xmlns="http://www.w3.org/2000/svg" xmlns:xlink="http://www.w3.org/1999/xlink"><path d="M149.84 472.107 C149.84 472.107, 149.84 472.107, 149.84 472.107 M149.84 472.107 C149.84 472.107, 149.84 472.107, 149.84 472.107 M150.045 478.432 C151.322 475.741, 153.58 473.699, 155.257 471.204 M150.155 477.686 C152.175 475.681, 154.699 472.94, 155.437 471.914 M148.999 484.119 C152.451 478.647, 156.588 475.458, 160.544 472.306 M149.217 484.645 C153.844 480.799, 157.237 476.541, 161.034 472.194 M149.665 491.22 C152.704 487.607, 156.638 481.817, 167.643 472.569 M149.046 489.744 C154.006 486.46, 157.233 481.94, 165.634 472.494 M150.651 496.81 C154.897 491.636, 160.941 483.797, 170.865 471.548 M151.006 496.974 C157.73 488.03, 165.084 479.146, 171.008 472.607 M149.302 502.948 C157.366 492.754, 164.555 487.791, 172.074 478.662 M149.867 502.473 C157.481 495.344, 164.062 487.185, 171.392 477.555 M148.323 508.888 C153.271 503.358, 160.962 497.551, 170.98 485.804 M151.103 507.586 C157.039 499.773, 163.355 492.906, 170.051 484.109 M148.196 513.662 C157.169 507.122, 163.564 496.195, 170.02 491.26 M150.448 515.377 C154.974 509.685, 158.71 504.472, 170.188 490.041 M148.841 522.851 C157.127 511.599, 163.644 503.017, 169.448 497.166 M148.858 521.198 C157.229 511.423, 166.16 502.591, 169.975 497.468 M151.417 526.229 C153.956 520.118, 158.9 514.444, 170.415 501.824 M150.379 526.56 C159.376 517.035, 167.34 508.136, 171.19 503.044 M151.74 533.456 C155.716 527.143, 160.412 521.331, 169.703 506.917 M150.514 533.526 C155.739 525.45, 160.857 518.817, 170.6 508.787 M148.846 539.963 C155.784 533.547, 162.074 524.098, 170.104 516.395 M150.441 538.305 C156.434 532.008, 162.146 526.971, 169.867 514.977 M150.956 545.457 C155.63 536.135, 165.739 527.567, 171.116 519.691 M149.078 544.772 C156.309 536.512, 164.015 528.629, 171.597 519.969 M149.81 549.524 C156.693 543.371, 165.227 535.16, 170.601 526.988 M149.976 549.763 C155.345 545.74, 160.183 539.258, 169.873 527.502 M157.237 550.175 C162.929 542.597, 168.291 537.944, 172.931 534.007 M156.078 550.322 C162.349 544.58, 167.32 538.149, 171.845 532.431 M160.186 550.782 C164.332 546.03, 168.986 542.242, 170.894 539.129 M160.419 550.633 C165.392 546.771, 168.508 541.809, 171.361 540.014 M166.56 551.702 C167.591 549.076, 168.441 547.733, 170.715 546.462 M166.306 550.772 C167.063 550.02, 168.176 548.685, 170.359 545.624" stroke="rgb(63, 138, 255)" stroke-width="0.5" fill="none"/><path d="M150.382 473.765 C154.713 470.951, 162.172 473.104, 168.729 472.13 M149.755 472.315 C157.312 471.348, 164.763 471.597, 170.39 471.066 M171.872 473.799 C172.607 493.076, 170.666 515.617, 171.36 549.937 M170.236 471.615 C171.562 496.307, 171.031 520.352, 170.215 550.326 M171.811 549.589 C161.776 549.644, 155.518 549.59, 151.625 550.769 M170.39 550.462 C164.989 551.475, 161.714 549.691, 149.512 550.767 M148.466 549.728 C150.482 518.745, 149.784 492.647, 151.072 471.348 M149.878 549.981 C150.135 528.747, 150.488 506.742, 150.179 472.154" stroke="rgb(63, 138, 255)" stroke-width="1" fill="none"/></g><g xmlns="http://www.w3.org/2000/svg" xmlns:xlink="http://www.w3.org/1999/xlink" class="text-container" transform="matrix(1 0 0 1 150 60)"><text x="-95.12" y="451.15384615384613" dy="0.35em" text-anchor="end" style="font-family: Arial; font-size: 16px; font-weight: 500; fill: rgb(65, 65, 65);font-style: normal;font-weight: 500;font-size: 16px;font-family: Comic Sans MS, cursive;" stroke="none" stroke-width="1px" fill="rgb(65, 65, 65)" dominant-baseline="auto">2009</text></g><g xmlns="http://www.w3.org/2000/svg" xmlns:xlink="http://www.w3.org/1999/xlink" class="text-container" transform="matrix(1 0 0 1 150 60)"><text x="25.259740259740262" y="451.15384615384613" dy="0.35em" text-anchor="start" style="font-family: Arial; font-size: 20px; font-weight: 400; fill: rgb(65, 65, 65);font-style: normal;font-weight: 400;font-size: 20px;font-family: Comic Sans MS, cursive;" stroke="none" stroke-width="1px" fill="rgb(65, 65, 65)" dominant-baseline="auto">3</text></g><g xmlns="http://www.w3.org/2000/svg" xmlns:xlink="http://www.w3.org/1999/xlink"><path d="M149.84 472.107 C149.84 472.107, 149.84 472.107, 149.84 472.107 M149.84 472.107 C149.84 472.107, 149.84 472.107, 149.84 472.107 M150.304 477.545 C152.476 475.171, 153.614 473.271, 155.391 472.137 M150.555 477.539 C152.281 475.768, 154.025 473.156, 155.421 471.831 M149.895 483.449 C155.28 480.057, 157.812 474.005, 160.583 471.674 M150.735 483.617 C153.49 480.47, 157.161 475.769, 160.45 471.773 M151.625 488.641 C155.874 483.309, 161.797 477.907, 165.388 470.055 M148.854 491.371 C155.93 484.323, 160.866 477.988, 165.265 471.618 M151.72 495.879 C154.305 491.668, 156.518 486.924, 171.133 472.896 M150.452 495.456 C155.043 490.14, 160.926 483.488, 171.114 472.845 M149.12 502.376 C157.957 493.897, 167.89 485.463, 171.074 477.931 M149.766 502.292 C156.565 494.052, 163.259 485.016, 170.366 477.851 M148.318 509.388 C158.174 502.456, 162.756 496.381, 170.986 486.74 M150.65 508.054 C156.832 502.56, 162.75 494.519, 170.917 485.057 M149.924 514.864 C157.217 505.981, 163.069 496.753, 171.769 491.058 M149.851 514.261 C154.14 509.365, 158.713 505.001, 171.058 491.028 M150.752 520.103 C152.252 514.134, 159.07 512.776, 169.329 497.713 M149.856 520.579 C155.805 513.739, 161.773 508.081, 171.414 496.655 M148.748 526.774 C158.266 518.959, 164.982 509.166, 171.087 501.179 M150.113 526.3 C158.063 517.24, 166.19 508.678, 170.404 502.713 M148.329 533.044 C155.87 525.946, 165.594 517.801, 172.257 508.39 M149.18 533.679 C155.249 526.602, 161.003 520.42, 170.887 509.044 M149.163 538.596 C158.049 530.492, 165.318 522.106, 170.845 515.426 M150.825 538.911 C157.079 530.508, 166.347 521.357, 170.206 515.755 M151.077 546.16 C154.673 541, 158.285 533.528, 171.484 520.302 M149.399 545.963 C157.316 536.425, 165.763 528.22, 170.627 520.003 M149.774 551.064 C154.122 544.341, 161.157 541.561, 169.426 525.778 M150.696 551.609 C155.66 544.817, 163.058 537.215, 171.207 528.317 M156.49 549.699 C161.515 545.718, 168.77 537.49, 171.517 532.593 M155.691 549.397 C159.323 545.745, 163.135 543.481, 171.896 533.255 M161.536 551.706 C163.711 547.174, 167.069 544.282, 171.371 539.951 M160.448 551.379 C165.048 546.936, 168.122 542.375, 170.148 539.07 M166.035 551.735 C167.972 549.577, 169.703 547.463, 170.677 545.402 M165.845 551.032 C166.843 549.811, 168.143 548.747, 170.363 546.029" stroke="rgb(63, 138, 255)" stroke-width="0.5" fill="none"/><path d="M148.402 473.25 C155.754 471.513, 158.5 470.854, 170.072 470.324 M150.576 471.254 C156.782 472.429, 162.707 472.631, 169.568 471.054 M171.617 473.829 C169.174 492.331, 169.311 510.024, 168.353 550.064 M170.957 471.482 C169.256 497.394, 169.775 524.632, 170.107 550.657 M171.9 550.987 C164.967 548.498, 161.17 550.816, 150.095 552.305 M170.548 550.364 C164.218 550.984, 158.249 549.297, 150.811 549.475 M151.948 549.185 C149.072 534.006, 149.018 516.911, 148.828 472.859 M150.831 549.637 C149.494 531.937, 148.546 514.93, 150.999 471.836" stroke="rgb(63, 138, 255)" stroke-width="1" fill="none"/></g><g xmlns="http://www.w3.org/2000/svg" xmlns:xlink="http://www.w3.org/1999/xlink" class="text-container" transform="matrix(1 0 0 1 150 60)"><text x="-95.12" y="451.15384615384613" dy="0.35em" text-anchor="end" style="font-family: Arial; font-size: 16px; font-weight: 500; fill: rgb(65, 65, 65);font-style: normal;font-weight: 500;font-size: 16px;font-family: Comic Sans MS, cursive;" stroke="none" stroke-width="1px" fill="rgb(65, 65, 65)" dominant-baseline="auto">2009</text></g><g xmlns="http://www.w3.org/2000/svg" xmlns:xlink="http://www.w3.org/1999/xlink" class="text-container" transform="matrix(1 0 0 1 150 60)"><text x="25.259740259740262" y="451.15384615384613" dy="0.35em" text-anchor="start" style="font-family: Arial; font-size: 20px; font-weight: 400; fill: rgb(65, 65, 65);font-style: normal;font-weight: 400;font-size: 20px;font-family: Comic Sans MS, cursive;" stroke="none" stroke-width="1px" fill="rgb(65, 65, 65)" dominant-baseline="auto">3</text></g>         </g></svg>