<svg xmlns='http://www.w3.org/2000/svg' xmlns:xlink='http://www.w3.org/1999/xlink' width='486' height='365'>
        <g transform='translate(-17.0, -143.55714285714285)'>             <g xmlns="http://www.w3.org/2000/svg" xmlns:xlink="http://www.w3.org/1999/xlink"><path d="M20.079 145.981 C20.079 145.981, 20.079 145.981, 20.079 145.981 M20.079 145.981 C20.079 145.981, 20.079 145.981, 20.079 145.981 M20.487 152.349 C20.981 149.905, 23.089 148.035, 24.274 146.83 M20.115 152.02 C21.826 150.435, 23.355 147.924, 25.013 146.373 M21.3 156.818 C24.893 154.025, 26.759 148.598, 31.58 145.42 M20.892 157.727 C22.787 155.254, 24.562 152.783, 31.074 145.958 M21.038 164.018 C25.993 161.152, 30.459 154.619, 37.243 145.171 M19.975 164.819 C23.309 159.725, 28.334 155.239, 36.312 146.271 M18.789 171.245 C22.856 167.127, 29.86 159.206, 42.889 144.368 M19.171 170.009 C26.081 163.047, 31.975 154.824, 41.173 145.217 M21.953 176.91 C27.401 170.292, 33.357 161.826, 44.584 147.275 M19.314 175.638 C28.359 167.967, 34.871 158.746, 46.809 146.127 M23.378 180.348 C31.6 171.581, 38.498 163.139, 52.177 146.051 M22.584 178.804 C33.845 166.566, 46.619 151.916, 52.312 145.241 M29.932 179.101 C36.959 170.315, 45.788 159.213, 57.608 145.478 M28.067 180.356 C35.776 168.804, 43.899 160.024, 57.005 146.881 M33.561 180.222 C38.502 171.546, 44.472 163.586, 62.986 144.944 M33.949 178.919 C42.574 170.108, 49.935 160.682, 63.416 144.915 M40.249 179.427 C45.725 174, 52.061 164.345, 65.774 147.663 M39.542 179.398 C48.573 168.711, 60.031 156.145, 68.255 146.073 M43.068 180.927 C55.849 167.298, 62.524 156.541, 72.665 146.689 M44.708 178.548 C54.864 164.926, 65.952 153.519, 72.522 144.829 M49.018 179.35 C53.867 171.984, 61.511 166.471, 77.909 145.114 M49.24 178.875 C59.671 167.581, 69.054 156.476, 78.853 145.945 M55.682 179.162 C62.688 167.338, 70.984 159.414, 84.352 146.911 M55.415 178.177 C63.001 169.416, 73.062 158.71, 83.39 146.019 M59.393 179.55 C70.233 169.826, 77.947 155.931, 89.403 146.764 M60.228 179.006 C68.644 167.573, 77.669 157.503, 88.939 145.501 M66.105 178.498 C70.487 170.202, 77.206 163.219, 95.452 147.363 M65.557 178.528 C71.567 171.067, 77.944 165.201, 95.383 144.904 M70.586 180.528 C80.603 166.549, 89.026 156.48, 99.593 144.148 M70.047 179.366 C76.202 170.99, 83.767 164.362, 100.433 146.115 M76.179 178.198 C83.784 169.228, 91.207 161.835, 104.276 144.3 M75.572 179.034 C87.125 166.644, 97.889 152.831, 104.902 146.045 M81.707 179.484 C92.265 167.544, 98.032 159.335, 111.185 147.186 M80.617 178.783 C89.537 170.134, 97.244 161.104, 109.739 146.819 M87.531 179.904 C95.895 169.105, 104.711 160.445, 114.918 145.284 M86.553 180.463 C93.708 169.989, 100.211 162.759, 115.64 146.88 M92.667 180.577 C101.677 169.122, 109.47 159.19, 121.083 146.655 M91.065 178.417 C102.649 168.139, 111.515 156.221, 120.293 145.879 M95.623 179.847 C106.273 165.346, 118.375 152.938, 126.846 148.13 M96.893 179.139 C104.723 172.211, 111.72 163.934, 125.955 146.84 M103.955 179.337 C109.984 170.199, 117.96 160.779, 130.287 144.592 M102.295 179.848 C113.969 166.493, 124.149 152.97, 131.919 145.364 M106.413 179.385 C120.101 167.091, 127.802 155.153, 136.727 147.285 M107.977 180.171 C117.938 167.941, 127.48 156.642, 136.134 146.661 M112.22 177.582 C119.272 169.146, 127.513 161.971, 143.874 144.65 M113.888 178.601 C122.443 169.044, 131.278 158.356, 142.648 146.92 M118.059 178.725 C126.007 171.309, 136.929 160.053, 146.916 145.533 M118.19 179.318 C128.941 166.87, 141.56 153.446, 146.524 145.424 M124.549 178.752 C132.763 167.897, 143.962 158.582, 150.96 145.326 M123.754 178.177 C130.267 170.344, 138.229 161.256, 152.4 146.798 M126.996 179.225 C133.9 172.002, 144.01 164.731, 159.506 147.881 M128.241 180.405 C134.472 172.326, 141.044 165.214, 156.874 147.223 M133.602 179.099 C143.277 171.605, 147.529 163.611, 164.434 144.628 M133.612 178.109 C142.088 171.974, 148.213 165.203, 163.778 145.597 M140.072 177.852 C150.155 167.443, 156.254 158.334, 167.873 144.979 M138.89 179.83 C146.99 169.251, 155.568 160.244, 167.585 146.534 M146.295 179.952 C155.174 166.454, 165.73 157.083, 173.357 145.952 M144.323 179.984 C156.19 167.164, 165.472 154.921, 172.921 146.358 M150.384 179.535 C160.032 168.527, 167.129 158.441, 179.983 147.524 M150.195 178.476 C155.487 173.533, 162.185 166.674, 179.707 146.959 M157.312 177.949 C165.327 167.536, 174.402 153.992, 185.654 144.65 M155.593 178.087 C160.401 172.153, 166.652 165.731, 185.419 145.547 M162.213 180.104 C168.717 170.84, 176.179 161.729, 187.719 147.919 M160.986 180.26 C168.121 170.612, 177.515 160.111, 188.874 145.875 M164.921 178.697 C176.753 167.236, 186.89 154.801, 195.316 145.453 M166.125 178.084 C171.792 171.107, 177.79 165.205, 195.521 146.132 M173.081 179.829 C178.564 170.26, 188.441 157.614, 199.82 148.021 M171.143 179.606 C182.686 166.762, 193.208 152.932, 199.33 146.524 M178.348 178.239 C185.439 166.614, 194.635 160.129, 207.158 144.432 M176.165 178.265 C186.12 167.826, 197.095 157.517, 205.986 144.911 M180.894 179.643 C193.327 167.063, 204.707 154.351, 209.403 147.17 M181.606 179.744 C190.438 169.695, 197.664 159.447, 211.024 145.848 M186.878 181.491 C195.311 168.687, 204.726 157.654, 214.838 144.978 M187.128 179.535 C196.875 167.114, 207.558 155.669, 215.431 146.474 M193.701 179.64 C203.796 165.02, 214.376 153.547, 223.193 146.876 M192.611 179.648 C204.008 167.499, 214.098 154.199, 221.466 146.357 M197.395 179.846 C206.542 170.381, 214.915 156.579, 227.121 146.271 M197.433 178.78 C206.509 170.113, 214.087 160.781, 225.641 147.171 M202.167 180.718 C210.049 171.425, 219.274 162.74, 232.409 145.371 M203.239 178.666 C213.34 167.02, 223.166 155.647, 231.468 146.156 M206.222 180.708 C217.55 171.373, 227.448 159.71, 238.945 146.856 M208.031 178.929 C219.036 166.061, 231.477 153.78, 237.341 145.909 M214.753 180.206 C222.976 169.051, 232.464 157.07, 242.929 144.435 M213.805 179.445 C220.868 170.618, 229.764 160.359, 242.148 146.147 M220.503 178.772 C231.331 168.186, 240.002 153.083, 245.886 146.764 M218.704 179.46 C224.992 170.737, 233.24 162.685, 248.176 146.066 M222.656 178.643 C235.315 167.878, 243.27 157.749, 251.344 145.801 M225.154 179.794 C232.193 169.277, 240.228 160.417, 254.167 145.097 M231.222 177.604 C238.404 168.228, 249.557 153.916, 256.579 144.37 M229.936 178.703 C237.803 171.552, 243.97 162.737, 259.087 145.569 M236.026 180.78 C245.075 165.799, 256.503 155.503, 262.865 144.81 M235.964 180.084 C246.405 166.088, 257.496 153.31, 264.762 146.553 M238.726 178.338 C249.968 166.592, 260.271 155.806, 269.665 147.889 M240.603 179.209 C249.482 167.268, 261.614 154.71, 268.623 145.903 M246.033 177.661 C251.982 168.563, 263.654 161.374, 276.055 146.424 M246.386 179.233 C256.287 167.971, 266.146 155.03, 274.182 145.786 M250.865 180.515 C255.908 171.99, 261.93 167.383, 280.531 147.592 M251.302 180.422 C258.482 170.524, 266.741 160.88, 280.081 146.364 M256.913 178.354 C262.738 171.242, 269.874 161.906, 285.786 147.264 M256.115 180.068 C263.446 172.518, 269.293 164.575, 285.619 146.858 M262.021 178.341 C272.486 167.222, 281.244 153.469, 289.115 145.238 M261.546 179.213 C266.414 172.325, 274.167 164.131, 290.338 146.942 M268.051 177.944 C275.907 165.794, 285.769 154.882, 296.058 147.503 M266.542 179.173 C274.459 170.459, 282.401 160.921, 296.034 145.714 M272.869 181.005 C278.638 169.344, 290.467 161.286, 300.124 148.045 M272.665 178.855 C278.58 170.055, 288.599 160.556, 301.628 145.679 M278.386 180.274 C286.773 167.325, 294.661 158.097, 305.601 144.338 M277.174 178.506 C286.205 169.644, 294.387 158.898, 305.674 144.906 M282.49 180.112 C289.222 174.309, 294.59 164.485, 313.115 145.489 M282.015 180.295 C293.471 166.634, 305.062 153.074, 311.61 147.027 M287.052 177.967 C297.173 168.297, 306.238 157.619, 319.045 143.83 M288.688 178.194 C294.431 172.439, 300.94 164.174, 316.584 144.853 M294.483 178.662 C300.638 172.232, 304.398 164.961, 322.096 147.571 M292.522 178.713 C303.885 167.043, 313.192 155.529, 322.582 146.95 M297.445 179.488 C308.63 169.39, 317.566 155.286, 328.968 146.955 M298.343 178.109 C306.437 171.405, 314.38 162.871, 327.399 145.467 M303.006 177.992 C309.519 170.93, 314.848 167.758, 334.325 147.262 M303.577 179.995 C313.86 166.602, 323.784 155.118, 333.319 146.913 M310.15 180.475 C318.14 167.409, 329.172 153.451, 338.654 146.9 M309.095 179.466 C320.55 165.844, 331.06 153.535, 337.678 145.361 M313.255 179.089 C327.294 165.445, 336.261 153.061, 343.685 144.074 M313.651 179.297 C327.435 166.707, 337.046 152.084, 342.921 146.807 M319.511 178.125 C328.974 167.708, 338.119 158.733, 347.189 147.815 M319.524 179.123 C327.988 169.155, 335.586 161.34, 348.038 147.134 M324.063 180.837 C333.178 169.433, 345.317 157.304, 354.872 147.662 M324.663 178.429 C334.48 168.42, 345.902 155.196, 354.519 145.648 M328.779 179.189 C341.117 166.962, 351.274 153.61, 360.672 146.858 M330.813 178.707 C336.837 172.47, 344.126 163.152, 359.326 146.155 M335.614 177.798 C344.59 168.479, 355.04 155.865, 365.261 145.701 M336.257 178.237 C343.674 169.635, 354.211 158.481, 364.511 145.742 M342.476 179.887 C349.693 170.734, 357.475 158.951, 368.443 145.445 M340.832 179.277 C349.17 170.492, 357.949 159.11, 368.737 146.702 M346.46 177.561 C350.806 172.351, 356.618 162.484, 374.277 145.821 M346.977 179.369 C354.703 171.276, 361.683 160.614, 375.41 145.648 M350.295 178.788 C359.859 171.982, 364.643 162.412, 380.608 144.536 M351.466 179.581 C358.449 169.99, 368.01 162.319, 379.618 147.156 M355.477 178.223 C365.848 164.361, 379.949 152.448, 387.488 145.203 M357.004 178.234 C367.901 166.144, 380.292 152.217, 385.092 146.842 M360.304 178.7 C373.03 166.408, 384.062 155.465, 389.045 144.731 M360.973 180.407 C371.414 167.868, 381.824 156.444, 390.333 147.003 M366.078 179.472 C373.742 169.947, 382.554 161.577, 394.951 147.05 M368.108 178.875 C376.089 169.876, 383.888 161.121, 395.755 146.58 M374.212 180.566 C382.137 169.101, 388.73 160.449, 399.907 146.071 M372.743 179.717 C383.091 166.712, 392.889 155.152, 401.295 146.489 M376.66 180.409 C387.992 169.094, 396.196 160.23, 407.685 144.492 M378.85 178.154 C383.793 171.51, 391.899 164.245, 407.656 144.901 M383.857 178.264 C390.445 167.197, 401.854 156.456, 413.379 146.41 M382.232 178.472 C394.295 166.729, 405.219 154.138, 412.06 146.306 M389.761 180.608 C401.584 166.496, 409.46 156.829, 415.942 144.259 M387.904 178.682 C395.957 170.52, 403.018 162.595, 418.145 145.344 M395.655 180.386 C400.743 170.614, 407.755 164.217, 421.164 147.931 M393.642 179.412 C403.28 168.319, 415.126 154.805, 423.256 146.106 M401.279 177.017 C406.539 170.385, 415.9 160.432, 426.478 144.969 M398.931 178.771 C409.625 168.1, 418.074 157.608, 428.342 145.137 M405.52 178.372 C412.453 170.457, 420.371 159.351, 433.946 146.295 M404.989 179.479 C414.093 167.005, 426.557 154.759, 434.292 146.403 M410.811 178.145 C419.783 166.328, 430.751 154.101, 439.697 145.775 M409.356 178.352 C417.663 170.501, 424.944 162.247, 438.418 146.141 M415.363 180.054 C421.428 171.044, 428.597 163.883, 442.478 147.152 M415.342 180.255 C425.482 164.999, 438.264 152.714, 444.332 146.169 M421.389 179.681 C425.874 172.304, 433.534 161.187, 448.024 144.831 M419.54 179.218 C426.094 171.576, 433.527 165.895, 449.503 145.144 M427.546 178.918 C433.884 169.272, 444.043 162.064, 454.814 144.802 M426.623 179.766 C435.03 168.018, 446.416 156.956, 454.157 145.116 M431.039 179.756 C439.234 169.088, 447.745 162.317, 458.653 147.907 M429.934 180.045 C440.951 167.981, 451.391 154.94, 459.753 145.53 M436.422 177.634 C445.732 166.829, 458.816 156.24, 463.291 147.015 M436.82 179.927 C444.006 169.084, 450.66 160.628, 465.74 146.706 M441.126 178.649 C454.77 165.398, 464.071 151.495, 468.583 147.128 M441.532 180.589 C448.942 169.344, 458.34 160.755, 471.074 146.831 M447.679 180.236 C458.906 165.526, 467.886 153.669, 473.227 145.131 M447.21 179.312 C457.605 165.771, 467.78 154.051, 475.309 147.14 M452.969 179.344 C455.285 175.719, 462.865 168.333, 476.764 154.89 M451.463 180.315 C459.626 171.268, 466.76 161.982, 475.439 153.532 M456.645 180.876 C461.635 174.2, 465.775 170.076, 473.362 159.217 M457.803 179.861 C463.274 171.554, 469.97 165.84, 474.805 158.1 M463.084 178.278 C467.687 176.173, 473.39 171.339, 476.41 165.03 M462.008 179.334 C465.692 176.447, 468.473 171.769, 475.717 165.355 M468.464 179.515 C471.225 176.101, 472.24 173.672, 476.079 170.567 M468.013 178.722 C470.356 176.597, 472.924 174.876, 475.538 171.043" stroke="rgb(63, 138, 255)" stroke-width="0.5" fill="none"/><path d="M20.194 146.196 C180.014 149.314, 339.129 150.199, 474.861 145.301 M19.999 145.739 C188.647 147.588, 356.319 147.758, 474.558 146.108 M475.384 144.209 C474.688 156.979, 476.353 165.594, 472.856 178.251 M475.057 145.345 C474.867 154.828, 473.999 161.315, 474.206 177.421 M475.236 177.451 C335.869 173.411, 197.124 173.999, 20.498 176.351 M474.112 176.938 C372.835 174.861, 270.383 175.423, 19.789 177.076 M21.273 178.066 C17.855 169.919, 17.934 159.082, 18.464 145.056 M19.04 177.198 C20.711 170.769, 20.463 164.094, 20.025 145.38" stroke="rgb(63, 138, 255)" stroke-width="1" fill="none"/></g><g xmlns="http://www.w3.org/2000/svg" xmlns:xlink="http://www.w3.org/1999/xlink" class="text-container" transform="matrix(1 0 0 1 20 146.071)"><text x="0" y="42.232142857142854" dy="0.71em" text-anchor="start" style="font-family: Arial; font-size: 16px; font-weight: 500; fill: rgb(65, 65, 65);font-style: normal;font-weight: 500;font-size: 16px;font-family: Comic Sans MS, cursive;" stroke="none" stroke-width="1px" fill="rgb(65, 65, 65)" dominant-baseline="auto">2013</text></g><g xmlns="http://www.w3.org/2000/svg" xmlns:xlink="http://www.w3.org/1999/xlink" class="text-container" transform="matrix(1 0 0 1 20 146.071)"><text x="459.54545454545445" y="15.357142857142856" dy="0.35em" text-anchor="start" style="font-family: Arial; font-size: 18.4286px; font-weight: 400; fill: rgb(65, 65, 65);font-style: normal;font-weight: 400;font-size: 18.4286px;font-family: Comic Sans MS, cursive;" stroke="none" stroke-width="1px" fill="rgb(65, 65, 65)" dominant-baseline="auto">55</text></g><g xmlns="http://www.w3.org/2000/svg" xmlns:xlink="http://www.w3.org/1999/xlink"><path d="M20.079 145.981 C20.079 145.981, 20.079 145.981, 20.079 145.981 M20.079 145.981 C20.079 145.981, 20.079 145.981, 20.079 145.981 M20.082 152.573 C21.645 151.034, 22.935 148.159, 25.458 145.917 M19.787 152.497 C21.748 150.203, 22.966 148.202, 25.153 146.042 M20.491 156.61 C21.347 155.953, 26.85 151.436, 31.965 144.86 M20.029 158.705 C24.295 153.191, 26.765 150.102, 30.241 145.658 M18.997 162.466 C24.258 159.495, 29.158 151.594, 36.05 146.184 M20.363 165.356 C23.125 160.021, 27.131 157.529, 35.004 146.882 M19.784 171.006 C28.69 160.745, 36.997 151.514, 40.247 146.352 M20.097 170.297 C28.31 161.663, 35.561 153.632, 41.081 145.599 M18.435 175.731 C28.844 165.701, 41.25 152.789, 45.526 144.421 M19.378 176.87 C28.27 168.072, 35.425 159.366, 45.862 147.216 M23.399 176.277 C32.79 166.406, 45.736 153.825, 53.457 145.57 M24.299 176.912 C32.937 168.663, 39.167 160.612, 52.746 145.349 M28.56 178.105 C39.237 166.824, 50.394 154.206, 56.744 145.704 M29.13 176.84 C36.273 170.879, 40.917 163.521, 56.708 147.221 M36.296 177.172 C39.217 168.9, 45.115 162.799, 62.66 145.829 M35.528 176.995 C42.908 169.355, 50.146 161.391, 62.442 145.445 M38.795 177.79 C48.332 170.095, 52.046 162.962, 69.242 145.158 M41.205 178.064 C50.388 165.772, 58.731 156.162, 68.107 146.893 M47.626 177.313 C50.397 168.463, 60.685 161.398, 73.749 147.044 M46.288 177.848 C52.609 169.666, 60.954 160.931, 73.579 145.108 M51.142 176.648 C57.719 168.668, 67.718 161.021, 77.977 145.657 M51.869 176.556 C59.289 169.94, 65.96 161.171, 78.951 146.596 M57.444 177.57 C65.529 167.847, 75.151 157.131, 82.128 144.881 M57.143 177.52 C67.19 165.939, 76.896 152.316, 83.985 146.454 M62.146 178.189 C72.675 167.247, 83.391 154.496, 89.605 144.567 M61.116 177.071 C69.519 167.385, 77.616 157.188, 87.887 145.548 M66.643 175.953 C78.943 165.716, 88.919 151.627, 94.487 147.027 M66.531 177.832 C77.531 165.558, 86.613 153.872, 94.332 144.843 M71.109 178.191 C79.855 171.98, 82.379 165.251, 99.924 145.301 M73.166 177.538 C81.379 165.998, 89.996 155.908, 99.514 146.775 M79.051 179.245 C89.89 166.588, 98.68 153.102, 105.301 145.019 M76.845 178.261 C87.087 166.098, 97.871 156.259, 105.491 145.538 M83.49 178.057 C89.829 171.019, 95.145 160.773, 111.194 147.229 M83.177 177.97 C94.531 163.825, 105.202 153.249, 110.994 146.369 M87.533 177.617 C95.603 169.283, 101.305 162.057, 114.534 147.209 M89.048 177.914 C96.046 168.884, 104.114 161.122, 115.989 145.735 M92.694 176.793 C102.865 165.554, 112.766 157.957, 122.595 146.902 M94.781 177.268 C104.048 166.211, 114.076 154.678, 120.655 145.056 M99.669 175.81 C105.231 169.899, 110.378 165.038, 124.483 145.094 M99.316 178.004 C106.059 167.292, 116.086 158.462, 125.383 145.768 M102.773 175.728 C110.617 172.28, 116.492 164.759, 130.137 147.956 M102.952 176.945 C110.851 168.094, 119.552 161.485, 131.665 146.832 M108.247 176.774 C116.657 169.009, 124.9 157.092, 134.503 146.986 M109.738 178.022 C119.055 164.827, 130.057 154.409, 135.731 145.805 M115.179 176.904 C122.341 166.124, 133.268 158.47, 142.885 145.832 M114.881 176.726 C121.778 168.518, 127.786 160.608, 142.418 145.653 M119.412 177.519 C130.193 165.385, 138.387 155.328, 147.502 145.353 M121.001 176.986 C126.882 169.338, 134.147 161.235, 146.744 147.317 M124.271 176.278 C135.876 165.265, 145.474 153.382, 151.624 147.239 M124.61 177.355 C133.827 167.227, 145.947 154.893, 152.237 146.022 M130.986 175.368 C141.365 165.153, 151.983 155.898, 158.304 145.342 M131.693 176.359 C137.153 171.296, 142.191 163.536, 157.533 146.144 M133.889 175.709 C144.538 169.677, 154.906 157.816, 161.973 145.833 M135.039 178.327 C143.671 167.843, 152.125 157.664, 162.422 145.153 M140.236 177.759 C149.872 164.21, 162.913 151.342, 167.342 147.282 M141.243 177.268 C148.98 166.974, 157.445 158.601, 168.611 146.268 M145.742 175.722 C158.073 165.868, 166.069 157.55, 175.836 146.065 M145.946 177.387 C157.197 165.805, 168.099 153.645, 173.519 144.904 M153.099 179.034 C160.987 163.843, 171.591 152.805, 178.176 146.301 M151.699 177.154 C161.304 166.986, 170.869 155.793, 178.912 145.48 M158.881 177.332 C168.89 164.424, 179.649 151.214, 185.812 146.502 M156.553 177.015 C165.679 167.282, 174.571 156.94, 184.137 144.97 M162.716 178.269 C169.895 169.698, 174.887 165.666, 188.263 147.587 M161.89 177.348 C173.228 165.095, 182.106 153.134, 189.872 146.867 M166.716 179.211 C178.038 167.06, 186.456 153.917, 196.717 145.218 M167.339 177.572 C177.409 166.016, 188.47 153.348, 194.949 146.02 M171.969 178.576 C178.718 170.465, 186.895 159.502, 199.039 146.207 M173.462 176.158 C181.48 167.807, 188.507 159.823, 199.424 145.657 M179.786 176.438 C185.455 170.526, 189.9 162.931, 205.284 145.146 M177.527 177.012 C187.747 166.547, 196.535 156.173, 206.06 145.693 M183.604 176.158 C188.426 171.119, 196.293 166.025, 211.452 147.448 M183.971 177.779 C191.692 167.566, 201.175 156.607, 209.855 147.089 M187.867 177.283 C195.312 167.777, 204.062 160.866, 215.475 144.102 M187.961 177.942 C195.729 167.8, 204.27 158.533, 216.364 146.261 M196.444 175.33 C200.517 170.09, 205.161 162.539, 219.446 146.124 M193.594 177.406 C202.873 168.303, 209.109 160.232, 221.911 146.798 M201.27 175.821 C208.511 164.645, 219.824 154.689, 226.444 147.773 M198.986 177.523 C209.398 166.457, 218.905 155.877, 225.944 146.752 M206.055 175.904 C212.618 167.74, 223.923 158.845, 233.754 147.404 M204.295 177.548 C212.486 169.474, 218.761 161.321, 232.003 146.349 M209.541 176.274 C218.502 165.252, 229.559 154.441, 238.412 147.508 M210.75 177.74 C219.288 166.223, 231.074 152.642, 236.978 146.207 M216.569 177.613 C221.098 171.047, 229.321 162.697, 242.379 145.72 M214.17 178.577 C222.183 170.742, 228.025 161.42, 242.355 146.782 M220.608 177.458 C230.168 167.563, 241.608 153.029, 247.53 145.827 M221.106 177.688 C226.956 169.382, 234.826 162.708, 247.751 145.833 M226.969 178.583 C232.999 170.706, 239.115 165.517, 254.946 147.859 M225.717 178.389 C233.421 168.624, 240.368 160.79, 252.431 146.073 M230.535 178.665 C240.887 164.825, 251.865 157.265, 258.138 145.483 M232.353 177.641 C241.516 166.761, 248.931 156, 259.223 145.603 M237.08 178.764 C246.447 166.579, 254.252 157.112, 265.119 144.353 M236.397 178.051 C242.194 169.608, 247.919 164.079, 264.244 145.263 M241.908 177.038 C249.302 168.537, 255.151 162.887, 268.25 144.741 M241.961 178.14 C249.337 168.416, 255.321 160.197, 269.149 146.551 M247.383 178.136 C257.019 167.418, 263.136 159.686, 275.348 144.612 M247.408 177.992 C254.852 167.853, 262.807 160.125, 274.649 146.374 M253.816 178.467 C260.707 167.127, 268.732 161.415, 278.413 144.579 M253.34 177.328 C260.948 165.78, 270.537 156.152, 279.418 145.309 M259.288 178.091 C266.175 169.9, 273.858 159.81, 285.216 146.629 M257.96 177.003 C264.194 171.098, 271.493 163.45, 285.886 146.662 M264.589 178.035 C269.808 170.033, 280.622 161.144, 291.013 147.119 M263.059 177.205 C269.794 170.419, 276.027 161.698, 289.887 145.875 M269.053 177.252 C277.059 167.059, 288.196 153.713, 296.142 144.881 M267.949 176.692 C276.654 167.426, 285.694 157.873, 294.951 146.135 M273.594 176.763 C281.423 168.208, 290.526 159.784, 299.11 144.723 M273.427 176.975 C282.563 168.747, 290.443 157.883, 301.029 145.254 M278.296 179.333 C284.734 171.255, 288.932 163.536, 307.797 145.037 M278.497 177.205 C285.919 169.302, 292.309 161.528, 305.68 146.128 M285.957 175.955 C294.053 169.265, 302.776 157.956, 310.24 144.369 M284.607 177.014 C291.216 167.429, 300.041 160.858, 312.373 146.859 M291.233 176.914 C302.182 166.205, 310.197 154.175, 318.156 146.994 M289.896 178.226 C295.114 171.513, 300.654 163.438, 316.885 146.724 M296.301 178.543 C304.098 164.214, 315.511 156.051, 320.135 147.993 M295.589 176.134 C303.759 166.835, 311.027 158.276, 321.365 146.631 M300.814 176.601 C307.424 169.388, 311.113 165.03, 328.036 143.974 M300.475 177.619 C311.104 166.564, 321.297 154.538, 326.944 144.751 M303.935 178.862 C310.278 169.635, 318.224 163.171, 331.848 145.862 M306.35 177.598 C313.837 167.639, 319.633 158.875, 333.513 146.131 M310.73 179.22 C316.386 172.483, 321.92 165.778, 338.455 147.235 M310.703 177.495 C317.774 169.524, 324.902 162.114, 337.751 145.774 M316.954 176.26 C325.437 168.392, 332.516 158.61, 344.239 146.406 M315.593 178.003 C323.241 168.52, 330.419 160.98, 342.59 146.567 M319.959 177.621 C329.986 168.546, 339.347 158.37, 349.759 147.837 M320.955 177.821 C328.44 169.657, 334.505 162.151, 348.512 147.128 M325.91 178.882 C336.931 164.658, 348.186 151.312, 352.282 146.224 M326.833 177.358 C336.972 166.263, 345.912 154.621, 353.932 145.223 M330.574 177.934 C340.264 169.429, 342.641 163.811, 357.679 146.859 M331.886 176.564 C337.288 171.142, 343.031 163.149, 359.411 145.466 M338.124 176.666 C343.608 169.326, 348.708 162.939, 364.981 147.343 M337.848 177.517 C343.445 169.24, 350.476 161.754, 364.853 146.586 M343.24 176.161 C350.038 171.748, 356.036 164.216, 368.147 146.72 M341.967 177.988 C349.032 168.427, 357.6 159.268, 370.01 146.997 M347.009 178.147 C356.091 169.078, 361.318 162.925, 375.241 146.676 M347.173 178.34 C358.165 165.85, 369.72 153.974, 374.453 146.592 M352.631 177.75 C364.557 166.71, 372.406 152.348, 380.441 144.983 M352.365 178.034 C358.868 169.92, 364.819 163.389, 381.022 146.144 M358.379 178.344 C368.511 165.826, 376.282 156.492, 387.322 146.603 M358.316 177.865 C368.684 166.469, 379.166 154.856, 385.202 145.212 M363.493 175.889 C369.447 168.628, 377.723 160.885, 391.392 147.745 M363.965 177.497 C373.79 165.786, 384.529 153.622, 390.941 145.842 M367.458 176.844 C376.797 169.228, 384.124 160.859, 398.047 144.879 M368.141 177.569 C374.219 170.996, 379.877 164.042, 396.68 146.445 M374.451 177.621 C386.87 163.332, 396.295 152.333, 401.269 147.072 M374.285 177.942 C379.486 170.583, 385.92 164.23, 401.493 145.429 M378.136 179.339 C388.427 164.255, 402.395 154.955, 405.461 144.062 M379.399 177.506 C385.917 169.548, 394.054 161.092, 407.718 145.675 M383.995 176.972 C397.375 163.877, 404.863 152.949, 413.139 145.18 M384.596 176.507 C395.502 165.943, 403.69 157.178, 413.01 147.145 M392.13 178.407 C400.656 165.77, 408.381 158.129, 417.26 145.594 M389.475 178.425 C397.498 170.006, 404.352 161.674, 418.148 146.45 M395.986 176.711 C400.304 171.424, 407.596 163.005, 422.122 147.273 M395.547 176.191 C401.922 170.979, 407.779 162.913, 422.329 146.487 M400.878 176.463 C406.099 166.917, 413.986 158.514, 427.884 147.134 M401.481 177.213 C407.898 170.751, 413.477 162.262, 428.854 145.543 M405.802 176.018 C412.841 169.038, 415.086 164.687, 434.733 145.083 M406.795 178.045 C412.303 170.349, 417.532 163.967, 432.662 147.046 M410.208 175.502 C421.656 166.775, 429.443 154.59, 438.16 145.727 M411.083 177.708 C421.898 165.829, 431.736 153.432, 439.972 145.111 M418.769 176.057 C423.623 171.405, 427.278 164.656, 443.405 145.291 M417.603 177.156 C425.573 167.861, 433.043 156.765, 444.841 145.195 M422.526 178.452 C428.198 168.651, 438.655 158.986, 450.21 145.269 M422.484 177.175 C430.536 165.972, 441.889 155.129, 448.968 144.947 M425.894 178.429 C434.904 166.206, 443.732 156.61, 454.112 146.178 M426.969 176.211 C438.687 166.458, 446.658 154.74, 454.945 146.003 M433.951 175.918 C439.362 167.952, 448.797 157.744, 458.657 146.393 M432.552 177.97 C438.376 170.234, 446.048 163.387, 459.589 145.747 M439.468 178.333 C445.504 168.005, 451.676 160.953, 463.388 147.722 M438.322 177.201 C448.068 167.735, 455.502 157.215, 466.141 145.275 M443.668 177.903 C451.051 167.287, 458.878 157.546, 471.641 148.065 M443.033 177.504 C450.995 168.171, 458.801 158.597, 470.1 146.054 M449.505 175.717 C453.752 168.776, 463.068 161.113, 476.106 145.91 M448.097 178.701 C454.804 169.137, 461.237 162.027, 475.4 145.986 M452.54 177.653 C460.131 169.233, 468.305 162.112, 475.138 152.118 M454.747 176.532 C459.74 170.042, 465.421 164.721, 474.346 154.081 M456.969 176.186 C462.005 172.665, 467.804 169.532, 474.087 157.053 M458.021 176.842 C464.218 171, 470.451 163.497, 474.4 158.788 M463.868 178.462 C468.868 171.331, 473.88 167.86, 475.324 166.519 M465.304 177.976 C468.882 172.29, 472.322 168.927, 474.517 165.093 M470.268 177.678 C471.458 175.825, 472.421 173.974, 476.266 171.115 M469.194 177.59 C471.831 174.831, 474.368 172.692, 475.328 170.453" stroke="rgb(63, 138, 255)" stroke-width="0.5" fill="none"/><path d="M19.411 146.683 C178.293 145.485, 336.193 144.271, 474.534 146.09 M20.008 146.173 C179.212 143.471, 338.026 143.381, 474.8 146.403 M476.191 144.68 C474.165 153.941, 475.804 161.041, 473.16 178.328 M475.214 146.712 C474.64 153.632, 473.586 161.057, 474.178 177.635 M473.832 177.567 C297.236 177.623, 120.343 177.709, 19.089 176.793 M474.955 176.433 C354.529 179.394, 235.174 179.573, 20.001 177.007 M20.08 177.244 C19.138 165.79, 22.168 155.374, 18.327 147.114 M20.585 176.76 C20.362 165.428, 19.85 154.839, 19.214 145.489" stroke="rgb(63, 138, 255)" stroke-width="1" fill="none"/></g><g xmlns="http://www.w3.org/2000/svg" xmlns:xlink="http://www.w3.org/1999/xlink" class="text-container" transform="matrix(1 0 0 1 20 146.071)"><text x="0" y="42.232142857142854" dy="0.71em" text-anchor="start" style="font-family: Arial; font-size: 16px; font-weight: 500; fill: rgb(65, 65, 65);font-style: normal;font-weight: 500;font-size: 16px;font-family: Comic Sans MS, cursive;" stroke="none" stroke-width="1px" fill="rgb(65, 65, 65)" dominant-baseline="auto">2013</text></g><g xmlns="http://www.w3.org/2000/svg" xmlns:xlink="http://www.w3.org/1999/xlink" class="text-container" transform="matrix(1 0 0 1 20 146.071)"><text x="459.54545454545445" y="15.357142857142856" dy="0.35em" text-anchor="start" style="font-family: Arial; font-size: 18.4286px; font-weight: 400; fill: rgb(65, 65, 65);font-style: normal;font-weight: 400;font-size: 18.4286px;font-family: Comic Sans MS, cursive;" stroke="none" stroke-width="1px" fill="rgb(65, 65, 65)" dominant-baseline="auto">55</text></g><g xmlns="http://www.w3.org/2000/svg" xmlns:xlink="http://www.w3.org/1999/xlink"><path d="M20.047 222.803 C20.047 222.803, 20.047 222.803, 20.047 222.803 M20.047 222.803 C20.047 222.803, 20.047 222.803, 20.047 222.803 M20.199 229.791 C21.877 227.239, 23.541 225.572, 24.711 223.527 M19.712 229.126 C21.493 226.721, 23.143 224.469, 25.11 223.253 M19.625 235.375 C21.087 233.598, 25.728 230.124, 31.946 221.261 M20.6 235.116 C24.156 229.621, 27.735 225.447, 30.757 222.559 M21.626 241.465 C26.81 233.829, 30.084 228.284, 36.619 225.038 M20.703 241.346 C25.903 234.725, 30.985 228.617, 36.484 222.789 M19.796 248.617 C26.848 239.893, 32.253 231.586, 41.625 222.058 M20.304 247.034 C27.791 239.832, 32.072 232.492, 41.59 223.136 M21.673 251.59 C27.263 242.217, 39.044 233.123, 47.569 221.935 M20.898 254.264 C26.809 246.745, 34.523 238.889, 45.44 222.222 M22.996 255.55 C30.514 246.918, 41.138 235.479, 52.49 222.312 M23.475 256.698 C30.639 247.451, 37.215 239.963, 51.304 223.283 M27.388 257.404 C37.09 245.095, 48.793 235.325, 57.077 222.471 M27.275 257.025 C38.37 242.994, 49.117 231.154, 57.039 223.371 M35.187 256.955 C41.173 247.821, 45.241 241.21, 61.624 224.493 M34.55 255.14 C38.958 249.88, 45.764 241.114, 62.001 222.774 M40.455 258.161 C51.301 242.705, 59.683 231.057, 68.395 223.072 M37.782 255.391 C49.507 244.605, 58.763 231.817, 67.386 223 M43.001 256.745 C54.686 247.53, 63.302 234.281, 71.707 223.094 M43.688 255.707 C55.463 242.342, 66.561 230.77, 73.684 223.371 M48.492 258.01 C58.87 247.634, 66.324 236.072, 76.616 224.611 M49.522 256.428 C56.026 247.945, 61.249 242.386, 77.619 222.294 M55.594 256.681 C66.808 244.597, 75.818 229.801, 82.01 224.526 M55.423 255.206 C66.755 242.853, 76.454 231.275, 84.476 222.993 M61.156 257.256 C72.155 244.407, 80.38 230.796, 87.411 224.723 M58.988 256.385 C72.597 242.504, 83.823 229.818, 88.911 222.914 M66.116 255.863 C72.588 244.499, 81.47 236.329, 93.282 221.717 M65.53 255.402 C72.54 246.125, 79.774 236.882, 93.736 221.92 M71.203 256.544 C78.929 244.46, 88.46 233.334, 98.815 223.881 M69.617 255.691 C82.215 243.632, 93.17 230.72, 100.287 223.257 M77.304 257.622 C87.133 245.585, 92.74 234.476, 104.347 224.045 M75.807 256.302 C85.765 244.299, 94.394 233.958, 104.236 221.602 M82.124 256.187 C89.232 244.873, 95.633 236.9, 109.598 223.827 M80.945 257.011 C89.833 245.507, 98.96 235.026, 109.723 223.577 M86.935 257.8 C97.299 242.958, 106.959 233.141, 114.973 222.692 M86.3 255.999 C97.08 243.5, 109.079 230.506, 115.139 221.505 M92.291 255.398 C98.196 247.422, 106.71 240.432, 121.838 220.918 M91.999 256.019 C101.448 246.116, 111.483 235.784, 120.507 222.079 M96.712 257.061 C104.469 248.04, 111.49 236.715, 125.024 221.453 M95.967 256.229 C108.623 243.297, 118.847 229.63, 124.885 223.283 M103.786 254.165 C110.433 249.375, 115.922 243.552, 129.365 223.651 M102.655 256.232 C109.691 247.087, 116.589 239.643, 132.038 223.035 M105.804 256.439 C117.128 246.289, 124.899 233.546, 136.513 224.094 M106.869 256.189 C118.64 242.189, 131.141 230.316, 137.231 223.304 M111.388 254.772 C118.311 247.448, 126.783 242.436, 142.75 223.272 M113.827 255.658 C123.626 243.278, 132.379 232.234, 141.553 222.021 M116.571 255.993 C123.515 246.06, 132.7 238.882, 147.415 222.703 M119.042 256.132 C124.883 248.262, 132.684 240.907, 146.629 223.141 M125.712 255.706 C132.028 249.909, 136.45 241.672, 150.796 221.204 M124.612 255.654 C130.671 249.4, 136.999 242.237, 152.36 221.997 M129.555 257.101 C135.789 250.285, 140.163 242.486, 157.732 224.222 M128.413 256.95 C139.265 244.606, 149.944 232.245, 157.673 223.995 M134.395 257.398 C143.636 245.574, 154.037 234.639, 163.557 224.487 M133.468 256.711 C142.914 244.199, 153.495 234.458, 162.916 222.562 M139.599 255.155 C150.609 245.185, 157.575 232.687, 167.409 221.633 M138.353 255.519 C148.035 247.103, 155.93 237.135, 168.919 223.634 M143.783 254.861 C155.791 242.855, 165.582 231.012, 175.408 221.648 M144.352 255.6 C153.993 247.06, 161.537 238.843, 173.866 222.564 M149.031 256.061 C159.263 246.932, 168.101 237.045, 177.084 224.366 M149.674 256.301 C161.857 242.703, 173.71 229.749, 178.637 222.412 M156.075 256.01 C159.596 247.387, 167.889 243.415, 185.919 222.357 M156.127 256.177 C165.089 244.498, 175.282 231.66, 185.274 222.732 M159.347 257.286 C164.618 249.567, 170.93 243.765, 187.659 224.036 M160.229 255.833 C169.139 246.878, 176.404 238.521, 190.026 223.864 M167.073 254.482 C176.937 245.491, 185.151 233.992, 196.866 223.991 M165.389 255.487 C173.939 247.308, 182.995 237.72, 194.415 222.546 M170.222 258.171 C180.033 246.479, 189.565 232.908, 200.321 222.835 M170.667 255.387 C178.255 248.219, 185.987 237.749, 199.857 222.297 M175.114 254.679 C181.54 247.481, 189.958 243.859, 207.117 224.56 M176.326 255.86 C183.788 247.805, 192.754 239.879, 206.015 221.989 M180.394 257.955 C187.571 246.754, 198.14 237.774, 211.474 223.053 M182.26 255.396 C188.334 247.888, 194.168 241.076, 211.385 223.181 M189.454 256.346 C195.384 246.394, 206.295 235.827, 216.497 220.869 M187.7 254.929 C195.068 245.651, 203.634 235.272, 216.753 223.009 M193.616 255.232 C202.882 244.822, 211.719 234.468, 220.904 221.035 M192.984 255.394 C202.519 246.346, 212.205 234.009, 221.883 222.444 M195.758 257.955 C207.228 245.572, 214.292 234.5, 224.404 223.969 M197.814 256.657 C205.931 247.677, 214.318 237.723, 225.466 222.983 M202.287 254.685 C210.415 247.1, 217.648 237.937, 225.575 229.781 M203.623 255.982 C212.338 245.609, 220.816 236.493, 226.251 229.161 M208.705 258.279 C213.79 250.931, 220.786 243.658, 227.694 234.35 M207.723 256.425 C215.695 248.208, 223.558 240.111, 227.454 234.378 M214.451 256.64 C218.039 251.594, 223.068 244.495, 228.798 242.206 M214.118 255.369 C217.561 250.946, 221.165 247.206, 226.337 239.977 M218.67 257.455 C219.939 254.65, 222.483 252.821, 227.09 247.19 M219.025 256.223 C220.142 254.448, 223.387 251.588, 226.472 246.806 M224.36 255.871 C224.947 255.182, 226.176 254.046, 226.569 253.633 M224.279 256.124 C224.912 255.401, 225.453 254.553, 226.486 253.703" stroke="rgb(63, 138, 255)" stroke-width="0.5" fill="none"/><path d="M19.85 221.149 C102.101 220.946, 182.997 220.112, 228.051 221.102 M20.83 222.326 C96.422 222.266, 172.732 221.947, 226.485 223.048 M227.204 220.984 C228.649 229.726, 228.149 235.762, 224.661 255.177 M226.593 223.674 C227.159 231.068, 227.95 237.56, 227.225 254.331 M227.5 255.191 C172.56 252.348, 116.717 249.637, 19.206 253.948 M227.358 253.452 C154.503 252.56, 80.735 252.67, 19.801 254.456 M19.678 252.87 C19.112 242.175, 20.118 235.973, 18.766 221.701 M20.557 253.376 C20.058 241.665, 19.3 229.739, 19.726 223.499" stroke="rgb(63, 138, 255)" stroke-width="1" fill="none"/></g><g xmlns="http://www.w3.org/2000/svg" xmlns:xlink="http://www.w3.org/1999/xlink" class="text-container" transform="matrix(1 0 0 1 20 222.857)"><text x="0" y="42.232142857142854" dy="0.71em" text-anchor="start" style="font-family: Arial; font-size: 16px; font-weight: 500; fill: rgb(65, 65, 65);font-style: normal;font-weight: 500;font-size: 16px;font-family: Comic Sans MS, cursive;" stroke="none" stroke-width="1px" fill="rgb(65, 65, 65)" dominant-baseline="auto">2012</text></g><g xmlns="http://www.w3.org/2000/svg" xmlns:xlink="http://www.w3.org/1999/xlink" class="text-container" transform="matrix(1 0 0 1 20 222.857)"><text x="211.61157024793386" y="15.357142857142856" dy="0.35em" text-anchor="start" style="font-family: Arial; font-size: 18.4286px; font-weight: 400; fill: rgb(65, 65, 65);font-style: normal;font-weight: 400;font-size: 18.4286px;font-family: Comic Sans MS, cursive;" stroke="none" stroke-width="1px" fill="rgb(65, 65, 65)" dominant-baseline="auto">25</text></g><g xmlns="http://www.w3.org/2000/svg" xmlns:xlink="http://www.w3.org/1999/xlink"><path d="M20.047 222.803 C20.047 222.803, 20.047 222.803, 20.047 222.803 M20.047 222.803 C20.047 222.803, 20.047 222.803, 20.047 222.803 M19.292 228.799 C21.081 227.637, 22.557 226.32, 24.846 223.649 M19.493 229.574 C21.9 227.132, 23.633 224.615, 24.829 223.058 M19.686 236.257 C23.867 230.611, 25.969 230.5, 29.273 224.354 M20.589 234.855 C23.144 232.65, 25.082 229.681, 30.059 223.032 M21.148 242.676 C25.235 238.999, 24.878 232.429, 35.546 224.52 M19.596 240.977 C25.295 235.235, 28.489 229.76, 35.143 223.221 M20.66 248.17 C26.977 236.082, 34.902 229.718, 40.795 223.711 M21.001 246.963 C24.709 241.083, 30.147 235.935, 40.833 223.49 M21.535 255.024 C25.36 247.543, 35.694 238.117, 46.264 224.499 M19.11 252.969 C26.335 246.454, 31.846 239.435, 46.805 222.996 M21.982 257.876 C35.083 242.485, 44.433 233.148, 51.469 223.377 M23.256 256.538 C29.068 247.842, 35.525 241.118, 52.261 222.188 M26.175 255.359 C35.337 246.937, 47.868 235.219, 56.747 223.501 M28.363 257.15 C37.374 245.302, 47.614 233.296, 57.48 223.739 M33.352 257.559 C39.193 247.809, 46.361 242.449, 61.695 223.573 M33.154 255.537 C40.557 248.718, 47.974 240.446, 62.205 223.344 M40.182 256.857 C50.422 244.818, 59.738 233.693, 67.176 221.214 M38.807 255.267 C48.582 245.6, 57.194 233.726, 67.189 223.166 M42.683 255.118 C55.153 242.901, 68.184 230.746, 71.423 222.184 M44.032 254.874 C50.959 248.117, 59.429 240.002, 73.583 222.683 M51.014 256.771 C61.242 242.976, 72.006 232.236, 76.878 221.377 M48.554 257.14 C58.443 244.933, 68.847 233.327, 79.052 222.508 M54.06 257.048 C62.063 246.88, 72.036 233.926, 85.119 224.52 M54.203 255.78 C62.779 246.468, 72.117 237.649, 84.353 222.305 M58.17 256.089 C67.578 246.736, 73.309 238.785, 87.342 222.501 M58.963 256.433 C69.481 244.827, 80.354 233.702, 87.837 223.622 M67.141 256.824 C74.637 247.669, 82.506 235.179, 95.556 220.676 M65.196 255.232 C74.572 245.6, 83.257 236.367, 95.296 223.561 M71.24 254.815 C81.835 244.068, 92.702 231.336, 101.057 223.616 M70.636 256.983 C76.3 249.444, 83.218 241.541, 99.555 223.158 M76.971 256.177 C86.226 244.095, 93.152 233.76, 103.965 223.539 M76.993 255.135 C83.071 248.249, 90.871 238.713, 105.095 223.438 M80.149 255.66 C86.857 248.301, 91.732 241.461, 112.015 221.184 M82.199 255.856 C90.887 245.2, 100.09 234.648, 109.762 222.736 M87.936 255.873 C95.033 242.948, 106.027 232.985, 114.413 222.322 M86.403 256.764 C95.625 244.903, 106.397 233.193, 116.205 222.416 M91.425 256.079 C102.168 243.509, 115.955 229.774, 121.879 224.199 M92.1 256.647 C99.184 247.498, 105.378 238.572, 121.649 222.562 M97.809 257.733 C104.84 246.074, 114.556 237.523, 126.091 224.227 M97.285 255.996 C105.307 247.05, 111.725 239.682, 126.18 222.732 M102.457 255.046 C115.502 241.9, 123.761 228.938, 131.372 221.395 M102.277 255.958 C108.771 248.669, 113.459 242.669, 130.91 222.789 M108.594 256.138 C117.22 246.239, 125.596 236.022, 138.277 222.385 M106.516 257.316 C114.294 248.924, 121.097 241.872, 136.501 222.857 M114.625 255.977 C120.764 245.775, 129.802 236.092, 141.451 223.356 M114.077 256.598 C121.754 246.231, 128.611 236.965, 141.657 221.966 M117.924 257.425 C126.786 245.242, 135.849 235.389, 146.266 224.85 M117.832 255.474 C128.314 244.493, 139.869 233.035, 146.973 222.804 M123.117 256.997 C131.114 246.49, 143.002 236.524, 154.326 220.844 M124.023 255.559 C133.817 245.42, 143.443 234.991, 153.277 222.907 M128.765 257.636 C135.234 246.115, 144.125 237.596, 157.312 222.625 M127.965 256.455 C139.075 244.793, 151.021 232.797, 157.492 223.087 M133.776 255.273 C143.186 249.575, 151.976 239.496, 163.283 221.969 M134.76 256.103 C140.267 250.216, 146.384 242.503, 163.315 222.547 M137.575 258.077 C148.325 243.126, 160.49 234.034, 167.095 222.795 M140.294 256.776 C150.431 242.98, 162.935 231.595, 168.256 223.469 M144.107 257.594 C152.886 246.609, 163.468 234.313, 173.54 224.493 M144.823 255.678 C155.448 243.774, 165.26 231.804, 173.087 222.843 M151.503 257.018 C160.075 245.262, 174.137 232.802, 177.03 221.682 M149.602 257.214 C158.02 245.806, 166.573 237.385, 178.332 223.321 M154.838 256.005 C162.399 248.853, 169.064 242.103, 183.355 221.617 M155.704 254.881 C161.481 248.879, 167.561 240.285, 185.082 222.189 M159.366 255.576 C165.391 247.251, 172.014 239.01, 190.058 222.532 M160.822 255.594 C171.499 245.084, 180.512 232.899, 188.993 223.373 M166.382 256.753 C175.533 247.868, 180.002 237.783, 195.173 221.252 M166.122 255.372 C172.454 246.016, 181.677 237.625, 194.812 221.694 M172.57 256.885 C178.733 248.176, 187.099 238.37, 198.351 221.683 M171.543 256.282 C178.085 248.984, 184.192 241.429, 199.636 222.043 M177.613 255.892 C185.866 243.272, 195.659 233.565, 205.891 223.509 M177.802 255.903 C186.178 244.066, 196.037 233.596, 206.564 223.013 M181.469 257.493 C188.158 247.161, 196.541 239.174, 212.697 222.849 M180.954 256.722 C193.279 243.028, 205.689 229.572, 210.597 223.017 M188.729 256.69 C199.521 242.051, 208.329 232.068, 218.108 222.937 M186.626 256.346 C197.185 243.28, 209.115 230.703, 217.321 222.792 M191.783 256.949 C196.692 250.587, 203.949 241.862, 220.792 222.838 M191.735 256.707 C199.472 248.876, 205.05 242.255, 220.842 223.274 M197.947 256.012 C209.341 242.068, 221.157 231.547, 225.114 222.944 M197.474 256.508 C208.96 242.138, 221.458 228.983, 225.518 222.49 M204.961 257.122 C212.672 244.19, 222.463 235.077, 226.895 227.496 M203.89 256.162 C211.021 245.538, 220.249 236.388, 226.868 228.268 M208.625 256.536 C215.367 248.241, 220.476 241.308, 227.438 235.474 M207.612 256.889 C212.974 250.705, 217.414 247.434, 227.193 235.19 M215.261 256.806 C220.667 249.367, 223.459 244.833, 228.556 239.921 M214.025 256.56 C217.498 251.939, 222.048 247.07, 227.393 240.927 M218.284 256.052 C222.513 253.602, 224.461 249.369, 225.531 247.816 M219.021 256.056 C220.787 253.63, 223.581 249.757, 226.106 247.124 M224.223 256.229 C224.69 255.369, 224.996 255.342, 226.129 253.678 M224.295 256.139 C224.928 255.35, 225.523 254.809, 226.414 253.823" stroke="rgb(63, 138, 255)" stroke-width="0.5" fill="none"/><path d="M19.813 224.608 C90.842 224.249, 159.541 224.932, 226.291 222.866 M20.858 222.696 C94.897 223.131, 170.521 224.274, 225.929 223.405 M225.887 222.016 C225.33 234.643, 225.537 245.388, 225.817 254.875 M226.095 223.469 C226.227 229.831, 226.374 235.173, 226.797 253.181 M227.217 254.537 C160.889 251.168, 98.925 248.394, 20.593 251.805 M226.034 252.761 C171.719 250.965, 115.838 249.862, 20.402 254.184 M19.205 255.069 C19.673 244.97, 21.504 240.145, 20.16 221.929 M20.557 252.998 C18.834 244.522, 19.967 233.609, 19.559 222.211" stroke="rgb(63, 138, 255)" stroke-width="1" fill="none"/></g><g xmlns="http://www.w3.org/2000/svg" xmlns:xlink="http://www.w3.org/1999/xlink" class="text-container" transform="matrix(1 0 0 1 20 222.857)"><text x="0" y="42.232142857142854" dy="0.71em" text-anchor="start" style="font-family: Arial; font-size: 16px; font-weight: 500; fill: rgb(65, 65, 65);font-style: normal;font-weight: 500;font-size: 16px;font-family: Comic Sans MS, cursive;" stroke="none" stroke-width="1px" fill="rgb(65, 65, 65)" dominant-baseline="auto">2012</text></g><g xmlns="http://www.w3.org/2000/svg" xmlns:xlink="http://www.w3.org/1999/xlink" class="text-container" transform="matrix(1 0 0 1 20 222.857)"><text x="211.61157024793386" y="15.357142857142856" dy="0.35em" text-anchor="start" style="font-family: Arial; font-size: 18.4286px; font-weight: 400; fill: rgb(65, 65, 65);font-style: normal;font-weight: 400;font-size: 18.4286px;font-family: Comic Sans MS, cursive;" stroke="none" stroke-width="1px" fill="rgb(65, 65, 65)" dominant-baseline="auto">25</text></g><g xmlns="http://www.w3.org/2000/svg" xmlns:xlink="http://www.w3.org/1999/xlink"><path d="M20.015 299.626 C20.015 299.626, 20.015 299.626, 20.015 299.626 M20.015 299.626 C20.015 299.626, 20.015 299.626, 20.015 299.626 M19.174 305.302 C20.935 304.139, 23.195 301.966, 25.483 300.533 M19.723 305.837 C21.571 304.487, 22.389 302.304, 24.825 300.014 M19.071 311.565 C24.155 307.043, 26.365 304.235, 31.386 298.999 M20.525 311.965 C23.41 307.196, 26.26 304.138, 30.113 299.306 M19.771 319.088 C22.821 314.59, 25.55 310.918, 37.577 299.825 M18.965 317.726 C25.016 311.829, 31.08 306.011, 36.545 300.915 M18.96 324.123 C26.824 318.009, 32.768 311.323, 41.965 298.308 M20.945 323.115 C29.08 314.943, 37.864 303.492, 41.193 300.209 M20.046 332.015 C28.04 323.592, 32.316 314.557, 44.44 298.156 M19.91 330.433 C25.541 321.61, 33.038 314.482, 46.161 299.822 M22.428 331.223 C30.303 324.05, 39.662 313.591, 53.087 299.511 M24.334 331.045 C31.534 323.121, 39.744 314.869, 51.733 299.048 M28.566 330.802 C40.346 319.018, 52.396 306.606, 57.066 298.982 M30.124 330.964 C39.915 319.663, 49.739 307.574, 56.843 300.558 M34.726 330.755 C38.382 324.757, 46.008 317.283, 64.251 299.641 M34.732 330.954 C42.441 324.285, 48.309 314.905, 62.876 299.188 M42.262 329.18 C47.241 322.954, 55.133 312.937, 67.041 301.724 M40.915 330.24 C48.003 323.346, 54.238 316.218, 66.698 300.721 M46.915 332.248 C53.823 322.496, 64.045 311.982, 73.327 297.951 M46.129 330.682 C51.528 323.965, 57.817 316.302, 74.076 299.572 M50.75 330.852 C58.966 320.709, 68.292 309.023, 77.744 301.001 M50.321 330.701 C57.621 324.718, 62.595 317.664, 77.421 299.454 M58.029 330.811 C65.216 321.491, 75.685 307.24, 83.679 301.208 M55.483 331.297 C62.407 323.834, 68.766 317.098, 83.577 298.547 M60.679 331.37 C69.272 321.659, 81.105 312.835, 90.557 299.466 M62.305 330.732 C69.077 324.565, 75.258 317.361, 89.575 300.413 M68.689 330.064 C77.964 319.839, 85.603 307.481, 95.296 297.525 M66.33 330.162 C76.335 318.839, 86.151 307.244, 93.599 299.688 M72.602 328.995 C80.211 317.499, 92.018 309.633, 99.101 299.77 M72.564 329.768 C79.452 320.944, 88.934 312.053, 98.678 300.498 M77.274 331.616 C81.592 323.066, 88.955 315.394, 102.151 303.418 M76.906 331.103 C84.65 323.182, 90.558 316.802, 103.919 301.776 M83.601 332.647 C88.677 324.837, 91.838 319.971, 104.313 306.023 M82.225 331.209 C87.489 324.447, 94.175 317.805, 102.137 307.078 M88.503 331.777 C94.521 326.868, 98.409 321.028, 104.304 312.689 M88.032 331.873 C92.264 325.338, 96.397 321.408, 102.965 314.061 M94.809 329.902 C96.809 325.303, 100.106 322.824, 101.615 319.629 M94.416 330.82 C97.045 326.583, 99.92 322.072, 102.413 319.719 M98.636 331.444 C100.377 328.695, 102.151 326.175, 103.683 326.165 M98.656 330.976 C100.104 329.422, 102.153 327.267, 103.337 325.799" stroke="rgb(63, 138, 255)" stroke-width="0.5" fill="none"/><path d="M19.439 300.99 C49.417 297.652, 74.861 299.462, 104.469 299.225 M19.766 300.545 C50.084 298.976, 79.243 299.298, 102.203 299.564 M102.46 300.762 C101.198 306.787, 101.745 313.055, 103.608 328.752 M103.178 298.743 C102.717 311.217, 101.796 322.762, 102.516 330.919 M103.962 330.564 C84.956 329.386, 68.876 330.467, 20.681 330.357 M103.536 330.789 C80.022 330.381, 57.064 329.988, 20.374 330.477 M18.891 330.867 C18.995 320.258, 19.495 309.714, 19.53 298.184 M19.996 329.767 C18.988 319.3, 19.429 308.544, 20.139 298.969" stroke="rgb(63, 138, 255)" stroke-width="1" fill="none"/></g><g xmlns="http://www.w3.org/2000/svg" xmlns:xlink="http://www.w3.org/1999/xlink" class="text-container" transform="matrix(1 0 0 1 20 299.643)"><text x="0" y="42.232142857142854" dy="0.71em" text-anchor="start" style="font-family: Arial; font-size: 16px; font-weight: 500; fill: rgb(65, 65, 65);font-style: normal;font-weight: 500;font-size: 16px;font-family: Comic Sans MS, cursive;" stroke="none" stroke-width="1px" fill="rgb(65, 65, 65)" dominant-baseline="auto">2011</text></g><g xmlns="http://www.w3.org/2000/svg" xmlns:xlink="http://www.w3.org/1999/xlink" class="text-container" transform="matrix(1 0 0 1 20 299.643)"><text x="87.64462809917354" y="15.357142857142856" dy="0.35em" text-anchor="start" style="font-family: Arial; font-size: 18.4286px; font-weight: 400; fill: rgb(65, 65, 65);font-style: normal;font-weight: 400;font-size: 18.4286px;font-family: Comic Sans MS, cursive;" stroke="none" stroke-width="1px" fill="rgb(65, 65, 65)" dominant-baseline="auto">10</text></g><g xmlns="http://www.w3.org/2000/svg" xmlns:xlink="http://www.w3.org/1999/xlink"><path d="M19.982 376.449 C19.982 376.449, 19.982 376.449, 19.982 376.449 M19.982 376.449 C19.982 376.449, 19.982 376.449, 19.982 376.449 M18.837 382.461 C22.246 380.056, 23.683 378.828, 24.813 376.08 M19.906 382.408 C21.43 381.083, 23.028 378.87, 25.466 376.127 M19.48 388.574 C25.271 384.146, 27.131 380.346, 29.212 377.179 M20.397 388.988 C23.623 385.329, 26.094 382.32, 30.238 376.307 M17.912 396.81 C24.187 388.54, 27.899 383.595, 36.536 376.041 M20.177 394.153 C23.744 391.773, 28.122 385.94, 34.903 376.6 M21.995 398.986 C27.109 390.516, 35.543 382.782, 40.6 377.121 M19.274 400.914 C28.221 391.351, 35.824 382.529, 40.512 376.529 M20.192 407.614 C29.047 398.833, 34.404 390.959, 46.06 377.216 M19.859 406.327 C26.622 397.977, 34.304 390.752, 47.092 377.681 M21.945 408.215 C30.512 397.674, 42.261 386.78, 50.405 375.063 M22.991 409.114 C33.152 398.359, 43.268 385.17, 51.577 375.785 M26.895 411.073 C36.711 400.452, 46.763 387.767, 54.982 376.769 M28.139 410.599 C33.748 404.135, 40.253 396.92, 57.379 377.622 M33.72 411.353 C39.115 400.6, 45.388 395.455, 60.139 377.721 M34.432 408.885 C42.421 398.065, 52.213 385.95, 62.604 377.93 M37.328 411.278 C46.78 400.62, 54.902 393.543, 63.362 380.71 M37.643 409.832 C45.958 401.832, 51.207 394.728, 62.154 383.406 M46.068 409.893 C52.504 399.842, 57.672 393.114, 61.622 391.072 M45.186 409.767 C48.986 404.564, 53.727 399.238, 62.812 389.811 M47.685 409.643 C52.223 405.454, 55.869 400.319, 61.279 395.279 M48.72 409.77 C52.861 404.285, 57.295 399.174, 61.535 394.852 M54.849 410.163 C56.825 406.603, 59.084 404.341, 63.155 401.765 M54.849 409.811 C56.76 406.937, 58.979 404.463, 61.702 401.044" stroke="rgb(63, 138, 255)" stroke-width="0.5" fill="none"/><path d="M19.307 376.885 C33.535 375.85, 48.836 376.131, 62.57 378.346 M20.067 375.895 C32.039 376.219, 43.343 376.91, 61.334 376.004 M61.559 375.702 C61.04 385.242, 63.337 393.949, 59.577 409.016 M61.647 375.769 C61.602 389.201, 62.475 401.477, 61.041 406.906 M60.678 408.579 C45.093 405.418, 28.454 408.023, 20.774 406.54 M61.174 406.378 C50.117 407.316, 37.129 406.571, 20.847 407.87 M20.359 406.069 C17.962 398.451, 19.018 384.371, 20.16 377.058 M20.091 407.142 C19.886 397.308, 20.107 386.998, 20.009 376.319" stroke="rgb(63, 138, 255)" stroke-width="1" fill="none"/></g><g xmlns="http://www.w3.org/2000/svg" xmlns:xlink="http://www.w3.org/1999/xlink" class="text-container" transform="matrix(1 0 0 1 20 376.429)"><text x="0" y="42.232142857142854" dy="0.71em" text-anchor="start" style="font-family: Arial; font-size: 16px; font-weight: 500; fill: rgb(65, 65, 65);font-style: normal;font-weight: 500;font-size: 16px;font-family: Comic Sans MS, cursive;" stroke="none" stroke-width="1px" fill="rgb(65, 65, 65)" dominant-baseline="auto">2010</text></g><g xmlns="http://www.w3.org/2000/svg" xmlns:xlink="http://www.w3.org/1999/xlink" class="text-container" transform="matrix(1 0 0 1 20 376.429)"><text x="46.32231404958677" y="15.357142857142856" dy="0.35em" text-anchor="start" style="font-family: Arial; font-size: 18.4286px; font-weight: 400; fill: rgb(65, 65, 65);font-style: normal;font-weight: 400;font-size: 18.4286px;font-family: Comic Sans MS, cursive;" stroke="none" stroke-width="1px" fill="rgb(65, 65, 65)" dominant-baseline="auto">5</text></g><g xmlns="http://www.w3.org/2000/svg" xmlns:xlink="http://www.w3.org/1999/xlink"><path d="M20.015 299.626 C20.015 299.626, 20.015 299.626, 20.015 299.626 M20.015 299.626 C20.015 299.626, 20.015 299.626, 20.015 299.626 M19.705 306.137 C21.559 303.26, 22.942 302.647, 24.242 299.819 M20.095 305.724 C21.78 303.843, 23.164 301.385, 24.861 299.921 M18.913 313.146 C23.395 308.817, 26.57 305.478, 30.97 298.265 M19.691 311.448 C23.289 309.655, 24.811 306.83, 30.223 299.154 M19.03 317.633 C22.857 311.755, 28.203 310.293, 34.585 300.736 M19.202 318.086 C26.558 311.202, 30.723 303.727, 36.169 299.264 M18.489 325.535 C25.243 316.484, 30.267 313.669, 42.359 301.029 M19.32 323.261 C28.089 314.032, 36.941 304.952, 41.881 299.328 M20.502 328.245 C27.214 324.627, 30.179 315.117, 44.553 297.972 M20.721 329.259 C30.485 318.23, 41.548 307.506, 46.876 299.024 M23.597 329.458 C29.532 322.78, 38.236 316.219, 53.732 301.319 M23.849 331.745 C33.275 320.614, 43.895 309.699, 51.916 299.475 M31.961 330.39 C40.347 321.638, 48.625 310.382, 55.061 299.007 M29.319 331.664 C34.313 324.769, 40.642 318.294, 56.788 300.652 M36.882 331.166 C41.392 322.489, 45.241 316.361, 62.138 299.359 M35.551 330.849 C42.537 322.035, 49.361 314.559, 62.603 299.883 M42.452 331.235 C50.289 320.11, 61.119 305.684, 67.048 301.049 M40.689 329.892 C49.638 321.78, 58.084 312.58, 68.324 299.633 M43.711 331.262 C53.778 318.862, 65.44 307.953, 73.925 298.652 M44.88 331.93 C51.449 325.895, 58.166 318.745, 72.666 299.527 M51.711 329.336 C57.989 322.22, 65.37 316.45, 76.406 301.309 M50.492 331.284 C60.243 319.896, 69.484 310.357, 77.3 299.687 M55.046 331.773 C63.077 324.258, 71.733 313.095, 85.403 299.817 M56.672 331.356 C66.448 319.818, 77.212 308.413, 83.36 300.333 M63.009 330.011 C71.03 317.989, 81.952 307.609, 88.718 300.211 M62.62 330.093 C71.023 319.324, 80.529 309.081, 89.445 299.76 M65.032 329.474 C76.731 323.262, 81.66 311.779, 93.373 298.518 M66.029 331.096 C73.362 324.837, 79.639 317.285, 93.893 298.592 M71.909 328.911 C83.877 317.337, 92.442 309.299, 97.976 298.757 M71.679 330.283 C79.347 322.187, 86.741 315.2, 100.32 300.463 M75.632 331.757 C81.866 324.458, 87.19 316.627, 102.904 301.873 M77.537 331.939 C87.306 320.136, 97.344 308.66, 103.797 302.226 M84.592 331.264 C91.263 320.816, 96.946 315.064, 102.375 308.41 M83.629 330.955 C88.989 321.998, 95.768 314.302, 103.217 307.508 M86.918 329.49 C92.26 323.822, 99.189 317.976, 103.129 312.85 M87.935 330.539 C92.976 325.168, 98.199 318.159, 102.254 312.68 M94.909 329.678 C96.461 328.177, 97.347 325.604, 102.19 320.122 M94.21 330.035 C96.843 325.825, 101.507 322.539, 102.87 319.864 M98.134 330.834 C101.146 328.548, 102.757 326.614, 103.42 325.461 M98.702 331.04 C99.67 329.431, 100.871 328.146, 103.628 325.631" stroke="rgb(63, 138, 255)" stroke-width="0.5" fill="none"/><path d="M20.697 298.482 C50.189 300.149, 79.359 301.793, 101.341 298.279 M20.297 299.164 C46.169 298.939, 73.972 298.248, 102.255 299.558 M103.452 300.048 C104.34 305.568, 103.369 316.367, 102.181 330.502 M102.49 299.784 C101.755 311.218, 101.791 321.992, 103.234 329.539 M102.056 331.257 C85.492 331.825, 66.581 331.962, 19.548 332.258 M102.564 330.899 C84.879 330.846, 66.286 330.979, 19.901 329.836 M18.452 330.883 C18.819 323.68, 19.114 312.858, 18.809 298.422 M19.251 329.849 C19.595 317.396, 20.902 305.994, 19.198 300.384" stroke="rgb(63, 138, 255)" stroke-width="1" fill="none"/></g><g xmlns="http://www.w3.org/2000/svg" xmlns:xlink="http://www.w3.org/1999/xlink" class="text-container" transform="matrix(1 0 0 1 20 299.643)"><text x="0" y="42.232142857142854" dy="0.71em" text-anchor="start" style="font-family: Arial; font-size: 16px; font-weight: 500; fill: rgb(65, 65, 65);font-style: normal;font-weight: 500;font-size: 16px;font-family: Comic Sans MS, cursive;" stroke="none" stroke-width="1px" fill="rgb(65, 65, 65)" dominant-baseline="auto">2011</text></g><g xmlns="http://www.w3.org/2000/svg" xmlns:xlink="http://www.w3.org/1999/xlink" class="text-container" transform="matrix(1 0 0 1 20 299.643)"><text x="87.64462809917354" y="15.357142857142856" dy="0.35em" text-anchor="start" style="font-family: Arial; font-size: 18.4286px; font-weight: 400; fill: rgb(65, 65, 65);font-style: normal;font-weight: 400;font-size: 18.4286px;font-family: Comic Sans MS, cursive;" stroke="none" stroke-width="1px" fill="rgb(65, 65, 65)" dominant-baseline="auto">10</text></g><g xmlns="http://www.w3.org/2000/svg" xmlns:xlink="http://www.w3.org/1999/xlink"><path d="M19.982 376.449 C19.982 376.449, 19.982 376.449, 19.982 376.449 M19.982 376.449 C19.982 376.449, 19.982 376.449, 19.982 376.449 M19.841 382.796 C21.958 380.81, 23.276 378.672, 26.169 375.977 M19.796 382.842 C21.902 380.228, 24.478 378.056, 25.474 375.615 M20.207 389.648 C25.252 385.757, 27.577 379.509, 31.93 376.743 M20.881 389.21 C24.378 384.001, 26.865 379.545, 29.985 376.016 M19.144 393.217 C26.07 388.022, 30.126 385.278, 35.085 378.55 M20.441 395.489 C24.446 387.527, 31.909 382.26, 36.517 376.662 M19.625 401.298 C27.921 393.977, 33.111 385.282, 42.2 376.58 M19.745 400.287 C27.384 392.545, 34.411 383.849, 42.154 377.177 M21.765 406.507 C29.512 396.351, 36.861 387.857, 46.207 377.133 M19.627 406.256 C29.326 395.629, 40.731 382.896, 45.409 377.095 M24.246 409.353 C31.829 398.458, 35.797 391.122, 53.526 375.514 M24.097 407.648 C32.644 397.011, 42.354 387.159, 51.115 376.344 M29.246 409.345 C38.962 394.837, 50.031 385.794, 55.96 377.775 M29.611 408.248 C36.078 398.227, 43.395 391.064, 57.371 376.931 M35.46 406.135 C43.672 394.902, 53.474 381.867, 63.415 377.642 M34.072 407.685 C41.536 400.234, 46.314 394.429, 61.959 376.451 M38.897 409.41 C48.932 399.109, 54.452 391.633, 62.836 381.529 M40.004 407.269 C45.237 402.17, 49.482 395.703, 61.252 383.684 M45.171 407.471 C51.234 404.211, 56.711 397.829, 61.269 387.325 M45.404 408.879 C49.416 402.848, 52.615 398.087, 62.368 388.436 M49.831 409.015 C53.619 401.937, 57.628 398.856, 60.464 396.065 M51.149 407.537 C55.203 403.341, 59.014 397.441, 61.295 396.176 M56.921 408.155 C58.49 405.514, 60.675 402.925, 62.432 400.4 M56.075 408.301 C58.676 405.184, 60.774 402.547, 61.769 401.132" stroke="rgb(63, 138, 255)" stroke-width="0.5" fill="none"/><path d="M21.215 377.397 C32.567 375.866, 46.466 377.159, 61.726 375.999 M19.083 377.362 C32.458 375.58, 42.816 376.937, 61.652 376.208 M59.754 377.34 C62.795 387.776, 60.325 399.992, 60.228 407.797 M62.185 376.47 C61.972 385.767, 61.017 395.997, 61.036 406.269 M63.162 407.604 C50.234 407.739, 38.977 406.763, 21.091 405.556 M60.764 406.946 C49.935 406.744, 37.105 407.873, 19.728 407.103 M20.579 405.797 C19.289 398.859, 19.845 389.897, 19.617 378.085 M20.441 406.865 C20.233 396.546, 20.033 387.595, 19.679 375.587" stroke="rgb(63, 138, 255)" stroke-width="1" fill="none"/></g><g xmlns="http://www.w3.org/2000/svg" xmlns:xlink="http://www.w3.org/1999/xlink" class="text-container" transform="matrix(1 0 0 1 20 376.429)"><text x="0" y="42.232142857142854" dy="0.71em" text-anchor="start" style="font-family: Arial; font-size: 16px; font-weight: 500; fill: rgb(65, 65, 65);font-style: normal;font-weight: 500;font-size: 16px;font-family: Comic Sans MS, cursive;" stroke="none" stroke-width="1px" fill="rgb(65, 65, 65)" dominant-baseline="auto">2010</text></g><g xmlns="http://www.w3.org/2000/svg" xmlns:xlink="http://www.w3.org/1999/xlink" class="text-container" transform="matrix(1 0 0 1 20 376.429)"><text x="46.32231404958677" y="15.357142857142856" dy="0.35em" text-anchor="start" style="font-family: Arial; font-size: 18.4286px; font-weight: 400; fill: rgb(65, 65, 65);font-style: normal;font-weight: 400;font-size: 18.4286px;font-family: Comic Sans MS, cursive;" stroke="none" stroke-width="1px" fill="rgb(65, 65, 65)" dominant-baseline="auto">5</text></g><g xmlns="http://www.w3.org/2000/svg" xmlns:xlink="http://www.w3.org/1999/xlink"><path d="M19.95 453.272 C19.95 453.272, 19.95 453.272, 19.95 453.272 M19.95 453.272 C19.95 453.272, 19.95 453.272, 19.95 453.272 M20.288 458.864 C22.245 457.144, 23.494 455.544, 26.218 452.347 M19.618 459.893 C21.469 457.999, 23.414 455.346, 25.42 452.431 M19.559 465.682 C21.157 463.588, 23.663 460.93, 29.677 454.041 M19.717 465.677 C23.827 461.189, 26.116 457.99, 30.459 453.084 M21.017 473.565 C25.821 468.951, 29.162 462.503, 37.689 452.404 M19.364 470.79 C23.853 467.62, 28.392 462.992, 36.841 453.631 M20.52 479.131 C25.257 472.056, 32.202 464.177, 42.462 451.338 M19.735 477.692 C26.006 469.863, 33.732 463.434, 42.044 454.086 M18.681 483.017 C24.567 476.411, 34.092 469.469, 45.023 454.739 M20.335 483.332 C28.116 474.693, 34.868 465.7, 46.289 454.002 M24.556 485.213 C28.108 478.482, 36.54 473.932, 44.993 459.236 M23.869 487.359 C27.138 481.756, 33.003 476.509, 46.175 460.544 M25.972 488.735 C32.038 483.729, 34.586 479.157, 43.944 465.056 M28.44 486.004 C34.508 480.258, 40.102 472.209, 46.279 466.062 M35.013 488.147 C36.183 482.775, 39.172 479.335, 44.289 472.726 M34.443 486.135 C38.985 480.779, 43.042 475.478, 45.23 472.355 M37.571 487.378 C40.109 483.755, 42.396 482.3, 45.156 479.479 M38.294 486.319 C40.592 484.286, 42.829 481.762, 46.155 478.78" stroke="rgb(63, 138, 255)" stroke-width="0.5" fill="none"/><path d="M20.96 454.714 C27.348 453.055, 36.881 452.793, 45.887 454.632 M19.983 452.657 C26.033 453.018, 29.804 452.272, 45.365 453.793 M44.032 454.745 C45.068 463.08, 43.661 473.481, 42.883 484.029 M44.039 452.961 C44.174 464.467, 45.061 476.267, 43.822 484.01 M44.791 485.824 C33.807 482.312, 26.306 481.915, 20.451 483.786 M45.248 484.154 C39.979 484.462, 32.522 484.863, 20.413 484.12 M20.519 484.65 C19.467 477.129, 17.851 471.127, 21.148 451.347 M20.572 483.041 C20.927 476.491, 19.932 467.784, 19.604 453.535" stroke="rgb(63, 138, 255)" stroke-width="1" fill="none"/></g><g xmlns="http://www.w3.org/2000/svg" xmlns:xlink="http://www.w3.org/1999/xlink" class="text-container" transform="matrix(1 0 0 1 20 453.214)"><text x="0" y="42.232142857142854" dy="0.71em" text-anchor="start" style="font-family: Arial; font-size: 16px; font-weight: 500; fill: rgb(65, 65, 65);font-style: normal;font-weight: 500;font-size: 16px;font-family: Comic Sans MS, cursive;" stroke="none" stroke-width="1px" fill="rgb(65, 65, 65)" dominant-baseline="auto">2009</text></g><g xmlns="http://www.w3.org/2000/svg" xmlns:xlink="http://www.w3.org/1999/xlink" class="text-container" transform="matrix(1 0 0 1 20 453.214)"><text x="29.793388429752063" y="15.357142857142856" dy="0.35em" text-anchor="start" style="font-family: Arial; font-size: 18.4286px; font-weight: 400; fill: rgb(65, 65, 65);font-style: normal;font-weight: 400;font-size: 18.4286px;font-family: Comic Sans MS, cursive;" stroke="none" stroke-width="1px" fill="rgb(65, 65, 65)" dominant-baseline="auto">3</text></g><g xmlns="http://www.w3.org/2000/svg" xmlns:xlink="http://www.w3.org/1999/xlink"><path d="M19.95 453.272 C19.95 453.272, 19.95 453.272, 19.95 453.272 M19.95 453.272 C19.95 453.272, 19.95 453.272, 19.95 453.272 M19.676 460.496 C22.045 457.616, 22.888 454.56, 25.881 453.294 M19.282 460.012 C21.224 458.2, 22.904 456.315, 25.471 453.016 M19.23 464.397 C23.897 463.176, 25.649 456.407, 30.878 453.768 M20.667 464.771 C23.209 461.315, 27.547 458.084, 30.796 452.604 M19.023 473.7 C24.503 467.324, 28.564 460.752, 37.259 451.171 M19.131 471.514 C25.555 465.83, 31.139 458.968, 35.973 452.741 M19.53 477.734 C25.278 468.67, 35.23 461.693, 39.718 453.078 M20.359 478.325 C25.542 471.123, 32.849 462.535, 40.279 452.273 M21.93 484.117 C28.62 476.006, 37.362 462.395, 47.176 454.587 M19.237 483.831 C27.314 474.334, 33.747 467.223, 45.862 454.035 M24.711 486.173 C28.116 481.319, 33.912 473.54, 46.063 460.372 M23.42 486.311 C26.291 481.878, 31.268 476.983, 45.021 459.785 M27.196 485.836 C32.862 479.152, 38.557 473.297, 44.975 464.98 M28.147 486.161 C34.827 479.113, 41.004 470.013, 45.124 466.746 M33.654 486.692 C37.723 484.632, 37.512 481.291, 47.605 470.804 M33.464 485.871 C36.978 482.991, 40.77 478.075, 45.316 472.156 M38.738 485.813 C40.332 483.819, 41.06 483.79, 45.657 479.032 M38.183 487.174 C41.459 483.986, 43.224 481.337, 45.761 478.578" stroke="rgb(63, 138, 255)" stroke-width="0.5" fill="none"/><path d="M20.125 454.407 C25.949 452.284, 31.525 451.843, 43.494 451.831 M19.506 453.665 C28.777 452.791, 38.981 453.236, 45.358 453.467 M45.542 453.753 C45.772 460.287, 44.105 469.794, 43.076 483.071 M45.453 453.153 C45.296 464.067, 44.969 473.889, 44.532 484.853 M46.674 483.066 C34.807 485.541, 26.263 485.562, 21.913 484.102 M44.593 483.075 C34.139 483.718, 24.845 484.592, 19.255 483.743 M18.285 482.961 C20.55 476.785, 21.198 467.071, 21.92 453.497 M19.129 484.53 C20.73 474.627, 20.724 463.437, 19.491 452.638" stroke="rgb(63, 138, 255)" stroke-width="1" fill="none"/></g><g xmlns="http://www.w3.org/2000/svg" xmlns:xlink="http://www.w3.org/1999/xlink" class="text-container" transform="matrix(1 0 0 1 20 453.214)"><text x="0" y="42.232142857142854" dy="0.71em" text-anchor="start" style="font-family: Arial; font-size: 16px; font-weight: 500; fill: rgb(65, 65, 65);font-style: normal;font-weight: 500;font-size: 16px;font-family: Comic Sans MS, cursive;" stroke="none" stroke-width="1px" fill="rgb(65, 65, 65)" dominant-baseline="auto">2009</text></g><g xmlns="http://www.w3.org/2000/svg" xmlns:xlink="http://www.w3.org/1999/xlink" class="text-container" transform="matrix(1 0 0 1 20 453.214)"><text x="29.793388429752063" y="15.357142857142856" dy="0.35em" text-anchor="start" style="font-family: Arial; font-size: 18.4286px; font-weight: 400; fill: rgb(65, 65, 65);font-style: normal;font-weight: 400;font-size: 18.4286px;font-family: Comic Sans MS, cursive;" stroke="none" stroke-width="1px" fill="rgb(65, 65, 65)" dominant-baseline="auto">3</text></g>         </g></svg>