<svg xmlns='http://www.w3.org/2000/svg' xmlns:xlink='http://www.w3.org/1999/xlink' width='550' height='501'>
        <g transform='translate(-18.599999999999994, -25.200000000000003)'>             <g xmlns="http://www.w3.org/2000/svg" xmlns:xlink="http://www.w3.org/1999/xlink" transform="translate(50, 100)"><rect x="259.83821790803313" y="-46.60056657223799" width="118.1009271358347" height="476.600566572238" fill="#ececec" class="background" opacity="0.8"/><rect x="23.636363636363637" y="-46.60056657223799" width="118.10092713583474" height="476.600566572238" fill="#ececec" class="background" opacity="0.8"/><line x1="0" y1="400" x2="520" y2="400" stroke="#e0e0e0" stroke-width="1" class="background" stroke-dasharray="2,2"/><line x1="0" y1="343.34277620396597" x2="520" y2="343.34277620396597" stroke="#e0e0e0" stroke-width="1" class="background" stroke-dasharray="2,2"/><line x1="0" y1="286.685552407932" x2="520" y2="286.685552407932" stroke="#e0e0e0" stroke-width="1" class="background" stroke-dasharray="2,2"/><line x1="0" y1="230.02832861189805" x2="520" y2="230.02832861189805" stroke="#e0e0e0" stroke-width="1" class="background" stroke-dasharray="2,2"/><line x1="0" y1="173.37110481586402" x2="520" y2="173.37110481586402" stroke="#e0e0e0" stroke-width="1" class="background" stroke-dasharray="2,2"/><line x1="0" y1="116.71388101983" x2="520" y2="116.71388101983" stroke="#e0e0e0" stroke-width="1" class="background" stroke-dasharray="2,2"/><line x1="0" y1="60.05665722379603" x2="520" y2="60.05665722379603" stroke="#e0e0e0" stroke-width="1" class="background" stroke-dasharray="2,2"/><line x1="0" y1="3.399433427762011" x2="520" y2="3.399433427762011" stroke="#e0e0e0" stroke-width="1" class="background" stroke-dasharray="2,2"/><path fill="none" stroke="#667eea" stroke-width="4" d="M23.636,377.337L141.737,343.343L259.838,286.686L377.939,230.028L496.364,201.7"/><circle cx="23.636363636363637" cy="377.3371104815864" r="4.8" fill="#fff" stroke="#667eea" stroke-width="4"/><circle cx="141.73729077219838" cy="343.34277620396597" r="4" fill="#667eea" stroke="none"/><circle cx="259.83821790803313" cy="286.685552407932" r="4" fill="#667eea" stroke="none"/><circle cx="377.9391450438678" cy="230.02832861189805" r="4" fill="#667eea" stroke="none"/><circle cx="496.3636363636364" cy="201.69971671388103" r="4.8" fill="#fff" stroke="#667eea" stroke-width="4"/><rect x="11.636363636363637" y="335.3371104815864" width="24" height="24" rx="4" ry="4" fill="#667eea"/><path d="M19.636363636363637,359.3371104815864 L27.636363636363637,359.3371104815864 L23.636363636363637,367.3371104815864 Z" fill="#667eea"/><text x="23.636363636363637" y="347.3371104815864" text-anchor="middle" dominant-baseline="middle" fill="#fff" font-weight="bold" style="font-size: 12px;">4</text><rect x="480.3636363636364" y="219.69971671388103" width="32" height="24" rx="4" ry="4" fill="#667eea"/><path d="M492.3636363636364,219.69971671388103 L500.3636363636364,219.69971671388103 L496.3636363636364,211.69971671388103 Z" fill="#667eea"/><text x="496.3636363636364" y="231.69971671388103" text-anchor="middle" dominant-baseline="middle" fill="#fff" font-weight="bold" style="font-size: 12px;">35</text><path fill="none" stroke="#764ba2" stroke-width="4" d="M23.636,383.003L141.737,371.671L259.838,343.343L377.939,258.357L496.364,88.385"/><circle cx="23.636363636363637" cy="383.0028328611898" r="4.8" fill="#fff" stroke="#764ba2" stroke-width="4"/><circle cx="141.73729077219838" cy="371.671388101983" r="4" fill="#764ba2" stroke="none"/><circle cx="259.83821790803313" cy="343.34277620396597" r="4" fill="#764ba2" stroke="none"/><circle cx="377.9391450438678" cy="258.356940509915" r="4" fill="#764ba2" stroke="none"/><circle cx="496.3636363636364" cy="88.385269121813" r="4.8" fill="#fff" stroke="#764ba2" stroke-width="4"/><rect x="11.636363636363637" y="401.0028328611898" width="24" height="24" rx="4" ry="4" fill="#764ba2"/><path d="M19.636363636363637,401.0028328611898 L27.636363636363637,401.0028328611898 L23.636363636363637,393.0028328611898 Z" fill="#764ba2"/><text x="23.636363636363637" y="413.0028328611898" text-anchor="middle" dominant-baseline="middle" fill="#fff" font-weight="bold" style="font-size: 12px;">3</text><rect x="480.3636363636364" y="46.385269121812996" width="32" height="24" rx="4" ry="4" fill="#764ba2"/><path d="M492.3636363636364,70.385269121813 L500.3636363636364,70.385269121813 L496.3636363636364,78.385269121813 Z" fill="#764ba2"/><text x="496.3636363636364" y="58.385269121812996" text-anchor="middle" dominant-baseline="middle" fill="#fff" font-weight="bold" style="font-size: 12px;">55</text><text x="82.686827204281" y="420" text-anchor="middle" fill="#666" style="font-size: 12px;">2009</text><text x="200.78775434011575" y="420" text-anchor="middle" fill="#666" style="font-size: 12px;">2010</text><text x="318.8886814759505" y="420" text-anchor="middle" fill="#666" style="font-size: 12px;">2011</text><text x="437.1513907037521" y="420" text-anchor="middle" fill="#666" style="font-size: 12px;">2012</text><text x="-10" y="400" text-anchor="end" dominant-baseline="middle" fill="#666" style="font-size: 12px;">0.0</text><text x="-10" y="343.34277620396597" text-anchor="end" dominant-baseline="middle" fill="#666" style="font-size: 12px;">10.0</text><text x="-10" y="286.685552407932" text-anchor="end" dominant-baseline="middle" fill="#666" style="font-size: 12px;">20.0</text><text x="-10" y="230.02832861189805" text-anchor="end" dominant-baseline="middle" fill="#666" style="font-size: 12px;">30.0</text><text x="-10" y="173.37110481586402" text-anchor="end" dominant-baseline="middle" fill="#666" style="font-size: 12px;">40.0</text><text x="-10" y="116.71388101983" text-anchor="end" dominant-baseline="middle" fill="#666" style="font-size: 12px;">50.0</text><text x="-10" y="60.05665722379603" text-anchor="end" dominant-baseline="middle" fill="#666" style="font-size: 12px;">60.0</text><text x="-10" y="3.399433427762011" text-anchor="end" dominant-baseline="middle" fill="#666" style="font-size: 12px;">70.0</text><g transform="translate(117.67299270629883, -75)"><g transform="translate(0, 0)"><circle cx="5" cy="10" r="5" fill="#764ba2"/><text x="15" y="10" dominant-baseline="middle" fill="#333" style="font-size: 14px; font-weight: bold;">Google Play Store</text></g><g transform="translate(165.41852569580078, 0)"><circle cx="5" cy="10" r="5" fill="#667eea"/><text x="15" y="10" dominant-baseline="middle" fill="#333" style="font-size: 14px; font-weight: bold;">iOS App Store</text></g><g transform="translate(0, 30)"><circle cx="5" cy="10" r="5" fill="rgb(209, 216, 249)"/><text x="15" y="10" dominant-baseline="middle" fill="#333" style="font-size: 14px; font-weight: bold;">Google Play Store/iOS App Store</text></g></g><circle cx="82.686827204281" cy="-26.600566572237987" r="12" fill="rgb(209, 216, 249)"/><text x="82.686827204281" y="-26.600566572237987" text-anchor="middle" dominant-baseline="middle" fill="#333" style="font-size: 12px;">50%</text><circle cx="200.78775434011575" cy="-26.600566572237987" r="12" fill="rgb(209, 216, 249)"/><text x="200.78775434011575" y="-26.600566572237987" text-anchor="middle" dominant-baseline="middle" fill="#333" style="font-size: 12px;">50%</text><circle cx="318.8886814759505" cy="-26.600566572237987" r="14.48888888888889" fill="rgb(209, 216, 249)"/><text x="318.8886814759505" y="-26.600566572237987" text-anchor="middle" dominant-baseline="middle" fill="#333" style="font-size: 12px;">83%</text><circle cx="437.1513907037521" cy="-26.600566572237987" r="20" fill="rgb(209, 216, 249)"/><text x="437.1513907037521" y="-26.600566572237987" text-anchor="middle" dominant-baseline="middle" fill="#333" style="font-size: 12px;">157%</text></g>         </g></svg>