<svg xmlns='http://www.w3.org/2000/svg' xmlns:xlink='http://www.w3.org/1999/xlink' width='521' height='521'>
        <g transform='translate(-39.999895527676756, -40.12650297570639)'>             <g xmlns="http://www.w3.org/2000/svg" transform="translate(300, 300)"><path fill="#667eea" d="M3.032,-254.873A5,5,0,0,1,8.19,-259.871A260,260,0,0,1,165.506,-200.519A5,5,0,0,1,166.077,-193.36L103.937,-122.73A5,5,0,0,1,97.072,-122.119A156,156,0,0,0,7.783,-155.806A5,5,0,0,1,3.032,-160.8Z"/><path fill="#764ba2" d="M170.63,-189.355A5,5,0,0,1,177.803,-189.7A260,260,0,0,1,255.796,46.568A5,5,0,0,1,249.826,50.561L157.85,30.805A5,5,0,0,1,153.966,25.112A156,156,0,0,0,108.758,-111.837A5,5,0,0,1,108.49,-118.725Z"/><path fill="#4ecdc4" d="M248.553,56.49A5,5,0,0,1,252.356,62.582A260,260,0,0,1,35.961,257.501A5,5,0,0,1,30.299,253.084L20.228,159.551A5,5,0,0,1,24.417,154.077A156,156,0,0,0,150.697,40.33A5,5,0,0,1,156.577,36.734Z"/><path fill="#ff6b6b" d="M24.269,253.733A5,5,0,0,1,19.677,259.254A260,260,0,0,1,-177.318,190.154A5,5,0,0,1,-177.455,182.973L-111.162,116.226A5,5,0,0,1,-104.273,116.031A156,156,0,0,0,8.941,155.744A5,5,0,0,1,14.199,160.2Z"/><path fill="#ffe66d" d="M-181.758,178.7A5,5,0,0,1,-188.939,178.611A260,260,0,0,1,-219.154,-139.899A5,5,0,0,1,-212.117,-141.336L-134.456,-88.245A5,5,0,0,1,-133.015,-81.505A156,156,0,0,0,-115.317,105.062A5,5,0,0,1,-115.465,111.953Z"/><path fill="#9b921f" d="M-208.695,-146.342A5,5,0,0,1,-209.91,-153.42A260,260,0,0,1,-8.19,-259.871A5,5,0,0,1,-3.032,-254.873L-3.032,-160.8A5,5,0,0,1,-7.783,-155.806A156,156,0,0,0,-124.23,-94.355A5,5,0,0,1,-131.034,-93.251Z"/><g class="label-group" transform="translate(73.42220786127524,-194.61032704554938)"><text text-anchor="middle" dy="-0.5em" style="fill: rgb(0, 0, 0); font-family: Arial; font-size: 16px;">11.5%</text><text text-anchor="middle" dy="1.2em" style="fill: rgb(0, 0, 0); font-family: Arial; font-size: 16px;">18.5</text></g><g class="label-group" transform="translate(197.51676676831383,-65.20066598886483)"><text text-anchor="middle" dy="-0.5em" style="fill: rgb(255, 255, 255); font-family: Arial; font-size: 16px;">16.9%</text><text text-anchor="middle" dy="1.2em" style="fill: rgb(255, 255, 255); font-family: Arial; font-size: 16px;">27.2</text></g><g class="label-group" transform="translate(139.20930679893812,154.5469795905411)"><text text-anchor="middle" dy="-0.5em" style="fill: rgb(0, 0, 0); font-family: Arial; font-size: 16px;">19.9%</text><text text-anchor="middle" dy="1.2em" style="fill: rgb(0, 0, 0); font-family: Arial; font-size: 16px;">32.1</text></g><g class="label-group" transform="translate(-68.84843260826781,196.27504509586748)"><text text-anchor="middle" dy="-0.5em" style="fill: rgb(0, 0, 0); font-family: Arial; font-size: 16px;">14.2%</text><text text-anchor="middle" dy="1.2em" style="fill: rgb(0, 0, 0); font-family: Arial; font-size: 16px;">22.8</text></g><g class="label-group" transform="translate(-207.07038800736944,19.643177199156646)"><text text-anchor="middle" dy="-0.5em" style="fill: rgb(0, 0, 0); font-family: Arial; font-size: 16px;">22.1%</text><text text-anchor="middle" dy="1.2em" style="fill: rgb(0, 0, 0); font-family: Arial; font-size: 16px;">35.6</text></g><g class="label-group" transform="translate(-97.07658697419956,-183.9568869638771)"><text text-anchor="middle" dy="-0.5em" style="fill: rgb(0, 0, 0); font-family: Arial; font-size: 16px;">15.5%</text><text text-anchor="middle" dy="1.2em" style="fill: rgb(0, 0, 0); font-family: Arial; font-size: 16px;">24.9</text></g><text transform="translate(300, 300)" text-anchor="middle"/></g>         </g></svg>