<svg xmlns='http://www.w3.org/2000/svg' xmlns:xlink='http://www.w3.org/1999/xlink' width='620' height='634'>
        <g transform='translate(48.0, -43.7)'>             <g xmlns="http://www.w3.org/2000/svg" xmlns:xlink="http://www.w3.org/1999/xlink" transform="translate(40, 50)"><g class="x-axis" transform="translate(0, 470)" fill="none" font-size="10" font-family="sans-serif" text-anchor="middle"><path class="domain" stroke="currentColor" d="M0.5,0.5H530.5"/><g class="tick" opacity="1" transform="translate(54.682539682539684,0)"><line stroke="currentColor" y2="0"/><text fill="currentColor" y="3" dy="0.71em" transform="rotate(-45)" style="font-family: Arial; font-size: 16px; text-anchor: end; fill: rgb(65, 65, 65);">Bicycle</text></g><g class="tick" opacity="1" transform="translate(138.8095238095238,0)"><line stroke="currentColor" y2="0"/><text fill="currentColor" y="3" dy="0.71em" transform="rotate(-45)" style="font-family: Arial; font-size: 16px; text-anchor: end; fill: rgb(65, 65, 65);">Public Transport (Tram/Metro)</text></g><g class="tick" opacity="1" transform="translate(222.93650793650795,0)"><line stroke="currentColor" y2="0"/><text fill="currentColor" y="3" dy="0.71em" transform="rotate(-45)" style="font-family: Arial; font-size: 16px; text-anchor: end; fill: rgb(65, 65, 65);">Walking</text></g><g class="tick" opacity="1" transform="translate(307.06349206349205,0)"><line stroke="currentColor" y2="0"/><text fill="currentColor" y="3" dy="0.71em" transform="rotate(-45)" style="font-family: Arial; font-size: 16px; text-anchor: end; fill: rgb(65, 65, 65);">Motor Scooter</text></g><g class="tick" opacity="1" transform="translate(391.1904761904762,0)"><line stroke="currentColor" y2="0"/><text fill="currentColor" y="3" dy="0.71em" transform="rotate(-45)" style="font-family: Arial; font-size: 16px; text-anchor: end; fill: rgb(65, 65, 65);">Car</text></g><g class="tick" opacity="1" transform="translate(475.3174603174603,0)"><line stroke="currentColor" y2="0"/><text fill="currentColor" y="3" dy="0.71em" transform="rotate(-45)" style="font-family: Arial; font-size: 16px; text-anchor: end; fill: rgb(65, 65, 65);">Bicycle + Public Transport</text></g></g><g class="y-axis" fill="none" font-size="10" font-family="sans-serif" text-anchor="end"><g class="tick" opacity="1" transform="translate(0,470.5)"><line stroke="currentColor" x2="0"/><text fill="currentColor" x="-10" dy="0.32em" style="font-family: Arial; font-size: 16px; fill: rgb(65, 65, 65);">0 minutes</text></g><g class="tick" opacity="1" transform="translate(0,353)"><line stroke="currentColor" x2="0"/><text fill="currentColor" x="-10" dy="0.32em" style="font-family: Arial; font-size: 16px; fill: rgb(65, 65, 65);">10 minutes</text></g><g class="tick" opacity="1" transform="translate(0,235.5)"><line stroke="currentColor" x2="0"/><text fill="currentColor" x="-10" dy="0.32em" style="font-family: Arial; font-size: 16px; fill: rgb(65, 65, 65);">20 minutes</text></g><g class="tick" opacity="1" transform="translate(0,118)"><line stroke="currentColor" x2="0"/><text fill="currentColor" x="-10" dy="0.32em" style="font-family: Arial; font-size: 16px; fill: rgb(65, 65, 65);">30 minutes</text></g><g class="tick" opacity="1" transform="translate(0,0.5)"><line stroke="currentColor" x2="0"/><text fill="currentColor" x="-10" dy="0.32em" style="font-family: Arial; font-size: 16px; fill: rgb(65, 65, 65);">40 minutes</text></g></g><g class="bar-group" transform="translate(25.23809523809524, 0)"><rect class="bar-front" x="0" y="252.625" width="58.888888888888886" height="217.375" fill="rgb(49, 108, 199)" rx="2" ry="2"/><path class="bar-top" d="                 M0,252.625                 L15,237.625                 L73.88888888888889,237.625                 L58.888888888888886,252.625                 Z             " fill="rgb(53, 115, 213)"/><path class="bar-right" d="                 M58.888888888888886,252.625                 L73.88888888888889,237.625                 L73.88888888888889,455                 L58.888888888888886,470                 Z             " fill="rgb(46, 100, 185)"/></g><g class="bar-group" transform="translate(109.36507936507937, 0)"><rect class="bar-front" x="0" y="150.40000000000003" width="58.888888888888886" height="319.59999999999997" fill="#3f8aff" rx="2" ry="2"/><path class="bar-top" d="                 M0,150.40000000000003                 L15,135.40000000000003                 L73.88888888888889,135.40000000000003                 L58.888888888888886,150.40000000000003                 Z             " fill="rgb(68, 148, 255)"/><path class="bar-right" d="                 M58.888888888888886,150.40000000000003                 L73.88888888888889,135.40000000000003                 L73.88888888888889,455                 L58.888888888888886,470                 Z             " fill="rgb(59, 128, 237)"/></g><g class="bar-group" transform="translate(193.4920634920635, 0)"><rect class="bar-front" x="0" y="92.825" width="58.888888888888886" height="377.175" fill="#3f8aff" rx="2" ry="2"/><path class="bar-top" d="                 M0,92.825                 L15,77.825                 L73.88888888888889,77.825                 L58.888888888888886,92.825                 Z             " fill="rgb(68, 148, 255)"/><path class="bar-right" d="                 M58.888888888888886,92.825                 L73.88888888888889,77.825                 L73.88888888888889,455                 L58.888888888888886,470                 Z             " fill="rgb(59, 128, 237)"/></g><g class="bar-group" transform="translate(277.6190476190476, 0)"><rect class="bar-front" x="0" y="202.09999999999997" width="58.888888888888886" height="267.90000000000003" fill="#3f8aff" rx="2" ry="2"/><path class="bar-top" d="                 M0,202.09999999999997                 L15,187.09999999999997                 L73.88888888888889,187.09999999999997                 L58.888888888888886,202.09999999999997                 Z             " fill="rgb(68, 148, 255)"/><path class="bar-right" d="                 M58.888888888888886,202.09999999999997                 L73.88888888888889,187.09999999999997                 L73.88888888888889,455                 L58.888888888888886,470                 Z             " fill="rgb(59, 128, 237)"/></g><g class="bar-group" transform="translate(361.74603174603175, 0)"><rect class="bar-front" x="0" y="51.699999999999996" width="58.888888888888886" height="418.3" fill="#3f8aff" rx="2" ry="2"/><path class="bar-top" d="                 M0,51.699999999999996                 L15,36.699999999999996                 L73.88888888888889,36.699999999999996                 L58.888888888888886,51.699999999999996                 Z             " fill="rgb(68, 148, 255)"/><path class="bar-right" d="                 M58.888888888888886,51.699999999999996                 L73.88888888888889,36.699999999999996                 L73.88888888888889,455                 L58.888888888888886,470                 Z             " fill="rgb(59, 128, 237)"/></g><g class="bar-group" transform="translate(445.87301587301585, 0)"><rect class="bar-front" x="0" y="177.42500000000004" width="58.888888888888886" height="292.57499999999993" fill="#3f8aff" rx="2" ry="2"/><path class="bar-top" d="                 M0,177.42500000000004                 L15,162.42500000000004                 L73.88888888888889,162.42500000000004                 L58.888888888888886,177.42500000000004                 Z             " fill="rgb(68, 148, 255)"/><path class="bar-right" d="                 M58.888888888888886,177.42500000000004                 L73.88888888888889,162.42500000000004                 L73.88888888888889,455                 L58.888888888888886,470                 Z             " fill="rgb(59, 128, 237)"/></g><text class="label" x="54.682539682539684" y="227.625" text-anchor="middle" style="font-family: Arial; font-size: 16px; fill: rgb(65, 65, 65); opacity: 1;">18.5 minutes</text><text class="label" x="138.8095238095238" y="125.40000000000003" text-anchor="middle" style="font-family: Arial; font-size: 16px; fill: rgb(65, 65, 65); opacity: 1;">27.2 minutes</text><text class="label" x="222.93650793650795" y="67.825" text-anchor="middle" style="font-family: Arial; font-size: 16px; fill: rgb(65, 65, 65); opacity: 1;">32.1 minutes</text><text class="label" x="307.06349206349205" y="177.09999999999997" text-anchor="middle" style="font-family: Arial; font-size: 16px; fill: rgb(65, 65, 65); opacity: 1;">22.8 minutes</text><text class="label" x="391.1904761904762" y="26.699999999999996" text-anchor="middle" style="font-family: Arial; font-size: 16px; fill: rgb(65, 65, 65); opacity: 1;">35.6 minutes</text><text class="label" x="475.3174603174603" y="152.42500000000004" text-anchor="middle" style="font-family: Arial; font-size: 16px; fill: rgb(65, 65, 65); opacity: 1;">24.9 minutes</text></g>         </g></svg>