<svg xmlns='http://www.w3.org/2000/svg' xmlns:xlink='http://www.w3.org/1999/xlink' width='621' height='634'>
        <g transform='translate(48.60826446280993, -43.7)'>             <g xmlns="http://www.w3.org/2000/svg" xmlns:xlink="http://www.w3.org/1999/xlink" transform="translate(40, 50)"><g class="x-axis" transform="translate(0, 470)" fill="none" font-size="10" font-family="sans-serif" text-anchor="middle"><path class="domain" stroke="currentColor" d="M0.5,0.5H530.5"/><g class="tick" opacity="1" transform="translate(45.99173553719007,0)"><line stroke="currentColor" y2="0"/><text fill="currentColor" y="3" dy="0.71em" transform="rotate(-45)" style="font-family: Arial; font-size: 16px; text-anchor: end; fill: rgb(65, 65, 65);">Bicycle</text></g><g class="tick" opacity="1" transform="translate(133.59504132231405,0)"><line stroke="currentColor" y2="0"/><text fill="currentColor" y="3" dy="0.71em" transform="rotate(-45)" style="font-family: Arial; font-size: 16px; text-anchor: end; fill: rgb(65, 65, 65);">Public Transport (Tram/Metro)</text></g><g class="tick" opacity="1" transform="translate(221.198347107438,0)"><line stroke="currentColor" y2="0"/><text fill="currentColor" y="3" dy="0.71em" transform="rotate(-45)" style="font-family: Arial; font-size: 16px; text-anchor: end; fill: rgb(65, 65, 65);">Walking</text></g><g class="tick" opacity="1" transform="translate(308.80165289256195,0)"><line stroke="currentColor" y2="0"/><text fill="currentColor" y="3" dy="0.71em" transform="rotate(-45)" style="font-family: Arial; font-size: 16px; text-anchor: end; fill: rgb(65, 65, 65);">Motor Scooter</text></g><g class="tick" opacity="1" transform="translate(396.40495867768595,0)"><line stroke="currentColor" y2="0"/><text fill="currentColor" y="3" dy="0.71em" transform="rotate(-45)" style="font-family: Arial; font-size: 16px; text-anchor: end; fill: rgb(65, 65, 65);">Car</text></g><g class="tick" opacity="1" transform="translate(484.00826446280985,0)"><line stroke="currentColor" y2="0"/><text fill="currentColor" y="3" dy="0.71em" transform="rotate(-45)" style="font-family: Arial; font-size: 16px; text-anchor: end; fill: rgb(65, 65, 65);">Bicycle + Public Transport</text></g></g><g class="y-axis" fill="none" font-size="10" font-family="sans-serif" text-anchor="end"><g class="tick" opacity="1" transform="translate(0,470.5)"><line stroke="currentColor" x2="0"/><text fill="currentColor" x="-10" dy="0.32em" style="font-family: Arial; font-size: 16px; fill: rgb(65, 65, 65);">0 minutes</text></g><g class="tick" opacity="1" transform="translate(0,353)"><line stroke="currentColor" x2="0"/><text fill="currentColor" x="-10" dy="0.32em" style="font-family: Arial; font-size: 16px; fill: rgb(65, 65, 65);">10 minutes</text></g><g class="tick" opacity="1" transform="translate(0,235.5)"><line stroke="currentColor" x2="0"/><text fill="currentColor" x="-10" dy="0.32em" style="font-family: Arial; font-size: 16px; fill: rgb(65, 65, 65);">20 minutes</text></g><g class="tick" opacity="1" transform="translate(0,118)"><line stroke="currentColor" x2="0"/><text fill="currentColor" x="-10" dy="0.32em" style="font-family: Arial; font-size: 16px; fill: rgb(65, 65, 65);">30 minutes</text></g><g class="tick" opacity="1" transform="translate(0,0.5)"><line stroke="currentColor" x2="0"/><text fill="currentColor" x="-10" dy="0.32em" style="font-family: Arial; font-size: 16px; fill: rgb(65, 65, 65);">40 minutes</text></g></g><g class="bar-group" transform="translate(45.99173553719007, 252.625)"><circle r="5" cy="0" fill="rgb(49, 108, 199)" opacity="1"/><circle r="5" cy="12" fill="#3f8aff" opacity="0.9722222222222222"/><circle r="5" cy="24" fill="#3f8aff" opacity="0.9444444444444444"/><circle r="5" cy="36" fill="#3f8aff" opacity="0.9166666666666666"/><circle r="5" cy="48" fill="#3f8aff" opacity="0.8888888888888888"/><circle r="5" cy="60" fill="#3f8aff" opacity="0.8611111111111112"/><circle r="5" cy="72" fill="#3f8aff" opacity="0.8333333333333334"/><circle r="5" cy="84" fill="#3f8aff" opacity="0.8055555555555556"/><circle r="5" cy="96" fill="#3f8aff" opacity="0.7777777777777778"/><circle r="5" cy="108" fill="#3f8aff" opacity="0.75"/><circle r="5" cy="120" fill="#3f8aff" opacity="0.7222222222222222"/><circle r="5" cy="132" fill="#3f8aff" opacity="0.6944444444444444"/><circle r="5" cy="144" fill="#3f8aff" opacity="0.6666666666666667"/><circle r="5" cy="156" fill="#3f8aff" opacity="0.6388888888888888"/><circle r="5" cy="168" fill="#3f8aff" opacity="0.6111111111111112"/><circle r="5" cy="180" fill="#3f8aff" opacity="0.5833333333333333"/><circle r="5" cy="192" fill="#3f8aff" opacity="0.5555555555555556"/><circle r="5" cy="204" fill="#3f8aff" opacity="0.5277777777777778"/></g><g class="bar-group" transform="translate(133.59504132231405, 150.40000000000003)"><circle r="5" cy="0" fill="rgb(49, 108, 199)" opacity="1"/><circle r="5" cy="12" fill="#3f8aff" opacity="0.9807692307692307"/><circle r="5" cy="24" fill="#3f8aff" opacity="0.9615384615384616"/><circle r="5" cy="36" fill="#3f8aff" opacity="0.9423076923076923"/><circle r="5" cy="48" fill="#3f8aff" opacity="0.9230769230769231"/><circle r="5" cy="60" fill="#3f8aff" opacity="0.9038461538461539"/><circle r="5" cy="72" fill="#3f8aff" opacity="0.8846153846153846"/><circle r="5" cy="84" fill="#3f8aff" opacity="0.8653846153846154"/><circle r="5" cy="96" fill="#3f8aff" opacity="0.8461538461538461"/><circle r="5" cy="108" fill="#3f8aff" opacity="0.8269230769230769"/><circle r="5" cy="120" fill="#3f8aff" opacity="0.8076923076923077"/><circle r="5" cy="132" fill="#3f8aff" opacity="0.7884615384615384"/><circle r="5" cy="144" fill="#3f8aff" opacity="0.7692307692307692"/><circle r="5" cy="156" fill="#3f8aff" opacity="0.75"/><circle r="5" cy="168" fill="#3f8aff" opacity="0.7307692307692308"/><circle r="5" cy="180" fill="#3f8aff" opacity="0.7115384615384616"/><circle r="5" cy="192" fill="#3f8aff" opacity="0.6923076923076923"/><circle r="5" cy="204" fill="#3f8aff" opacity="0.6730769230769231"/><circle r="5" cy="216" fill="#3f8aff" opacity="0.6538461538461539"/><circle r="5" cy="228" fill="#3f8aff" opacity="0.6346153846153846"/><circle r="5" cy="240" fill="#3f8aff" opacity="0.6153846153846154"/><circle r="5" cy="252" fill="#3f8aff" opacity="0.5961538461538461"/><circle r="5" cy="264" fill="#3f8aff" opacity="0.5769230769230769"/><circle r="5" cy="276" fill="#3f8aff" opacity="0.5576923076923077"/><circle r="5" cy="288" fill="#3f8aff" opacity="0.5384615384615384"/><circle r="5" cy="300" fill="#3f8aff" opacity="0.5192307692307692"/></g><g class="bar-group" transform="translate(221.198347107438, 92.825)"><circle r="5" cy="0" fill="rgb(49, 108, 199)" opacity="1"/><circle r="5" cy="12" fill="#3f8aff" opacity="0.9838709677419355"/><circle r="5" cy="24" fill="#3f8aff" opacity="0.967741935483871"/><circle r="5" cy="36" fill="#3f8aff" opacity="0.9516129032258065"/><circle r="5" cy="48" fill="#3f8aff" opacity="0.935483870967742"/><circle r="5" cy="60" fill="#3f8aff" opacity="0.9193548387096774"/><circle r="5" cy="72" fill="#3f8aff" opacity="0.9032258064516129"/><circle r="5" cy="84" fill="#3f8aff" opacity="0.8870967741935484"/><circle r="5" cy="96" fill="#3f8aff" opacity="0.8709677419354839"/><circle r="5" cy="108" fill="#3f8aff" opacity="0.8548387096774194"/><circle r="5" cy="120" fill="#3f8aff" opacity="0.8387096774193549"/><circle r="5" cy="132" fill="#3f8aff" opacity="0.8225806451612903"/><circle r="5" cy="144" fill="#3f8aff" opacity="0.8064516129032258"/><circle r="5" cy="156" fill="#3f8aff" opacity="0.7903225806451613"/><circle r="5" cy="168" fill="#3f8aff" opacity="0.7741935483870968"/><circle r="5" cy="180" fill="#3f8aff" opacity="0.7580645161290323"/><circle r="5" cy="192" fill="#3f8aff" opacity="0.7419354838709677"/><circle r="5" cy="204" fill="#3f8aff" opacity="0.7258064516129032"/><circle r="5" cy="216" fill="#3f8aff" opacity="0.7096774193548387"/><circle r="5" cy="228" fill="#3f8aff" opacity="0.6935483870967742"/><circle r="5" cy="240" fill="#3f8aff" opacity="0.6774193548387097"/><circle r="5" cy="252" fill="#3f8aff" opacity="0.6612903225806452"/><circle r="5" cy="264" fill="#3f8aff" opacity="0.6451612903225806"/><circle r="5" cy="276" fill="#3f8aff" opacity="0.6290322580645161"/><circle r="5" cy="288" fill="#3f8aff" opacity="0.6129032258064516"/><circle r="5" cy="300" fill="#3f8aff" opacity="0.5967741935483871"/><circle r="5" cy="312" fill="#3f8aff" opacity="0.5806451612903225"/><circle r="5" cy="324" fill="#3f8aff" opacity="0.564516129032258"/><circle r="5" cy="336" fill="#3f8aff" opacity="0.5483870967741935"/><circle r="5" cy="348" fill="#3f8aff" opacity="0.532258064516129"/><circle r="5" cy="360" fill="#3f8aff" opacity="0.5161290322580645"/></g><g class="bar-group" transform="translate(308.80165289256195, 202.09999999999997)"><circle r="5" cy="0" fill="rgb(49, 108, 199)" opacity="1"/><circle r="5" cy="12" fill="#3f8aff" opacity="0.9772727272727273"/><circle r="5" cy="24" fill="#3f8aff" opacity="0.9545454545454546"/><circle r="5" cy="36" fill="#3f8aff" opacity="0.9318181818181819"/><circle r="5" cy="48" fill="#3f8aff" opacity="0.9090909090909091"/><circle r="5" cy="60" fill="#3f8aff" opacity="0.8863636363636364"/><circle r="5" cy="72" fill="#3f8aff" opacity="0.8636363636363636"/><circle r="5" cy="84" fill="#3f8aff" opacity="0.8409090909090909"/><circle r="5" cy="96" fill="#3f8aff" opacity="0.8181818181818181"/><circle r="5" cy="108" fill="#3f8aff" opacity="0.7954545454545454"/><circle r="5" cy="120" fill="#3f8aff" opacity="0.7727272727272727"/><circle r="5" cy="132" fill="#3f8aff" opacity="0.75"/><circle r="5" cy="144" fill="#3f8aff" opacity="0.7272727272727273"/><circle r="5" cy="156" fill="#3f8aff" opacity="0.7045454545454546"/><circle r="5" cy="168" fill="#3f8aff" opacity="0.6818181818181819"/><circle r="5" cy="180" fill="#3f8aff" opacity="0.6590909090909092"/><circle r="5" cy="192" fill="#3f8aff" opacity="0.6363636363636364"/><circle r="5" cy="204" fill="#3f8aff" opacity="0.6136363636363636"/><circle r="5" cy="216" fill="#3f8aff" opacity="0.5909090909090908"/><circle r="5" cy="228" fill="#3f8aff" opacity="0.5681818181818181"/><circle r="5" cy="240" fill="#3f8aff" opacity="0.5454545454545454"/><circle r="5" cy="252" fill="#3f8aff" opacity="0.5227272727272727"/></g><g class="bar-group" transform="translate(396.40495867768595, 51.699999999999996)"><circle r="5" cy="0" fill="rgb(49, 108, 199)" opacity="1"/><circle r="5" cy="12" fill="#3f8aff" opacity="0.9852941176470589"/><circle r="5" cy="24" fill="#3f8aff" opacity="0.9705882352941176"/><circle r="5" cy="36" fill="#3f8aff" opacity="0.9558823529411765"/><circle r="5" cy="48" fill="#3f8aff" opacity="0.9411764705882353"/><circle r="5" cy="60" fill="#3f8aff" opacity="0.9264705882352942"/><circle r="5" cy="72" fill="#3f8aff" opacity="0.9117647058823529"/><circle r="5" cy="84" fill="#3f8aff" opacity="0.8970588235294118"/><circle r="5" cy="96" fill="#3f8aff" opacity="0.8823529411764706"/><circle r="5" cy="108" fill="#3f8aff" opacity="0.8676470588235294"/><circle r="5" cy="120" fill="#3f8aff" opacity="0.8529411764705882"/><circle r="5" cy="132" fill="#3f8aff" opacity="0.8382352941176471"/><circle r="5" cy="144" fill="#3f8aff" opacity="0.8235294117647058"/><circle r="5" cy="156" fill="#3f8aff" opacity="0.8088235294117647"/><circle r="5" cy="168" fill="#3f8aff" opacity="0.7941176470588236"/><circle r="5" cy="180" fill="#3f8aff" opacity="0.7794117647058824"/><circle r="5" cy="192" fill="#3f8aff" opacity="0.7647058823529411"/><circle r="5" cy="204" fill="#3f8aff" opacity="0.75"/><circle r="5" cy="216" fill="#3f8aff" opacity="0.7352941176470589"/><circle r="5" cy="228" fill="#3f8aff" opacity="0.7205882352941176"/><circle r="5" cy="240" fill="#3f8aff" opacity="0.7058823529411764"/><circle r="5" cy="252" fill="#3f8aff" opacity="0.6911764705882353"/><circle r="5" cy="264" fill="#3f8aff" opacity="0.6764705882352942"/><circle r="5" cy="276" fill="#3f8aff" opacity="0.6617647058823529"/><circle r="5" cy="288" fill="#3f8aff" opacity="0.6470588235294117"/><circle r="5" cy="300" fill="#3f8aff" opacity="0.6323529411764706"/><circle r="5" cy="312" fill="#3f8aff" opacity="0.6176470588235294"/><circle r="5" cy="324" fill="#3f8aff" opacity="0.6029411764705883"/><circle r="5" cy="336" fill="#3f8aff" opacity="0.5882352941176471"/><circle r="5" cy="348" fill="#3f8aff" opacity="0.5735294117647058"/><circle r="5" cy="360" fill="#3f8aff" opacity="0.5588235294117647"/><circle r="5" cy="372" fill="#3f8aff" opacity="0.5441176470588236"/><circle r="5" cy="384" fill="#3f8aff" opacity="0.5294117647058824"/><circle r="5" cy="396" fill="#3f8aff" opacity="0.5147058823529411"/></g><g class="bar-group" transform="translate(484.00826446280985, 177.42500000000004)"><circle r="5" cy="0" fill="rgb(49, 108, 199)" opacity="1"/><circle r="5" cy="12" fill="#3f8aff" opacity="0.9791666666666666"/><circle r="5" cy="24" fill="#3f8aff" opacity="0.9583333333333334"/><circle r="5" cy="36" fill="#3f8aff" opacity="0.9375"/><circle r="5" cy="48" fill="#3f8aff" opacity="0.9166666666666666"/><circle r="5" cy="60" fill="#3f8aff" opacity="0.8958333333333334"/><circle r="5" cy="72" fill="#3f8aff" opacity="0.875"/><circle r="5" cy="84" fill="#3f8aff" opacity="0.8541666666666666"/><circle r="5" cy="96" fill="#3f8aff" opacity="0.8333333333333334"/><circle r="5" cy="108" fill="#3f8aff" opacity="0.8125"/><circle r="5" cy="120" fill="#3f8aff" opacity="0.7916666666666666"/><circle r="5" cy="132" fill="#3f8aff" opacity="0.7708333333333334"/><circle r="5" cy="144" fill="#3f8aff" opacity="0.75"/><circle r="5" cy="156" fill="#3f8aff" opacity="0.7291666666666667"/><circle r="5" cy="168" fill="#3f8aff" opacity="0.7083333333333333"/><circle r="5" cy="180" fill="#3f8aff" opacity="0.6875"/><circle r="5" cy="192" fill="#3f8aff" opacity="0.6666666666666667"/><circle r="5" cy="204" fill="#3f8aff" opacity="0.6458333333333333"/><circle r="5" cy="216" fill="#3f8aff" opacity="0.625"/><circle r="5" cy="228" fill="#3f8aff" opacity="0.6041666666666667"/><circle r="5" cy="240" fill="#3f8aff" opacity="0.5833333333333333"/><circle r="5" cy="252" fill="#3f8aff" opacity="0.5625"/><circle r="5" cy="264" fill="#3f8aff" opacity="0.5416666666666667"/><circle r="5" cy="276" fill="#3f8aff" opacity="0.5208333333333333"/></g><text class="label" x="45.99173553719007" y="247.625" text-anchor="middle" style="font-family: Arial; font-size: 16px; fill: rgb(65, 65, 65); opacity: 1;">18.5 minutes</text><text class="label" x="133.59504132231405" y="145.40000000000003" text-anchor="middle" style="font-family: Arial; font-size: 16px; fill: rgb(65, 65, 65); opacity: 1;">27.2 minutes</text><text class="label" x="221.198347107438" y="87.825" text-anchor="middle" style="font-family: Arial; font-size: 16px; fill: rgb(65, 65, 65); opacity: 1;">32.1 minutes</text><text class="label" x="308.80165289256195" y="197.09999999999997" text-anchor="middle" style="font-family: Arial; font-size: 16px; fill: rgb(65, 65, 65); opacity: 1;">22.8 minutes</text><text class="label" x="396.40495867768595" y="46.699999999999996" text-anchor="middle" style="font-family: Arial; font-size: 16px; fill: rgb(65, 65, 65); opacity: 1;">35.6 minutes</text><text class="label" x="484.00826446280985" y="172.42500000000004" text-anchor="middle" style="font-family: Arial; font-size: 16px; fill: rgb(65, 65, 65); opacity: 1;">24.9 minutes</text></g>         </g></svg>