<svg xmlns='http://www.w3.org/2000/svg' xmlns:xlink='http://www.w3.org/1999/xlink' width='620' height='634'>
        <g transform='translate(48.0, -43.7)'>             <g xmlns="http://www.w3.org/2000/svg" xmlns:xlink="http://www.w3.org/1999/xlink" transform="translate(40, 50)"><g class="x-axis" transform="translate(0, 470)" fill="none" font-size="10" font-family="sans-serif" text-anchor="middle"><path class="domain" stroke="currentColor" d="M0.5,0.5H530.5"/><g class="tick" opacity="1" transform="translate(54.682539682539684,0)"><line stroke="currentColor" y2="0"/><text fill="currentColor" y="3" dy="0.71em" transform="rotate(-45)" style="font-family: Arial; font-size: 16px; text-anchor: end; fill: rgb(65, 65, 65);">Bicycle</text></g><g class="tick" opacity="1" transform="translate(138.8095238095238,0)"><line stroke="currentColor" y2="0"/><text fill="currentColor" y="3" dy="0.71em" transform="rotate(-45)" style="font-family: Arial; font-size: 16px; text-anchor: end; fill: rgb(65, 65, 65);">Public Transport (Tram/Metro)</text></g><g class="tick" opacity="1" transform="translate(222.93650793650795,0)"><line stroke="currentColor" y2="0"/><text fill="currentColor" y="3" dy="0.71em" transform="rotate(-45)" style="font-family: Arial; font-size: 16px; text-anchor: end; fill: rgb(65, 65, 65);">Walking</text></g><g class="tick" opacity="1" transform="translate(307.06349206349205,0)"><line stroke="currentColor" y2="0"/><text fill="currentColor" y="3" dy="0.71em" transform="rotate(-45)" style="font-family: Arial; font-size: 16px; text-anchor: end; fill: rgb(65, 65, 65);">Motor Scooter</text></g><g class="tick" opacity="1" transform="translate(391.1904761904762,0)"><line stroke="currentColor" y2="0"/><text fill="currentColor" y="3" dy="0.71em" transform="rotate(-45)" style="font-family: Arial; font-size: 16px; text-anchor: end; fill: rgb(65, 65, 65);">Car</text></g><g class="tick" opacity="1" transform="translate(475.3174603174603,0)"><line stroke="currentColor" y2="0"/><text fill="currentColor" y="3" dy="0.71em" transform="rotate(-45)" style="font-family: Arial; font-size: 16px; text-anchor: end; fill: rgb(65, 65, 65);">Bicycle + Public Transport</text></g></g><g class="y-axis" fill="none" font-size="10" font-family="sans-serif" text-anchor="end"><g class="tick" opacity="1" transform="translate(0,470.5)"><line stroke="currentColor" x2="0"/><text fill="currentColor" x="-10" dy="0.32em" style="font-family: Arial; font-size: 16px; fill: rgb(65, 65, 65);">0 minutes</text></g><g class="tick" opacity="1" transform="translate(0,353)"><line stroke="currentColor" x2="0"/><text fill="currentColor" x="-10" dy="0.32em" style="font-family: Arial; font-size: 16px; fill: rgb(65, 65, 65);">10 minutes</text></g><g class="tick" opacity="1" transform="translate(0,235.5)"><line stroke="currentColor" x2="0"/><text fill="currentColor" x="-10" dy="0.32em" style="font-family: Arial; font-size: 16px; fill: rgb(65, 65, 65);">20 minutes</text></g><g class="tick" opacity="1" transform="translate(0,118)"><line stroke="currentColor" x2="0"/><text fill="currentColor" x="-10" dy="0.32em" style="font-family: Arial; font-size: 16px; fill: rgb(65, 65, 65);">30 minutes</text></g><g class="tick" opacity="1" transform="translate(0,0.5)"><line stroke="currentColor" x2="0"/><text fill="currentColor" x="-10" dy="0.32em" style="font-family: Arial; font-size: 16px; fill: rgb(65, 65, 65);">40 minutes</text></g></g><path class="bar" d="M 25.23809523809524 470                     L 84.12698412698413 470                     C 57.626984126984134 470, 57.62698412698413 361.3125, 54.682539682539684 252.625                     C 51.73809523809524 361.3125, 51.73809523809524 470, 25.23809523809524 470                     Z" fill="rgb(49, 108, 199)"/><path class="bar" d="M 109.36507936507937 470                     L 168.25396825396825 470                     C 141.75396825396825 470, 141.75396825396825 310.20000000000005, 138.8095238095238 150.40000000000003                     C 135.86507936507934 310.20000000000005, 135.86507936507937 470, 109.36507936507937 470                     Z" fill="#3f8aff"/><path class="bar" d="M 193.4920634920635 470                     L 252.38095238095238 470                     C 225.88095238095238 470, 225.8809523809524 281.4125, 222.93650793650795 92.825                     C 219.9920634920635 281.4125, 219.9920634920635 470, 193.4920634920635 470                     Z" fill="#3f8aff"/><path class="bar" d="M 277.6190476190476 470                     L 336.5079365079365 470                     C 310.0079365079365 470, 310.0079365079365 336.04999999999995, 307.06349206349205 202.09999999999997                     C 304.1190476190476 336.04999999999995, 304.1190476190476 470, 277.6190476190476 470                     Z" fill="#3f8aff"/><path class="bar" d="M 361.74603174603175 470                     L 420.6349206349206 470                     C 394.13492063492066 470, 394.13492063492066 260.85, 391.1904761904762 51.699999999999996                     C 388.24603174603175 260.85, 388.24603174603175 470, 361.74603174603175 470                     Z" fill="#3f8aff"/><path class="bar" d="M 445.87301587301585 470                     L 504.7619047619047 470                     C 478.26190476190476 470, 478.26190476190476 323.7125, 475.3174603174603 177.42500000000004                     C 472.37301587301585 323.7125, 472.37301587301585 470, 445.87301587301585 470                     Z" fill="#3f8aff"/><text class="label" x="54.682539682539684" y="247.625" text-anchor="middle" style="font-family: Arial; font-size: 16px; fill: rgb(65, 65, 65); opacity: 1;">18.5 minutes</text><text class="label" x="138.8095238095238" y="145.40000000000003" text-anchor="middle" style="font-family: Arial; font-size: 16px; fill: rgb(65, 65, 65); opacity: 1;">27.2 minutes</text><text class="label" x="222.93650793650795" y="87.825" text-anchor="middle" style="font-family: Arial; font-size: 16px; fill: rgb(65, 65, 65); opacity: 1;">32.1 minutes</text><text class="label" x="307.06349206349205" y="197.09999999999997" text-anchor="middle" style="font-family: Arial; font-size: 16px; fill: rgb(65, 65, 65); opacity: 1;">22.8 minutes</text><text class="label" x="391.1904761904762" y="46.699999999999996" text-anchor="middle" style="font-family: Arial; font-size: 16px; fill: rgb(65, 65, 65); opacity: 1;">35.6 minutes</text><text class="label" x="475.3174603174603" y="172.42500000000004" text-anchor="middle" style="font-family: Arial; font-size: 16px; fill: rgb(65, 65, 65); opacity: 1;">24.9 minutes</text></g>         </g></svg>