<svg xmlns='http://www.w3.org/2000/svg' xmlns:xlink='http://www.w3.org/1999/xlink' width='512' height='401'>
        <g transform='translate(-59.900000000000006, -81.2)'>             <defs xmlns="http://www.w3.org/2000/svg" xmlns:xlink="http://www.w3.org/1999/xlink"/><g xmlns="http://www.w3.org/2000/svg" xmlns:xlink="http://www.w3.org/1999/xlink" transform="translate(60, 60)"><path class="bar" d="M0,387.881L0.283,387.707C0.567,387.532,1.133,387.184,1.7,386.761C2.267,386.339,2.833,385.844,3.4,385.25C3.967,384.657,4.533,383.966,5.1,383.147C5.667,382.328,6.233,381.381,6.8,380.271C7.367,379.162,7.933,377.889,8.5,376.413C9.067,374.937,9.633,373.258,10.2,371.331C10.767,369.404,11.333,367.23,11.9,364.763C12.467,362.295,13.033,359.534,13.6,356.435C14.167,353.336,14.733,349.898,15.3,346.081C15.867,342.264,16.433,338.068,17,333.461C17.567,328.855,18.133,323.838,18.7,318.392C19.267,312.947,19.833,307.073,20.4,300.773C20.967,294.472,21.533,287.745,22.1,280.615C22.667,273.485,23.233,265.953,23.8,258.071C24.367,250.188,24.933,241.955,25.5,233.452C26.067,224.949,26.633,216.176,27.2,207.242C27.767,198.307,28.333,189.212,28.9,180.091C29.467,170.97,30.033,161.823,30.6,152.804C31.167,143.786,31.733,134.896,32.3,126.302C32.867,117.709,33.433,109.411,34,101.578C34.567,93.745,35.133,86.377,35.7,79.634C36.267,72.891,36.833,66.772,37.4,61.418C37.967,56.064,38.533,51.474,39.1,47.756C39.667,44.038,40.233,41.193,40.8,39.288C41.367,37.383,41.933,36.419,42.5,36.419C43.067,36.419,43.633,37.383,44.2,39.288C44.767,41.193,45.333,44.038,45.9,47.756C46.467,51.474,47.033,56.064,47.6,61.418C48.167,66.772,48.733,72.891,49.3,79.634C49.867,86.377,50.433,93.745,51,101.578C51.567,109.411,52.133,117.709,52.7,126.302C53.267,134.896,53.833,143.786,54.4,152.804C54.967,161.823,55.533,170.97,56.1,180.091C56.667,189.212,57.233,198.307,57.8,207.242C58.367,216.176,58.933,224.949,59.5,233.452C60.067,241.955,60.633,250.188,61.2,258.071C61.767,265.953,62.333,273.485,62.9,280.615C63.467,287.745,64.033,294.472,64.6,300.773C65.167,307.073,65.733,312.947,66.3,318.392C66.867,323.838,67.433,328.855,68,333.461C68.567,338.068,69.133,342.264,69.7,346.081C70.267,349.898,70.833,353.336,71.4,356.435C71.967,359.534,72.533,362.295,73.1,364.763C73.667,367.23,74.233,369.404,74.8,371.331C75.367,373.258,75.933,374.937,76.5,376.413C77.067,377.889,77.633,379.162,78.2,380.271C78.767,381.381,79.333,382.328,79.9,383.147C80.467,383.966,81.033,384.657,81.6,385.25C82.167,385.844,82.733,386.339,83.3,386.761C83.867,387.184,84.433,387.532,84.717,387.707L85,387.881L85,390L84.717,390C84.433,390,83.867,390,83.3,390C82.733,390,82.167,390,81.6,390C81.033,390,80.467,390,79.9,390C79.333,390,78.767,390,78.2,390C77.633,390,77.067,390,76.5,390C75.933,390,75.367,390,74.8,390C74.233,390,73.667,390,73.1,390C72.533,390,71.967,390,71.4,390C70.833,390,70.267,390,69.7,390C69.133,390,68.567,390,68,390C67.433,390,66.867,390,66.3,390C65.733,390,65.167,390,64.6,390C64.033,390,63.467,390,62.9,390C62.333,390,61.767,390,61.2,390C60.633,390,60.067,390,59.5,390C58.933,390,58.367,390,57.8,390C57.233,390,56.667,390,56.1,390C55.533,390,54.967,390,54.4,390C53.833,390,53.267,390,52.7,390C52.133,390,51.567,390,51,390C50.433,390,49.867,390,49.3,390C48.733,390,48.167,390,47.6,390C47.033,390,46.467,390,45.9,390C45.333,390,44.767,390,44.2,390C43.633,390,43.067,390,42.5,390C41.933,390,41.367,390,40.8,390C40.233,390,39.667,390,39.1,390C38.533,390,37.967,390,37.4,390C36.833,390,36.267,390,35.7,390C35.133,390,34.567,390,34,390C33.433,390,32.867,390,32.3,390C31.733,390,31.167,390,30.6,390C30.033,390,29.467,390,28.9,390C28.333,390,27.767,390,27.2,390C26.633,390,26.067,390,25.5,390C24.933,390,24.367,390,23.8,390C23.233,390,22.667,390,22.1,390C21.533,390,20.967,390,20.4,390C19.833,390,19.267,390,18.7,390C18.133,390,17.567,390,17,390C16.433,390,15.867,390,15.3,390C14.733,390,14.167,390,13.6,390C13.033,390,12.467,390,11.9,390C11.333,390,10.767,390,10.2,390C9.633,390,9.067,390,8.5,390C7.933,390,7.367,390,6.8,390C6.233,390,5.667,390,5.1,390C4.533,390,3.967,390,3.4,390C2.833,390,2.267,390,1.7,390C1.133,390,0.567,390,0.283,390L0,390Z" fill="#3f8aff" rx="0" ry="0" style="stroke: none; stroke-width: 0; filter: none;"/><path class="bar" d="M85,388.09L85.283,387.932C85.567,387.775,86.133,387.46,86.7,387.08C87.267,386.699,87.833,386.252,88.4,385.717C88.967,385.182,89.533,384.559,90.1,383.821C90.667,383.082,91.233,382.229,91.8,381.228C92.367,380.227,92.933,379.08,93.5,377.749C94.067,376.418,94.633,374.904,95.2,373.166C95.767,371.429,96.333,369.469,96.9,367.244C97.467,365.019,98.033,362.53,98.6,359.735C99.167,356.94,99.733,353.84,100.3,350.399C100.867,346.957,101.433,343.174,102,339.02C102.567,334.866,103.133,330.342,103.7,325.432C104.267,320.522,104.833,315.226,105.4,309.545C105.967,303.864,106.533,297.798,107.1,291.369C107.667,284.94,108.233,278.149,108.8,271.041C109.367,263.934,109.933,256.51,110.5,248.843C111.067,241.176,111.633,233.265,112.2,225.209C112.767,217.154,113.333,208.953,113.9,200.728C114.467,192.504,115.033,184.256,115.6,176.124C116.167,167.992,116.733,159.977,117.3,152.228C117.867,144.479,118.433,136.997,119,129.934C119.567,122.871,120.133,116.227,120.7,110.147C121.267,104.067,121.833,98.55,122.4,93.723C122.967,88.895,123.533,84.756,124.1,81.404C124.667,78.051,125.233,75.486,125.8,73.768C126.367,72.05,126.933,71.181,127.5,71.181C128.067,71.181,128.633,72.05,129.2,73.768C129.767,75.486,130.333,78.051,130.9,81.404C131.467,84.756,132.033,88.895,132.6,93.723C133.167,98.55,133.733,104.067,134.3,110.147C134.867,116.227,135.433,122.871,136,129.934C136.567,136.997,137.133,144.479,137.7,152.228C138.267,159.977,138.833,167.992,139.4,176.124C139.967,184.256,140.533,192.504,141.1,200.728C141.667,208.953,142.233,217.154,142.8,225.209C143.367,233.265,143.933,241.176,144.5,248.843C145.067,256.51,145.633,263.934,146.2,271.041C146.767,278.149,147.333,284.94,147.9,291.369C148.467,297.798,149.033,303.864,149.6,309.545C150.167,315.226,150.733,320.522,151.3,325.432C151.867,330.342,152.433,334.866,153,339.02C153.567,343.174,154.133,346.957,154.7,350.399C155.267,353.84,155.833,356.94,156.4,359.735C156.967,362.53,157.533,365.019,158.1,367.244C158.667,369.469,159.233,371.429,159.8,373.166C160.367,374.904,160.933,376.418,161.5,377.749C162.067,379.08,162.633,380.227,163.2,381.228C163.767,382.229,164.333,383.082,164.9,383.821C165.467,384.559,166.033,385.182,166.6,385.717C167.167,386.252,167.733,386.699,168.3,387.08C168.867,387.46,169.433,387.775,169.717,387.932L170,388.09L170,390L169.717,390C169.433,390,168.867,390,168.3,390C167.733,390,167.167,390,166.6,390C166.033,390,165.467,390,164.9,390C164.333,390,163.767,390,163.2,390C162.633,390,162.067,390,161.5,390C160.933,390,160.367,390,159.8,390C159.233,390,158.667,390,158.1,390C157.533,390,156.967,390,156.4,390C155.833,390,155.267,390,154.7,390C154.133,390,153.567,390,153,390C152.433,390,151.867,390,151.3,390C150.733,390,150.167,390,149.6,390C149.033,390,148.467,390,147.9,390C147.333,390,146.767,390,146.2,390C145.633,390,145.067,390,144.5,390C143.933,390,143.367,390,142.8,390C142.233,390,141.667,390,141.1,390C140.533,390,139.967,390,139.4,390C138.833,390,138.267,390,137.7,390C137.133,390,136.567,390,136,390C135.433,390,134.867,390,134.3,390C133.733,390,133.167,390,132.6,390C132.033,390,131.467,390,130.9,390C130.333,390,129.767,390,129.2,390C128.633,390,128.067,390,127.5,390C126.933,390,126.367,390,125.8,390C125.233,390,124.667,390,124.1,390C123.533,390,122.967,390,122.4,390C121.833,390,121.267,390,120.7,390C120.133,390,119.567,390,119,390C118.433,390,117.867,390,117.3,390C116.733,390,116.167,390,115.6,390C115.033,390,114.467,390,113.9,390C113.333,390,112.767,390,112.2,390C111.633,390,111.067,390,110.5,390C109.933,390,109.367,390,108.8,390C108.233,390,107.667,390,107.1,390C106.533,390,105.967,390,105.4,390C104.833,390,104.267,390,103.7,390C103.133,390,102.567,390,102,390C101.433,390,100.867,390,100.3,390C99.733,390,99.167,390,98.6,390C98.033,390,97.467,390,96.9,390C96.333,390,95.767,390,95.2,390C94.633,390,94.067,390,93.5,390C92.933,390,92.367,390,91.8,390C91.233,390,90.667,390,90.1,390C89.533,390,88.967,390,88.4,390C87.833,390,87.267,390,86.7,390C86.133,390,85.567,390,85.283,390L85,390Z" fill="#3f8aff" rx="0" ry="0" style="stroke: none; stroke-width: 0; filter: none;"/><path class="bar" d="M170,388.381L170.283,388.248C170.567,388.115,171.133,387.848,171.7,387.526C172.267,387.203,172.833,386.824,173.4,386.371C173.967,385.918,174.533,385.39,175.1,384.764C175.667,384.138,176.233,383.415,176.8,382.567C177.367,381.719,177.933,380.747,178.5,379.619C179.067,378.491,179.633,377.208,180.2,375.736C180.767,374.264,181.333,372.603,181.9,370.718C182.467,368.832,183.033,366.723,183.6,364.355C184.167,361.987,184.733,359.36,185.3,356.444C185.867,353.527,186.433,350.322,187,346.802C187.567,343.282,188.133,339.449,188.7,335.289C189.267,331.128,189.833,326.64,190.4,321.826C190.967,317.013,191.533,311.872,192.1,306.425C192.667,300.978,193.233,295.223,193.8,289.2C194.367,283.178,194.933,276.887,195.5,270.39C196.067,263.893,196.633,257.19,197.2,250.364C197.767,243.538,198.333,236.589,198.9,229.62C199.467,222.651,200.033,215.662,200.6,208.772C201.167,201.881,201.733,195.089,202.3,188.523C202.867,181.957,203.433,175.617,204,169.632C204.567,163.648,205.133,158.018,205.7,152.866C206.267,147.714,206.833,143.04,207.4,138.949C207.967,134.858,208.533,131.351,209.1,128.51C209.667,125.67,210.233,123.496,210.8,122.04C211.367,120.585,211.933,119.848,212.5,119.848C213.067,119.848,213.633,120.585,214.2,122.04C214.767,123.496,215.333,125.67,215.9,128.51C216.467,131.351,217.033,134.858,217.6,138.949C218.167,143.04,218.733,147.714,219.3,152.866C219.867,158.018,220.433,163.648,221,169.632C221.567,175.617,222.133,181.957,222.7,188.523C223.267,195.089,223.833,201.881,224.4,208.772C224.967,215.662,225.533,222.651,226.1,229.62C226.667,236.589,227.233,243.538,227.8,250.364C228.367,257.19,228.933,263.893,229.5,270.39C230.067,276.887,230.633,283.178,231.2,289.2C231.767,295.223,232.333,300.978,232.9,306.425C233.467,311.872,234.033,317.013,234.6,321.826C235.167,326.64,235.733,331.128,236.3,335.289C236.867,339.449,237.433,343.282,238,346.802C238.567,350.322,239.133,353.527,239.7,356.444C240.267,359.36,240.833,361.987,241.4,364.355C241.967,366.723,242.533,368.832,243.1,370.718C243.667,372.603,244.233,374.264,244.8,375.736C245.367,377.208,245.933,378.491,246.5,379.619C247.067,380.747,247.633,381.719,248.2,382.567C248.767,383.415,249.333,384.138,249.9,384.764C250.467,385.39,251.033,385.918,251.6,386.371C252.167,386.824,252.733,387.203,253.3,387.526C253.867,387.848,254.433,388.115,254.717,388.248L255,388.381L255,390L254.717,390C254.433,390,253.867,390,253.3,390C252.733,390,252.167,390,251.6,390C251.033,390,250.467,390,249.9,390C249.333,390,248.767,390,248.2,390C247.633,390,247.067,390,246.5,390C245.933,390,245.367,390,244.8,390C244.233,390,243.667,390,243.1,390C242.533,390,241.967,390,241.4,390C240.833,390,240.267,390,239.7,390C239.133,390,238.567,390,238,390C237.433,390,236.867,390,236.3,390C235.733,390,235.167,390,234.6,390C234.033,390,233.467,390,232.9,390C232.333,390,231.767,390,231.2,390C230.633,390,230.067,390,229.5,390C228.933,390,228.367,390,227.8,390C227.233,390,226.667,390,226.1,390C225.533,390,224.967,390,224.4,390C223.833,390,223.267,390,222.7,390C222.133,390,221.567,390,221,390C220.433,390,219.867,390,219.3,390C218.733,390,218.167,390,217.6,390C217.033,390,216.467,390,215.9,390C215.333,390,214.767,390,214.2,390C213.633,390,213.067,390,212.5,390C211.933,390,211.367,390,210.8,390C210.233,390,209.667,390,209.1,390C208.533,390,207.967,390,207.4,390C206.833,390,206.267,390,205.7,390C205.133,390,204.567,390,204,390C203.433,390,202.867,390,202.3,390C201.733,390,201.167,390,200.6,390C200.033,390,199.467,390,198.9,390C198.333,390,197.767,390,197.2,390C196.633,390,196.067,390,195.5,390C194.933,390,194.367,390,193.8,390C193.233,390,192.667,390,192.1,390C191.533,390,190.967,390,190.4,390C189.833,390,189.267,390,188.7,390C188.133,390,187.567,390,187,390C186.433,390,185.867,390,185.3,390C184.733,390,184.167,390,183.6,390C183.033,390,182.467,390,181.9,390C181.333,390,180.767,390,180.2,390C179.633,390,179.067,390,178.5,390C177.933,390,177.367,390,176.8,390C176.233,390,175.667,390,175.1,390C174.533,390,173.967,390,173.4,390C172.833,390,172.267,390,171.7,390C171.133,390,170.567,390,170.283,390L170,390Z" fill="#3f8aff" rx="0" ry="0" style="stroke: none; stroke-width: 0; filter: none;"/><path class="bar" d="M255,388.518L255.283,388.396C255.567,388.274,256.133,388.03,256.7,387.735C257.267,387.439,257.833,387.093,258.4,386.678C258.967,386.263,259.533,385.779,260.1,385.207C260.667,384.634,261.233,383.972,261.8,383.195C262.367,382.419,262.933,381.529,263.5,380.497C264.067,379.464,264.633,378.29,265.2,376.942C265.767,375.595,266.333,374.074,266.9,372.348C267.467,370.622,268.033,368.691,268.6,366.523C269.167,364.356,269.733,361.951,270.3,359.281C270.867,356.612,271.433,353.677,272,350.455C272.567,347.233,273.133,343.724,273.7,339.915C274.267,336.106,274.833,331.998,275.4,327.591C275.967,323.184,276.533,318.479,277.1,313.492C277.667,308.505,278.233,303.237,278.8,297.724C279.367,292.21,279.933,286.452,280.5,280.504C281.067,274.557,281.633,268.421,282.2,262.172C282.767,255.923,283.333,249.561,283.9,243.182C284.467,236.802,285.033,230.404,285.6,224.096C286.167,217.788,286.733,211.571,287.3,205.56C287.867,199.549,288.433,193.745,289,188.266C289.567,182.788,290.133,177.634,290.7,172.918C291.267,168.202,291.833,163.922,292.4,160.177C292.967,156.432,293.533,153.222,294.1,150.622C294.667,148.021,295.233,146.031,295.8,144.699C296.367,143.366,296.933,142.692,297.5,142.692C298.067,142.692,298.633,143.366,299.2,144.699C299.767,146.031,300.333,148.021,300.9,150.622C301.467,153.222,302.033,156.432,302.6,160.177C303.167,163.922,303.733,168.202,304.3,172.918C304.867,177.634,305.433,182.788,306,188.266C306.567,193.745,307.133,199.549,307.7,205.56C308.267,211.571,308.833,217.788,309.4,224.096C309.967,230.404,310.533,236.802,311.1,243.182C311.667,249.561,312.233,255.923,312.8,262.172C313.367,268.421,313.933,274.557,314.5,280.504C315.067,286.452,315.633,292.21,316.2,297.724C316.767,303.237,317.333,308.505,317.9,313.492C318.467,318.479,319.033,323.184,319.6,327.591C320.167,331.998,320.733,336.106,321.3,339.915C321.867,343.724,322.433,347.233,323,350.455C323.567,353.677,324.133,356.612,324.7,359.281C325.267,361.951,325.833,364.356,326.4,366.523C326.967,368.691,327.533,370.622,328.1,372.348C328.667,374.074,329.233,375.595,329.8,376.942C330.367,378.29,330.933,379.464,331.5,380.497C332.067,381.529,332.633,382.419,333.2,383.195C333.767,383.972,334.333,384.634,334.9,385.207C335.467,385.779,336.033,386.263,336.6,386.678C337.167,387.093,337.733,387.439,338.3,387.735C338.867,388.03,339.433,388.274,339.717,388.396L340,388.518L340,390L339.717,390C339.433,390,338.867,390,338.3,390C337.733,390,337.167,390,336.6,390C336.033,390,335.467,390,334.9,390C334.333,390,333.767,390,333.2,390C332.633,390,332.067,390,331.5,390C330.933,390,330.367,390,329.8,390C329.233,390,328.667,390,328.1,390C327.533,390,326.967,390,326.4,390C325.833,390,325.267,390,324.7,390C324.133,390,323.567,390,323,390C322.433,390,321.867,390,321.3,390C320.733,390,320.167,390,319.6,390C319.033,390,318.467,390,317.9,390C317.333,390,316.767,390,316.2,390C315.633,390,315.067,390,314.5,390C313.933,390,313.367,390,312.8,390C312.233,390,311.667,390,311.1,390C310.533,390,309.967,390,309.4,390C308.833,390,308.267,390,307.7,390C307.133,390,306.567,390,306,390C305.433,390,304.867,390,304.3,390C303.733,390,303.167,390,302.6,390C302.033,390,301.467,390,300.9,390C300.333,390,299.767,390,299.2,390C298.633,390,298.067,390,297.5,390C296.933,390,296.367,390,295.8,390C295.233,390,294.667,390,294.1,390C293.533,390,292.967,390,292.4,390C291.833,390,291.267,390,290.7,390C290.133,390,289.567,390,289,390C288.433,390,287.867,390,287.3,390C286.733,390,286.167,390,285.6,390C285.033,390,284.467,390,283.9,390C283.333,390,282.767,390,282.2,390C281.633,390,281.067,390,280.5,390C279.933,390,279.367,390,278.8,390C278.233,390,277.667,390,277.1,390C276.533,390,275.967,390,275.4,390C274.833,390,274.267,390,273.7,390C273.133,390,272.567,390,272,390C271.433,390,270.867,390,270.3,390C269.733,390,269.167,390,268.6,390C268.033,390,267.467,390,266.9,390C266.333,390,265.767,390,265.2,390C264.633,390,264.067,390,263.5,390C262.933,390,262.367,390,261.8,390C261.233,390,260.667,390,260.1,390C259.533,390,258.967,390,258.4,390C257.833,390,257.267,390,256.7,390C256.133,390,255.567,390,255.283,390L255,390Z" fill="#3f8aff" rx="0" ry="0" style="stroke: none; stroke-width: 0; filter: none;"/><path class="bar" d="M340,388.643L340.283,388.531C340.567,388.42,341.133,388.196,341.7,387.926C342.267,387.655,342.833,387.338,343.4,386.958C343.967,386.578,344.533,386.135,345.1,385.611C345.667,385.086,346.233,384.48,346.8,383.769C347.367,383.059,347.933,382.244,348.5,381.298C349.067,380.353,349.633,379.277,350.2,378.043C350.767,376.809,351.333,375.417,351.9,373.837C352.467,372.256,353.033,370.488,353.6,368.503C354.167,366.518,354.733,364.317,355.3,361.872C355.867,359.427,356.433,356.74,357,353.79C357.567,350.84,358.133,347.626,358.7,344.139C359.267,340.651,359.833,336.89,360.4,332.855C360.967,328.819,361.533,324.511,362.1,319.945C362.667,315.378,363.233,310.554,363.8,305.506C364.367,300.458,364.933,295.185,365.5,289.739C366.067,284.293,366.633,278.674,367.2,272.952C367.767,267.231,368.333,261.406,368.9,255.564C369.467,249.722,370.033,243.864,370.6,238.088C371.167,232.312,371.733,226.619,372.3,221.115C372.867,215.611,373.433,210.297,374,205.28C374.567,200.263,375.133,195.545,375.7,191.226C376.267,186.907,376.833,182.989,377.4,179.56C377.967,176.131,378.533,173.191,379.1,170.81C379.667,168.429,380.233,166.607,380.8,165.387C381.367,164.167,381.933,163.549,382.5,163.549C383.067,163.549,383.633,164.167,384.2,165.387C384.767,166.607,385.333,168.429,385.9,170.81C386.467,173.191,387.033,176.131,387.6,179.56C388.167,182.989,388.733,186.907,389.3,191.226C389.867,195.545,390.433,200.263,391,205.28C391.567,210.297,392.133,215.611,392.7,221.115C393.267,226.619,393.833,232.312,394.4,238.088C394.967,243.864,395.533,249.722,396.1,255.564C396.667,261.406,397.233,267.231,397.8,272.952C398.367,278.674,398.933,284.293,399.5,289.739C400.067,295.185,400.633,300.458,401.2,305.506C401.767,310.554,402.333,315.378,402.9,319.945C403.467,324.511,404.033,328.819,404.6,332.855C405.167,336.89,405.733,340.651,406.3,344.139C406.867,347.626,407.433,350.84,408,353.79C408.567,356.74,409.133,359.427,409.7,361.872C410.267,364.317,410.833,366.518,411.4,368.503C411.967,370.488,412.533,372.256,413.1,373.837C413.667,375.417,414.233,376.809,414.8,378.043C415.367,379.277,415.933,380.353,416.5,381.298C417.067,382.244,417.633,383.059,418.2,383.769C418.767,384.48,419.333,385.086,419.9,385.611C420.467,386.135,421.033,386.578,421.6,386.958C422.167,387.338,422.733,387.655,423.3,387.926C423.867,388.196,424.433,388.42,424.717,388.531L425,388.643L425,390L424.717,390C424.433,390,423.867,390,423.3,390C422.733,390,422.167,390,421.6,390C421.033,390,420.467,390,419.9,390C419.333,390,418.767,390,418.2,390C417.633,390,417.067,390,416.5,390C415.933,390,415.367,390,414.8,390C414.233,390,413.667,390,413.1,390C412.533,390,411.967,390,411.4,390C410.833,390,410.267,390,409.7,390C409.133,390,408.567,390,408,390C407.433,390,406.867,390,406.3,390C405.733,390,405.167,390,404.6,390C404.033,390,403.467,390,402.9,390C402.333,390,401.767,390,401.2,390C400.633,390,400.067,390,399.5,390C398.933,390,398.367,390,397.8,390C397.233,390,396.667,390,396.1,390C395.533,390,394.967,390,394.4,390C393.833,390,393.267,390,392.7,390C392.133,390,391.567,390,391,390C390.433,390,389.867,390,389.3,390C388.733,390,388.167,390,387.6,390C387.033,390,386.467,390,385.9,390C385.333,390,384.767,390,384.2,390C383.633,390,383.067,390,382.5,390C381.933,390,381.367,390,380.8,390C380.233,390,379.667,390,379.1,390C378.533,390,377.967,390,377.4,390C376.833,390,376.267,390,375.7,390C375.133,390,374.567,390,374,390C373.433,390,372.867,390,372.3,390C371.733,390,371.167,390,370.6,390C370.033,390,369.467,390,368.9,390C368.333,390,367.767,390,367.2,390C366.633,390,366.067,390,365.5,390C364.933,390,364.367,390,363.8,390C363.233,390,362.667,390,362.1,390C361.533,390,360.967,390,360.4,390C359.833,390,359.267,390,358.7,390C358.133,390,357.567,390,357,390C356.433,390,355.867,390,355.3,390C354.733,390,354.167,390,353.6,390C353.033,390,352.467,390,351.9,390C351.333,390,350.767,390,350.2,390C349.633,390,349.067,390,348.5,390C347.933,390,347.367,390,346.8,390C346.233,390,345.667,390,345.1,390C344.533,390,343.967,390,343.4,390C342.833,390,342.267,390,341.7,390C341.133,390,340.567,390,340.283,390L340,390Z" fill="#3f8aff" rx="0" ry="0" style="stroke: none; stroke-width: 0; filter: none;"/><path class="bar" d="M425,388.899L425.283,388.808C425.567,388.718,426.133,388.536,426.7,388.317C427.267,388.098,427.833,387.84,428.4,387.532C428.967,387.223,429.533,386.864,430.1,386.439C430.667,386.013,431.233,385.521,431.8,384.944C432.367,384.368,432.933,383.706,433.5,382.939C434.067,382.172,434.633,381.3,435.2,380.298C435.767,379.297,436.333,378.167,436.9,376.885C437.467,375.603,438.033,374.168,438.6,372.557C439.167,370.947,439.733,369.16,440.3,367.177C440.867,365.193,441.433,363.013,442,360.619C442.567,358.225,443.133,355.618,443.7,352.788C444.267,349.958,444.833,346.906,445.4,343.632C445.967,340.358,446.533,336.862,447.1,333.157C447.667,329.452,448.233,325.538,448.8,321.441C449.367,317.345,449.933,313.067,450.5,308.648C451.067,304.229,451.633,299.67,452.2,295.027C452.767,290.384,453.333,285.658,453.9,280.918C454.467,276.178,455.033,271.425,455.6,266.738C456.167,262.052,456.733,257.432,457.3,252.966C457.867,248.5,458.433,244.188,459,240.118C459.567,236.047,460.133,232.218,460.7,228.714C461.267,225.21,461.833,222.031,462.4,219.248C462.967,216.466,463.533,214.081,464.1,212.149C464.667,210.217,465.233,208.738,465.8,207.748C466.367,206.758,466.933,206.257,467.5,206.257C468.067,206.257,468.633,206.758,469.2,207.748C469.767,208.738,470.333,210.217,470.9,212.149C471.467,214.081,472.033,216.466,472.6,219.248C473.167,222.031,473.733,225.21,474.3,228.714C474.867,232.218,475.433,236.047,476,240.118C476.567,244.188,477.133,248.5,477.7,252.966C478.267,257.432,478.833,262.052,479.4,266.738C479.967,271.425,480.533,276.178,481.1,280.918C481.667,285.658,482.233,290.384,482.8,295.027C483.367,299.67,483.933,304.229,484.5,308.648C485.067,313.067,485.633,317.345,486.2,321.441C486.767,325.538,487.333,329.452,487.9,333.157C488.467,336.862,489.033,340.358,489.6,343.632C490.167,346.906,490.733,349.958,491.3,352.788C491.867,355.618,492.433,358.225,493,360.619C493.567,363.013,494.133,365.193,494.7,367.177C495.267,369.16,495.833,370.947,496.4,372.557C496.967,374.168,497.533,375.603,498.1,376.885C498.667,378.167,499.233,379.297,499.8,380.298C500.367,381.3,500.933,382.172,501.5,382.939C502.067,383.706,502.633,384.368,503.2,384.944C503.767,385.521,504.333,386.013,504.9,386.439C505.467,386.864,506.033,387.223,506.6,387.532C507.167,387.84,507.733,388.098,508.3,388.317C508.867,388.536,509.433,388.718,509.717,388.808L510,388.899L510,390L509.717,390C509.433,390,508.867,390,508.3,390C507.733,390,507.167,390,506.6,390C506.033,390,505.467,390,504.9,390C504.333,390,503.767,390,503.2,390C502.633,390,502.067,390,501.5,390C500.933,390,500.367,390,499.8,390C499.233,390,498.667,390,498.1,390C497.533,390,496.967,390,496.4,390C495.833,390,495.267,390,494.7,390C494.133,390,493.567,390,493,390C492.433,390,491.867,390,491.3,390C490.733,390,490.167,390,489.6,390C489.033,390,488.467,390,487.9,390C487.333,390,486.767,390,486.2,390C485.633,390,485.067,390,484.5,390C483.933,390,483.367,390,482.8,390C482.233,390,481.667,390,481.1,390C480.533,390,479.967,390,479.4,390C478.833,390,478.267,390,477.7,390C477.133,390,476.567,390,476,390C475.433,390,474.867,390,474.3,390C473.733,390,473.167,390,472.6,390C472.033,390,471.467,390,470.9,390C470.333,390,469.767,390,469.2,390C468.633,390,468.067,390,467.5,390C466.933,390,466.367,390,465.8,390C465.233,390,464.667,390,464.1,390C463.533,390,462.967,390,462.4,390C461.833,390,461.267,390,460.7,390C460.133,390,459.567,390,459,390C458.433,390,457.867,390,457.3,390C456.733,390,456.167,390,455.6,390C455.033,390,454.467,390,453.9,390C453.333,390,452.767,390,452.2,390C451.633,390,451.067,390,450.5,390C449.933,390,449.367,390,448.8,390C448.233,390,447.667,390,447.1,390C446.533,390,445.967,390,445.4,390C444.833,390,444.267,390,443.7,390C443.133,390,442.567,390,442,390C441.433,390,440.867,390,440.3,390C439.733,390,439.167,390,438.6,390C438.033,390,437.467,390,436.9,390C436.333,390,435.767,390,435.2,390C434.633,390,434.067,390,433.5,390C432.933,390,432.367,390,431.8,390C431.233,390,430.667,390,430.1,390C429.533,390,428.967,390,428.4,390C427.833,390,427.267,390,426.7,390C426.133,390,425.567,390,425.283,390L425,390Z" fill="#3f8aff" rx="0" ry="0" style="stroke: none; stroke-width: 0; filter: none;"/><text class="value-label" x="42.5" y="30.454545454545467" text-anchor="middle" style="font-family: Arial; font-weight: 400; fill: rgb(65, 65, 65); font-size: 12px;">35.6 minutes</text><text class="value-label" x="127.5" y="65.3115423901941" text-anchor="middle" style="font-family: Arial; font-weight: 400; fill: rgb(65, 65, 65); font-size: 12px;">32.1 minutes</text><text class="value-label" x="212.5" y="114.11133810010216" text-anchor="middle" style="font-family: Arial; font-weight: 400; fill: rgb(65, 65, 65); font-size: 12px;">27.2 minutes</text><text class="value-label" x="297.5" y="137.01736465781414" text-anchor="middle" style="font-family: Arial; font-weight: 400; fill: rgb(65, 65, 65); font-size: 12px;">24.9 minutes</text><text class="value-label" x="382.5" y="157.9315628192033" text-anchor="middle" style="font-family: Arial; font-weight: 400; fill: rgb(65, 65, 65); font-size: 12px;">22.8 minutes</text><text class="value-label" x="467.5" y="200.75587334014304" text-anchor="middle" style="font-family: Arial; font-weight: 400; fill: rgb(65, 65, 65); font-size: 12px;">18.5 minutes</text><text class="dimension-label" text-anchor="middle" style="font-family: Arial; font-size: 10px; font-weight: 500; fill: rgb(65, 65, 65);"><tspan x="42.5" y="400" dy="0.71em">Car</tspan></text><text class="dimension-label" text-anchor="middle" style="font-family: Arial; font-size: 10px; font-weight: 500; fill: rgb(65, 65, 65);"><tspan x="127.5" y="400" dy="0.71em">Walking</tspan></text><text class="dimension-label" text-anchor="middle" style="font-family: Arial; font-size: 10px; font-weight: 500; fill: rgb(65, 65, 65);"><tspan x="212.5" y="400" dy="0.71em">Public Transport</tspan><tspan x="212.5" y="412" dy="0.71em">(Tram/Metro)</tspan></text><text class="dimension-label" text-anchor="middle" style="font-family: Arial; font-size: 10px; font-weight: 500; fill: rgb(65, 65, 65);"><tspan x="297.5" y="400" dy="0.71em">Bicycle + Public</tspan><tspan x="297.5" y="412" dy="0.71em">Transport</tspan></text><text class="dimension-label" text-anchor="middle" style="font-family: Arial; font-size: 10px; font-weight: 500; fill: rgb(65, 65, 65);"><tspan x="382.5" y="400" dy="0.71em">Motor Scooter</tspan></text><text class="dimension-label" text-anchor="middle" style="font-family: Arial; font-size: 10px; font-weight: 500; fill: rgb(65, 65, 65);"><tspan x="467.5" y="400" dy="0.71em">Bicycle</tspan></text><g class="icon-group" transform="translate(42.5, 439.1)"/><g class="icon-group" transform="translate(127.5, 439.1)"/><g class="icon-group" transform="translate(212.5, 439.1)"/><g class="icon-group" transform="translate(297.5, 439.1)"/><g class="icon-group" transform="translate(382.5, 439.1)"/><g class="icon-group" transform="translate(467.5, 439.1)"/></g>         </g></svg>