<svg xmlns='http://www.w3.org/2000/svg' xmlns:xlink='http://www.w3.org/1999/xlink' width='481' height='413'>
        <g transform='translate(-74.75483870967744, -81.2)'>             <defs xmlns="http://www.w3.org/2000/svg" xmlns:xlink="http://www.w3.org/1999/xlink"/><g xmlns="http://www.w3.org/2000/svg" xmlns:xlink="http://www.w3.org/1999/xlink" transform="translate(60, 60)"><path class="bar" d="M 16.451612903225822 390 L 16.451612903225822 65.45454545454547 L 16.451612903225822 65.45454545454547 L 49.35483870967743 35.45454545454547 L 82.25806451612904 65.45454545454547 L 82.25806451612904 65.45454545454547 L 82.25806451612904 390 Z" fill="#3f8aff" rx="0" ry="0" style="stroke: none; stroke-width: 0; filter: none;"/><path class="bar" d="M 98.70967741935485 390 L 98.70967741935485 100.3115423901941 L 98.70967741935485 100.3115423901941 L 131.61290322580646 70.3115423901941 L 164.51612903225805 100.3115423901941 L 164.51612903225805 100.3115423901941 L 164.51612903225805 390 Z" fill="#3f8aff" rx="0" ry="0" style="stroke: none; stroke-width: 0; filter: none;"/><path class="bar" d="M 180.96774193548387 390 L 180.96774193548387 149.11133810010216 L 180.96774193548387 149.11133810010216 L 213.8709677419355 119.11133810010216 L 246.77419354838707 149.11133810010216 L 246.77419354838707 149.11133810010216 L 246.77419354838707 390 Z" fill="#3f8aff" rx="0" ry="0" style="stroke: none; stroke-width: 0; filter: none;"/><path class="bar" d="M 263.2258064516129 390 L 263.2258064516129 172.01736465781414 L 263.2258064516129 172.01736465781414 L 296.1290322580645 142.01736465781414 L 329.03225806451616 172.01736465781414 L 329.03225806451616 172.01736465781414 L 329.03225806451616 390 Z" fill="#3f8aff" rx="0" ry="0" style="stroke: none; stroke-width: 0; filter: none;"/><path class="bar" d="M 345.48387096774195 390 L 345.48387096774195 192.9315628192033 L 345.48387096774195 192.9315628192033 L 378.38709677419354 162.9315628192033 L 411.2903225806452 192.9315628192033 L 411.2903225806452 192.9315628192033 L 411.2903225806452 390 Z" fill="#3f8aff" rx="0" ry="0" style="stroke: none; stroke-width: 0; filter: none;"/><path class="bar" d="M 427.741935483871 390 L 427.741935483871 235.75587334014304 L 427.741935483871 235.75587334014304 L 460.64516129032256 205.75587334014304 L 493.5483870967742 235.75587334014304 L 493.5483870967742 235.75587334014304 L 493.5483870967742 390 Z" fill="#3f8aff" rx="0" ry="0" style="stroke: none; stroke-width: 0; filter: none;"/><text class="value-label" x="49.35483870967743" y="30.454545454545467" text-anchor="middle" style="font-family: Arial; font-weight: 400; fill: rgb(65, 65, 65); font-size: 12px;">35.6 minutes</text><text class="value-label" x="131.61290322580646" y="65.3115423901941" text-anchor="middle" style="font-family: Arial; font-weight: 400; fill: rgb(65, 65, 65); font-size: 12px;">32.1 minutes</text><text class="value-label" x="213.8709677419355" y="114.11133810010216" text-anchor="middle" style="font-family: Arial; font-weight: 400; fill: rgb(65, 65, 65); font-size: 12px;">27.2 minutes</text><text class="value-label" x="296.1290322580645" y="137.01736465781414" text-anchor="middle" style="font-family: Arial; font-weight: 400; fill: rgb(65, 65, 65); font-size: 12px;">24.9 minutes</text><text class="value-label" x="378.38709677419354" y="157.9315628192033" text-anchor="middle" style="font-family: Arial; font-weight: 400; fill: rgb(65, 65, 65); font-size: 12px;">22.8 minutes</text><text class="value-label" x="460.64516129032256" y="200.75587334014304" text-anchor="middle" style="font-family: Arial; font-weight: 400; fill: rgb(65, 65, 65); font-size: 12px;">18.5 minutes</text><text class="dimension-label" text-anchor="middle" style="font-family: Arial; font-size: 10px; font-weight: 500; fill: rgb(65, 65, 65);"><tspan x="49.35483870967743" y="400" dy="0.71em">Car</tspan></text><text class="dimension-label" text-anchor="middle" style="font-family: Arial; font-size: 10px; font-weight: 500; fill: rgb(65, 65, 65);"><tspan x="131.61290322580646" y="400" dy="0.71em">Walking</tspan></text><text class="dimension-label" text-anchor="middle" style="font-family: Arial; font-size: 10px; font-weight: 500; fill: rgb(65, 65, 65);"><tspan x="213.8709677419355" y="400" dy="0.71em">Public</tspan><tspan x="213.8709677419355" y="412" dy="0.71em">Transport</tspan><tspan x="213.8709677419355" y="424" dy="0.71em">(Tram/Metro)</tspan></text><text class="dimension-label" text-anchor="middle" style="font-family: Arial; font-size: 10px; font-weight: 500; fill: rgb(65, 65, 65);"><tspan x="296.1290322580645" y="400" dy="0.71em">Bicycle +</tspan><tspan x="296.1290322580645" y="412" dy="0.71em">Public</tspan><tspan x="296.1290322580645" y="424" dy="0.71em">Transport</tspan></text><text class="dimension-label" text-anchor="middle" style="font-family: Arial; font-size: 10px; font-weight: 500; fill: rgb(65, 65, 65);"><tspan x="378.38709677419354" y="400" dy="0.71em">Motor Scooter</tspan></text><text class="dimension-label" text-anchor="middle" style="font-family: Arial; font-size: 10px; font-weight: 500; fill: rgb(65, 65, 65);"><tspan x="460.64516129032256" y="400" dy="0.71em">Bicycle</tspan></text><g class="icon-group" transform="translate(49.35483870967743, 451.1)"/><g class="icon-group" transform="translate(131.61290322580646, 451.1)"/><g class="icon-group" transform="translate(213.8709677419355, 451.1)"/><g class="icon-group" transform="translate(296.1290322580645, 451.1)"/><g class="icon-group" transform="translate(378.38709677419354, 451.1)"/><g class="icon-group" transform="translate(460.64516129032256, 451.1)"/></g>         </g></svg>